<?xml version="1.0" encoding="UTF-8" standalone="no"?><!DOCTYPE svg PUBLIC "-//W3C//DTD SVG 1.1//EN" "http://www.w3.org/Graphics/SVG/1.1/DTD/svg11.dtd"><svg width="100%" height="100%" viewBox="0 0 24 24" version="1.1" xmlns="http://www.w3.org/2000/svg" xmlns:xlink="http://www.w3.org/1999/xlink" xml:space="preserve" xmlns:serif="http://www.serif.com/" style="fill-rule:evenodd;clip-rule:evenodd;stroke-linejoin:round;stroke-miterlimit:2;"><path d="M16.5,12c1.371,0 2.5,-1.129 2.5,-2.5c0,-1.371 -1.129,-2.5 -2.5,-2.5c-1.371,0 -2.5,1.129 -2.5,2.5c0,1.371 1.129,2.5 2.5,2.5m-7.5,-1c1.646,0 3,-1.354 3,-3c0,-1.646 -1.354,-3 -3,-3c-1.646,0 -3,1.354 -3,3c0,1.646 1.354,3 3,3m7.5,3c-1.83,0 -5.5,0.92 -5.5,2.75l0,2.25l11,0l0,-2.25c0,-1.83 -3.67,-2.75 -5.5,-2.75m-7.5,-1c-2.33,0 -7,1.17 -7,3.5l0,2.5l7,0l0,-2.25c0,-0.85 0.33,-2.34 2.37,-3.47c-0.87,-0.18 -1.71,-0.28 -2.37,-0.28Z" style="fill:#fcf7f8;fill-rule:nonzero;"/></svg>