<svg viewBox="0 0 24 24" xmlns="http://www.w3.org/2000/svg" xml:space="preserve" style="fill-rule:evenodd;clip-rule:evenodd;stroke-linejoin:round;stroke-miterlimit:2">
  <path d="M16.5 12c1.371 0 2.5-1.129 2.5-2.5S17.871 7 16.5 7 14 8.129 14 9.5s1.129 2.5 2.5 2.5M9 11c1.646 0 3-1.354 3-3s-1.354-3-3-3-3 1.354-3 3 1.354 3 3 3m7.5 3c-1.83 0-5.5.92-5.5 2.75V19h11v-2.25c0-1.83-3.67-2.75-5.5-2.75M9 13c-2.33 0-7 1.17-7 3.5V19h7v-2.25c0-.85.33-2.34 2.37-3.47C10.5 13.1 9.66 13 9 13Z" style="fill:#fcf7f8;fill-rule:nonzero"/>
</svg>
