<?xml version="1.0" encoding="UTF-8" standalone="no"?><!DOCTYPE svg PUBLIC "-//W3C//DTD SVG 1.1//EN" "http://www.w3.org/Graphics/SVG/1.1/DTD/svg11.dtd"><svg width="100%" height="100%" viewBox="0 0 24 24" version="1.1" xmlns="http://www.w3.org/2000/svg" xmlns:xlink="http://www.w3.org/1999/xlink" xml:space="preserve" xmlns:serif="http://www.serif.com/" style="fill-rule:evenodd;clip-rule:evenodd;stroke-linejoin:round;stroke-miterlimit:2;"><path d="M19,16l3,3l-2,1l-1,2l-3,-3l0,-1.94l-4,-4l-4,4l0,1.94l-3,3l-1,-2l-2,-1l3,-3l1.94,0l4,-4l-5.97,-5.97l-0.97,0.97l-2,-5l5,2l-0.97,0.97l5.97,5.97l5.97,-5.97l-0.97,-0.97l5,-2l-2,5l-0.97,-0.97l-5.97,5.97l4,4l1.94,0Z" style="fill:#fcf7f8;fill-rule:nonzero;"/></svg>