<?xml version="1.0" encoding="UTF-8" standalone="no"?><!DOCTYPE svg PUBLIC "-//W3C//DTD SVG 1.1//EN" "http://www.w3.org/Graphics/SVG/1.1/DTD/svg11.dtd"><svg width="100%" height="100%" viewBox="0 0 24 24" version="1.1" xmlns="http://www.w3.org/2000/svg" xmlns:xlink="http://www.w3.org/1999/xlink" xml:space="preserve" xmlns:serif="http://www.serif.com/" style="fill-rule:evenodd;clip-rule:evenodd;stroke-linejoin:round;stroke-miterlimit:2;"><path d="M12,11c0.549,0 1,0.451 1,1c0,0.549 -0.451,1 -1,1c-0.549,0 -1,-0.451 -1,-1c0,-0.549 0.451,-1 1,-1m-7.78,-6.78c1.43,-1.43 4.53,-0.79 7.78,1.34c3.25,-2.13 6.35,-2.77 7.78,-1.34c1.43,1.43 0.79,4.53 -1.34,7.78c2.13,3.25 2.77,6.35 1.34,7.78c-1.43,1.43 -4.53,0.79 -7.78,-1.34c-3.25,2.13 -6.35,2.77 -7.78,1.34c-1.43,-1.43 -0.79,-4.53 1.34,-7.78c-2.13,-3.25 -2.77,-6.35 -1.34,-7.78m11.32,4.24c0.61,0.62 1.17,1.25 1.69,1.88c1.38,-2.13 1.88,-3.96 1.13,-4.7c-0.74,-0.75 -2.57,-0.25 -4.7,1.13c0.63,0.52 1.26,1.08 1.88,1.69m-7.08,7.08c-0.61,-0.62 -1.17,-1.25 -1.69,-1.88c-1.38,2.13 -1.88,3.96 -1.13,4.7c0.74,0.75 2.57,0.25 4.7,-1.13c-0.63,-0.52 -1.26,-1.08 -1.88,-1.69m-2.82,-9.9c-0.75,0.74 -0.25,2.57 1.13,4.7c0.52,-0.63 1.08,-1.26 1.69,-1.88c0.62,-0.61 1.25,-1.17 1.88,-1.69c-2.13,-1.38 -3.96,-1.88 -4.7,-1.13m4.24,8.48c0.7,0.7 1.42,1.34 2.12,1.91c0.7,-0.57 1.42,-1.21 2.12,-1.91c0.7,-0.7 1.34,-1.42 1.91,-2.12c-0.57,-0.7 -1.21,-1.42 -1.91,-2.12c-0.7,-0.7 -1.42,-1.34 -2.12,-1.91c-0.7,0.57 -1.42,1.21 -2.12,1.91c-0.7,0.7 -1.34,1.42 -1.91,2.12c0.57,0.7 1.21,1.42 1.91,2.12m8.48,4.24c0.75,-0.74 0.25,-2.57 -1.13,-4.7c-0.52,0.63 -1.08,1.26 -1.69,1.88c-0.62,0.61 -1.25,1.17 -1.88,1.69c2.13,1.38 3.96,1.88 4.7,1.13Z" style="fill:#fcf7f8;fill-rule:nonzero;"/></svg>