<?xml version="1.0" encoding="UTF-8" standalone="no"?><!DOCTYPE svg PUBLIC "-//W3C//DTD SVG 1.1//EN" "http://www.w3.org/Graphics/SVG/1.1/DTD/svg11.dtd"><svg width="100%" height="100%" viewBox="0 0 2001 2000" version="1.1" xmlns="http://www.w3.org/2000/svg" xmlns:xlink="http://www.w3.org/1999/xlink" xml:space="preserve" xmlns:serif="http://www.serif.com/" style="fill-rule:evenodd;clip-rule:evenodd;stroke-linejoin:round;stroke-miterlimit:2;"><path d="M386.525,1554.45l-0,-122.795c-0,0 306.987,-122.795 613.975,-122.795c306.988,0 613.975,122.795 613.975,122.795l0,122.795l-1227.95,0m570.997,-792.028c-73.677,-239.45 -448.202,-184.192 -448.202,-184.192c-0,-0 12.279,478.9 362.245,405.223c-24.559,-178.053 -116.655,-227.171 -116.655,-227.171c171.913,0 184.192,208.752 184.192,208.752l0,282.429l122.796,-0l-0,-257.87c-0,0 -0,-239.45 184.192,-300.848c0,0 -122.795,184.193 -122.795,306.988c429.783,42.978 429.783,-546.438 429.783,-546.438c-0,-0 -546.438,-61.398 -595.556,313.127Z" style="fill:#4a825a;fill-rule:nonzero;"/></svg>