<svg width="960" height="540" xmlns="http://www.w3.org/2000/svg">
  <path fill="#1b1b1e" d="M0 0h960v540H0z"/>
  <path d="m0 215 16-2c16-2 48-6 80 0s64 22 96 40.5 64 39.5 96 28.3c32-11.1 64-54.5 96-59.3 32-4.8 64 28.8 96 49.8 32 21 64 29.4 96 13.2s64-56.8 96-61.5c32-4.7 64 26.7 96 49.2 32 22.5 64 36.1 96 36 32-.2 64-14.2 80-21.2l16-7V0H0Z" fill="#212125"/>
  <path d="m0 274 16-6.7c16-6.6 48-20 80-41.5s64-51.1 96-47.8c32 3.3 64 39.7 96 58.3 32 18.7 64 19.7 96 7 32-12.6 64-39 96-47.5s64 .9 96 9.5c32 8.7 64 16.7 96 3.5 32-13.1 64-47.5 96-60.8 32-13.3 64-5.7 96 1.3s64 13.4 80 16.5l16 3.2V0H0Z" fill="#4a3f4d"/>
  <path d="m0 125 16-1.3c16-1.4 48-4 80-2.7 32 1.3 64 6.7 96 21.3 32 14.7 64 38.7 96 40 32 1.4 64-20 96-24.8 32-4.8 64 6.8 96 2.2 32-4.7 64-25.7 96-37.4 32-11.6 64-14 96 .7s64 46.3 96 64c32 17.7 64 21.3 96 16 32-5.3 64-19.7 80-26.8l16-7.2V0H0Z" fill="#815c6e"/>
  <path d="m0 89 16-.8c16-.9 48-2.5 80 .1 32 2.7 64 9.7 96 16.9 32 7.1 64 14.5 96 8s64-26.9 96-20.7c32 6.2 64 38.8 96 52.5 32 13.7 64 8.3 96-1.8 32-10.2 64-25.2 96-24.2s64 18 96 28 64 13 96 1.2c32-11.9 64-38.5 80-51.9L960 83V0H0Z" fill="#bc7c82"/>
  <path d="m0 21 16-.3c16-.4 48-1 80 12.1C128 46 160 73 192 79.5s64-7.5 96-18.3c32-10.9 64-18.5 96-12s64 27.1 96 31.6 64-7.1 96-15C608 58 640 54 672 61c32 7 64 25 96 24.2 32-.9 64-20.5 96-31.9C896 42 928 39 944 37.5l16-1.5V0H0Z" fill="#efa48b"/>
</svg>
