<?xml version="1.0" encoding="UTF-8" standalone="no"?><!DOCTYPE svg PUBLIC "-//W3C//DTD SVG 1.1//EN" "http://www.w3.org/Graphics/SVG/1.1/DTD/svg11.dtd"><svg width="100%" height="100%" viewBox="0 0 24 24" version="1.1" xmlns="http://www.w3.org/2000/svg" xmlns:xlink="http://www.w3.org/1999/xlink" xml:space="preserve" xmlns:serif="http://www.serif.com/" style="fill-rule:evenodd;clip-rule:evenodd;stroke-linejoin:round;stroke-miterlimit:2;"><path d="M4,4l16,0c1.097,0 2,0.903 2,2l0,12c0,1.097 -0.903,2 -2,2l-16,0c-1.097,0 -2,-0.903 -2,-2l0,-12c-0,-1.097 0.903,-2 2,-2m0,2l0,12l7,0l0,-12l-7,0m16,12l0,-12l-1.24,0c0.24,0.54 0.19,1.07 0.19,1.13c-0.07,0.67 -0.54,1.37 -0.71,1.62l-2.33,2.55l3.32,-0.02l0.01,1.22l-5.2,-0.03l-0.04,-1c-0,-0 3.05,-3.23 3.2,-3.52c0.14,-0.28 0.71,-1.95 -0.7,-1.95c-1.23,0.05 -1.09,1.3 -1.09,1.3l-1.54,0.01c-0,-0 0.01,-0.66 0.38,-1.31l-1.25,-0l-0,12l2.58,0l-0.01,-0.86l0.97,-0.01c-0,0 0.91,-0.16 0.92,-1.05c0.04,-1 -0.81,-1 -0.96,-1c-0.13,0 -1.07,0.05 -1.07,0.87l-1.52,0c-0,0 0.04,-2.06 2.59,-2.06c2.6,0 2.46,2.02 2.46,2.02c-0,0 0.04,1.25 -1.11,1.72l0.52,0.37l1.63,0m-11.08,-2l-1.5,0l-0,-5.8l-1.8,0.56l-0,-1.23l3.14,-1.12l0.16,0l-0,7.59Z" style="fill:#fcf7f8;fill-rule:nonzero;"/></svg>