<svg xmlns="http://www.w3.org/2000/svg" width="24" height="24" fill="#6CD4FF">
  <path d="M19.78 3h-8.56C10.55 3 10 3.55 10 4.22V8h6v6h3.78c.67 0 1.22-.55 1.22-1.22V4.22C21 3.55 20.45 3 19.78 3m-7.34 3.67c-.68 0-1.23-.55-1.23-1.23 0-.68.55-1.23 1.23-1.23a1.23 1.23 0 0 1 1.23 1.23c0 .68-.55 1.23-1.23 1.23m6.12 6.11c-.68.01-1.23-.54-1.24-1.22-.01-.68.54-1.23 1.22-1.24.68-.01 1.23.54 1.24 1.24-.01.67-.55 1.21-1.22 1.22m0-6.11c-.68.01-1.23-.54-1.24-1.22-.01-.68.54-1.23 1.22-1.24.68-.01 1.23.54 1.24 1.23 0 .68-.54 1.22-1.22 1.23M4.22 10h8.56A1.22 1.22 0 0 1 14 11.22v8.56c0 .67-.55 1.22-1.22 1.22H4.22C3.55 21 3 20.45 3 19.78v-8.56c0-.67.55-1.22 1.22-1.22m4.28 4.28c-.67 0-1.22.55-1.22 1.22 0 .67.55 1.22 1.22 1.22.67 0 1.22-.55 1.22-1.22a1.22 1.22 0 0 0-1.22-1.22m-3.06-3.06c-.67 0-1.22.55-1.22 1.22a1.22 1.22 0 0 0 1.22 1.22c.67 0 1.22-.55 1.22-1.22 0-.67-.55-1.22-1.22-1.22m6.11 6.11c-.67 0-1.22.55-1.22 1.22 0 .67.55 1.22 1.22 1.22a1.22 1.22 0 0 0 1.22-1.22c0-.67-.54-1.21-1.21-1.22h-.01Z"/>
</svg>
