<?xml version="1.0" encoding="UTF-8" standalone="no"?><!DOCTYPE svg PUBLIC "-//W3C//DTD SVG 1.1//EN" "http://www.w3.org/Graphics/SVG/1.1/DTD/svg11.dtd"><svg width="100%" height="100%" viewBox="0 0 24 24" version="1.1" xmlns="http://www.w3.org/2000/svg" xmlns:xlink="http://www.w3.org/1999/xlink" xml:space="preserve" xmlns:serif="http://www.serif.com/" style="fill-rule:evenodd;clip-rule:evenodd;stroke-linejoin:round;stroke-miterlimit:2;"><path d="M17.9,17.39c-0.26,-0.8 -1.01,-1.39 -1.9,-1.39l-1,0l-0,-3c-0,-0.549 -0.451,-1 -1,-1l-6,0l-0,-2l2,0c0.549,0 1,-0.451 1,-1l-0,-2l2,0c1.097,0 2,-0.903 2,-2l-0,-0.41c2.93,1.18 5,4.05 5,7.41c-0,2.08 -0.8,3.97 -2.1,5.39m-6.9,2.54c-3.95,-0.49 -7,-3.85 -7,-7.93c-0,-0.62 0.08,-1.22 0.21,-1.79l4.79,4.79l-0,1c-0,1.097 0.903,2 2,2m1,-16c-5.486,0 -10,4.514 -10,10c-0,5.486 4.514,10 10,10c5.486,0 10,-4.514 10,-10c0,-5.486 -4.514,-10 -10,-10Z" style="fill:#fcf7f8;fill-rule:nonzero;"/></svg>