<?xml version="1.0" encoding="UTF-8" standalone="no"?><!DOCTYPE svg PUBLIC "-//W3C//DTD SVG 1.1//EN" "http://www.w3.org/Graphics/SVG/1.1/DTD/svg11.dtd"><svg width="100%" height="100%" viewBox="0 0 24 24" version="1.1" xmlns="http://www.w3.org/2000/svg" xmlns:xlink="http://www.w3.org/1999/xlink" xml:space="preserve" xmlns:serif="http://www.serif.com/" style="fill-rule:evenodd;clip-rule:evenodd;stroke-linejoin:round;stroke-miterlimit:2;"><path d="M11.83,9l3.17,3.16l0,-0.16c0,-1.646 -1.354,-3 -3,-3l-0.17,0m-4.3,0.8l1.55,1.55c-0.05,0.21 -0.08,0.42 -0.08,0.65c0,1.646 1.354,3 3,3c0.22,-0 0.44,-0.03 0.65,-0.08l1.55,1.55c-0.67,0.33 -1.41,0.53 -2.2,0.53c-2.743,-0 -5,-2.257 -5,-5c0,-0.79 0.2,-1.53 0.53,-2.2m-5.53,-5.53l2.73,2.73c-1.65,1.3 -2.95,3 -3.73,5c1.73,4.39 6,7.5 11,7.5c1.55,-0 3.03,-0.3 4.38,-0.84l0.43,0.42l2.92,2.92l1.27,-1.27l-17.73,-17.73m8.73,4c2.743,-0 5,2.257 5,5c0,0.64 -0.13,1.26 -0.36,1.82l2.93,2.93c1.5,-1.25 2.7,-2.89 3.43,-4.75c-1.73,-4.39 -6,-7.5 -11,-7.5c-1.4,-0 -2.74,0.25 -4,0.7l2.17,2.15c0.57,-0.22 1.18,-0.35 1.83,-0.35Z" style="fill:#fcf7f8;fill-rule:nonzero;"/></svg>