<?xml version="1.0" encoding="UTF-8" standalone="no"?><!DOCTYPE svg PUBLIC "-//W3C//DTD SVG 1.1//EN" "http://www.w3.org/Graphics/SVG/1.1/DTD/svg11.dtd"><svg width="100%" height="100%" viewBox="0 0 24 24" version="1.1" xmlns="http://www.w3.org/2000/svg" xmlns:xlink="http://www.w3.org/1999/xlink" xml:space="preserve" xmlns:serif="http://www.serif.com/" style="fill-rule:evenodd;clip-rule:evenodd;stroke-linejoin:round;stroke-miterlimit:2;"><path d="M2.39,1.73l-1.28,1.27l8.39,8.37l0.47,0.63l0.03,-0l0,5.87c-0.04,0.29 0.06,0.6 0.29,0.83l2.01,2.01c0.39,0.39 1.02,0.39 1.41,-0c0.23,-0.21 0.33,-0.53 0.29,-0.83l0,-3.99l6.84,6.84l1.27,-1.27l-17.96,-17.96l-1.76,-1.77m3.82,1.27l8.33,8.34l5.25,-6.72c0.34,-0.43 0.26,-1.06 -0.17,-1.4c-0.19,-0.14 -0.4,-0.22 -0.62,-0.22l-12.79,-0Z" style="fill:#fcf7f8;fill-rule:nonzero;"/></svg>