<?xml version="1.0" encoding="UTF-8" standalone="no"?><!DOCTYPE svg PUBLIC "-//W3C//DTD SVG 1.1//EN" "http://www.w3.org/Graphics/SVG/1.1/DTD/svg11.dtd"><svg width="100%" height="100%" viewBox="0 0 24 24" version="1.1" xmlns="http://www.w3.org/2000/svg" xmlns:xlink="http://www.w3.org/1999/xlink" xml:space="preserve" xmlns:serif="http://www.serif.com/" style="fill-rule:evenodd;clip-rule:evenodd;stroke-linejoin:round;stroke-miterlimit:2;"><path d="M17.66,11.2c-0.23,-0.3 -0.51,-0.56 -0.77,-0.82c-0.67,-0.6 -1.43,-1.03 -2.07,-1.66c-1.49,-1.46 -1.82,-3.87 -0.87,-5.72c-0.95,0.23 -1.78,0.75 -2.49,1.32c-2.59,2.08 -3.61,5.75 -2.39,8.9c0.04,0.1 0.08,0.2 0.08,0.33c0,0.22 -0.15,0.42 -0.35,0.5c-0.23,0.1 -0.47,0.04 -0.66,-0.12c-0.06,-0.05 -0.1,-0.1 -0.14,-0.17c-1.13,-1.43 -1.31,-3.48 -0.55,-5.12c-1.67,1.36 -2.58,3.66 -2.45,5.83c0.06,0.5 0.12,1 0.29,1.5c0.14,0.6 0.41,1.2 0.71,1.73c1.08,1.73 2.95,2.97 4.96,3.22c2.14,0.27 4.43,-0.12 6.07,-1.6c1.83,-1.66 2.47,-4.32 1.53,-6.6l-0.13,-0.26c-0.21,-0.46 -0.77,-1.26 -0.77,-1.26m-3.16,6.3c-0.28,0.24 -0.74,0.5 -1.1,0.6c-1.12,0.4 -2.24,-0.16 -2.9,-0.82c1.19,-0.28 1.9,-1.16 2.11,-2.05c0.17,-0.8 -0.15,-1.46 -0.28,-2.23c-0.12,-0.74 -0.1,-1.37 0.17,-2.06c0.19,0.38 0.39,0.76 0.63,1.06c0.77,1 1.98,1.44 2.24,2.8c0.04,0.14 0.06,0.28 0.06,0.43c0.03,0.82 -0.33,1.72 -0.93,2.27Z" style="fill:#fcf7f8;fill-rule:nonzero;"/></svg>