<?xml version="1.0" encoding="UTF-8" standalone="no"?><!DOCTYPE svg PUBLIC "-//W3C//DTD SVG 1.1//EN" "http://www.w3.org/Graphics/SVG/1.1/DTD/svg11.dtd"><svg width="100%" height="100%" viewBox="0 0 24 24" version="1.1" xmlns="http://www.w3.org/2000/svg" xmlns:xlink="http://www.w3.org/1999/xlink" xml:space="preserve" xmlns:serif="http://www.serif.com/" style="fill-rule:evenodd;clip-rule:evenodd;stroke-linejoin:round;stroke-miterlimit:2;"><path d="M5.005,7c-1.097,0 -2,0.903 -2,2l-0,6c-0,1.097 0.903,2 2,2l2,0c1.097,0 2,-0.903 2,-2l-0,-4l-2,0l-0,4l-2,0l-0,-6l4,0l-0,-2l-4,0Zm7.99,0c-1.097,0 -2,0.903 -2,2l0,8l2,0l0,-8l2,0l0,7l2,0l0,-7l2,0l0,8l2,0l0,-8c0,-1.097 -0.903,-2 -2,-2l-6,0Z" style="fill:#e2c044;fill-rule:nonzero;"/></svg>