<?xml version="1.0" encoding="UTF-8" standalone="no"?><!DOCTYPE svg PUBLIC "-//W3C//DTD SVG 1.1//EN" "http://www.w3.org/Graphics/SVG/1.1/DTD/svg11.dtd"><svg width="100%" height="100%" viewBox="0 0 24 24" version="1.1" xmlns="http://www.w3.org/2000/svg" xmlns:xlink="http://www.w3.org/1999/xlink" xml:space="preserve" xmlns:serif="http://www.serif.com/" style="fill-rule:evenodd;clip-rule:evenodd;stroke-linejoin:round;stroke-miterlimit:2;"><path d="M16.06,13.09l5.63,5.59l-3.32,3.28l-5.59,-5.59l0,-0.92l2.36,-2.36l0.92,-0m0.91,-2.53l-0.97,-0.96l-4.79,4.8l0,1.97l-5.63,5.63l-3.28,-3.32l5.59,-5.59l1.97,0l0.78,-0.78l-3.84,-3.85l-1.3,0l-2.81,-2.84l2.62,-2.62l2.8,2.8l0,1.31l3.89,3.84l2.66,-2.66l-0.96,-1.01l1.3,-1.31l-2.66,-0l-0.65,-0.65l3.31,-3.32l0.66,0.66l0,2.66l1.31,-1.32l3.28,3.28c1.09,1.1 1.09,2.89 0,3.98l-1.97,-2.01l-1.31,1.31Z" style="fill:#fcf7f8;fill-rule:nonzero;"/></svg>