<?xml version="1.0" encoding="UTF-8" standalone="no"?><!DOCTYPE svg PUBLIC "-//W3C//DTD SVG 1.1//EN" "http://www.w3.org/Graphics/SVG/1.1/DTD/svg11.dtd"><svg width="100%" height="100%" viewBox="0 0 24 24" version="1.1" xmlns="http://www.w3.org/2000/svg" xmlns:xlink="http://www.w3.org/1999/xlink" xml:space="preserve" xmlns:serif="http://www.serif.com/" style="fill-rule:evenodd;clip-rule:evenodd;stroke-linejoin:round;stroke-miterlimit:2;"><path d="M5.986,18.632c-1.9,-1.66 -2.55,-4.3 -1.72,-6.63l2.13,-5.93c0.22,-0.61 1.05,-0.69 1.38,-0.13l0.31,0.55c0.24,0.39 0.29,0.87 0.14,1.3l-0.98,2.74l0.43,0.38l5.96,-6.75c0.35,-0.4 0.95,-0.44 1.36,-0.09c0.39,0.35 0.43,0.96 0.09,1.35l-4.45,5.03l0.58,0.51l5.45,-6.18c0.35,-0.4 0.96,-0.44 1.35,-0.09c0.4,0.35 0.44,0.97 0.07,1.36l-5.44,6.18l0.58,0.51l4.69,-5.32c0.35,-0.4 0.96,-0.44 1.35,-0.09c0.39,0.35 0.44,0.96 0.09,1.33l-4.69,5.34l0.57,0.51l3.17,-3.59c0.35,-0.4 0.96,-0.44 1.36,-0.09c0.4,0.35 0.43,0.96 0.08,1.33l-5.2,5.92c-2.24,2.55 -6.12,2.79 -8.66,0.55" style="fill:#fcf7f8;fill-rule:nonzero;"/></svg>