<svg viewBox="0 0 24 24" xmlns="http://www.w3.org/2000/svg" xml:space="preserve" style="fill-rule:evenodd;clip-rule:evenodd;stroke-linejoin:round;stroke-miterlimit:2">
  <path d="M7.9 21.47c-1.9-1.66-2.55-4.3-1.72-6.63l2.13-5.93c.22-.61 1.05-.69 1.38-.13l.31.55c.24.39.29.87.14 1.3l-.98 2.74.43.38L15.55 7c.35-.4.95-.44 1.36-.09.39.35.43.96.09 1.35l-4.45 5.03.58.51 5.45-6.18c.35-.4.96-.44 1.35-.09.4.35.44.97.07 1.36l-5.44 6.18.58.51 4.69-5.32c.35-.4.96-.44 1.35-.09.39.35.44.96.09 1.33l-4.69 5.34.57.51 3.17-3.59c.35-.4.96-.44 1.36-.09.4.35.43.96.08 1.33l-5.2 5.92c-2.24 2.55-6.12 2.79-8.66.55m3.69-12.25L14.43 6c.24-.27.54-.5.87-.63l.38-.78c.24-.47.04-1.05-.44-1.28-.47-.23-1.05-.03-1.28.44l-2.51 5.14c.05.11.11.22.14.33M11 8v.05l2.78-5.67c.22-.48.03-1.05-.45-1.28-.47-.235-1.05-.04-1.28.44L9.41 6.95c.65.11 1.22.48 1.59 1.05m-6.23 6.33L6.9 8.4c.27-.75.9-1.26 1.65-1.43l2.14-4.39c.23-.48.03-1.05-.44-1.28-.48-.23-1.05-.04-1.28.44L5 9.84l-.5-.25.21-2.91c.04-.45-.14-.9-.46-1.22L3.79 5c-.47-.43-1.24-.14-1.29.5L2 11.79c-.13 2.04.77 3.99 2.35 5.21-.02-.88.11-1.79.42-2.67Z" style="fill:#fcf7f8;fill-rule:nonzero"/>
</svg>
