<svg viewBox="0 0 24 24" xmlns="http://www.w3.org/2000/svg" xml:space="preserve" style="fill-rule:evenodd;clip-rule:evenodd;stroke-linejoin:round;stroke-miterlimit:2">
  <path d="M5.986 18.632c-1.9-1.66-2.55-4.3-1.72-6.63l2.13-5.93c.22-.61 1.05-.69 1.38-.13l.31.55c.24.39.29.87.14 1.3l-.98 2.74.43.38 5.96-6.75c.35-.4.95-.44 1.36-.09.39.35.43.96.09 1.35l-4.45 5.03.58.51 5.45-6.18c.35-.4.96-.44 1.35-.09.4.35.44.97.07 1.36l-5.44 6.18.58.51 4.69-5.32c.35-.4.96-.44 1.35-.09.39.35.44.96.09 1.33l-4.69 5.34.57.51 3.17-3.59c.35-.4.96-.44 1.36-.09.4.35.43.96.08 1.33l-5.2 5.92c-2.24 2.55-6.12 2.79-8.66.55" style="fill:#fcf7f8;fill-rule:nonzero"/>
</svg>
