<?xml version="1.0" encoding="UTF-8" standalone="no"?><!DOCTYPE svg PUBLIC "-//W3C//DTD SVG 1.1//EN" "http://www.w3.org/Graphics/SVG/1.1/DTD/svg11.dtd"><svg width="100%" height="100%" viewBox="0 0 24 24" version="1.1" xmlns="http://www.w3.org/2000/svg" xmlns:xlink="http://www.w3.org/1999/xlink" xml:space="preserve" xmlns:serif="http://www.serif.com/" style="fill-rule:evenodd;clip-rule:evenodd;stroke-linejoin:round;stroke-miterlimit:2;"><path d="M13.5,4c-0.823,0 -1.5,0.677 -1.5,1.5c0,0.823 0.677,1.5 1.5,1.5c0.823,0 1.5,-0.677 1.5,-1.5c0,-0.823 -0.677,-1.5 -1.5,-1.5m-0.36,4.77c-1.19,0.1 -4.44,2.69 -4.44,2.69c-0.2,0.15 -0.14,0.14 0.02,0.42c0.16,0.27 0.14,0.29 0.33,0.16c0.2,-0.13 0.53,-0.34 1.08,-0.68c2.12,-1.36 0.34,1.78 -0.57,7.07c-0.36,2.62 2,1.27 2.61,0.87c0.6,-0.39 2.21,-1.5 2.37,-1.61c0.22,-0.15 0.06,-0.27 -0.11,-0.52c-0.12,-0.17 -0.24,-0.05 -0.24,-0.05c-0.65,0.43 -1.84,1.33 -2,0.76c-0.19,-0.57 1.03,-4.48 1.7,-7.17c0.11,-0.64 0.41,-2.04 -0.75,-1.94Z" style="fill:#fcf7f8;fill-rule:nonzero;"/></svg>