<?xml version="1.0" encoding="UTF-8" standalone="no"?><!DOCTYPE svg PUBLIC "-//W3C//DTD SVG 1.1//EN" "http://www.w3.org/Graphics/SVG/1.1/DTD/svg11.dtd"><svg width="100%" height="100%" viewBox="0 0 24 24" version="1.1" xmlns="http://www.w3.org/2000/svg" xmlns:xlink="http://www.w3.org/1999/xlink" xml:space="preserve" xmlns:serif="http://www.serif.com/" style="fill-rule:evenodd;clip-rule:evenodd;stroke-linejoin:round;stroke-miterlimit:2;"><path d="M19.5,1c-1.371,0 -2.5,1.129 -2.5,2.5l0,0.5c-0.549,0 -1,0.451 -1,1l0,4c0,0.549 0.451,1 1,1l5,0c0.549,0 1,-0.451 1,-1l0,-4c0,-0.549 -0.451,-1 -1,-1l0,-0.5c0,-1.371 -1.129,-2.5 -2.5,-2.5m0,1c0.823,0 1.5,0.677 1.5,1.5l0,0.5l-3,0l0,-0.5c0,-0.823 0.677,-1.5 1.5,-1.5m-16.5,1c-1.097,0 -2,0.903 -2,2l0,18l4,-4l14,0c1.097,0 2,-0.903 2,-2l0,-5l-5,0c-1.11,0 -2,-0.89 -2,-2l0,-7l-11,0m2,4l7,0l0,2l-7,0l0,-2m0,3l7,0l0,2l-7,0l0,-2m0,3l8,0l0,2l-8,0l0,-2Z" style="fill:#fcf7f8;fill-rule:nonzero;"/></svg>