<?xml version="1.0" encoding="UTF-8" standalone="no"?><!DOCTYPE svg PUBLIC "-//W3C//DTD SVG 1.1//EN" "http://www.w3.org/Graphics/SVG/1.1/DTD/svg11.dtd"><svg width="100%" height="100%" viewBox="0 0 24 24" version="1.1" xmlns="http://www.w3.org/2000/svg" xmlns:xlink="http://www.w3.org/1999/xlink" xml:space="preserve" xmlns:serif="http://www.serif.com/" style="fill-rule:evenodd;clip-rule:evenodd;stroke-linejoin:round;stroke-miterlimit:2;"><path d="M21,3l0,12.5c0,1.92 -1.58,3.5 -3.5,3.5c-1.92,0 -3.5,-1.58 -3.5,-3.5c0,-1.92 1.58,-3.5 3.5,-3.5c0.54,0 1.05,0.12 1.5,0.34l0,-5.87l-10,2.13l0,8.9c0,1.92 -1.58,3.5 -3.5,3.5c-1.92,0 -3.5,-1.58 -3.5,-3.5c-0,-1.92 1.58,-3.5 3.5,-3.5c0.54,0 1.05,0.12 1.5,0.34l0,-8.34l14,-3Z" style="fill:#fcf7f8;fill-rule:nonzero;"/></svg>