<?xml version="1.0" encoding="UTF-8" standalone="no"?><!DOCTYPE svg PUBLIC "-//W3C//DTD SVG 1.1//EN" "http://www.w3.org/Graphics/SVG/1.1/DTD/svg11.dtd"><svg width="100%" height="100%" viewBox="0 0 512 512" version="1.1" xmlns="http://www.w3.org/2000/svg" xmlns:xlink="http://www.w3.org/1999/xlink" xml:space="preserve" xmlns:serif="http://www.serif.com/" style="fill-rule:evenodd;clip-rule:evenodd;stroke-linejoin:round;stroke-miterlimit:2;"><path d="M176.665,41.134l58.05,129.132l94.05,-40.41l-40.05,-88.722l-45.99,-0l32.22,72.675l-14.76,6.507l-35.1,-79.182l-48.42,-0Zm238.68,69.975l-249.21,107.937l10.8,25.38l250.29,-107.82l-11.88,-25.497Zm-62.73,88.677l-21.51,10.35c11.52,4.86 23.4,12.33 34.47,14.04c16.29,-11.79 -4.41,-27.45 -12.96,-24.39Zm-54.63,9.99l-32.58,15.03c-10.71,16.56 -13.32,41.4 -16.38,62.73c18.54,27.09 27.45,56.16 35.55,84.6c16.11,-3.33 28.98,-6.12 43.83,-10.35c-21.96,-34.83 -37.98,-70.56 -48.24,-107.01c0,-0 5.04,-9.45 7.56,-14.22c10.71,6.57 22.41,11.16 32.94,8.91c9,-3.69 19.35,-7.11 24.93,-14.94c-15.84,-6.21 -33.39,-15.75 -47.61,-24.75Zm83.34,23.94c-9.72,5.22 -20.7,10.08 -28.71,17.01c-4.77,4.23 -10.89,7.92 -18.45,11.07c0.99,6.57 -0.09,17.64 7.29,16.92c18.45,-5.58 36.45,-13.5 53.73,-25.56c-0.09,-8.28 -7.2,-21.69 -13.86,-19.44Zm-81.18,30.78c10.17,31.32 24.84,62.1 44.37,92.34c4.23,-1.44 8.37,-2.97 12.15,-4.5c-6.57,-5.58 -10.53,-14.31 -10.8,-22.77c-14.94,-3.69 -18.72,-26.46 -15.48,-37.44c-8.55,-6.3 -12.24,-16.29 -12.78,-25.83c-6.48,0.63 -12.24,-0.09 -17.46,-1.8Zm92.97,9.36c-12.24,7.29 -24.84,12.87 -37.44,17.28l-8.1,3.96c-3.96,4.14 -4.05,14.04 0.9,18.27c8.73,3.15 45.09,-19.08 51.93,-25.11c1.17,-5.22 -3.15,-13.41 -7.29,-14.4Zm-160.29,19.08l-148.86,34.65l0,143.28c86.13,-22.77 132.21,-42.39 188.73,-81.18c-9.72,-34.2 -18.45,-67.32 -39.87,-96.75Zm169.02,15.21c-12.24,9.18 -24.48,14.58 -38.61,19.26c-0.36,6.03 2.25,16.29 10.89,14.4c17.91,-3.87 32.67,-15.75 32.94,-22.14c0.18,-3.33 -1.8,-9.45 -5.22,-11.52Zm-6.75,43.74c-12.87,7.38 -28.35,14.31 -42.03,19.26l16.83,28.62l35.37,-16.92l-10.17,-30.96Zm19.98,44.19l-39.69,18.99l2.79,19.71c13.59,0.45 41.94,-10.17 49.86,-23.49l0,-0.09l-12.96,-15.12Z" style="fill:#fcf7f8;fill-rule:nonzero;"/></svg>