<?xml version="1.0" encoding="UTF-8" standalone="no"?><!DOCTYPE svg PUBLIC "-//W3C//DTD SVG 1.1//EN" "http://www.w3.org/Graphics/SVG/1.1/DTD/svg11.dtd"><svg width="100%" height="100%" viewBox="0 0 2001 2000" version="1.1" xmlns="http://www.w3.org/2000/svg" xmlns:xlink="http://www.w3.org/1999/xlink" xml:space="preserve" xmlns:serif="http://www.serif.com/" style="fill-rule:evenodd;clip-rule:evenodd;stroke-linejoin:round;stroke-miterlimit:2;"><path d="M1342.66,1152.07c-139.145,-0 -418.194,69.952 -418.194,209.097l-0,171.08l836.389,-0l-0,-171.08c-0,-139.145 -279.05,-209.097 -418.195,-209.097" style="fill:#94795e;fill-rule:nonzero;"/><path d="M1342.66,1000c104.245,0 190.089,-85.844 190.089,-190.088c-0,-104.245 -85.844,-190.089 -190.089,-190.089c-104.244,0 -190.088,85.844 -190.088,190.089c-0,104.244 85.844,190.088 190.088,190.088" style="fill:#94795e;fill-rule:nonzero;"/><path d="M772.394,1076.04c-177.162,0 -532.248,88.962 -532.248,266.124l0,190.089l532.248,-0l-0,-171.08c-0,-64.63 25.092,-177.923 180.204,-263.843c-66.151,-13.686 -130.021,-21.29 -180.204,-21.29Z" style="fill:#efc69b;fill-rule:nonzero;"/><path d="M772.394,923.965c125.154,-0 228.106,-102.952 228.106,-228.106c-0,-125.155 -102.952,-228.107 -228.106,-228.107c-125.154,0 -228.106,102.952 -228.106,228.107c-0,125.154 102.952,228.106 228.106,228.106" style="fill:#efc69b;fill-rule:nonzero;"/></svg>