<?xml version="1.0" encoding="UTF-8" standalone="no"?><!DOCTYPE svg PUBLIC "-//W3C//DTD SVG 1.1//EN" "http://www.w3.org/Graphics/SVG/1.1/DTD/svg11.dtd"><svg width="100%" height="100%" viewBox="0 0 24 24" version="1.1" xmlns="http://www.w3.org/2000/svg" xmlns:xlink="http://www.w3.org/1999/xlink" xml:space="preserve" xmlns:serif="http://www.serif.com/" style="fill-rule:evenodd;clip-rule:evenodd;stroke-linejoin:round;stroke-miterlimit:2;"><path d="M4,2c-1.097,0 -2,0.903 -2,2l0,8l2,0l0,-4l2,0l0,4l2,0l0,-8c0,-1.097 -0.903,-2 -2,-2l-2,0m0,2l2,0l0,2l-2,0m18,9.5l0,-1.5c0,-1.097 -0.903,-2 -2,-2l-4,0l0,10l4,0c1.097,0 2,-0.903 2,-2l0,-1.5c-0.021,-0.815 -0.685,-1.479 -1.5,-1.5c0.815,-0.021 1.479,-0.685 1.5,-1.5m-2,4.5l-2,0l0,-2l2,0l0,2m0,-4l-2,0l0,-2l2,0m-14.21,7.61l-1.58,-1.22l14,-18l1.58,1.22l-14,18Z" style="fill:#fcf7f8;fill-rule:nonzero;"/></svg>