<?xml version="1.0" encoding="UTF-8" standalone="no"?><!DOCTYPE svg PUBLIC "-//W3C//DTD SVG 1.1//EN" "http://www.w3.org/Graphics/SVG/1.1/DTD/svg11.dtd"><svg width="100%" height="100%" viewBox="0 0 24 24" version="1.1" xmlns="http://www.w3.org/2000/svg" xmlns:xlink="http://www.w3.org/1999/xlink" xml:space="preserve" xmlns:serif="http://www.serif.com/" style="fill-rule:evenodd;clip-rule:evenodd;stroke-linejoin:round;stroke-miterlimit:2;"><path d="M12,1l9,4l0,6c0,5.5 -3.8,10.7 -9,12c-5.2,-1.3 -9,-6.5 -9,-12l0,-6l9,-4m0,2.2l-7,3.1l0,4.9c0,4.3 3.2,8.8 7,9.8c3.8,-1 7,-5.5 7,-9.8l0,-4.9l-7,-3.1m0,2.3l2,1.6l-1,5.9l2,0l0,2l-2,0l0,3l-2,0l0,-3l-2,0l0,-2l2,0l-1,-5.9l2,-1.6Z" style="fill:#fcf7f8;fill-rule:nonzero;"/></svg>