<?xml version="1.0" encoding="UTF-8" standalone="no"?><!DOCTYPE svg PUBLIC "-//W3C//DTD SVG 1.1//EN" "http://www.w3.org/Graphics/SVG/1.1/DTD/svg11.dtd"><svg width="100%" height="100%" viewBox="0 0 2001 2000" version="1.1" xmlns="http://www.w3.org/2000/svg" xmlns:xlink="http://www.w3.org/1999/xlink" xml:space="preserve" xmlns:serif="http://www.serif.com/" style="fill-rule:evenodd;clip-rule:evenodd;stroke-linejoin:round;stroke-miterlimit:2;"><path d="M1367.91,950.391c-14.267,-18.609 -31.636,-34.738 -47.764,-50.866c-41.561,-37.218 -88.705,-63.892 -128.405,-102.971c-92.426,-90.566 -112.896,-240.061 -53.967,-354.819c-58.929,14.267 -110.415,46.523 -154.458,81.881c-160.66,129.025 -223.932,356.68 -148.254,552.078c2.481,6.203 4.962,12.406 4.962,20.47c0,13.647 -9.304,26.053 -21.711,31.016c-14.267,6.203 -29.154,2.481 -40.94,-7.444c-3.722,-3.101 -6.203,-6.203 -8.685,-10.545c-70.095,-88.705 -81.26,-215.869 -34.117,-317.6c-103.592,84.362 -160.04,227.034 -151.976,361.642c3.722,31.016 7.444,62.031 17.989,93.047c8.684,37.219 25.433,74.437 44.042,107.314c66.994,107.314 182.992,184.233 307.675,199.74c132.747,16.749 274.798,-7.443 376.529,-99.25c113.518,-102.971 153.218,-267.974 94.908,-409.406l-8.064,-16.128c-13.026,-28.534 -47.764,-78.159 -47.764,-78.159m-196.019,390.797c-17.368,14.887 -45.903,31.015 -68.234,37.218c-69.475,24.813 -138.95,-9.925 -179.891,-50.865c73.818,-17.369 117.86,-71.956 130.886,-127.164c10.546,-49.625 -9.304,-90.566 -17.368,-138.33c-7.444,-45.903 -6.203,-84.983 10.545,-127.784c11.786,23.572 24.192,47.144 39.08,65.753c47.764,62.031 122.821,89.325 138.95,173.687c2.481,8.685 3.721,17.369 3.721,26.674c1.861,50.865 -20.47,106.693 -57.689,140.811Z" style="fill:#d96443;fill-rule:nonzero;"/></svg>