<?xml version="1.0" encoding="UTF-8" standalone="no"?><!DOCTYPE svg PUBLIC "-//W3C//DTD SVG 1.1//EN" "http://www.w3.org/Graphics/SVG/1.1/DTD/svg11.dtd"><svg width="100%" height="100%" viewBox="0 0 24 24" version="1.1" xmlns="http://www.w3.org/2000/svg" xmlns:xlink="http://www.w3.org/1999/xlink" xml:space="preserve" xmlns:serif="http://www.serif.com/" style="fill-rule:evenodd;clip-rule:evenodd;stroke-linejoin:round;stroke-miterlimit:2;"><path d="M2,22l0,-2c0,0 5,-2 10,-2c5,0 10,2 10,2l0,2l-20,0m9.3,-12.9c-1.2,-3.9 -7.3,-3 -7.3,-3c-0,0 0.2,7.8 5.9,6.6c-0.4,-2.9 -1.9,-3.7 -1.9,-3.7c2.8,0 3,3.4 3,3.4l-0,4.6l2,0l-0,-4.2c-0,0 -0,-3.9 3,-4.9c0,0 -2,3 -2,5c7,0.7 7,-8.9 7,-8.9c0,0 -8.9,-1 -9.7,5.1Z" style="fill:#fcf7f8;fill-rule:nonzero;"/></svg>