<?xml version="1.0" encoding="UTF-8" standalone="no"?><!DOCTYPE svg PUBLIC "-//W3C//DTD SVG 1.1//EN" "http://www.w3.org/Graphics/SVG/1.1/DTD/svg11.dtd"><svg width="100%" height="100%" viewBox="0 0 24 24" version="1.1" xmlns="http://www.w3.org/2000/svg" xmlns:xlink="http://www.w3.org/1999/xlink" xml:space="preserve" xmlns:serif="http://www.serif.com/" style="fill-rule:evenodd;clip-rule:evenodd;stroke-linejoin:round;stroke-miterlimit:2;"><path d="M6.2,2.44l11.9,11.9l2.12,-2.12l1.41,1.41l-2.47,2.47l3.18,3.18c0.39,0.39 0.39,1.02 -0,1.41l-0.71,0.71c-0.39,0.39 -1.02,0.39 -1.41,0l-3.22,-3.17l-2.44,2.47l-1.41,-1.41l2.12,-2.12l-11.9,-11.9l-0,-2.83l2.83,0m9.69,7.56l4.74,-4.74l-0,-2.82l-2.83,0l-4.74,4.74l2.83,2.82m-4.95,5l-2.83,-2.87l-2.21,2.21l-2.12,-2.12l-1.41,1.41l2.47,2.47l-3.18,3.19c-0.39,0.39 -0.39,1.02 -0,1.41l0.71,0.71c0.39,0.39 1.02,0.39 1.41,0l3.22,-3.18l2.44,2.47l1.41,-1.41l-2.12,-2.12l2.21,-2.17Z" style="fill:#fcf7f8;fill-rule:nonzero;"/></svg>