<?xml version="1.0" encoding="UTF-8" standalone="no"?><!DOCTYPE svg PUBLIC "-//W3C//DTD SVG 1.1//EN" "http://www.w3.org/Graphics/SVG/1.1/DTD/svg11.dtd"><svg width="100%" height="100%" viewBox="0 0 24 24" version="1.1" xmlns="http://www.w3.org/2000/svg" xmlns:xlink="http://www.w3.org/1999/xlink" xml:space="preserve" xmlns:serif="http://www.serif.com/" style="fill-rule:evenodd;clip-rule:evenodd;stroke-linejoin:round;stroke-miterlimit:2;"><path d="M15.75,19.13c-0.83,0 -1.5,-0.84 -1.5,-1.88c0,-1.03 0.67,-1.87 1.5,-1.87c0.83,0 1.5,0.84 1.5,1.87c0,1.04 -0.67,1.88 -1.5,1.88m-3.75,-7.88c-1.24,0 -2.25,-0.84 -2.25,-1.87c0,-1.04 1.01,-1.88 2.25,-1.88c1.24,0 2.25,0.84 2.25,1.88c0,1.03 -1.01,1.87 -2.25,1.87m-3.75,7.88c-0.83,0 -1.5,-0.84 -1.5,-1.88c0,-1.03 0.67,-1.87 1.5,-1.87c0.83,0 1.5,0.84 1.5,1.87c0,1.04 -0.67,1.88 -1.5,1.88m3.75,-10.88c0.41,0 0.75,0.34 0.75,0.75c0,0.41 -0.34,0.75 -0.75,0.75c-0.41,0 -0.75,-0.34 -0.75,-0.75c0,-0.41 0.34,-0.75 0.75,-0.75m6.75,3.75c-0.32,0 -0.63,0.07 -0.91,0.2c-0.48,-0.61 -1.13,-1.13 -1.91,-1.53c0.57,-0.8 0.91,-1.77 0.91,-2.82l0,-0.06c1.09,-0.23 1.91,-1.2 1.91,-2.37c0,-1.33 -1.09,-2.42 -2.42,-2.42c-0.69,0 -1.33,0.29 -1.75,0.75c-0.75,-0.47 -1.63,-0.75 -2.58,-0.75c-0.95,0 -1.84,0.28 -2.58,0.75c-0.42,-0.46 -1.06,-0.75 -1.75,-0.75c-1.33,0 -2.42,1.09 -2.42,2.42c0,1.16 0.82,2.13 1.9,2.37l0,0.06c0,1.05 0.35,2.03 0.91,2.82c-0.77,0.4 -1.42,0.92 -1.9,1.53c-0.28,-0.13 -0.59,-0.2 -0.91,-0.2c-1.25,0 -2.25,1 -2.25,2.25c0,1.25 1,2.25 2.25,2.25l0.06,0c-0.04,0.24 -0.06,0.5 -0.06,0.75c0,2.07 1.34,3.75 3,3.75c1.01,0 1.9,-0.63 2.45,-1.59c0.42,0.06 0.85,0.09 1.3,0.09c0.45,0 0.88,-0.03 1.3,-0.09c0.55,0.96 1.44,1.59 2.45,1.59c1.66,0 3,-1.68 3,-3.75c0,-0.25 -0.02,-0.51 -0.06,-0.75l0.06,0c1.25,0 2.25,-1 2.25,-2.25c0,-1.25 -1,-2.25 -2.25,-2.25" style="fill:#fcf7f8;fill-rule:nonzero;"/></svg>