<?xml version="1.0" encoding="UTF-8" standalone="no"?><!DOCTYPE svg PUBLIC "-//W3C//DTD SVG 1.1//EN" "http://www.w3.org/Graphics/SVG/1.1/DTD/svg11.dtd"><svg width="100%" height="100%" viewBox="0 0 24 24" version="1.1" xmlns="http://www.w3.org/2000/svg" xmlns:xlink="http://www.w3.org/1999/xlink" xml:space="preserve" xmlns:serif="http://www.serif.com/" style="fill-rule:evenodd;clip-rule:evenodd;stroke-linejoin:round;stroke-miterlimit:2;"><path d="M18.4,1.6c-0.4,-0.4 -0.9,-0.6 -1.4,-0.6l-10,0c-0.5,0 -1,0.2 -1.4,0.6c-0.4,0.4 -0.6,0.9 -0.6,1.4l-0,18c-0,0.5 0.2,1 0.6,1.4c0.4,0.4 0.9,0.6 1.4,0.6l10,0c0.5,0 1,-0.2 1.4,-0.6c0.4,-0.4 0.6,-0.9 0.6,-1.4l-0,-18c-0,-0.5 -0.2,-1 -0.6,-1.4m-2.4,5.4c-0,0.6 -0.4,1 -1,1l-6,0c-0.6,0 -1,-0.4 -1,-1l-0,-2c-0,-0.6 0.4,-1 1,-1l6,0c0.6,0 1,0.4 1,1l-0,2Z" style="fill:#fcf7f8;fill-rule:nonzero;"/></svg>