<?xml version="1.0" encoding="UTF-8" standalone="no"?><!DOCTYPE svg PUBLIC "-//W3C//DTD SVG 1.1//EN" "http://www.w3.org/Graphics/SVG/1.1/DTD/svg11.dtd"><svg width="100%" height="100%" viewBox="0 0 24 24" version="1.1" xmlns="http://www.w3.org/2000/svg" xmlns:xlink="http://www.w3.org/1999/xlink" xml:space="preserve" xmlns:serif="http://www.serif.com/" style="fill-rule:evenodd;clip-rule:evenodd;stroke-linejoin:round;stroke-miterlimit:2;"><path d="M4,2l16,0c1.097,-0 2,0.903 2,2l0,12c0,1.097 -0.903,2 -2,2l-4,0l-4,4l-4,-4l-4,0c-1.097,0 -2,-0.903 -2,-2l0,-12c-0,-1.097 0.903,-2 2,-2m0,2l0,12l4.83,0l3.17,3.17l3.17,-3.17l4.83,0l0,-12l-16,0m2,3l12,0l0,2l-12,0l0,-2m0,4l10,0l0,2l-10,0l0,-2Z" style="fill:#fcf7f8;fill-rule:nonzero;"/></svg>