<?xml version="1.0" encoding="UTF-8" standalone="no"?><!DOCTYPE svg PUBLIC "-//W3C//DTD SVG 1.1//EN" "http://www.w3.org/Graphics/SVG/1.1/DTD/svg11.dtd"><svg width="100%" height="100%" viewBox="0 0 24 24" version="1.1" xmlns="http://www.w3.org/2000/svg" xmlns:xlink="http://www.w3.org/1999/xlink" xml:space="preserve" xmlns:serif="http://www.serif.com/" style="fill-rule:evenodd;clip-rule:evenodd;stroke-linejoin:round;stroke-miterlimit:2;"><path d="M12.87,15.07l-2.54,-2.51l0.03,-0.03c1.74,-1.94 2.98,-4.17 3.71,-6.53l2.93,-0l0,-2l-7,-0l0,-2l-2,-0l0,2l-7,-0l0,2l11.17,-0c-0.67,1.92 -1.73,3.75 -3.17,5.35c-0.93,-1.03 -1.7,-2.16 -2.31,-3.35l-2,-0c0.73,1.63 1.73,3.17 2.98,4.56l-5.09,5.02l1.42,1.42l5,-5l3.11,3.11l0.76,-2.04m5.63,-5.07l-2,0l-4.5,12l2,0l1.12,-3l4.75,0l1.13,3l2,0l-4.5,-12m-2.62,7l1.62,-4.33l1.62,4.33l-3.24,0Z" style="fill:#fcf7f8;fill-rule:nonzero;"/></svg>