<?xml version="1.0" encoding="UTF-8" standalone="no"?><!DOCTYPE svg PUBLIC "-//W3C//DTD SVG 1.1//EN" "http://www.w3.org/Graphics/SVG/1.1/DTD/svg11.dtd"><svg width="100%" height="100%" viewBox="0 0 512 512" version="1.1" xmlns="http://www.w3.org/2000/svg" xmlns:xlink="http://www.w3.org/1999/xlink" xml:space="preserve" xmlns:serif="http://www.serif.com/" style="fill-rule:evenodd;clip-rule:evenodd;stroke-linejoin:round;stroke-miterlimit:2;"><path id="path4526" d="M189.629,494.562l87.864,-91.119c-0,0 41.501,1.804 67.254,47.729c-2.432,15.661 -7.955,33.808 -14.102,43.39l-141.016,0Zm243.09,-43.186l-37.093,17.747l2.608,18.42c12.7,0.421 39.195,-9.504 46.597,-21.953c-3.934,-4.763 -8.068,-9.497 -12.112,-14.214Zm-17.328,-37.455c-11.451,8.049 -23.228,14.91 -36.013,21.266l11.117,19.637l33.056,-15.812l-8.16,-25.091Zm-127.593,-22.952c22.051,3.731 50.465,20.193 65.244,47.318c31.73,-15.195 42.084,-20.937 57.732,-34.12c8.648,-7.285 20.478,-15.953 21.574,-27.316c0.983,-10.186 -7.504,-12.393 -7.504,-12.393c-0,0 5.357,-11.703 1.801,-17.991c-3.636,-6.432 -6.886,-8.415 -14.276,-7.167c4.398,-5.766 2.354,-15.447 -1.042,-20.533c-4.473,-5.931 -12.545,-2.219 -12.545,-2.219c2.048,-4.775 2.701,-10.337 -2.641,-18.84c-4.621,-7.355 -17.523,-2.052 -26.034,-0.318c-23.93,4.878 -63.868,33.375 -63.868,33.375l-18.441,60.204Zm-81.51,-138.207l-139.119,32.383l0,133.904c80.494,-21.28 123.558,-39.616 176.38,-75.868c-9.084,-31.962 -17.243,-62.915 -37.261,-90.419Zm60.896,-77.718l-30.448,14.047c-10.009,15.476 -12.448,38.69 -15.308,58.625c17.326,25.317 25.653,52.484 33.223,79.063c15.056,-3.112 27.084,-5.719 40.962,-9.672c-20.523,-32.551 -35.494,-65.943 -45.083,-100.008c-0,0 4.71,-8.831 7.065,-13.289c10.009,6.14 20.944,10.43 30.785,8.327c8.411,-3.449 18.083,-6.645 23.298,-13.963c-14.803,-5.803 -31.205,-14.719 -44.494,-23.13Zm2.018,51.139c9.505,29.271 23.215,58.036 41.467,86.298c3.953,-1.346 7.822,-2.776 11.355,-4.206c-6.14,-5.215 -9.841,-13.373 -10.093,-21.28c-13.963,-3.448 -17.495,-24.728 -14.467,-34.99c-7.991,-5.888 -11.439,-15.224 -11.944,-24.14c-6.056,0.589 -11.439,-0.084 -16.318,-1.682Zm95.045,40.794c-11.439,8.579 -22.878,13.626 -36.083,17.999c-0.337,5.636 2.103,15.224 10.177,13.458c16.738,-3.617 30.532,-14.719 30.785,-20.691c0.168,-3.112 -1.683,-8.832 -4.879,-10.766Zm-8.158,-32.046c-11.439,6.813 -23.215,12.028 -34.99,16.149l-7.57,3.701c-3.701,3.869 -3.785,13.121 0.841,17.074c8.159,2.944 42.139,-17.831 48.532,-23.467c1.093,-4.878 -2.944,-12.532 -6.813,-13.457Zm-11.019,-37.514c-9.084,4.879 -19.345,9.421 -26.831,15.897c-4.458,3.954 -10.177,7.402 -17.243,10.346c0.925,6.14 -0.084,16.486 6.813,15.813c17.243,-5.215 34.065,-12.617 50.214,-23.888c-0.084,-7.738 -6.729,-20.27 -12.953,-18.168Zm31.794,-114.583l-232.902,100.873l10.093,23.72l233.911,-100.765l-11.102,-23.828Zm-58.625,82.874l-20.103,9.673c10.767,4.542 21.869,11.523 32.215,13.121c15.224,-11.019 -4.122,-25.654 -12.112,-22.794Zm-164.436,-148.27l54.251,120.682l87.896,-37.766l-37.43,-82.916l-42.98,-0l30.112,67.919l-13.795,6.081l-32.803,-74l-45.251,-0Z" style="fill:#fcf7f8;fill-rule:nonzero;"/></svg>