<?xml version="1.0" encoding="UTF-8" standalone="no"?><!DOCTYPE svg PUBLIC "-//W3C//DTD SVG 1.1//EN" "http://www.w3.org/Graphics/SVG/1.1/DTD/svg11.dtd"><svg width="100%" height="100%" viewBox="0 0 24 24" version="1.1" xmlns="http://www.w3.org/2000/svg" xmlns:xlink="http://www.w3.org/1999/xlink" xml:space="preserve" xmlns:serif="http://www.serif.com/" style="fill-rule:evenodd;clip-rule:evenodd;stroke-linejoin:round;stroke-miterlimit:2;"><path d="M8.235,8.357c-0.154,-0.424 -0.235,-0.88 -0.235,-1.357c0,-2.194 1.806,-4 4,-4c2.194,0 4,1.806 4,4c0,0.73 -0.19,1.41 -0.54,2l2.54,0c0.95,0 1.75,0.67 1.95,1.56c2.01,8.01 2.05,8.22 2.05,8.44c0,0.207 -0.032,0.407 -0.092,0.595l1.71,1.405l-1.21,1.471l-20.408,-16.775l1.209,-1.471l5.026,4.132Zm-4.107,1.943l13.018,10.7l-13.146,0c-1.097,0 -2,-0.903 -2,-2c0,-0.22 0.04,-0.43 2.05,-8.44c0.02,-0.089 0.046,-0.176 0.078,-0.26Zm7.872,-5.3c-1.097,-0 -2,0.903 -2,2c0,1.097 0.903,2 2,2c1.097,0 2,-0.903 2,-2c0,-1.097 -0.903,-2 -2,-2Z" style="fill:#fcf7f8;fill-rule:nonzero;"/></svg>