<svg viewBox="0 0 24 24" xmlns="http://www.w3.org/2000/svg" xml:space="preserve" style="fill-rule:evenodd;clip-rule:evenodd;stroke-linejoin:round;stroke-miterlimit:2">
  <path d="M8.235 8.357C8.081 7.933 8 7.477 8 7c0-2.194 1.806-4 4-4s4 1.806 4 4c0 .73-.19 1.41-.54 2H18c.95 0 1.75.67 1.95 1.56C21.96 18.57 22 18.78 22 19c0 .207-.032.407-.092.595L23.618 21l-1.21 1.471L2 5.696l1.209-1.471 5.026 4.132ZM4.128 10.3 17.146 21H4c-1.097 0-2-.903-2-2 0-.22.04-.43 2.05-8.44.02-.089.046-.176.078-.26ZM12 5c-1.097 0-2 .903-2 2s.903 2 2 2 2-.903 2-2-.903-2-2-2Z" style="fill:#fcf7f8;fill-rule:nonzero"/>
</svg>
