<svg viewBox="0 0 24 24" xmlns="http://www.w3.org/2000/svg" xml:space="preserve" style="fill-rule:evenodd;clip-rule:evenodd;stroke-linejoin:round;stroke-miterlimit:2">
  <path d="M12 3c2.194 0 4 1.806 4 4 0 .73-.19 1.41-.54 2H18c.95 0 1.75.67 1.95 1.56C21.96 18.57 22 18.78 22 19c0 1.097-.903 2-2 2H4c-1.097 0-2-.903-2-2 0-.22.04-.43 2.05-8.44C4.25 9.67 5.05 9 6 9h2.54C8.19 8.41 8 7.73 8 7c0-2.194 1.806-4 4-4m0 2c-1.097 0-2 .903-2 2s.903 2 2 2 2-.903 2-2-.903-2-2-2Z" style="fill:#fcf7f8;fill-rule:nonzero"/>
</svg>
