<?xml version="1.0" encoding="UTF-8" standalone="no"?><!DOCTYPE svg PUBLIC "-//W3C//DTD SVG 1.1//EN" "http://www.w3.org/Graphics/SVG/1.1/DTD/svg11.dtd"><svg width="100%" height="100%" viewBox="0 0 24 24" version="1.1" xmlns="http://www.w3.org/2000/svg" xmlns:xlink="http://www.w3.org/1999/xlink" xml:space="preserve" xmlns:serif="http://www.serif.com/" style="fill-rule:evenodd;clip-rule:evenodd;stroke-linejoin:round;stroke-miterlimit:2;"><path d="M12,3c2.194,-0 4,1.806 4,4c0,0.73 -0.19,1.41 -0.54,2l2.54,0c0.95,0 1.75,0.67 1.95,1.56c2.01,8.01 2.05,8.22 2.05,8.44c0,1.097 -0.903,2 -2,2l-16,0c-1.097,0 -2,-0.903 -2,-2c0,-0.22 0.04,-0.43 2.05,-8.44c0.2,-0.89 1,-1.56 1.95,-1.56l2.54,0c-0.35,-0.59 -0.54,-1.27 -0.54,-2c0,-2.194 1.806,-4 4,-4m0,2c-1.097,0 -2,0.903 -2,2c0,1.097 0.903,2 2,2c1.097,0 2,-0.903 2,-2c0,-1.097 -0.903,-2 -2,-2Z" style="fill:#fcf7f8;fill-rule:nonzero;"/></svg>