<?xml version="1.0" encoding="UTF-8" standalone="no"?><!DOCTYPE svg PUBLIC "-//W3C//DTD SVG 1.1//EN" "http://www.w3.org/Graphics/SVG/1.1/DTD/svg11.dtd"><svg width="100%" height="100%" viewBox="0 0 2000 2000" version="1.1" xmlns="http://www.w3.org/2000/svg" xmlns:xlink="http://www.w3.org/1999/xlink" xml:space="preserve" xmlns:serif="http://www.serif.com/" style="fill-rule:evenodd;clip-rule:evenodd;stroke-linejoin:round;stroke-miterlimit:2;"><path d="M915.41,488.809c-16.035,30.067 -34.966,70.825 -40.312,86.638c-10.913,32.294 -14.254,82.851 -7.349,113.141c3.563,16.704 25.39,47.662 55.011,78.174c14.477,14.7 27.617,29.399 29.176,32.294c2.005,4.009 2.228,12.695 1.114,34.744c-1.559,31.626 -0.445,37.417 10.69,49.444c2.45,2.895 3.341,5.123 2.005,5.123c-1.336,0 -7.127,-5.791 -13.14,-12.695c-5.791,-6.905 -24.054,-27.618 -40.535,-45.881c-64.811,-73.051 -76.393,-96.659 -76.838,-157.907c-0.223,-16.704 -0.891,-31.181 -1.782,-32.072c-3.786,-3.563 -58.798,53.676 -81.738,84.856c-29.176,39.644 -32.739,48.776 -29.176,71.493c4.009,24.276 25.613,60.579 48.553,81.07c25.612,23.385 45.88,43.43 52.561,52.338c4.009,5.123 14.7,18.263 23.831,28.731c30.958,36.303 31.626,37.194 27.84,40.98c-2.895,2.896 -5.568,2.673 -22.94,-2.895c-34.299,-10.69 -52.562,-21.604 -67.484,-40.312c-17.372,-22.272 -35.189,-43.207 -52.561,-62.139c-9.132,-10.022 -18.931,-21.381 -21.827,-25.389c-23.162,-31.404 -118.486,-116.482 -180.847,-161.694c-3.564,-2.45 -12.25,-9.132 -19.822,-14.7c-7.35,-5.568 -22.272,-16.926 -33.408,-25.167c-23.608,-17.372 -31.626,-23.831 -45.657,-35.858c-16.704,-14.254 -18.486,-15.59 -71.493,-55.679c-27.84,-20.936 -53.453,-39.421 -56.793,-41.203c-3.564,-1.782 -9.355,-5.568 -13.141,-8.464c-3.563,-2.895 -13.14,-9.576 -21.158,-14.922c-8.018,-5.345 -20.267,-13.808 -27.394,-18.931c-7.127,-4.9 -13.364,-8.909 -14.032,-8.909c-2.895,0 0,9.132 7.35,22.05c14.254,25.612 50.557,77.728 63.92,91.537c2.896,3.118 7.35,8.686 9.577,12.472c2.227,3.786 6.682,10.245 10.245,14.477c7.127,8.686 16.927,22.94 48.107,69.934c32.74,49.443 38.753,59.02 37.863,60.134c-0.669,0.445 -5.568,-0.668 -11.359,-2.673c-9.131,-3.341 -14.031,-3.563 -48.775,-0.891c-21.381,1.337 -45.212,3.786 -53.23,5.123c-20.936,3.341 -66.816,18.263 -66.816,21.826c0,3.341 16.704,8.241 30.067,8.463c20.713,0.669 37.862,4.455 64.589,14.254c40.757,14.923 64.811,28.508 72.383,40.535c2.45,4.009 4.9,13.586 5.791,21.827c1.336,12.695 0.668,17.149 -4.454,31.848c-9.132,26.281 -13.809,34.076 -32.517,53.453c-9.577,9.8 -17.818,19.822 -18.263,22.272c-0.668,4.009 0.445,4.454 10.467,4.231c6.237,-0.222 25.168,-3.563 42.317,-7.572c27.394,-6.236 45.435,-8.909 65.702,-9.8c8.463,-0.445 61.025,3.341 62.807,4.455c0.891,0.668 -4.455,8.686 -11.582,18.263c-25.835,34.521 -37.416,61.916 -45.657,109.132c-3.564,19.599 -3.564,25.167 -1.336,37.639c1.559,8.018 4.009,17.372 5.79,20.49c3.564,6.905 40.758,41.426 42.762,39.422c0.669,-0.668 0.223,-2.45 -0.891,-4.009c-1.336,-1.559 -4.899,-10.691 -8.017,-20.045c-3.118,-9.354 -7.35,-20.045 -9.132,-23.831c-8.909,-16.926 0.223,-38.085 28.954,-68.82l19.153,-20.49l12.25,0c18.04,0 26.503,5.568 40.98,27.394c25.167,38.085 33.631,48.108 43.43,51.894c5.346,2.004 11.359,2.895 14.032,2.004c2.672,-0.668 11.581,-8.24 19.822,-16.481c18.708,-18.708 30.957,-24.722 50.779,-24.722c10.914,0 16.704,1.114 22.05,4.455c8.908,5.568 43.875,53.898 53.007,73.274c6.681,14.254 6.681,14.477 6.904,55.68c0.445,40.535 5.791,122.05 10.468,152.785c3.34,22.494 8.463,32.294 26.503,49.443c8.909,8.241 21.158,22.495 27.172,31.626c11.136,16.259 21.826,37.64 21.826,43.431c0,1.781 4.677,7.349 10.245,12.249l10.468,9.132l41.426,0.445c22.717,0.446 61.025,0.446 84.856,0c45.212,-0.668 50.557,-1.782 56.125,-11.804c11.581,-20.267 32.071,-53.007 37.639,-60.357c4.009,-4.9 12.918,-12.472 19.599,-16.926c16.704,-10.468 34.522,-27.84 43.653,-42.762c13.141,-21.604 14.254,-30.513 14.032,-110.246l0,-71.27l8.017,-32.294c12.918,-51.448 26.949,-74.388 48.776,-79.734c13.586,-3.563 35.189,-3.34 50.78,0.446c16.035,3.563 40.535,17.372 46.548,25.835c2.673,3.786 6.236,6.682 7.795,6.682c1.782,0 9.132,6.236 16.481,13.808c17.818,18.709 19.6,16.927 16.259,-15.813c-1.337,-13.586 -2.005,-26.058 -1.337,-27.394c0.446,-1.559 5.568,-6.014 10.914,-9.577c5.568,-3.786 16.035,-13.363 23.385,-21.381c7.35,-8.241 16.259,-16.036 20.045,-17.595c6.459,-2.672 8.24,-2.227 25.835,6.459c20.045,10.022 29.176,19.377 41.871,43.876c8.018,15.367 10.023,36.303 4.455,44.766c-3.787,5.568 -8.018,15.59 -11.359,25.613c-0.891,3.118 0,4.009 4.009,4.009c3.118,0 8.909,-4.009 15.59,-10.914c12.25,-12.695 18.709,-30.067 22.272,-59.243c5.345,-46.548 1.336,-59.911 -24.276,-83.519c-17.15,-16.036 -22.049,-24.277 -18.04,-31.404c1.336,-2.672 1.781,-6.013 1.113,-7.795c-2.004,-4.9 2.45,-13.586 8.909,-17.817c5.122,-3.564 13.14,-4.009 61.916,-4.677c30.735,-0.446 59.02,-1.559 62.584,-2.45c12.695,-3.564 10.69,-8.464 -19.154,-48.553c-16.259,-21.826 -20.713,-33.185 -17.818,-45.435c2.673,-11.804 5.568,-16.035 20.045,-29.398c14.254,-13.364 31.626,-24.054 51.225,-32.072c6.459,-2.673 12.695,-6.236 13.586,-7.572c2.673,-4.232 17.818,-8.909 29.399,-8.909c5.791,0 15.145,-1.559 20.713,-3.564c7.127,-2.227 13.808,-2.895 22.049,-2.004c13.14,1.782 30.29,-2.005 30.29,-6.459c0,-1.559 -5.345,-4.009 -12.695,-5.791c-7.127,-1.559 -15.59,-4.231 -18.931,-6.013c-10.023,-4.9 -47.217,-7.572 -97.551,-7.127c-48.998,0.668 -58.798,-0.668 -61.693,-8.018c-1.559,-4.454 1.336,-10.022 11.581,-23.385c4.232,-5.568 13.141,-18.041 20.045,-27.84c6.904,-9.8 14.254,-20.268 16.704,-23.386c2.227,-3.118 13.363,-18.04 24.722,-33.407c11.136,-15.368 25.612,-33.854 32.071,-41.203c32.072,-36.972 79.956,-108.019 74.388,-110.023c-1.336,-0.446 -7.127,2.449 -12.918,6.458c-26.058,18.709 -30.957,21.827 -41.425,28.063c-6.014,3.563 -29.176,20.045 -51.226,36.749c-22.049,16.481 -54.566,41.203 -72.383,54.566c-17.818,13.363 -33.408,25.167 -34.744,26.503c-1.337,1.114 -10.913,8.463 -21.158,16.036c-69.934,51.671 -103.342,78.174 -155.458,122.941c-55.012,47.216 -121.159,113.363 -149.444,149.444c-21.827,27.84 -43.653,52.561 -51.448,57.907c-5.346,4.009 -11.582,5.345 -28.286,6.681c-11.804,0.891 -22.272,1.337 -22.94,0.891c-0.668,-0.445 2.227,-8.018 6.459,-16.704c9.132,-19.154 33.408,-48.107 69.934,-83.297c52.561,-50.334 70.824,-76.169 70.824,-100.668c0,-18.041 -6.458,-29.399 -31.18,-55.457c-12.027,-12.695 -34.076,-38.308 -48.998,-57.016c-14.923,-18.709 -29.177,-36.303 -31.404,-39.199c-8.908,-10.468 -9.799,-7.35 -9.799,34.744c-0.223,38.753 -0.223,39.644 -7.573,60.58c-13.363,38.085 -28.062,56.125 -114.254,139.867c-13.364,13.141 -19.6,14.922 -9.577,2.895c6.904,-8.017 14.031,-25.612 17.149,-41.425c4.454,-23.386 9.8,-38.085 16.704,-47.217c4.009,-5.345 7.35,-10.245 7.35,-11.136c0,-1.559 5.568,-7.572 28.285,-30.735c9.354,-9.354 19.154,-22.272 23.385,-30.289c7.35,-13.809 7.35,-14.032 7.573,-47.44c0.445,-57.684 -7.573,-104.009 -26.058,-148.553c-8.686,-21.381 -31.181,-52.339 -30.958,-42.762c0,1.114 2.004,7.35 4.231,14.031c8.909,26.727 12.027,53.898 10.691,92.206c-1.336,36.749 -4.677,54.566 -12.918,70.824c-5.568,10.691 -32.962,40.981 -48.107,52.785c-6.459,4.9 -12.918,11.358 -14.477,14.031c-2.227,4.009 -2.895,24.945 -2.895,90.201c0,46.994 1.336,111.805 0,207.351c-1.782,108.687 -22.495,133.854 -24.276,44.989c-2.005,-88.864 -3.787,-199.555 -4.455,-245.881l-1.113,-84.41l-5.791,-12.027c-3.341,-6.682 -9.577,-14.7 -14.031,-18.04c-4.455,-3.341 -15.813,-13.364 -25.39,-22.495c-17.15,-16.481 -24.277,-27.617 -30.735,-48.107c-1.559,-4.9 -3.564,-10.468 -4.678,-12.472c-6.458,-13.141 -3.563,-69.043 5.568,-114.478c3.118,-14.922 4.678,-27.617 3.787,-28.508c-1.114,-1.113 -4.677,2.673 -7.796,8.686Z" style="fill:#af1b3f;fill-rule:nonzero;"/></svg>