<?xml version="1.0" encoding="UTF-8" standalone="no"?><!DOCTYPE svg PUBLIC "-//W3C//DTD SVG 1.1//EN" "http://www.w3.org/Graphics/SVG/1.1/DTD/svg11.dtd"><svg width="100%" height="100%" viewBox="0 0 2000 2000" version="1.1" xmlns="http://www.w3.org/2000/svg" xmlns:xlink="http://www.w3.org/1999/xlink" xml:space="preserve" xmlns:serif="http://www.serif.com/" style="fill-rule:evenodd;clip-rule:evenodd;stroke-linejoin:round;stroke-miterlimit:2;"><path id="path1" d="M1262.83,406.47c35.221,34.561 53.308,86.294 55.728,159.392c5.086,153.781 -59.422,256.754 -175.975,280.909c-22.18,4.6 -21.418,3.111 -10.213,19.965c43.25,65.055 122.145,62.108 172.988,-6.463c29.66,-40 57.795,-108.52 57.795,-140.738c0,-0.43 0.901,-0.778 2.001,-0.778c11.936,0 -8.494,74.726 -31.18,114.062c-7.803,13.522 -9.45,18.424 -11.875,35.262c-8.156,56.665 -35.503,85.987 -82.206,88.131c-47.583,2.185 -68.955,-8.974 -93.626,-48.882c-31.144,-50.372 -42.462,-64.192 -63.306,-77.3c-33.467,-21.039 -60.364,-60.282 -76.302,-111.308c-13.794,-44.16 -20.343,-46.187 -32.167,-9.962c-19.003,58.235 -38.501,86.396 -87.277,126.064c-24.819,20.185 -30.192,26.688 -44.702,54.061c-15.196,28.672 -43.454,58.752 -65.005,69.19c-46.278,22.42 -99.832,-13.687 -110.955,-74.808c-6.309,-34.649 0.394,-47.215 14.075,-26.401c20.302,30.878 60.538,55.754 90.188,55.754c30.658,-0 51.247,-11.185 62.769,-34.096c4.339,-8.632 11.133,-18.936 15.104,-22.906c3.97,-3.971 6.902,-7.496 6.518,-7.834c-0.384,-0.337 -12.663,-3.858 -27.281,-7.823c-111.8,-30.32 -159.132,-103.562 -159.065,-246.122c0.04,-76.214 8.191,-113.457 37.959,-173.376c12.192,-24.549 12.131,-24.656 -9.768,-17.324c-69.538,23.29 -137.039,98.645 -160.355,179.019c-20.481,70.613 -23.259,186.03 -5.495,228.532c34.726,83.096 77.392,141.209 139.915,190.578c39.678,31.328 32.254,37.513 -10.473,2.205c-64.867,-53.6 -120.017,-132.23 -135.735,-193.525l-2.497,-9.731l-9.445,14.73c-10.928,17.048 -43.193,80.671 -43.193,85.184c0,1.673 6.068,9.736 13.492,17.923c60.313,66.514 80.298,111.605 96.568,217.909c5.05,33.007 6.094,34.235 10.428,12.249c6.953,-35.314 35.354,-68.78 75.457,-88.919c12.413,-6.237 13.415,-5.566 7.879,5.291c-10.841,21.253 -14.853,63.188 -10.125,105.859c1.279,11.543 4.528,41.607 7.219,66.811c6.928,64.82 10.126,68.755 24.339,29.926c13.897,-37.949 40.205,-76.23 58.742,-85.47c19.596,-9.763 30.945,-5.593 50.167,18.45c6.928,8.662 17.841,19.683 24.257,24.492c39.274,29.445 47.225,50.571 3.326,14.06c-12.643,-10.514 -28.151,-24.334 -34.465,-30.704c-13.533,-13.661 -14.94,-13.886 -25.751,-4.119l-8.268,7.47l1.121,17.32c2.149,33.103 9.987,55.002 26.114,72.94c8.693,9.67 36.731,30.709 40.921,30.709c4.262,-0 52.234,40.425 71.436,60.205c23.874,24.574 27.88,30.254 47.563,67.379c8.263,15.579 16.419,30.325 18.128,32.76c1.708,2.441 3.105,6.14 3.105,8.233c0,7.045 -5.234,-0.062 -23.049,-31.318c-32.981,-57.847 -94.22,-122.411 -133.673,-140.912c-32.172,-15.089 -60.952,-23.444 -57.99,-16.833c0.865,1.923 2.083,10.56 2.712,19.186c1.299,17.826 0.092,16.322 27.127,33.748c44.253,28.519 80.666,77.791 80.891,109.457c0.154,21.473 15.13,65.562 28.765,84.672c29.916,41.919 80.763,59.954 125.328,44.457c53.937,-18.762 85.066,-64.57 91.784,-135.09c2.144,-22.482 3.704,-26.288 20.194,-49.22c19.704,-27.399 46.806,-50.653 90.296,-77.474c6.712,-4.134 4.819,-8.662 -10.556,-25.27l-8.989,-9.711c-0,0 -98.599,63.48 -116.983,83.695c-32.991,36.26 -59.719,67.875 -75.621,89.436c-9.123,12.366 -17.411,22.481 -18.419,22.487c-6.329,-0 3.505,-15.81 24.247,-38.978c7.874,-8.79 15.942,-19.135 17.933,-22.983c1.985,-3.847 13.645,-19.028 25.904,-33.732c0,-0 27.675,-29.594 32.971,-34.89c4.86,-4.865 52.546,-37.994 66.166,-45.976c36.46,-21.356 47.614,-42.221 47.726,-89.262c0.062,-27.424 -2.875,-51.962 -6.227,-51.962c-0.496,-0 -15.922,14.065 -34.275,31.261c-53.467,50.075 -76.347,69.093 -76.347,63.465c-0,-4.687 90.151,-92.076 105.429,-102.196c2.471,-1.643 4.498,-4.227 4.498,-5.751c-0,-5.05 3.965,-2.891 17.534,9.562c31.819,29.195 44.881,46.719 59.837,80.262c12.842,28.801 13.794,30.044 15.303,20.021c0.634,-4.226 4.395,-27.435 8.36,-51.569c10.525,-64.109 11.763,-101.853 4.753,-144.985c-4.988,-30.694 -4.988,-30.601 0.353,-28.949c17.734,5.49 36.496,19.432 52.025,38.665c17.789,22.027 24.057,35.688 30.719,66.944c4.379,20.543 6.017,17.851 8.718,-14.326c8.043,-95.903 59.945,-199.639 124.77,-249.376l7.593,-5.823l-16.045,-24.983c-20.338,-31.671 -48.346,-70.474 -51.605,-71.498c-1.612,-0.506 -2.497,1.305 -2.497,5.117c0,3.244 -2.773,15.226 -6.16,26.626c-21.52,72.444 -79.034,140.447 -186.418,220.412c-23.838,17.754 9.491,-16.046 38.686,-39.228c90.648,-71.979 144.693,-155.996 153.974,-239.363c20.297,-182.264 -46.125,-316.264 -182.954,-369.101c-32.638,-12.607 -34.408,-11.814 -15.385,6.851" style="fill:#a62639;"/></svg>