<?xml version="1.0" encoding="UTF-8" standalone="no"?><!DOCTYPE svg PUBLIC "-//W3C//DTD SVG 1.1//EN" "http://www.w3.org/Graphics/SVG/1.1/DTD/svg11.dtd"><svg width="100%" height="100%" viewBox="0 0 2000 2000" version="1.1" xmlns="http://www.w3.org/2000/svg" xmlns:xlink="http://www.w3.org/1999/xlink" xml:space="preserve" xmlns:serif="http://www.serif.com/" style="fill-rule:evenodd;clip-rule:evenodd;stroke-linejoin:round;stroke-miterlimit:2;"><path id="path1" d="M719.018,300.703c-57.935,35.759 -75.778,53.258 -116.136,113.878c-37.282,55.988 -68.927,139.444 -74.954,197.656c-1.201,11.611 -2.136,17.377 -2.136,17.377l-2.83,17.376c-8.168,50.122 -7.1,92.754 3.464,138.527c3.409,14.769 2.959,16.776 -3.753,16.765c-11.838,-0.011 -45.518,-6.728 -67.331,-13.429c-26.318,-8.084 -25.4,-8.501 -19.923,9.097c2.385,7.663 4.865,19.84 5.516,27.057c1.862,20.813 7.656,27.397 51.395,58.385l14.718,10.431l-6.261,7.991c-19.294,24.616 -26.44,43.232 -26.44,68.877c0,31.644 2.553,36.093 15.442,26.918c6.605,-4.704 34.207,-9.926 36.676,-6.94c0.762,0.923 3.186,5.85 5.388,10.949l4.009,9.28l-6.906,22.22c-10.659,34.269 -7.751,57.083 13.279,104.213c7.317,16.393 10.431,17.933 15.346,7.568c7.007,-14.768 8.408,-20.668 9.959,-42.07c2.63,-36.148 22.692,-66.842 47.108,-72.08c69.022,-14.802 61.804,72.213 -13.439,161.959c-31.361,37.405 -31.383,37.544 -2.742,20.968c41.565,-24.054 70.74,-44.717 107.2,-75.928c12.694,-10.865 13.467,-11.193 29.67,-12.394c9.147,-0.678 18.622,-2.296 21.047,-3.597c14.44,-7.729 22.353,23.82 11.526,45.94c-11.443,23.376 -29.209,38.15 -73.069,60.775c-15.547,8.019 -26.284,14.619 -23.866,14.663c11.744,0.217 35.47,15.091 56.939,35.698c18.405,17.666 22.815,20.857 28.82,20.857l7.095,0l-1.929,12.489c-4.805,31.166 -0.757,61.215 12.583,93.399c8.201,19.789 7.379,20.129 19.978,-8.28c13.562,-30.565 30.922,-49.499 38.379,-41.853c2.357,2.419 3.113,44.589 1.045,58.518c-1.874,12.628 4.326,29.298 29.698,79.914c20.474,40.842 22.086,56.645 7.657,74.938c-6.506,8.247 17.032,-12.377 26.062,-22.836c5.532,-6.406 10.464,-11.249 10.954,-10.76c0.495,0.49 5.032,10.988 10.086,23.321c5.055,12.338 18.166,39.045 29.131,59.352c10.966,20.312 26.046,49.332 33.508,64.49c7.462,15.157 14.079,27.618 14.696,27.691c4.037,0.472 69.906,-134.668 79.069,-162.226c7.162,-21.541 7.029,-21.519 16.053,-2.597c7.145,14.975 11.271,18.956 11.271,10.871c0,-8.068 11.366,-36.193 28.431,-70.345c21.051,-42.126 21.658,-45.173 13.734,-69.494l-6.078,-18.661l4.621,-10.409c2.536,-5.728 5.238,-13.345 6.005,-16.932c1.34,-6.278 8.797,-16.292 12.133,-16.292c0.884,0 6.111,8.457 11.61,18.794c10.893,20.474 28.537,46.369 31.589,46.369c3.431,-0 4.371,-7.312 3.831,-29.676c-0.545,-22.503 2.836,-32.629 9.987,-29.882c4.042,1.551 7.429,-9.664 8.908,-29.493c2.936,-39.345 27.746,-66.669 72.335,-79.669c16.665,-4.86 16.693,-4.515 -1.134,-13.44c-59.524,-29.782 -87.371,-60.72 -87.371,-97.074l-0,-17.977l10.965,-2.352c26.696,-5.722 46.502,3.737 84.597,40.408c23.787,22.892 30.376,27.541 67.32,47.447c37.766,20.351 38.667,20.09 19.133,-5.511c-40.913,-53.63 -61.354,-90.218 -66.981,-119.877c-1.145,-6.05 -3.203,-14.724 -4.57,-19.289c-10.415,-34.758 33.974,-46.602 67.414,-17.982c19.406,16.609 34.986,74.565 26.234,97.591c-6.177,16.247 18.9,0.267 26.668,-16.993c1.479,-3.286 3.475,-5.972 4.443,-5.972c12.161,0 15.08,-71.034 4.904,-119.46c-3.937,-18.756 -3.108,-19.034 19.011,-6.395c32.218,18.411 33.319,17.977 42.916,-17.042l4.932,-18.005l-4.593,-11.321c-2.53,-6.222 -5.227,-15.225 -6,-20.001c-0.773,-4.782 -3.264,-11.338 -5.543,-14.574c-5.166,-7.345 3.258,-23.126 -2.72,-46.007c-3.847,-14.741 -2.891,-15.847 7.029,-8.174c12.633,9.775 24.027,16.042 27.057,14.88c4.843,-1.857 38.567,-86.721 35.631,-89.657c-0.539,-0.539 -10.17,1.43 -21.396,4.382c-24.361,6.395 -53.614,11.822 -67.12,12.439c-5.377,0.244 -10.404,1.379 -11.171,2.513c-5.094,7.529 -5.905,-8.124 -0.962,-18.605c11.844,-25.111 13.517,-56.733 6.011,-113.5c-2.525,-19.116 -5.644,-44.038 -6.929,-55.387c-6.15,-54.409 -19.745,-100.516 -44.505,-150.96c-37.055,-75.489 -56.116,-97.202 -133.584,-152.134l-11.944,-8.468l16.292,17.498c65.813,70.718 92.926,252.767 51.573,346.282c-2.886,6.522 -8.43,21.419 -12.322,33.112c-3.898,11.688 -9.275,23.905 -11.949,27.146c-2.68,3.248 -10.565,14.519 -17.532,25.05c-43.55,65.858 -94.466,91.247 -183.533,91.508c-54.821,0.167 -80.137,-10.075 -112.06,-45.323c-17.893,-19.756 -15.163,-19.517 -33.012,-2.858c-47.664,44.483 -73.37,53.514 -137.187,48.176c-105.192,-8.797 -184.173,-93.06 -205.508,-219.254c-21.286,-125.916 4.648,-231.13 74.788,-303.416c17.165,-17.693 30.849,-32.056 30.41,-31.928c-0.44,0.133 -8.48,4.982 -17.86,10.776" style="fill:#a62639;"/></svg>