<?xml version="1.0" encoding="UTF-8" standalone="no"?><!DOCTYPE svg PUBLIC "-//W3C//DTD SVG 1.1//EN" "http://www.w3.org/Graphics/SVG/1.1/DTD/svg11.dtd"><svg width="100%" height="100%" viewBox="0 0 2001 2000" version="1.1" xmlns="http://www.w3.org/2000/svg" xmlns:xlink="http://www.w3.org/1999/xlink" xml:space="preserve" xmlns:serif="http://www.serif.com/" style="fill-rule:evenodd;clip-rule:evenodd;stroke-linejoin:round;stroke-miterlimit:2;"><path id="path2" d="M994.105,196.627c-0.242,4.073 -15.125,54.216 -23.679,79.785c-3.524,10.529 -13.836,36.141 -23.835,59.208c-35.743,82.433 -112.222,190.5 -189.539,267.827c-51.161,51.17 -91.655,82.328 -140.035,107.75c-5.599,2.942 -12.311,6.598 -14.911,8.128l-4.732,2.781l-0.625,11.211c-0.882,15.864 -6.679,94.933 -8.863,120.843c-1.004,11.955 -2.472,30.277 -3.254,40.707c-2.482,33.015 -3.278,41.37 -4.595,48.286c-1.439,7.55 -1.245,9.118 0.465,3.813c4.547,-14.063 27.814,-56.679 44.15,-80.86c29.553,-43.734 51.858,-69.98 99.793,-117.413c103.35,-102.27 121.344,-122.122 167.721,-185.025c50.759,-68.857 99.992,-160.484 99.992,-186.109c-0,-6.03 1.028,-5.139 4.163,3.595c15.201,42.337 51.408,112.316 81.263,157.073c50.356,75.489 83.091,111.981 180.084,200.76c67.792,62.046 128.104,138.108 156.988,197.97l3.122,6.48l-0.474,-5.551c-0.26,-3.056 -0.72,-8.882 -1.018,-12.955c-0.299,-4.069 -1.341,-15.101 -2.321,-24.513c-0.981,-9.416 -3.046,-29.812 -4.59,-45.334c-1.544,-15.518 -3.624,-35.293 -4.628,-43.943c-0.999,-8.649 -3.273,-30.504 -5.049,-48.57c-1.776,-18.061 -3.463,-34.947 -3.751,-37.524l-0.522,-4.68l-8.047,-3.415c-56.012,-23.75 -139.373,-90.295 -195.512,-156.059c-99.248,-116.272 -158.433,-222.426 -191.362,-343.226c-5.646,-20.723 -6.295,-22.845 -6.399,-21.04m-8.56,344.608c-6.304,6.996 -14.603,16.257 -18.439,20.581c-3.832,4.325 -16.768,18.909 -28.738,32.409c-11.97,13.499 -31.513,34.937 -43.431,47.646c-11.912,12.704 -30.404,32.659 -41.086,44.335c-10.686,11.681 -27.094,29.373 -36.458,39.32c-22.779,24.19 -22.021,22.726 -18.146,34.919c7.043,22.172 34.611,67.9 82.589,137.004l4.684,6.749l3.7,-9.525c17.478,-44.956 18.605,-55.694 7.332,-69.928c-2.534,-3.202 -4.348,-6.087 -4.026,-6.404c0.317,-0.322 49.181,-0.772 108.584,-1.004l108.001,-0.422l-4.249,3.591c-2.34,1.97 -10.25,8.777 -17.578,15.124c-7.332,6.342 -17.748,15.352 -23.153,20.022c-23.612,20.396 -59.109,47.447 -108.129,82.404c-11.098,7.91 -68.317,45.96 -71.884,47.798c-6.66,3.434 -6.674,3.425 -28.429,-20.216c-43.005,-46.732 -65.656,-75.877 -90.239,-116.106c-5.755,-9.412 -11.401,-18.099 -12.548,-19.307l-2.084,-2.193l-4.954,2.279c-8.919,4.102 -20.349,13.703 -41.56,34.9c-38.22,38.206 -52.142,56.603 -109.062,144.128c-7.863,12.092 -18.653,28.647 -23.977,36.785c-66.537,101.768 -125.144,154.397 -190.169,170.767c-3.851,0.971 -6.631,2.695 -4.344,2.695c2.421,0 49.641,37.695 68.564,54.733c3.297,2.969 6.243,5.404 6.537,5.404c1.918,0 29.632,28.278 29.23,29.822c-0.351,1.341 -0.18,1.511 0.748,0.739c2.624,-2.179 24.811,25.517 38.168,47.656c20.908,34.644 28.027,56.4 34.228,104.615l0.729,5.669l12.491,-5.092c12.633,-5.148 36.78,-13.996 73.082,-26.776c22.575,-7.953 34.905,-13.163 46.259,-19.558l7.863,-4.429l-0.19,-4.106c-0.104,-2.26 -0.729,-4.434 -1.388,-4.827c-0.658,-0.388 -3.794,-2.264 -6.972,-4.159c-38.689,-23.115 -64.031,-61.856 -72.609,-111.004c-1.625,-9.313 -2.24,-11.269 -3.429,-10.918c-24.072,7.029 -91.281,-8.114 -132.575,-29.865c-11.241,-5.926 -11.809,-6.622 -5.381,-6.622c20.917,0 77.227,-34.616 110.611,-67.995c20.614,-20.609 55.803,-64.438 74.276,-92.517c23.139,-35.17 48.655,-84.37 58.171,-112.174c3.292,-9.611 2.648,-9.782 15.058,3.926c28.974,31.987 76.086,71.231 122.401,101.957l11.799,7.83l6.238,-3.481c13.595,-7.584 50.299,-31.253 102.758,-66.257c12.884,-8.602 31.826,-21.074 42.09,-27.719c36.383,-23.546 71.316,-56.533 113.472,-107.149c37.993,-45.619 78.663,-112.482 73.13,-120.226c-2.633,-3.69 -16.744,-19.473 -43.45,-48.613c-80.803,-88.169 -131.793,-145.066 -153.165,-170.895c-4.069,-4.922 -7.868,-8.967 -8.441,-8.995c-0.573,-0.024 -6.205,5.674 -12.51,12.675m17.379,89.244c1.966,2.406 9.403,10.535 16.522,18.066c48.129,50.896 99.466,109.669 99.452,113.856c-0,0.35 -54.018,0.786 -120.038,0.971c-117.057,0.331 -119.994,0.293 -118.578,-1.388c26.919,-31.959 72.713,-84.138 92.247,-105.102c8.848,-9.498 17.18,-19.492 22.395,-26.858c3.652,-5.153 3.396,-5.167 8,0.455m236.939,199.396c-1.279,1.909 -7.195,11.16 -13.139,20.562c-28.781,45.505 -65.244,90.428 -102.829,126.678c-16.858,16.261 -15.892,14.504 -11.605,21.045c1.951,2.975 12.841,20.084 24.2,38.021c11.358,17.934 20.983,32.613 21.39,32.613c0.408,-0 6.272,-4.912 13.031,-10.909c6.755,-5.997 16.242,-14.215 21.074,-18.265c15.024,-12.585 41.199,-36.951 62.832,-58.488c11.406,-11.354 21.059,-20.321 21.452,-19.918c0.393,0.398 2.141,4.054 3.884,8.123c39.997,93.313 108.248,188.686 167.172,233.59c24.508,18.682 59.891,38.045 72.159,39.499c5.675,0.673 5.679,0.668 -6.195,6.158c-44.44,20.543 -79.297,29.112 -114.59,28.174l-14.859,-0.398l-1.62,9.563c-9.156,54.136 -29.936,85.213 -75.195,112.483c-14.353,8.649 -14.461,8.89 -6.878,15.74c5.206,4.708 10.785,7.323 31.982,15.015c66.565,24.157 103.492,38.85 105.406,41.943c1.331,2.151 3.547,1.175 2.927,-1.288c-1.544,-6.158 5.011,-40.395 11.065,-57.788c23.295,-66.924 57.598,-108.806 153.833,-187.814c10.142,-8.327 9.995,-7.532 1.781,-9.63c-7.067,-1.8 -24.479,-8.047 -33.076,-11.865c-18.866,-8.37 -51.696,-34.119 -73.082,-57.314c-16.494,-17.891 -16.503,-17.905 -25.076,-28.506c-7.541,-9.326 -13.311,-16.976 -37.326,-49.493c-11.424,-15.475 -47.954,-69.852 -68.53,-102.029c-32.219,-50.374 -84.422,-110.701 -112.255,-129.723c-4.395,-3.003 -9.028,-6.305 -10.302,-7.333c-3.335,-2.704 -4.997,-2.363 -7.631,1.554m-212.156,224.401c-16.56,14.74 -39.372,30.745 -63.533,44.577c-7.001,4.002 -12.723,7.569 -12.723,7.924c-0,1.715 14.177,27.809 32.408,59.649c16.361,28.567 23.84,42.176 24.503,44.563c0.029,0.099 12.732,-12.391 28.236,-27.762c15.498,-15.37 37.244,-36.415 48.323,-46.77c11.079,-10.359 20.543,-19.581 21.036,-20.5c0.763,-1.426 -1.45,-3.7 -14.812,-15.252c-8.639,-7.465 -24.398,-22.49 -35.023,-33.385c-10.619,-10.894 -19.681,-19.78 -20.131,-19.752c-0.45,0.034 -4.178,3.051 -8.284,6.708m231.799,23.873c-14.054,10.264 -24.678,17.431 -35.269,23.778c-4.396,2.638 -8.896,5.527 -10.004,6.423l-2.008,1.624l3.154,4.154c1.739,2.288 7.948,10.611 13.808,18.497c11.031,14.859 15.233,19.989 35.316,43.147c6.556,7.564 12.908,15.233 14.116,17.042l2.193,3.297l-4.96,11.046c-19.032,42.393 -48.877,94.81 -68.445,120.208c-19.543,25.369 -42.474,51.62 -66.266,75.863c-53.634,54.656 -79.988,86.709 -105.728,128.591c-10.851,17.659 -24.687,47.936 -37.846,82.802c-5.963,15.802 -9.359,22.921 -7.82,16.403c1.075,-4.552 -4.159,-20.282 -15.721,-47.258c-24.058,-56.148 -59.232,-108.257 -111.857,-165.736c-36.747,-40.139 -67.853,-78.786 -83.754,-104.07c-15.466,-24.593 -47.722,-88.723 -58.048,-115.41l-1.516,-3.922l3.32,-3.481c1.824,-1.909 6.182,-6.826 9.677,-10.918c3.496,-4.097 14.736,-16.792 24.977,-28.217c23.901,-26.672 38.547,-44.856 37.06,-46.026c-0.602,-0.478 -5.675,-3.486 -11.274,-6.688c-16.246,-9.294 -23.351,-13.708 -34.587,-21.481c-5.798,-4.007 -10.837,-6.949 -11.202,-6.537c-0.36,0.412 -8.185,11.989 -17.388,25.73c-23.281,34.763 -45.918,62.046 -68.886,83.011l-8.133,7.422l2.193,2.889c1.203,1.592 3.671,6.845 5.48,11.681c30.737,82.12 44.521,113.633 79.624,182.036c30.609,59.639 26.668,53.278 42.204,68.194c130.87,125.678 184.864,209.935 216.386,337.683c0.63,2.553 0.815,2.264 2.373,-3.699c17.412,-66.536 59.683,-149.945 104.312,-205.838c37.912,-47.476 81.082,-91.887 116.428,-119.767c17.866,-14.092 23.92,-23.106 67.758,-100.877c19.373,-34.374 40.186,-80.462 63.078,-139.695c4.917,-12.718 10.426,-26.795 12.24,-31.276c1.814,-4.476 3.15,-8.223 2.965,-8.322c-0.185,-0.1 -1.989,-1.014 -4.017,-2.032c-14.124,-7.096 -49.327,-53.075 -76.004,-99.267c-6.494,-11.255 -4.069,-11.122 -17.929,-1.004m-112.7,84.739c-17.393,24.967 -35.449,47.097 -62.088,76.085c-15.646,17.024 -87.146,88.856 -88.449,88.856c-0.573,-0 -3.917,-3.254 -7.436,-7.233c-3.515,-3.974 -13.059,-14.693 -21.216,-23.821c-43.213,-48.361 -90.551,-109.972 -109.228,-142.157c-1.989,-3.425 -3.884,-6.13 -4.216,-6.016c-0.511,0.18 -27.34,24.517 -57.801,52.43l-8.526,7.811l1.899,3.756c28.647,56.661 77.208,114.15 182.983,216.624c8.398,8.132 17.019,16.72 19.165,19.088l3.898,4.297l63.666,-63.543c89.173,-89.003 110.587,-113.33 144.279,-163.928c15.541,-23.328 15.84,-23.901 13.472,-25.819c-0.995,-0.81 -5.936,-4.784 -10.971,-8.839c-5.039,-4.054 -17.748,-15.83 -28.245,-26.17l-19.079,-18.805l-12.107,17.384" style="fill:#696969;"/></svg>