<svg viewBox="0 0 2001 2000" xmlns="http://www.w3.org/2000/svg" xml:space="preserve" style="fill-rule:evenodd;clip-rule:evenodd;stroke-linejoin:round;stroke-miterlimit:2">
  <path d="M896.193 410.54c-1.142 53.013-3.427 81.347-6.855 83.632-1.828 1.6-7.083 9.369-11.425 17.595-12.568 22.851-24.679 41.131-27.42 41.131-6.17 0-69.695-74.95-72.436-85.003-.914-3.657-2.514-6.628-3.885-7.085-4.341-.914-3.884 65.353.457 89.803 2.286 11.882 3.885 28.563 3.656 37.017l-.457 15.082 13.253 12.568c7.541 6.855 25.136 20.336 39.532 30.391 14.167 9.826 31.991 23.079 39.531 29.249 7.769 6.398 19.423 15.766 26.278 20.793 6.856 5.027 18.509 15.539 25.821 23.308l13.482 13.938 2.056 40.674c1.6 27.878 1.6 51.871 0 76.093-5.713 80.661-1.599 219.592 7.998 273.291 5.713 31.305 15.995 73.121 23.765 95.972 7.312 21.479 26.278 55.983 31.076 55.983 3.884 0 6.855-4.342 16.909-24.907 15.31-31.076 28.563-81.804 35.19-133.903 14.853-115.623 17.823-162.924 16.909-276.719l-.685-85.004 7.54-10.283c3.885-5.713 7.313-11.425 7.313-12.568 0-1.37 3.427-6.398 7.769-11.197 4.113-4.797 14.396-16.451 22.622-26.049 9.825-11.197 22.165-22.393 34.961-30.848 10.74-7.312 21.023-15.31 22.85-17.823 1.6-2.742 10.512-9.369 19.423-15.082 23.536-14.852 35.875-26.506 38.389-36.332 5.485-20.794 7.541-31.305 12.568-65.809 3.199-20.337 6.627-38.846 7.769-41.131 3.428-6.398 8.226-30.162 6.627-31.991-1.6-1.599-18.052 13.483-69.237 63.753-16.452 15.996-31.306 29.249-33.362 29.249-1.828 0-7.083-5.484-11.654-12.111-4.57-6.398-10.511-14.396-13.024-17.595-5.942-7.312-9.826-31.533-7.998-48.671 2.056-16.453-.914-67.866-3.656-67.866-1.143 0-2.97 2.285-4.114 5.027-1.827 4.798-33.132 42.045-71.292 84.775-15.31 17.366-15.767 18.052-14.397 27.421 2.515 16.681 9.826 43.415 13.253 47.072 6.17 7.083 17.367 29.249 17.367 34.504 0 5.713-7.769 15.767-36.104 47.3-19.422 21.708-20.793 21.708-31.99 3.428-3.885-6.17-13.253-16.681-20.794-23.536-12.339-10.74-32.219-36.789-32.219-41.816 0-.914 5.484-9.369 12.11-18.738 6.855-9.368 17.367-26.506 23.536-38.388 9.826-18.737 10.74-21.708 7.769-24.907-52.327-54.842-79.976-88.203-79.976-96.657 0-1.601-.914-3.657-2.285-4.342-1.371-.914-2.285 2.056-2.514 7.312Z" style="fill:#81a684;fill-rule:nonzero"/>
  <path d="M1336.29 625.106c-16.223 13.024-35.418 28.562-42.273 34.732-22.851 20.337-53.242 42.959-90.26 67.409-38.388 25.364-68.094 49.814-78.377 64.438l-6.169 8.684.685 39.074c.686 39.303 2.971 56.211 7.77 56.211 1.371 0 12.339-7.54 24.221-16.68 11.883-8.912 24.222-17.823 27.649-19.652 3.199-1.828 10.968-7.083 17.138-11.882 6.855-5.484 42.045-27.42 53.013-34.275 24.222-15.082 39.76-28.563 47.301-41.588 3.198-5.256 10.282-22.394 15.994-38.16 18.052-49.358 25.822-68.78 41.36-101.228 8.227-17.138 14.168-31.305 13.253-31.076-.914.228-14.852 10.967-31.305 23.993ZM663.348 611.852c0 1.143 2.513 6.627 5.484 12.111 5.941 10.739 20.793 45.244 45.929 107.168 8.455 20.795 18.508 43.645 22.393 50.957 9.369 17.595 27.193 33.59 67.866 60.554 18.28 11.882 39.532 26.963 47.529 33.133 13.71 10.74 14.625 11.197 18.509 7.312 9.826-8.683 13.71-24.222 14.396-55.07.686-39.074-2.057-45.015-28.563-63.98-50.271-35.876-108.54-82.262-186.003-147.843-4.113-3.656-7.54-5.485-7.54-4.342ZM524.874 698.456c.685 2.284 4.342 18.052 8.226 34.961 14.396 62.838 28.563 101.455 47.529 131.389 7.998 12.111 34.733 44.102 44.101 52.557 4.342 3.656 16.452 14.624 27.192 23.993 10.74 9.597 27.192 23.764 36.561 31.762 9.369 7.998 48.443 45.472 86.831 83.404 38.39 37.931 76.321 74.949 84.547 81.805 8.227 7.084 19.424 18.509 25.136 25.592 5.712 6.855 11.196 12.568 12.111 12.796 2.513 0 1.828-54.155-.915-91.401-1.142-15.767-4.341-37.932-6.855-49.129l-5.027-20.566-40.216-39.987c-23.993-23.765-49.814-47.072-64.21-57.584-72.208-53.013-110.139-84.09-171.378-140.073-37.932-34.733-65.353-63.068-71.979-74.492-5.028-8.455-13.939-12.34-11.654-5.027ZM1439.12 739.586c-20.108 18.281-40.673 37.018-45.7 41.588-45.245 42.044-112.653 99.857-139.388 119.965-11.197 8.455-28.792 22.393-38.846 30.848-10.054 8.683-26.735 22.85-37.018 31.762-15.996 13.482-67.18 68.323-75.178 80.205-1.6 2.513-1.6 16.453.457 48.215 3.884 60.325 4.113 67.408 2.057 83.861-2.285 18.052 2.056 19.651 9.597 3.427 10.282-21.936 48.672-62.61 128.648-136.417 8.226-7.54 26.278-24.45 39.989-37.932 31.305-30.162 50.956-48.214 68.094-62.381 35.19-29.249 71.979-71.751 85.689-98.714 5.484-10.74 20.108-52.785 24.678-71.065 1.828-7.312 4.799-22.165 6.627-33.362 1.828-10.968 4.341-22.165 5.712-24.679 6.17-11.424-1.371-6.169-35.418 24.679Z" style="fill:#81a684;fill-rule:nonzero"/>
  <path d="M1346.58 1075.03c-10.74 10.739-31.305 29.476-45.701 41.587-47.3 39.76-64.21 55.299-126.134 115.395-69.009 66.952-162.695 164.295-169.779 176.634-3.428 5.713-10.74 1.599-18.052-9.826-2.971-4.57-11.882-16.224-19.88-25.821-7.998-9.369-22.164-26.507-31.534-37.703-21.936-26.278-113.567-118.822-143.044-144.415-12.339-10.968-24.221-21.479-26.277-23.307-2.057-1.828-15.31-14.168-29.706-27.421-14.395-13.253-37.932-35.19-51.87-48.9-14.168-13.71-26.279-24.45-26.736-23.993-3.198 3.199 9.598 40.217 22.623 66.038 2.97 5.712 10.74 26.278 17.366 45.701 13.025 38.617 17.823 47.986 30.391 58.954 4.57 3.884 13.025 12.568 18.966 19.195 9.825 11.425 27.877 31.076 80.205 87.288 11.882 12.796 22.393 23.308 23.307 23.765 1.143.456 15.082 14.624 30.848 31.761 54.613 58.498 111.968 142.131 124.764 181.433 2.513 7.998 5.484 15.31 6.398 16.453.914.913 5.027-7.312 9.368-18.281 14.397-38.388 47.529-97.571 74.493-133.218 20.565-27.421 50.043-61.696 53.013-61.696 1.371 0 2.742-.914 2.742-2.057 0-3.427 25.364-30.163 83.633-88.202 30.391-30.163 58.497-59.868 62.61-65.81 3.885-6.169 11.197-20.793 16.224-32.904 4.799-12.111 9.825-23.079 10.74-24.451 1.142-1.371 4.112-7.769 6.855-14.167 2.742-6.398 7.997-18.28 11.654-26.277 7.769-17.138 27.648-69.466 27.648-72.893 0-5.713-7.083-.914-25.135 17.138Z" style="fill:#81a684;fill-rule:nonzero"/>
</svg>
