<?xml version="1.0" encoding="UTF-8" standalone="no"?><!DOCTYPE svg PUBLIC "-//W3C//DTD SVG 1.1//EN" "http://www.w3.org/Graphics/SVG/1.1/DTD/svg11.dtd"><svg width="100%" height="100%" viewBox="0 0 2000 2000" version="1.1" xmlns="http://www.w3.org/2000/svg" xmlns:xlink="http://www.w3.org/1999/xlink" xml:space="preserve" xmlns:serif="http://www.serif.com/" style="fill-rule:evenodd;clip-rule:evenodd;stroke-linejoin:round;stroke-miterlimit:2;"><path id="path1" d="M990.846,233.756c-0.277,12.548 -5.311,63.587 -17.36,176.192c-9.115,85.169 -4.797,74.743 -62.026,149.797c-10.237,13.427 -29.698,39.247 -43.247,57.37c-13.555,18.116 -33.253,44.355 -43.774,58.303c-47.923,63.499 -74.79,99.265 -91.055,121.233c-9.677,13.062 -20.502,26.875 -24.057,30.686c-3.554,3.811 -6.095,7.534 -5.635,8.264c1.689,2.75 11.555,6.71 23.394,9.399c19.299,4.386 16.103,-0.027 83.487,115.301c16.542,28.314 33.449,56.823 37.571,63.351c4.129,6.534 19.292,31.482 33.706,55.437c14.413,23.948 34.3,56.025 44.193,71.263c35.145,54.147 43.396,69.547 41.173,76.838c-2.798,9.204 -20.867,37.774 -39.045,61.742c-9.913,13.069 -33.665,44.545 -52.795,69.953c-33.523,44.531 -63.566,82.872 -83.163,106.124c-14.988,17.786 -25.076,30.023 -71.851,87.15c-9.176,11.217 -29.949,35.861 -46.166,54.775c-29.043,33.882 -42.801,50.971 -41.815,51.958c0.277,0.277 9.008,2.189 19.401,4.257c31.962,6.352 47.747,12.69 104.023,41.767c158.96,82.115 321.812,83.663 467.211,4.453c75.243,-40.99 87.663,-45.97 127.822,-51.282l7.055,-0.932l-9.548,-13.197c-9.643,-13.319 -30.659,-39.416 -60.073,-74.568c-15.455,-18.468 -29.152,-35.131 -51.397,-62.512c-5.811,-7.149 -20.542,-25.252 -32.739,-40.24c-46.478,-57.1 -74.804,-92.826 -92.644,-116.842c-10.163,-13.677 -28.293,-38.017 -40.294,-54.086c-30.064,-40.254 -48.68,-70.054 -48.761,-78.054c-0.034,-2.805 22.576,-41.605 40.368,-69.284c16.13,-25.09 34.233,-54.842 56.607,-93.042c6.372,-10.886 17.042,-28.705 23.711,-39.591c6.663,-10.893 17.657,-29.597 24.428,-41.578c22.205,-39.274 57.492,-97.975 63.864,-106.24c15.441,-20.035 21.266,-24.34 34.165,-25.252c9.92,-0.696 21.969,-3.156 22.908,-4.683c2.007,-3.237 -60.979,-91.967 -105.699,-148.898c-3.703,-4.724 -21.833,-29.071 -40.287,-54.113c-32.888,-44.633 -56.485,-75.291 -79.237,-102.942c-38.213,-46.443 -37.389,-44.105 -48.809,-138.58c-10.399,-86.055 -23.299,-173.34 -23.61,-159.697m24.482,344.139c34.692,44.849 63.344,81.426 90.069,115.011c34.199,42.956 34.084,42.787 31.746,47.153c-2.939,5.486 -21.853,27.82 -36.206,42.733c-24.651,25.631 -85.731,92.502 -97.664,106.942c-7.21,8.717 -7.129,8.724 -15.218,-1.169c-7.142,-8.744 -36.044,-42.551 -56.052,-65.573c-43.011,-49.471 -73.98,-85.508 -74.345,-86.495c-0.236,-0.648 3.163,-5.493 7.555,-10.764c9.001,-10.805 25.982,-32.077 37.585,-47.079c4.257,-5.514 9.94,-12.697 12.622,-15.967c13.083,-15.927 65.222,-85.616 73.331,-98.016c3.629,-5.548 7.014,-10.116 7.528,-10.143c0.507,-0.034 9.082,10.481 19.049,23.367m-19.225,78.71c-4.169,6.744 -13.116,17.61 -36.388,44.193c-11.616,13.272 -21.975,25.536 -23.029,27.253c-3.014,4.926 -2.791,5.21 40.476,52.41l18.772,20.475l5.035,-4.785c2.77,-2.628 10.028,-10.129 16.129,-16.656c6.096,-6.535 18.766,-19.752 28.145,-29.375l17.055,-17.495l-8.338,-11.541c-4.582,-6.345 -17.008,-22.529 -27.611,-35.956c-10.602,-13.434 -20.691,-26.347 -22.421,-28.705c-3.905,-5.346 -4.419,-5.339 -7.825,0.182m122.646,198.896c0,4.92 3.731,11.508 15.056,26.577c6.237,8.312 11.346,15.812 11.346,16.677c-0,0.858 -13.576,21.894 -30.165,46.734c-51.059,76.473 -93.462,144.993 -111.105,179.543c-4.69,9.191 -8.825,16.711 -9.19,16.711c-0.365,0.007 -5.25,-9.054 -10.866,-20.116c-18.326,-36.139 -51.599,-90.461 -102.955,-168.09c-17.826,-26.955 -33.74,-51.315 -35.368,-54.133l-2.946,-5.129l13.704,-20.684c7.541,-11.373 14.143,-20.718 14.67,-20.766c1.77,-0.155 18.076,18.908 56.451,65.993c22.495,27.597 46.173,55.208 58.039,67.675l9.872,10.366l3.987,-4.595c2.196,-2.534 9.109,-10.461 15.36,-17.623c18.103,-20.732 29.144,-33.672 34.78,-40.754c8.325,-10.461 33.537,-40.95 43.193,-52.235c4.859,-5.676 12.204,-14.791 16.319,-20.265c7.284,-9.683 9.818,-11.204 9.818,-5.886m-469.846,58.715c-0,2.217 18.86,39.402 53.829,106.138c29.949,57.167 28.543,53.991 21.901,49.423c-2.818,-1.932 -27.55,-14.697 -54.971,-28.36c-27.415,-13.664 -51.917,-26.117 -54.438,-27.678l-4.595,-2.838l0,3.385c0,5.913 7.839,42.517 12.549,58.573c8.027,27.394 39.49,116.855 44.166,125.606c1.865,3.487 4.804,3.392 44.247,-1.345c30.854,-3.71 31.016,-3.744 31.016,-6.467c0,-6.852 -20.076,-59.397 -33.422,-87.481c-4.743,-9.98 -8.446,-18.15 -8.223,-18.15c0.223,0 4.98,5.359 10.582,11.907c16.035,18.745 40.341,39.226 93.61,78.858c63.64,47.349 73.02,52.349 97.711,52.039c18.083,-0.223 19.373,-0.852 16.069,-7.839c-11.514,-24.306 -30.273,-49.869 -113.578,-154.757c-6.629,-8.352 -19.738,-24.982 -29.124,-36.956c-64.857,-82.731 -84.082,-102.246 -107.807,-109.463c-5.291,-1.615 -11.852,-3.723 -14.569,-4.696c-4.23,-1.514 -4.953,-1.5 -4.953,0.101m672.98,1.683c-23.624,8.534 -49.086,33.482 -98.536,96.535c-40.686,51.884 -44.653,57.012 -71.662,92.536c-54.856,72.155 -80.751,110.05 -78.048,114.22c3.859,5.933 27.841,6.771 40.963,1.425c27.692,-11.278 99.341,-64.904 140.419,-105.097c21.116,-20.664 24.468,-23.475 20.211,-16.92c-8.636,13.285 -31.544,93.332 -26.712,93.332c0.419,0 4.21,0.899 8.42,1.994c8.967,2.338 41.145,6.94 52.464,7.507l7.852,0.399l4.892,-14.522c2.69,-7.98 10.508,-30.847 17.373,-50.808c16.232,-47.207 37.423,-125.978 34.7,-129.005c-1.298,-1.439 -83.711,44.504 -116.396,64.891c-6.866,4.277 -9.846,4.487 -6.203,0.432c1.473,-1.635 7,-11.285 12.291,-21.448c14.549,-27.935 21.063,-40.111 26.124,-48.835c6.312,-10.879 43.376,-83.764 44.464,-87.434c1.128,-3.818 -0.054,-3.743 -12.616,0.798m-587.851,315.731c-19.988,1.46 -57.194,2.764 -94.366,3.304l-61.371,0.906l21.117,10.764c11.616,5.92 24.975,13.373 29.692,16.563c16.305,11.001 48.22,35.32 61.289,46.693c7.21,6.278 13.535,11.406 14.049,11.406c4.189,0 -3.899,29.746 -17.238,63.385c-11.305,28.502 -23.11,61.221 -25.813,71.526c-1.088,4.149 -2.372,8.575 -2.859,9.832c-0.703,1.845 0,1.676 3.656,-0.878c4.392,-3.061 23.658,-18.306 24.989,-19.772c0.365,-0.399 7.494,-6.035 15.839,-12.522c8.345,-6.487 35.78,-28.273 60.958,-48.416c25.178,-20.137 50.424,-40.058 56.093,-44.268c25.266,-18.745 48.707,-34.131 62.958,-41.335l11.738,-5.926l-8.44,-0.851c-17.447,-1.771 -30.401,-8.352 -77.885,-39.565c-27.246,-17.907 -37.551,-23.887 -40.382,-23.427c-0.568,0.094 -15.88,1.257 -34.024,2.581m463.184,10.454c-30.354,23.671 -58.438,40.091 -82.284,48.105l-12.407,4.17l11.454,5.493c24.09,11.562 71.371,46.93 145.993,109.213c32.415,27.05 71.27,57.762 71.27,56.329c-0,-1.838 -12.596,-38.334 -27.422,-79.453c-14.731,-40.875 -20.096,-56.917 -20.096,-60.14c-0,-5.737 88.298,-65.141 123.241,-82.913c7.899,-4.014 14.528,-7.474 14.738,-7.683c0.216,-0.21 -15.455,-0.196 -34.808,0.033c-46.551,0.548 -138.472,-2.628 -165.927,-5.723l-6.663,-0.757l-17.089,13.326m-182.3,93.042c7.494,10.163 21.84,30.057 31.874,44.213c16.272,22.942 45.944,61.796 68.534,89.745c103.867,128.532 115.179,144.222 109.847,152.358c-9.034,13.785 -85.548,47.113 -139.735,60.871c-91.272,23.164 -192.139,8.764 -288.716,-41.22c-41.334,-21.394 -41.456,-22.063 -10.913,-58.816c8.609,-10.353 27.705,-33.97 42.443,-52.478c14.731,-18.515 31.78,-39.896 37.875,-47.511c24.482,-30.598 44.991,-56.782 62.026,-79.19c12.123,-15.94 22.563,-30.895 44.133,-63.222l21.495,-32.199l3.757,4.487c2.061,2.467 9.886,12.799 17.38,22.962m-24.097,115.814c-14.67,45.707 -74.324,125.552 -105.618,141.364c-13.035,6.596 -13.048,7.298 -0.216,11.028c26.131,7.609 61.871,11.488 105.746,11.488c40.693,-0 49.592,-0.872 121.2,-11.913l4.393,-0.683l-5.717,-3.851c-34.071,-22.975 -74.345,-74.919 -103.557,-133.573c-6.413,-12.887 -12.001,-23.428 -12.413,-23.428c-0.412,-0 -2.129,4.304 -3.818,9.568" style="fill:#cc7ccc;"/></svg>