<?xml version="1.0" encoding="UTF-8" standalone="no"?><!DOCTYPE svg PUBLIC "-//W3C//DTD SVG 1.1//EN" "http://www.w3.org/Graphics/SVG/1.1/DTD/svg11.dtd"><svg width="100%" height="100%" viewBox="0 0 2000 2000" version="1.1" xmlns="http://www.w3.org/2000/svg" xmlns:xlink="http://www.w3.org/1999/xlink" xml:space="preserve" xmlns:serif="http://www.serif.com/" style="fill-rule:evenodd;clip-rule:evenodd;stroke-linejoin:round;stroke-miterlimit:2;"><path d="M1004.25,749.795c27.98,52.822 95.152,136.025 149.027,184.594c41.139,37.088 69.61,58.78 116.59,88.832c8.879,5.676 188.646,151.179 183.119,206.286c0,0 0.486,4.972 0.268,8.645c-0.684,11.534 -4.063,24.395 -10.182,38.725c-4.88,11.433 -4.333,11.224 -14,5.306c-39.485,-24.166 -77.772,-23.023 -133.969,3.999c-30.385,14.616 -63.792,36.581 -89.708,58.985c-43.199,37.341 -88.353,83.082 -115.805,117.31c-34.011,42.406 -71.191,109.554 -83.558,150.91c-5.221,17.455 -8.81,14.929 -21.289,-14.974c-2.346,-5.62 -6.356,-15.166 -8.911,-21.217c-2.559,-6.051 -5.29,-12.592 -6.071,-14.535c-1.496,-3.721 -6.227,-13.678 -8.396,-17.681c-0.704,-1.295 -2.45,-4.57 -3.886,-7.278c-4.059,-7.667 -14.965,-26.704 -18.783,-32.795c-1.895,-3.025 -4.381,-7.237 -5.528,-9.365c-1.142,-2.128 -4.622,-7.431 -7.732,-11.788c-3.11,-4.352 -7.036,-10.041 -8.726,-12.632c-3.379,-5.185 -11.276,-15.17 -13.38,-16.92c-0.736,-0.608 -5.27,-5.894 -10.074,-11.739c-55.046,-66.991 -120.174,-120.585 -187.51,-154.314c-56.455,-28.273 -97.046,-30.453 -132.07,-7.092c-9.334,6.223 -10.263,6.292 -12.987,0.921c-1.923,-3.797 -1.528,-10.407 -1.528,-10.407c3.111,-101.477 39.897,-179.716 136.769,-225.323c0,0 21.229,-14.523 31.817,-21.66c26.447,-17.829 35.612,-24.093 42.036,-28.72c72.679,-52.31 137.928,-116.344 188.674,-185.157c15.359,-20.827 36.054,-55.867 39.562,-66.986c1.207,-3.826 0.752,-4.273 6.231,6.07Zm-6.416,196.257c-0.785,2.044 -20.051,27.36 -28.849,37.912c-11.759,14.105 -17.383,20.156 -44.728,48.127c-12.358,12.64 -22.468,23.39 -22.468,23.889c0,0.499 3.005,2.043 6.678,3.435c41.063,15.569 50.633,22.967 54.745,42.31c6.264,29.484 -31.818,84.35 -83.03,119.627c-9.148,6.3 -9.611,4.783 5.318,17.548c11.783,10.074 65.619,68.898 67.28,70.949c1.662,2.052 8.714,11.237 11.426,15.127c2.711,3.89 5.821,8.392 6.907,10.005c1.086,1.613 4.968,7.471 7.941,12.141c1.681,2.643 8.555,12.471 14.157,20.931c4.306,6.502 7.99,13.385 8.758,12.822c0.769,-0.563 7.362,-12.918 8.01,-13.393c0.652,-0.474 1.239,-1.218 1.311,-1.649c0.375,-2.313 36.758,-54.326 39.776,-58.188c3.017,-3.866 6.863,-8.529 8.544,-10.367c1.686,-1.839 2.845,-3.339 2.575,-3.339c-0.265,0 9.148,-9.692 20.92,-21.539c11.771,-11.844 21.756,-21.479 22.19,-21.411c0.431,0.069 0.696,-0.314 0.588,-0.857c-0.109,-0.539 0.245,-0.893 0.784,-0.784c0.543,0.109 0.897,-0.246 0.789,-0.785c-0.109,-0.543 0.245,-0.897 0.784,-0.788c0.539,0.109 0.893,-0.245 0.785,-0.785c-0.109,-0.539 0.354,-0.981 1.021,-0.981c1.489,0 6.831,-5.049 6.111,-5.769c-0.285,-0.286 0.181,-0.519 1.034,-0.519c0.905,0 3.11,-1.802 5.294,-4.333c2.06,-2.381 1.324,-7.985 -2.936,-11.184c-55.574,-41.73 -88.26,-86.184 -84.616,-115.089c0.733,-5.809 5.677,-16.031 7.278,-15.042c0.515,0.318 0.636,0.169 0.298,-0.378c-0.306,-0.499 -0.125,-0.905 0.402,-0.905c0.531,0 0.744,-0.221 0.475,-0.487c-4.369,-4.373 45.636,-30.156 58.482,-30.156c0.804,0 -7.793,-11.176 -11.309,-14.877c-3.512,-3.701 -15.959,-16.277 -27.658,-27.948c-26.455,-26.382 -39.425,-41.364 -53.413,-61.68c-8.396,-12.198 -10.588,-14.374 -11.654,-11.59Zm7.543,-569.174c1.661,1.38 3.041,5.873 3.653,11.892c0.084,0.824 0.321,0.708 0.796,-0.395c0.648,-1.504 0.684,-1.496 0.829,0.198c0.161,1.854 28.289,65.968 28.547,66.636c0.298,0.781 0.145,1.018 -0.427,0.664c-0.486,-0.302 -0.241,0.547 0.548,1.883c0.788,1.335 1.721,2.252 2.067,2.039c0.35,-0.213 0.455,0.081 0.234,0.656c-0.222,0.575 0.161,1.742 0.853,2.595c0.687,0.849 0.993,1.05 0.679,0.442c-0.366,-0.708 -0.257,-0.909 0.302,-0.563c0.479,0.298 0.652,1.119 0.378,1.823c-0.354,0.925 -0.201,1.102 0.551,0.639c0.692,-0.426 0.853,-0.342 0.483,0.262c-0.7,1.126 5.315,11.336 6.204,10.532c0.358,-0.322 0.426,-0.197 0.153,0.281c-1.815,3.187 37.14,59.388 63.18,91.153c24.874,30.337 120.995,116.356 145.286,133.1c21.096,14.547 190.926,101.242 220.399,123.356c69.593,52.219 102.931,101.963 124.096,185.158c14.455,56.824 18.333,150.463 7.559,182.562c-1.665,4.973 -4.546,14.165 -6.4,20.429c-1.855,6.268 -4.188,13.227 -5.19,15.468c-0.998,2.241 -1.814,4.47 -1.814,4.952c-0,0.479 -9.1,14.065 -14.048,-0.579c-23.466,-69.44 -42.64,-105.434 -93.868,-176.202c-27.795,-38.395 -62.421,-73.584 -112.177,-113.987c-28.74,-23.341 -71.444,-49.929 -126.418,-78.705c-32.304,-16.909 -50.054,-27.236 -64.48,-37.511c-36.42,-25.944 -81.98,-70.104 -110.382,-106.978c-17.098,-22.203 -19.97,-26.085 -27.514,-37.221c-15.818,-23.345 -27.702,-43.915 -42.1,-72.876c-7.269,-14.624 -7.076,-14.402 -8.83,-10.017c-17.444,43.593 -73.158,123.879 -117.153,168.824c-39.24,40.089 -74.94,65.791 -137.123,98.723c-49.608,26.274 -82.407,46.409 -113.541,69.707c-27.63,20.678 -67.348,58.111 -91.961,86.67c-54.978,63.797 -77.04,97.815 -109.059,168.124c-1.967,4.325 -7.342,17.408 -11.944,29.075c-8.814,22.343 -11.59,28.293 -13.541,29.045c-1.774,0.68 -4.011,-1.77 -4.562,-4.992c-0.266,-1.561 -1.01,-4.783 -1.65,-7.161c-0.639,-2.378 -1.464,-5.56 -1.834,-7.072c-0.37,-1.513 -1.388,-5.319 -2.261,-8.461c-0.877,-3.138 -1.762,-7.028 -1.971,-8.641c-0.21,-1.613 -0.761,-4.172 -1.223,-5.685c-1.702,-5.543 -4.751,-22.062 -4.747,-25.71c0.004,-2.064 -0.511,-8.702 -1.143,-14.753c-3.617,-34.77 -3.637,-58.687 -0.06,-75.04c0.615,-2.808 1.504,-9.108 1.975,-14c1.062,-11.019 13.264,-78.874 14.35,-78.203c0.547,0.338 0.672,0.057 0.354,-0.776c-0.278,-0.72 -0.145,-1.308 0.294,-1.308c0.438,0 0.724,-0.442 0.635,-0.981c-0.088,-0.543 0.278,-2.044 0.817,-3.339c0.535,-1.3 1.066,-3.154 1.175,-4.128c0.108,-0.973 0.406,-1.979 0.663,-2.237c0.262,-0.257 0.282,-0.965 0.049,-1.573c-0.234,-0.603 -0.008,-1.098 0.499,-1.098c0.583,0 0.728,-0.615 0.394,-1.673c-0.394,-1.235 -0.27,-1.509 0.47,-1.05c0.717,0.442 0.861,0.245 0.503,-0.684c-0.273,-0.72 -0.213,-1.308 0.137,-1.308c0.35,0 1.078,-1.504 1.621,-3.339c0.544,-1.838 2.949,-8.291 5.347,-14.342c2.398,-6.05 4.369,-11.441 4.377,-11.98c0.008,-0.543 0.33,-0.986 0.716,-0.986c0.386,0 0.483,-0.35 0.217,-0.784c-0.269,-0.431 -0.145,-0.785 0.27,-0.785c0.905,0 2.55,-4.385 1.891,-5.04c-0.254,-0.254 -0.069,-0.459 0.406,-0.459c0.845,0 2.217,-2.965 1.911,-4.128c-0.089,-0.321 0.217,-0.587 0.676,-0.587c0.458,0 0.631,-0.326 0.386,-0.72c-0.241,-0.394 -0.141,-0.837 0.225,-0.982c0.841,-0.334 8.428,-14.985 8.175,-15.782c-0.105,-0.326 0.165,-0.587 0.595,-0.587c0.431,0 0.785,-0.37 0.785,-0.821c-0,-0.45 0.696,-1.565 1.545,-2.474c0.848,-0.913 1.359,-1.959 1.134,-2.325c-0.229,-0.366 -0.121,-0.668 0.233,-0.668c0.72,0 5.83,-7.519 5.685,-8.36c-0.052,-0.294 0.471,-0.849 1.154,-1.235c0.688,-0.382 1.252,-1.211 1.252,-1.838c-0,-0.624 0.354,-1.139 0.784,-1.139c0.431,0 0.785,-0.531 0.785,-1.179c-0,-0.647 0.325,-1.178 0.724,-1.178c0.394,0 1.532,-1.324 2.522,-2.945c0.994,-1.621 2.788,-4.007 3.991,-5.306c1.203,-1.296 2.188,-2.551 2.188,-2.788c0.008,-0.769 7.214,-8.722 17.291,-19.089c27.497,-28.29 55.404,-49.089 100.574,-74.964c4.538,-2.603 23.985,-12.85 43.215,-22.775c38.186,-19.704 41.111,-21.297 68.596,-37.313c34.336,-20.014 71.267,-44.075 71.267,-46.437c-0,-0.438 0.201,-0.591 0.45,-0.342c0.773,0.773 28.523,-20.686 45.516,-35.201c20.928,-17.874 59.657,-54.563 57.601,-54.563c-0.285,0 1.577,-2 4.136,-4.442c2.563,-2.442 4.658,-4.658 4.658,-4.924c-0,-0.265 2.121,-2.768 4.711,-5.564c2.595,-2.791 4.715,-5.354 4.715,-5.692c-0,-0.338 1.151,-1.702 2.555,-3.029c1.404,-1.328 2.023,-2.169 1.376,-1.871c-0.648,0.294 83.83,-122.962 83.545,-123.248c-0.286,-0.285 -0.085,-0.519 0.442,-0.519c0.531,0 0.745,-0.354 0.479,-0.788c-0.265,-0.431 -0.052,-0.785 0.479,-0.785c0.527,0 0.744,-0.217 0.475,-0.487c-0.266,-0.265 0.032,-1.001 0.663,-1.633c0.632,-0.631 0.946,-1.472 0.7,-1.871c-0.245,-0.398 -0.072,-0.724 0.387,-0.724c0.458,0 0.752,-0.265 0.655,-0.587c-0.273,-0.917 23.462,-54.318 23.14,-55.396c-0.096,-0.322 0.137,-0.588 0.523,-0.588c0.387,0 0.93,-0.917 1.211,-2.031c1.195,-4.772 6.107,-7.057 9.354,-4.361Z" style="fill:#f49d6e;"/></svg>