<?xml version="1.0" encoding="UTF-8" standalone="no"?><!DOCTYPE svg PUBLIC "-//W3C//DTD SVG 1.1//EN" "http://www.w3.org/Graphics/SVG/1.1/DTD/svg11.dtd"><svg width="100%" height="100%" viewBox="0 0 2000 2000" version="1.1" xmlns="http://www.w3.org/2000/svg" xmlns:xlink="http://www.w3.org/1999/xlink" xml:space="preserve" xmlns:serif="http://www.serif.com/" style="fill-rule:evenodd;clip-rule:evenodd;stroke-linejoin:round;stroke-miterlimit:2;"><path id="path1" d="M655.784,338.73c-0.064,51.913 -1.571,198.718 -3.352,326.239c-1.773,127.522 -2.905,232.188 -2.503,232.59c3.59,3.58 103.35,-140.32 119.601,-172.52c14.78,-29.276 15.054,-29.322 36.603,-5.627c10.286,11.318 37.014,38.494 59.385,60.39l40.687,39.819l-6.066,11.921c-29.962,58.91 -144.092,164.599 -216.622,200.599l-38.402,19.064l-0.366,105.955c-0.192,58.279 0.229,106.511 0.941,107.187c11.51,10.952 281.406,-268.343 281.406,-291.198c-0,-1.654 1.206,-3.015 2.676,-3.015c1.471,0 2.677,116.021 2.677,257.811c-0,292.65 0.329,297.4 28.254,406.935c8.614,33.772 18.452,74.65 21.868,90.836c8.057,38.175 8.596,37.837 27.971,-17.84c65.852,-189.226 72.155,-253.946 61.504,-631.577c-1.48,-52.498 -1.379,-95.358 0.219,-95.239c1.599,0.109 14.15,14.031 27.889,30.921c37.781,46.459 100.811,110.649 161.767,164.736c30.09,26.701 63.414,56.352 74.038,65.889l19.329,17.338l-0,-101.789c-0,-116.897 1.169,-110.558 -22.727,-122.671c-77.865,-39.453 -155.045,-101.925 -209.342,-169.413c-34.694,-43.143 -35.105,-36.438 4.768,-77.581c18.243,-18.827 43.336,-47.081 55.75,-62.775c26.527,-33.542 26.281,-33.387 32.1,-20.617c12.094,26.564 127.146,178.795 129.622,171.505c2.759,-8.157 -1.242,-618.24 -4.074,-621.127c-1.517,-1.535 -9.455,17.968 -17.649,43.344c-33.25,102.894 -107.306,229.064 -196.141,334.114c-35.041,41.444 -114.715,126.681 -118.414,126.681c-4.915,-0 -80.432,-73.846 -127.732,-124.891c-79.856,-86.187 -136.638,-183.938 -211.424,-363.966c-4.476,-10.797 -9.491,-21.147 -11.135,-23.019c-1.644,-1.864 -3.042,39.087 -3.106,90.991" style="fill:#ae3f2e;"/></svg>