<?xml version="1.0" encoding="UTF-8" standalone="no"?><!DOCTYPE svg PUBLIC "-//W3C//DTD SVG 1.1//EN" "http://www.w3.org/Graphics/SVG/1.1/DTD/svg11.dtd"><svg width="100%" height="100%" viewBox="0 0 2000 2000" version="1.1" xmlns="http://www.w3.org/2000/svg" xmlns:xlink="http://www.w3.org/1999/xlink" xml:space="preserve" xmlns:serif="http://www.serif.com/" style="fill-rule:evenodd;clip-rule:evenodd;stroke-linejoin:round;stroke-miterlimit:2;"><path id="human" d="M814.079,664.917c-3.111,5.051 -46.964,44.402 -84.315,75.653c-19,15.895 -55.514,47.284 -72.786,62.556c-33.289,29.449 -54.836,47.451 -81.699,68.282c-35.068,27.19 -38.62,30.095 -38.62,31.54c-0,5.986 165.519,-11.287 181.354,-18.922c10.602,-5.111 10.495,-4.077 -0.487,4.518c-14.542,11.385 -57.619,53.724 -64.784,63.673l-6.457,8.982l0.837,11.88c1.17,16.634 11.849,72.033 33.791,175.285c8.13,38.248 18.923,82.642 29.433,121.066c4.807,17.567 9.704,35.616 10.898,40.111l2.154,8.168l1.719,-5.948c0.942,-3.263 3.399,-15.629 5.467,-27.478c2.069,-11.842 6.435,-34.575 9.706,-50.501c38.339,-186.785 51.862,-256.375 51.862,-266.811c-0,-6.556 9.088,-15.933 43.077,-44.424c12.93,-10.837 50.486,-43.396 107.725,-93.388c12.268,-10.709 24.216,-20.869 26.551,-22.566l4.252,-3.095l-19.128,-16.77c-10.518,-9.225 -31.495,-28.239 -46.608,-42.249c-38.476,-35.677 -90.33,-82.604 -91.281,-82.604c-0.433,-0 -1.635,1.369 -2.661,3.042" style="fill:#488a7f;"/><path id="human1" serif:id="human" d="M1204.08,674.158c-12.846,12.169 -56.448,51.383 -103.01,92.635c-16.716,14.809 -31.936,28.59 -33.807,30.621l-3.414,3.696l7.233,6.511c3.986,3.582 15.91,14.533 26.505,24.344c21.82,20.186 50.068,45.839 83.677,75.972c12.625,11.317 28.748,26.384 35.829,33.48l12.876,12.907l4.009,39.084c15.728,153.602 29.707,260.315 41.108,313.904c2.471,11.614 2.874,12.626 5.035,12.626c2.114,-0 2.837,-1.696 4.464,-10.397c3.772,-20.223 12.891,-57.962 20.999,-86.901c5.263,-18.794 14.921,-55.893 21.471,-82.444c6.548,-26.551 18.96,-76.862 27.577,-111.795c9.408,-38.126 15.326,-64.921 14.801,-67.02c-2.579,-10.259 -30.165,-41.693 -58.115,-66.213c-4.905,-4.305 -7.574,-7.438 -5.94,-6.967c2.898,0.829 29.799,2.898 100.264,7.705c19.204,1.307 40.036,2.859 46.303,3.445l11.393,1.065l-9.073,-9.713c-12.009,-12.869 -63.408,-62.959 -89.335,-87.06c-11.363,-10.572 -46.797,-44.014 -78.733,-74.33c-31.935,-30.308 -60.867,-57.589 -64.289,-60.624l-6.229,-5.521l-11.599,10.99" style="fill:#488a7f;"/><path id="human2" serif:id="human" d="M1011.89,859.082c-1.985,2.122 -14.276,12.648 -27.311,23.395c-69.067,56.92 -88.613,73.576 -118.525,101.024l-15.972,14.656l-0,335.146l4.48,12.678c11.218,31.776 69.605,163.641 116.181,262.369c10.215,21.653 20.437,43.572 22.719,48.722c2.289,5.148 5.392,10.015 6.898,10.83c3.042,1.628 2.655,2.274 9.552,-15.729c5.18,-13.507 15.105,-34.095 57.286,-118.836c34.163,-68.633 40.507,-81.714 67.012,-138.148c16.778,-35.746 23.136,-50.265 25.684,-58.676c3.437,-11.355 5.217,-72.952 6.138,-212.88l0.882,-133.401l-31.038,-30.863c-30.894,-30.726 -46.722,-45.17 -91.883,-83.844c-25.387,-21.729 -26.597,-22.352 -32.103,-16.443" style="fill:#488a7f;"/><path d="M860.877,259.536c-1.43,66.366 -4.291,101.837 -8.582,104.697c-2.288,2.004 -8.867,11.73 -14.303,22.027c-15.733,28.607 -30.895,51.491 -34.326,51.491c-7.725,0 -87.251,-93.828 -90.682,-106.413c-1.144,-4.578 -3.148,-8.297 -4.863,-8.87c-5.436,-1.144 -4.863,81.815 0.572,112.423c2.861,14.875 4.863,35.758 4.576,46.341l-0.571,18.881l16.591,15.733c9.44,8.582 31.467,25.459 49.489,38.047c17.736,12.301 40.049,28.891 49.488,36.616c9.726,8.01 24.316,19.738 32.898,26.031c8.582,6.293 23.17,19.452 32.324,29.179l16.878,17.449c0,-0 185.367,-0.286 185.367,-1.717c0,-1.715 4.291,-8.01 9.726,-14.018c5.15,-6.005 18.022,-20.594 28.32,-32.61c12.301,-14.017 27.749,-28.034 43.768,-38.618c13.445,-9.154 26.319,-19.166 28.606,-22.312c2.002,-3.432 13.159,-11.729 24.315,-18.881c29.464,-18.593 44.911,-33.183 48.058,-45.483c6.867,-26.032 9.441,-39.191 15.734,-82.386c4.005,-25.46 8.297,-48.63 9.726,-51.491c4.291,-8.01 10.297,-37.76 8.296,-40.049c-2.003,-2.001 -22.599,16.879 -86.677,79.811c-20.596,20.026 -39.192,36.616 -41.765,36.616c-2.288,0 -8.867,-6.865 -14.59,-15.161c-5.72,-8.009 -13.158,-18.023 -16.304,-22.026c-7.439,-9.155 -12.301,-39.476 -10.012,-60.931c2.573,-20.597 -1.145,-84.961 -4.578,-84.961c-1.431,0 -3.718,2.861 -5.15,6.293c-2.287,6.007 -41.477,52.636 -89.249,106.129c-19.167,21.74 -19.739,22.599 -18.023,34.328c3.148,20.882 12.3,54.351 16.591,58.929c7.724,8.867 21.741,36.616 21.741,43.194c0,7.152 -9.725,19.739 -45.197,59.215c-24.315,27.176 -26.031,27.176 -40.049,4.291c-4.862,-7.724 -16.591,-20.883 -26.031,-29.464c-15.447,-13.445 -40.335,-46.056 -40.335,-52.349c0,-1.144 6.866,-11.729 15.161,-23.458c8.581,-11.727 21.742,-33.182 29.464,-48.057c12.301,-23.456 13.446,-27.176 9.727,-31.18c-65.508,-68.657 -100.122,-110.421 -100.122,-121.004c0,-2.005 -1.144,-4.578 -2.86,-5.435c-1.717,-1.145 -2.86,2.573 -3.147,9.153Z" style="fill:#488a7f;fill-rule:nonzero;"/><path d="M865.53,259.536c-1.431,66.366 -4.291,101.837 -8.583,104.697c-2.288,2.004 -8.866,11.73 -14.302,22.027c-15.733,28.607 -30.895,51.491 -34.327,51.491c-7.724,0 -87.251,-93.828 -90.681,-106.413c-1.145,-4.578 -3.148,-8.297 -4.864,-8.87c-5.435,-1.144 -4.863,81.815 0.572,112.423c2.862,14.875 4.863,35.758 4.577,46.341l-0.572,18.881l16.591,15.733c9.44,8.582 31.467,25.459 49.49,38.047c17.735,12.301 40.049,28.891 49.488,36.616c9.726,8.01 24.315,19.738 32.897,26.031c8.582,6.293 23.171,19.452 32.324,29.179l16.879,17.449c-0,-0 185.367,-0.286 185.367,-1.717c0,-1.715 4.291,-8.01 9.726,-14.018c5.149,-6.005 18.022,-20.594 28.32,-32.61c12.3,-14.017 27.749,-28.034 43.767,-38.618c13.445,-9.154 26.319,-19.166 28.606,-22.312c2.003,-3.432 13.159,-11.729 24.315,-18.881c29.465,-18.593 44.911,-33.183 48.058,-45.483c6.868,-26.032 9.442,-39.191 15.735,-82.386c4.004,-25.46 8.296,-48.63 9.725,-51.491c4.292,-8.01 10.298,-37.76 8.297,-40.049c-2.004,-2.001 -22.6,16.879 -86.678,79.811c-20.595,20.026 -39.191,36.616 -41.765,36.616c-2.288,0 -8.866,-6.865 -14.589,-15.161c-5.721,-8.009 -13.158,-18.023 -16.304,-22.026c-7.439,-9.155 -12.302,-39.476 -10.013,-60.931c2.574,-20.597 -1.144,-84.961 -4.577,-84.961c-1.431,0 -3.718,2.861 -5.151,6.293c-2.287,6.007 -41.477,52.636 -89.248,106.129c-19.167,21.74 -19.739,22.599 -18.024,34.328c3.149,20.882 12.301,54.351 16.591,58.929c7.725,8.867 21.742,36.616 21.742,43.194c-0,7.152 -9.726,19.739 -45.198,59.215c-24.314,27.176 -26.031,27.176 -40.048,4.291c-4.863,-7.724 -16.591,-20.883 -26.031,-29.464c-15.448,-13.445 -40.335,-46.056 -40.335,-52.349c-0,-1.144 6.865,-11.729 15.161,-23.458c8.581,-11.727 21.741,-33.182 29.463,-48.057c12.302,-23.456 13.446,-27.176 9.727,-31.18c-65.508,-68.657 -100.121,-110.421 -100.121,-121.004c-0,-2.005 -1.145,-4.578 -2.86,-5.435c-1.717,-1.145 -2.861,2.573 -3.147,9.153Z" style="fill:#488a7f;fill-rule:nonzero;"/></svg>