<?xml version="1.0" encoding="UTF-8" standalone="no"?><!DOCTYPE svg PUBLIC "-//W3C//DTD SVG 1.1//EN" "http://www.w3.org/Graphics/SVG/1.1/DTD/svg11.dtd"><svg width="100%" height="100%" viewBox="0 0 2000 2000" version="1.1" xmlns="http://www.w3.org/2000/svg" xmlns:xlink="http://www.w3.org/1999/xlink" xml:space="preserve" xmlns:serif="http://www.serif.com/" style="fill-rule:evenodd;clip-rule:evenodd;stroke-linejoin:round;stroke-miterlimit:2;"><path id="path1" d="M982.499,276.547c-186.304,15.522 -310.674,178.254 -279.518,365.749c10.942,65.868 26.657,94.852 80.168,147.873c29.015,28.749 33.838,38.455 30.61,61.549c-4.928,35.178 -50.352,58.806 -88.422,45.984c-22.052,-7.43 -107.942,-60.097 -125.729,-77.103c-18.328,-17.514 -33.732,-54.256 -57.341,-136.77c-10.731,-37.511 -19.637,-66.216 -21.58,-69.567c-2.272,-3.929 -7.317,-6.492 -7.975,-4.053c-26.576,98.303 -33.707,146.8 -26.669,181.388c5.008,24.608 23.857,68.419 36.078,83.867c9.253,11.693 54.113,46.238 90.483,69.673c14.591,9.409 57.905,39.442 76.667,53.164c9.502,6.951 33.093,23.727 52.42,37.276c101.741,71.324 100.773,69.387 175.014,348.892c30.461,114.682 32.459,122.713 62.579,251.533c8.608,36.804 14.542,64.988 16.466,78.182l1.502,10.309l1.514,-7.274c7.578,-36.363 33.341,-139.271 47.802,-190.921c4.76,-16.999 12.946,-46.728 18.191,-66.067c5.25,-19.333 14.175,-51.24 19.829,-70.908c5.66,-19.668 13.915,-49.397 18.346,-66.067c8.999,-33.856 23.994,-85.841 37.412,-129.702c26.055,-85.158 29.214,-88.832 154.118,-179.371c9.334,-6.765 23.243,-16.869 30.907,-22.448c34.539,-25.149 50.93,-36.947 76.37,-54.989c56.652,-40.18 71.088,-52.308 79.864,-67.079c15.727,-26.47 32.186,-76.419 34.675,-105.229c2.154,-24.969 -11.562,-93.556 -28.959,-144.765c-5.759,-16.955 -9.049,-15.832 -14.548,4.941c-24.298,91.78 -55.274,174.189 -72.652,193.273c-26.737,29.363 -106.725,79.765 -136.54,86.04c-34.03,7.156 -75.967,-23.101 -77.394,-55.852c-1.062,-24.217 4.201,-32.112 49.328,-74.036c66.7,-61.965 88.454,-172.718 55.094,-280.523c-43.662,-141.102 -167.976,-228.644 -308.11,-216.969m64.069,93.356c104.745,17.769 174.021,102.021 173.897,211.496c-0.081,69.319 -4.488,77.741 -85.016,162.638c-13.455,14.182 -34.954,37.394 -47.789,51.582c-12.828,14.188 -33.266,36.431 -45.412,49.427c-12.146,13.003 -25.688,27.985 -30.095,33.298l-26.216,0.037c-2.507,-3.333 -12.394,-14.566 -21.97,-24.968c-9.571,-10.402 -25.378,-27.582 -35.129,-38.182c-9.75,-10.601 -27.364,-29.276 -39.143,-41.502c-53.09,-55.107 -80.826,-90.21 -91.47,-115.781c-22.741,-54.616 -15.616,-139.091 16.186,-191.939c43.941,-73.018 138.204,-112.044 232.157,-96.106m-55.759,134.127c-33.539,3.37 -66.303,18.526 -95.777,44.295c-14.653,12.81 -18.613,19.097 -23.578,37.412c-7.789,28.773 -14.082,41.794 -24.857,51.42c-5.933,5.3 -6.386,8.168 -2.302,14.61c11.519,18.16 42.21,54.07 100.45,117.524c11.668,12.711 28.271,31.138 36.897,40.95c8.627,9.812 16.025,17.837 16.435,17.837c2.42,0 75.625,-78.554 99.203,-106.452c4.891,-5.791 10.632,-12.431 12.76,-14.765c6.753,-7.41 22.213,-26.197 45.965,-55.864l5.424,-6.771l-6.498,-8.385c-8.862,-11.42 -14.094,-22.361 -19.966,-41.713c-6.473,-21.35 -11.513,-30.747 -23.025,-42.905c-30.455,-32.168 -79.722,-51.364 -121.131,-47.193" style="fill:#77a6b6;"/></svg>