<?xml version="1.0" encoding="UTF-8" standalone="no"?><!DOCTYPE svg PUBLIC "-//W3C//DTD SVG 1.1//EN" "http://www.w3.org/Graphics/SVG/1.1/DTD/svg11.dtd"><svg width="100%" height="100%" viewBox="0 0 2000 2000" version="1.1" xmlns="http://www.w3.org/2000/svg" xmlns:xlink="http://www.w3.org/1999/xlink" xml:space="preserve" xmlns:serif="http://www.serif.com/" style="fill-rule:evenodd;clip-rule:evenodd;stroke-linejoin:round;stroke-miterlimit:2;"><path id="human" d="M997.967,357.634c-3.455,2.765 -13.569,10.956 -22.475,18.204c-8.907,7.249 -30.182,24.412 -47.278,38.14c-31.847,25.566 -46.67,37.914 -58.574,48.791l-6.764,6.18l0.929,225.603l7.812,8.761c17.521,19.65 131.078,128.573 134.036,128.573c1.234,-0 18.331,-14.001 45.615,-37.338c7.832,-6.705 15.996,-13.682 18.131,-15.499c4.105,-3.502 24.154,-21.189 25.267,-22.29c0.358,-0.358 4.729,-4.403 9.709,-8.986c4.988,-4.583 17.309,-16.387 27.39,-26.228l18.324,-17.894l0.829,-17.163c3.329,-68.979 4.583,-111.315 4.729,-159.643l0.172,-55.701l-8.887,-8.216c-19.783,-18.305 -77.076,-62.738 -136.013,-105.486l-6.665,-4.842l-6.287,5.034" style="fill:#6892d2;"/><path id="human1" serif:id="human" d="M1029.44,488.812c46.867,14.338 63.765,78.614 29.737,113.113c-24.339,24.677 -53.353,29.287 -84.059,13.357c-72.804,-37.769 -24.365,-150.55 54.322,-126.47" style="fill:#6892d2;"/><path id="human2" serif:id="human" d="M837.881,769.771c-2.713,4.404 -40.952,38.717 -73.521,65.968c-16.567,13.86 -48.407,41.23 -63.468,54.547c-29.027,25.678 -47.815,41.376 -71.239,59.541c-30.579,23.708 -33.676,26.241 -33.676,27.501c-0,5.22 144.329,-9.841 158.137,-16.499c9.244,-4.457 9.151,-3.555 -0.425,3.939c-12.68,9.928 -50.243,46.847 -56.49,55.522l-5.63,7.832l0.729,10.359c1.021,14.504 10.332,62.811 29.465,152.845c7.089,33.351 16.5,72.062 25.665,105.566c4.191,15.319 8.462,31.057 9.503,34.976l1.878,7.123l1.499,-5.187c0.821,-2.845 2.964,-13.628 4.768,-23.96c1.804,-10.326 5.61,-30.148 8.462,-44.036c33.431,-162.872 45.223,-223.553 45.223,-232.653c-0,-5.716 7.924,-13.893 37.562,-38.736c11.275,-9.451 44.023,-37.841 93.934,-81.433c10.697,-9.338 21.116,-18.197 23.152,-19.677l3.707,-2.699l-16.678,-14.623c-9.172,-8.044 -27.464,-24.624 -40.641,-36.84c-33.551,-31.11 -78.766,-72.029 -79.596,-72.029c-0.377,-0 -1.425,1.194 -2.32,2.653" style="fill:#6892d2;"/><path id="human3" serif:id="human" d="M1177.96,777.829c-11.201,10.611 -49.222,44.804 -89.822,80.776c-14.577,12.913 -27.848,24.929 -29.479,26.7l-2.978,3.223l6.307,5.677c3.476,3.124 13.874,12.673 23.112,21.228c19.027,17.601 43.658,39.97 72.964,66.246c11.009,9.868 25.068,23.006 31.243,29.194l11.228,11.254l3.495,34.081c13.715,133.937 25.904,226.989 35.846,273.717c2.154,10.127 2.505,11.009 4.39,11.009c1.843,0 2.473,-1.478 3.892,-9.066c3.289,-17.633 11.241,-50.541 18.311,-75.776c4.589,-16.387 13.011,-48.737 18.722,-71.889c5.71,-23.151 16.533,-67.022 24.046,-97.482c8.205,-33.246 13.364,-56.61 12.907,-58.44c-2.249,-8.946 -26.303,-36.356 -50.675,-57.736c-4.277,-3.754 -6.605,-6.487 -5.179,-6.076c2.526,0.724 25.983,2.528 87.428,6.719c16.745,1.14 34.91,2.493 40.375,3.004l9.934,0.928l-7.912,-8.469c-10.471,-11.221 -55.29,-54.898 -77.898,-75.915c-9.908,-9.218 -40.806,-38.379 -68.653,-64.813c-27.847,-26.428 -53.074,-50.217 -56.059,-52.863l-5.431,-4.815l-10.114,9.584" style="fill:#6892d2;"/><path id="human4" serif:id="human" d="M1010.37,941.464c-1.732,1.85 -12.448,11.028 -23.815,20.399c-60.225,49.633 -77.268,64.157 -103.351,88.091l-13.928,12.779l0,292.24l3.907,11.056c9.782,27.708 60.694,142.691 101.308,228.78c8.907,18.88 17.82,37.994 19.81,42.484c1.996,4.489 4.702,8.733 6.015,9.443c2.653,1.42 2.314,1.983 8.329,-13.715c4.517,-11.778 13.171,-29.73 49.952,-103.622c29.79,-59.846 35.321,-71.253 58.433,-120.462c14.63,-31.17 20.174,-43.83 22.396,-51.164c2.997,-9.902 4.549,-63.613 5.352,-185.627l0.769,-116.323l-27.065,-26.912c-26.938,-26.792 -40.74,-39.387 -80.12,-73.11c-22.136,-18.947 -23.191,-19.49 -27.992,-14.337" style="fill:#6892d2;"/></svg>