<?xml version="1.0" encoding="UTF-8" standalone="no"?><!DOCTYPE svg PUBLIC "-//W3C//DTD SVG 1.1//EN" "http://www.w3.org/Graphics/SVG/1.1/DTD/svg11.dtd"><svg width="100%" height="100%" viewBox="0 0 2000 2000" version="1.1" xmlns="http://www.w3.org/2000/svg" xmlns:xlink="http://www.w3.org/1999/xlink" xml:space="preserve" xmlns:serif="http://www.serif.com/" style="fill-rule:evenodd;clip-rule:evenodd;stroke-linejoin:round;stroke-miterlimit:2;"><path id="path1" d="M779.031,361.055c-21.613,14.807 -59.557,53.145 -82.339,83.2c-87.829,115.887 -59.804,265.497 73.095,390.254c26.89,25.24 25.841,23.27 16.23,30.543c-12.717,9.625 -52.737,41.717 -61.286,49.151l-8.062,7.013l-13.305,-10.847c-87.621,-71.445 -131.369,-122.399 -170.862,-199.014c-5.27,-10.225 -10.052,-18.588 -10.633,-18.588c-2.057,0 -0.434,19.543 4.181,50.22c1.403,9.33 4.909,34.016 7.795,54.861c2.878,20.845 9.063,61.353 13.738,90.013c4.676,28.66 10.593,65.314 13.158,81.457c5.711,36.007 4.508,33.916 28.559,49.572c10.466,6.812 34.404,23.049 53.192,36.08c58.241,40.408 66.296,44.589 78.926,40.969c5.363,-1.543 5.603,-1.189 15.068,22.087c3.934,9.691 8.435,20.552 9.998,24.138c11.648,26.743 79.594,198.7 85.157,215.512c4.696,14.192 5.698,12.068 -12.743,26.976c-27.825,22.488 -64.693,57.065 -61.861,58.014c0.828,0.274 196.042,159.715 223.994,185.469l13.505,12.436l6.111,-5.917c8.556,-8.282 47.481,-44.823 66.149,-62.108c53.726,-49.725 69.902,-64.58 89.218,-81.925c11.888,-10.68 30.503,-27.611 41.363,-37.636c10.86,-10.025 22.121,-19.803 25.026,-21.72l5.277,-3.5l-11.889,-10.393c-31.298,-27.37 -55.723,-47.127 -60.499,-48.943l-3.018,-1.149l3.105,-8.202c4.155,-10.953 9.838,-25.22 15.749,-39.506c6.118,-14.781 27.07,-69.622 31.899,-83.488c1.997,-5.737 8.469,-22.468 14.38,-37.175c5.911,-14.707 12.764,-32.32 15.235,-39.139c16.617,-45.878 24.024,-60.659 29.681,-59.223c12.951,3.286 18,0.421 96.265,-54.681c28.8,-20.277 48.777,-33.949 62.462,-42.732l9.912,-6.372l4.114,-19.917c2.257,-10.96 7.053,-36.066 10.653,-55.796c3.6,-19.73 8.282,-44.676 10.406,-55.442c15.241,-77.256 27.257,-176.753 21.333,-176.753c-3.079,-0 -5.851,4.207 -11.589,17.605c-25.714,60.005 -52.864,98.329 -103.664,146.331c-24.018,22.702 -75.794,66.917 -78.392,66.95c-2.745,0.027 -65.481,-53.733 -70.296,-60.245c-3.881,-5.256 -3.627,-5.63 13.137,-19.322c115.38,-94.234 165.018,-230.339 121.037,-331.913c-22.862,-52.791 -65.267,-101.688 -113.109,-130.428c-1.215,-0.728 -1.068,0.248 0.495,3.266c7.407,14.334 16.811,57.133 19.509,88.845c9.097,106.79 -22.542,180.827 -134.094,313.812c-10.68,12.731 -8.603,12.337 -22.034,4.121c-15.082,-9.237 -41.905,-22.06 -46.126,-22.06c-3.045,-0 -3.386,-0.388 -2.584,-2.932c1.536,-4.856 3.085,-106.39 3.192,-208.586l0.1,-96.07l4.636,-4.068c2.798,-2.465 4.267,-4.702 3.706,-5.677c-3.346,-5.864 -20.204,-27.858 -52.042,-67.892c-7.04,-8.857 -6.506,-9.037 -17.867,6.011c-5.523,7.32 -17.332,21.907 -26.242,32.42c-24.498,28.92 -25.36,30.469 -20.097,36.12c6.786,7.28 6.446,0.32 7.581,154.792c0.588,80.629 1.603,147.366 2.284,150.385c1.47,6.559 1.516,6.512 -12.189,11.347c-12.85,4.536 -33.188,13.859 -38.571,17.7l-4.014,2.852l-2.158,-3.079c-1.182,-1.697 -14.787,-18.942 -30.229,-38.318c-115.146,-144.513 -140.853,-255.198 -88.664,-381.765c4.335,-10.506 4.328,-11.074 -0.153,-8.001m239.449,520.187c85.959,22.021 107.445,138.329 34.564,187.079c-88.003,58.869 -192.289,-32.326 -149.944,-131.109c18.133,-42.305 70.183,-67.551 115.38,-55.97m-413.611,281.139c0.381,3.226 1.316,12.33 2.077,20.218c3.28,34.109 19.196,124.463 23.263,132.057c1.67,3.126 14.307,13.558 51.348,42.418l24.693,19.236l21.646,-21.42c21.273,-21.052 21.607,-21.466 19.603,-24.451c-1.115,-1.67 -13.431,-16.538 -27.35,-33.041c-13.926,-16.504 -39.914,-48.203 -57.747,-70.444c-30.93,-38.571 -46.546,-57.573 -54.574,-66.416l-3.66,-4.027l0.701,5.87m777.282,6.987c-3.74,5.129 -12.142,15.782 -18.661,23.67c-6.525,7.895 -15.482,18.748 -19.916,24.131c-29.502,35.84 -70.464,82.593 -89.152,101.755l-10.82,11.087l23.43,22.602l23.43,22.608l3.527,-4.341c6.866,-8.456 14.894,-15.489 35.245,-30.877c36.086,-27.284 32.112,-18.828 47.888,-101.962c5.123,-26.97 12.811,-75.426 12.223,-76.982c-0.214,-0.554 -3.447,3.186 -7.194,8.309" style="fill:#4640b2;"/></svg>