<?xml version="1.0" encoding="UTF-8" standalone="no"?><!DOCTYPE svg PUBLIC "-//W3C//DTD SVG 1.1//EN" "http://www.w3.org/Graphics/SVG/1.1/DTD/svg11.dtd"><svg width="100%" height="100%" viewBox="0 0 2000 2000" version="1.1" xmlns="http://www.w3.org/2000/svg" xmlns:xlink="http://www.w3.org/1999/xlink" xml:space="preserve" xmlns:serif="http://www.serif.com/" style="fill-rule:evenodd;clip-rule:evenodd;stroke-linejoin:round;stroke-miterlimit:2;"><path id="path0" d="M740.564,340.888c-80.798,40.943 -122.844,70.153 -168.1,116.775c-102.741,105.845 -156.726,264.298 -133.083,390.637c17.406,93.049 78.067,190.746 164.768,265.363c124.583,107.222 204.244,120.437 288.47,47.86c13.315,-11.476 75.387,-73.849 92.882,-93.333c6.181,-6.884 11.676,-12.674 12.217,-12.869c0.54,-0.196 6.727,5.684 13.744,13.064c111.017,116.713 138.015,136.198 190.851,137.748c34.01,0.997 54.642,-3.924 89.811,-21.425c35.168,-17.5 89.621,-55.433 113.052,-78.753c1.917,-1.911 6.415,-6.22 9.987,-9.575c74.278,-69.729 134.254,-176.483 146.772,-261.233c26.133,-176.918 -71.759,-363.372 -242.596,-462.061c-10.183,-5.88 -35.408,-19.006 -56.063,-29.166c-20.655,-10.16 -38.97,-19.457 -40.703,-20.661c-5.156,-3.589 -3.116,-0.869 14.569,19.39c84.566,96.889 120.581,182.23 122.671,290.661c1.806,93.718 -21.039,153.844 -79.455,209.077c-56.676,53.6 -113.252,67.394 -174.125,42.47c-71.987,-29.478 -132.927,-29.506 -207.048,-0.09c-39.739,15.773 -64.101,17.033 -102.791,5.323c-54.553,-16.514 -118.592,-83.395 -140.507,-146.732c-18.794,-54.313 -19.44,-136.171 -1.628,-205.844c20.416,-79.868 52.151,-134.922 117.182,-203.286c8.973,-9.43 16.146,-17.088 15.951,-17.016c-0.2,0.073 -21.273,10.729 -46.828,23.676m248.392,776.933c-17.467,19.379 -80.107,80.592 -90.892,88.835c-6.27,4.788 -25.582,23.927 -25.582,25.354c0,0.373 5.752,7.167 12.791,15.093c55.534,62.556 74.946,84.337 83.58,93.773c30.882,33.77 32.387,30.565 78.156,-19.886c5.284,-5.824 24.819,-27.901 43.412,-49.057l33.803,-38.468l-5.858,-6.003c-3.221,-3.305 -18.838,-18.32 -34.706,-33.368c-32.571,-30.905 -45.278,-43.796 -67.667,-68.676c-8.583,-9.542 -16.096,-17.456 -16.693,-17.601c-0.601,-0.139 -5.255,4.364 -10.344,10.004m399.494,37.783c-23.626,16.09 -35.871,26.016 -56.208,45.574c-17.501,16.832 -19.953,18.788 -29.072,23.208c-23.737,11.503 -68.397,18.152 -107.383,15.984l-20.131,-1.114l-6.243,3.321c-14.864,7.926 -25.259,18.342 -64.501,64.613c-6.571,7.753 -25.203,29.032 -41.405,47.297c-35.576,40.089 -41.261,46.777 -43.579,51.264c-4.102,7.926 -5.902,30.119 -3.662,45.073c0.63,4.191 1.594,16.436 2.14,27.209c0.552,10.779 1.288,22.288 1.633,25.582c1.182,11.169 -4.849,32.549 -12.551,44.46c-11.219,17.367 -20.354,9.647 -25.621,-21.648c-2.313,-13.766 -2.402,-18.743 -1.176,-65.265c1.427,-54.363 3.695,-48.767 -39.639,-97.886c-20.582,-23.331 -43.969,-50.663 -62.01,-72.472c-18.515,-22.383 -36.539,-40.251 -47.235,-46.828l-8.561,-5.261l-15.388,1.293c-31.986,2.686 -61.776,-0.011 -94.308,-8.55c-19.318,-5.072 -22.144,-6.833 -41.907,-26.056c-23.754,-23.107 -52.675,-45.724 -68.754,-53.772l-7.792,-3.902l0.162,32.349c0.095,18.643 -0.446,40.067 -1.276,50.556l-1.444,18.209l2.653,5.74c5.808,12.563 16.213,23.476 38.351,40.246c10.801,8.177 14.875,11.994 18.337,17.172c2.513,3.762 2.747,54.458 0.25,54.458c-10.26,0 -16.798,24.055 -12.178,44.777c10.913,48.913 57.045,49.66 88.674,1.438l7.585,-11.576l5.351,7.993c8.182,12.228 15.004,23.954 31.791,54.67c22.065,40.351 23.002,41.589 45.585,60.243c23.721,19.585 29.445,27.694 61.698,87.38c18.437,34.121 31.251,46.996 57.897,58.176c39.722,16.659 76.752,17.562 116.686,2.837c35.586,-13.12 47.904,-26.134 70.777,-74.751c17.345,-36.874 21.463,-42.564 55.038,-76.066c25.883,-25.822 26.613,-26.837 48.55,-67.489c6.783,-12.574 14.079,-25.666 16.208,-29.094c2.134,-3.427 6.008,-9.681 8.605,-13.9l4.732,-7.675l4.849,9.548c12.496,24.629 27.522,35.469 49.37,35.608c21.781,0.14 34.26,-11.687 40.797,-38.679c5.379,-22.205 3.729,-31.819 -7.284,-42.431l-7.424,-7.151l0.29,-26l0.29,-26.005l7.212,-5.49c3.968,-3.016 12.272,-9.163 18.459,-13.65c14.285,-10.377 24.941,-21.045 32.683,-32.716l6.097,-9.196l-1.003,-20.137c-0.552,-11.074 -0.747,-33.976 -0.429,-50.891c0.317,-16.915 0.473,-30.726 0.351,-30.699c-0.129,0.034 -6.85,4.565 -14.937,10.072" style="fill:#5C57B5;"/></svg>