<svg viewBox="0 0 2000 2000" xmlns="http://www.w3.org/2000/svg" xml:space="preserve" style="fill-rule:evenodd;clip-rule:evenodd;stroke-linejoin:round;stroke-miterlimit:2"><path d="M824 852c-2 4-37 35-67 60l-58 50a1202 1202 0 0 1-96 79c0 5 132-9 145-15a527 527 0 0 0-52 54l-5 8v9a1821 1821 0 0 0 51 236l8 32 2 7 1-5 5-22 7-40c31-149 42-204 42-213 0-5 7-12 34-35a8670 8670 0 0 0 107-92l3-3-15-13-37-34-73-66-2 3M1201 852c2 4 37 35 67 60l58 50a1202 1202 0 0 0 96 79c0 5-132-9-145-15a527 527 0 0 1 52 54l5 8v9a1821 1821 0 0 1-51 236l-8 32-2 7-1-5-5-22-8-40c-30-149-41-204-41-213 0-5-7-12-34-35a8688 8688 0 0 1-107-92l-4-3 16-13 37-34 73-66 2 3" style="fill:#a62639"/><path d="m1011 1007-24 22c-63 51-80 66-107 91l-15 13v303l4 11a4565 4565 0 0 0 132 291c3 2 2 2 9-14 4-12 13-31 51-107a4512 4512 0 0 0 84-178c3-10 5-66 6-193v-120l-28-28c-28-28-42-41-83-76-23-19-24-20-29-15M893 656a590 590 0 0 0-17-33c-7 1-10-1-39-20l-26-18c-12-8-11-7-14-25a12579 12579 0 0 0-17-111l-2-24 5 9c19 37 41 62 84 98l6 5 4-4 30-24c5-3 6-2-8-15-65-61-79-134-35-191 11-15 29-34 40-41 2-2 2-1 0 4-26 62-13 116 44 187l14 19 1 2 2-2 19-9c7-2 7-2 6-5l-1-74c0-76 0-72-4-76-2-3-2-3 10-18l13-16c6-7 6-7 9-3l26 34-2 3-3 2v47a2141 2141 0 0 1 0 104l23 10c6 4 5 5 11-2 54-65 70-101 65-154a161 161 0 0 0-9-45c23 14 44 38 55 64 22 50-3 117-59 163-9 7-9 7-7 10 3 3 33 29 35 29l38-33c25-23 38-42 51-72 3-6 4-8 6-8 3 0-3 49-11 87a2548 2548 0 0 0-10 54l-2 10-5 3-31 21c-38 27-40 28-47 27-3-1-6 6-14 29l-2 3a2268 2268 0 0 0 123-18l-54 46c-59 48-51 44-94 41h-1a432 432 0 0 1-10 26l-2 4h2l29 24 6 5-2 2-13 11a2469 2469 0 0 1-64 59l-32 30-3 3-7-6c-14-13-109-91-110-91-1-1 17-18 31-29 9-7 8-6 6-13l-10-25c-37 3-32 5-89-41l-54-46 10 1a579 579 0 0 0 57 9l49 7Z" style="fill:#a62639"/></svg>