<svg viewBox="0 0 2000 2000" xmlns="http://www.w3.org/2000/svg" xml:space="preserve" style="fill-rule:evenodd;clip-rule:evenodd;stroke-linejoin:round;stroke-miterlimit:2"><path d="M798 853c-4 5-47 44-84 75l-71 62a1489 1489 0 0 1-119 98c0 6 163-11 179-18a653 653 0 0 0-64 67l-7 9 1 12a2256 2256 0 0 0 62 292l11 40 2 8 2-6 5-27 10-50c38-184 51-253 51-263 0-7 9-16 42-44a10777 10777 0 0 0 133-115l4-3-19-16-46-42-90-82-2 3M1220 860a6463 6463 0 0 1-135 122l-3 4 7 6 26 24a7428 7428 0 0 0 118 108l13 13 4 38c15 152 29 257 40 310 3 12 3 13 5 13s3-2 5-11c4-20 13-57 21-85l21-82 27-110 15-66c-3-10-30-41-58-66l-6-6a2045 2045 0 0 0 145 11l11 1-9-10a3031 3031 0 0 0-166-159l-63-60-6-5-12 10" style="fill:#696969"/><path d="m1008 1056-168 118v283l5 10a3912 3912 0 0 0 151 272c3 2 2 2 10-13 5-12 15-29 59-100a3942 3942 0 0 0 96-167c3-9 5-61 6-179l1-113s-155-116-160-111M1015 413l-9 9-12 14a1240 1240 0 0 1-54 59c-10 10-10 10-8 15 3 10 15 30 37 61l2 3 1-5c8-20 9-24 4-31l-2-2 48-1h48l-2 2-8 6-10 9a696 696 0 0 1-80 58c-3 1-3 1-13-9a301 301 0 0 1-45-60l-1-1-2 1-19 15c-16 17-23 25-48 64l-10 16c-30 45-56 69-85 76l-1 1a361 361 0 0 1 46 40c1-1 11 12 17 21 9 16 12 25 15 47v2l6-2a861 861 0 0 1 53-21l3-2v-3l-4-2a69 69 0 0 1-32-49l-1-5c-11 3-41-4-59-13-5-3-5-3-2-3 9 0 34-16 49-31a270 270 0 0 0 59-91c1-3 0-3 6 3 13 14 34 31 54 45l5 3 3-1a1017 1017 0 0 0 64-42c16-10 32-25 50-47 17-21 35-50 33-54l-19-21a2699 2699 0 0 1-72-80l-6 6Zm7 39 8 8c21 23 44 49 44 51a2519 2519 0 0 1-106 0 1687 1687 0 0 1 51-59c1-2 1-2 3 0ZM1127 541l-6 9c-13 20-29 40-45 56-8 7-7 6-5 9a2815 2815 0 0 1 20 31l6-4 9-8a526 526 0 0 0 37-35l2 3c18 42 48 84 74 104 11 8 26 17 32 17 2 1 2 1-3 3-20 9-35 13-51 12h-6l-1 5c-4 23-13 37-33 49-7 4-7 4-3 7 2 2 5 4 14 7a350 350 0 0 1 48 18c-1-3 2-18 5-26 10-29 25-48 68-83 4-3 4-3 1-4l-15-5c-8-4-23-15-32-26l-11-12a618 618 0 0 1-47-67 250 250 0 0 0-55-61c-1-1-2-1-3 1M1033 640a174 174 0 0 1-34 23 353 353 0 0 0 26 46 1061 1061 0 0 0 43-42l-7-6a310 310 0 0 1-24-24l-4 3" style="fill:#696969"/><path d="M1136 651a202 202 0 0 1-20 13l-1 1 1 1a1707 1707 0 0 1 28 35l1 2-2 5a317 317 0 0 1-60 86c-23 25-35 39-46 57a238 238 0 0 0-21 44 258 258 0 0 0-56-94c-16-18-30-35-37-46s-21-39-26-51l-1-2 2-1 4-5a1039 1039 0 0 1 28-33l-5-3a180 180 0 0 1-21-12l-7 11c-11 15-21 27-31 37l-3 3 1 1 2 5c14 37 20 51 35 81 14 26 12 24 19 30 58 56 82 93 96 150l1-2c7-30 26-66 46-91 17-21 36-41 51-53a487 487 0 0 0 63-125c-6-3-22-24-33-44-3-5-2-5-8 0" style="fill:#696969"/><path d="m1086 688-28 34-39 39-3-3-9-11a488 488 0 0 1-51-65l-25 23-4 3 1 2a386 386 0 0 0 89 104l2 2 28-28a412 412 0 0 0 70-84l-5-4-12-11-9-9-5 8M1018 260a528 528 0 0 1-21 62c-16 36-49 84-84 118a246 246 0 0 1-68 52l-2 1-1 5a3832 3832 0 0 1-7 95 301 301 0 0 1 64-88c46-45 54-54 74-82 23-31 44-71 44-82a388 388 0 0 0 118 160c30 27 57 61 69 87l2 3v-3a596 596 0 0 1-4-36 1577 1577 0 0 0-6-58v-2l-4-1a383 383 0 0 1-174-230" style="fill:#696969"/></svg>