<svg viewBox="0 0 2000 2000" xmlns="http://www.w3.org/2000/svg" xml:space="preserve" style="fill-rule:evenodd;clip-rule:evenodd;stroke-linejoin:round;stroke-miterlimit:2"><path d="M833 795c-3 5-43 40-76 68l-66 57a1359 1359 0 0 1-108 89c0 6 149-10 163-17 10-4 9-3 0 4-14 11-52 49-59 58l-6 8 1 11a2060 2060 0 0 0 57 267l10 36 2 7 1-5 5-25 9-46c35-168 47-230 47-240 0-6 8-14 39-40a9800 9800 0 0 0 121-104l3-3-17-15-42-38-82-75-2 3M1184 803a5901 5901 0 0 1-123 111l-3 4 6 6 24 22a6795 6795 0 0 0 108 98l11 12 4 35a3269 3269 0 0 0 41 294 1101 1101 0 0 1 23-88l20-74 24-101c9-34 14-58 14-60-3-9-27-37-53-60-4-3-6-6-5-6a1869 1869 0 0 0 132 10l10 1-8-9a2765 2765 0 0 0-151-145l-58-55-6-5-10 10" style="fill:#7a9b76"/><path d="m1011 970-25 21c-62 51-80 66-107 91l-14 13v302l4 12a4550 4550 0 0 0 131 289c3 2 3 3 9-14l52-107a4499 4499 0 0 0 83-177c3-10 5-66 6-192v-120l-28-28c-27-27-42-40-82-75-23-20-24-20-29-15M905 506a227 227 0 0 1-87-74c-3-3-3-3-2 2 3 19 9 42 17 62 3 9 3 8 1 7l-5-4-8-5c-20-16-36-25-60-37-27-15-34-19-48-32l-2-3v2l4 11c17 56 35 80 63 84a144 144 0 0 0 59-4l19 17 3 3-1 1-7 5a54 54 0 0 0-20 22l-7-4-15-6c-14-6-23-11-30-16l-2-2 1 3a710 710 0 0 0 62 90c15 11 35 20 50 23 8 2 24 2 28 1 20-6 51-26 55-34 1-2 1-2 2-1 1 5 0 7-7 13-10 9-15 12-35 22l-43 24a155 155 0 0 0-56 67l2-1c8-8 32-21 41-24a150 150 0 0 1 60-4l-8 13a863 863 0 0 0-34 63l-1 3 1-1 11-4 21-10v11l-1 8 2 1 24 14c25 14 57 30 60 30a692 692 0 0 0 84-45l1-1v-12l-1-5a226 226 0 0 0 31 13 404 404 0 0 0-42-79l27-1 30 5a197 197 0 0 1 47 26l-7-14c-12-22-33-43-56-57l-42-23c-26-13-36-21-39-31v-2l2 2c6 8 13 13 31 23 17 9 25 11 36 11 19-1 30-4 49-14 22-12 31-21 49-51l17-26c17-29 17-27 11-23l-15 9-36 15-2-3c-6-8-9-11-18-18s-9-7-3-12l9-9 6-5 5 1a159 159 0 0 0 54 3c24-3 39-18 53-50a215 215 0 0 0 15-45l-13 11c-8 6-12 9-30 18a660 660 0 0 0-80 47 408 408 0 0 0 19-70v-1l-1 1-5 5a235 235 0 0 1-60 59c21-16 33-33 42-60 8-22 10-24 39-41l17-10a1187 1187 0 0 0 91-57 602 602 0 0 0-4-32 76 76 0 0 0-27-56l2 6c12 28 10 54-4 66a221 221 0 0 1-40 23l-1-15a93 93 0 0 0-28-64c7 19 9 25 10 40 2 21 2 33-1 42-2 4-6 12-9 14a995 995 0 0 1-39 29l1-7a749 749 0 0 0-2-80l-1-5 3-2 8-7 3-3c12-9 17-13 20-20 6-12 5-37-3-51-3-6-21-28-21-26l3 7c8 15 9 21 7 36-2 20-7 28-25 42-5 4-12 8-13 7l-7-7-22-19a78 78 0 0 1-24-24c-5-8-8-14-13-28l-3-8-1-2v1l3 22 5 36c3 20 3 22 13 26 22 10 32 22 32 42a1034 1034 0 0 1-4 101c0 25-7 35-30 43-21 8-39 18-52 30l-28 28c-7 7-7 7-7-2l1-21c0-44 4-77 9-88 10-21 30-34 52-36h3v-24c0-47-2-71-6-71l-3 11c-4 37-9 46-32 63a362 362 0 0 0-26 21l-2 2v-2c2-4 0-18-5-43l-7-44c-1-9-1-8-3-8l-2 1a547 547 0 0 1-10 86v9l-3-3c-7-7-15-13-29-23-18-12-24-25-28-58-1-11-1-12-2-9-4 8-6 44-5 83v9h3c18 2 33 10 43 23 12 16 14 21 17 58 1 21 4 69 3 71-1 1-4-2-14-13-23-26-46-41-77-50-12-4-18-9-22-18-4-7-5-11-5-27l-1-26c-2-29-3-63-2-73 1-21 10-34 32-42 10-4 11-6 13-24a782 782 0 0 1 8-60l-2 7c-9 27-16 37-37 53a185 185 0 0 0-29 27c-3 0-19-12-26-19-8-7-12-16-14-31s0-24 7-37c3-5 3-5-1-1a94 94 0 0 0-20 30c-4 14-4 35 0 44 3 5 10 12 15 16l10 8 7 5 2 2v3a630 630 0 0 0-2 89l-3-2-24-18c-15-11-16-11-19-22a159 159 0 0 1 6-82l-2 2c-17 21-20 30-23 65l-1 11-1 1-1-1-9-5c-26-15-33-20-38-30-8-14-7-34 3-54l2-5-11 12a71 71 0 0 0-16 43l-1 13-2 19 9 6a7500 7500 0 0 1 81 51l14 9c30 17 34 21 41 42 10 34 23 50 62 72Zm135 211c3 4 5 7 5 12v4l-2 1-28 30-3 3-8-9c-27-27-26-26-25-32 2-12 9-11 20 2 7 9 19 8 25-1 3-5 7-8 11-10 3-2 4-2 5 0ZM887 553c16 4 31 20 35 36 4 14 1 21-10 23-24 5-51-8-57-28s11-37 32-31Zm260-1c30 7 26 45-6 57-15 5-28 5-38 0-4-2-6-4-6-9-2-17 10-37 30-46 7-3 13-4 20-2Z" style="fill:#7a9b76"/></svg>