<svg viewBox="0 0 2000 2000" xmlns="http://www.w3.org/2000/svg" xml:space="preserve" style="fill-rule:evenodd;clip-rule:evenodd;stroke-linejoin:round;stroke-miterlimit:2"><path d="M1172 887a5471 5471 0 0 1-114 103l-3 3 6 6 22 20a6285 6285 0 0 0 100 91l11 11 3 33a3028 3028 0 0 0 38 272 1019 1019 0 0 1 21-81l19-69 23-93 12-56c-2-8-25-35-49-55l-5-6a1728 1728 0 0 0 123 9l9 1-7-8a2560 2560 0 0 0-141-135l-53-50-5-5-10 9M828 887a5471 5471 0 0 0 114 103l3 3-6 6-22 20a6285 6285 0 0 1-100 91l-11 11-3 33a3028 3028 0 0 1-38 272 1019 1019 0 0 0-21-81l-19-69-23-93-12-56c2-8 25-35 49-55l5-6a1728 1728 0 0 1-123 9l-9 1 7-8a2560 2560 0 0 1 141-135l53-50 5-5 10 9M996 1072l-20 17-88 74-11 11v247l3 9a3723 3723 0 0 0 107 238c3 1 2 1 7-12l43-88a3680 3680 0 0 0 68-145c2-8 4-53 4-156l1-99-23-22c-23-23-34-34-67-62-19-16-20-17-24-12M972 940h53l22-35a1848 1848 0 0 0 73-121c15-28 40-69 44-74 11-14 15-17 24-18l16-3c2-3-42-65-74-104l-28-38c-23-31-39-53-55-72-27-32-26-31-34-97-4-29-14-46-14-46s-10 17-15 58c-6 59-3 52-43 104a6593 6593 0 0 0-124 166 380 380 0 0 1-21 27c1 2 8 5 16 6 14 4 11 0 58 81a2743 2743 0 0 0 102 166Zm114-239c0 3 2 8 10 18l8 12-21 33a1575 1575 0 0 0-84 137l-8-14a1337 1337 0 0 0-96-156l-2-3 9-15 11-14 39 46c16 19 32 39 41 47l6 8 3-4a7633 7633 0 0 1 65-77l12-14c5-7 7-8 7-4Zm-73-194 63 80c24 30 24 30 22 33-2 4-15 20-25 30l-68 75c-5 6-5 6-11-1a3345 3345 0 0 0-91-106l6-8a1440 1440 0 0 0 86-112l5-7 13 16Zm-13 55-25 31c-9 9-16 18-16 19-3 3-2 3 28 36l13 15 3-4a380 380 0 0 0 31-32l12-12-6-8a1013 1013 0 0 0-35-45c-2-4-3-4-5 0Z" style="fill:#cc7ccc"/></svg>