<svg viewBox="0 0 2000 2000" xmlns="http://www.w3.org/2000/svg" xml:space="preserve" style="fill-rule:evenodd;clip-rule:evenodd;stroke-linejoin:round;stroke-miterlimit:2"><path d="M1172 868a5466 5466 0 0 1-114 103l-3 3 6 5 22 21a6276 6276 0 0 0 100 91l10 11 4 32a3024 3024 0 0 0 38 272c2 0 2-1 4-8l17-73 18-68 23-94 13-55c-3-9-26-35-49-56l-5-5a1728 1728 0 0 0 122 9l10 1-8-8a2560 2560 0 0 0-140-135l-53-50-6-5-9 9M828 868a5466 5466 0 0 0 114 103l3 3-6 5-22 21a6276 6276 0 0 1-100 91l-10 11-4 32a3024 3024 0 0 1-38 272c-2 0-2-1-4-8l-17-73-18-68-23-94-13-55c3-9 26-35 49-56l5-5a1728 1728 0 0 1-122 9l-10 1 8-8a2560 2560 0 0 1 140-135l53-50 6-5 9 9M996 1052l-20 17c-51 42-65 55-87 75l-12 11v246l3 9a3717 3717 0 0 0 107 237c3 1 2 2 7-11l43-88a3676 3676 0 0 0 68-145c2-8 4-53 4-156l1-98-23-23c-23-23-34-33-67-62-19-16-20-16-24-12M1000 534a401 401 0 0 0 129 133c4 2 92 73 89 100v4c0 5-2 12-5 19-2 5-2 5-7 2-19-11-38-11-65 2-15 7-31 18-43 29-21 18-43 40-57 57-16 20-34 53-40 73-3 9-4 7-10-7a3411 3411 0 0 0-14-30 402 402 0 0 0-31-46c-27-32-58-58-91-75-27-14-47-15-64-3-5 3-5 3-6 0l-1-5c1-49 19-87 66-109l16-11 20-14c35-25 67-56 92-90l19-32c1-2 0-2 3 3Z" style="fill:#f49d6e"/><path d="M997 629a290 290 0 0 1-47 53l3 2c20 8 25 11 27 21 3 14-15 41-40 58-5 3-5 2 2 8a840 840 0 0 1 46 53l7 10 4 6 4-6v-1a614 614 0 0 1 35-45 185 185 0 0 1 19-18c1-2 1-4-1-6-27-20-43-42-41-56 0-3 3-8 3-7h1v-1c-2-2 22-15 28-15l-5-7-14-13c-12-13-19-20-25-30l-6-6Z" style="fill:#f49d6e"/><path d="m1001 353 1 6 1-1 14 33v1l1 1 1 2c0-1 0-1 0 0v1h1l3 5c-1 2 18 29 30 44 13 15 59 57 71 65 10 7 93 49 107 60 34 25 50 49 60 90 7 27 9 73 4 88a361 361 0 0 0-7 20s-4 7-6 0c-12-34-21-51-46-86-13-18-30-35-54-55-14-11-35-24-62-38l-31-18a286 286 0 0 1-87-106c-4-7-4-7-5-5-8 22-35 60-57 82-19 20-36 32-66 48a332 332 0 0 0-165 186l-3-2a48 48 0 0 0-1-7 179 179 0 0 0-3-11 83 83 0 0 1-3-20 123 123 0 0 1 1-43 474 474 0 0 1 16-62v-2l1-2 1-2 1-1a43 43 0 0 0 4-8v-1l1-1 1-1 3-4v-1l1-1v-1h1v-1l1-1 2-3 1-1 9-9c13-14 26-24 48-37a980 980 0 0 1 55-29 263 263 0 0 0 34-23c1 1 14-10 23-17a333 333 0 0 0 38-39l41-59v-1h1v-2l1-1 11-27 1-1c1-2 3-4 5-2Z" style="fill:#f49d6e"/></svg>