<svg viewBox="0 0 2000 2000" xmlns="http://www.w3.org/2000/svg" xml:space="preserve" style="fill-rule:evenodd;clip-rule:evenodd;stroke-linejoin:round;stroke-miterlimit:2"><path d="M814 665c-3 5-47 44-84 76l-73 62a1509 1509 0 0 1-120 100c0 6 165-11 181-19 11-5 11-4 0 5-15 11-58 53-65 63l-7 9 1 12a2285 2285 0 0 0 63 296l11 41 2 8 2-6 6-28 9-50c39-187 52-257 52-267 0-7 9-16 43-44a10900 10900 0 0 0 135-116l4-4-19-16-47-43-91-82-3 3M1204 674a6551 6551 0 0 1-137 123l-3 4 7 7 27 24a7523 7523 0 0 0 119 109l13 13 4 39c16 154 30 261 41 314 3 12 3 13 5 13s3-2 5-10c3-21 12-58 21-87l21-83 28-112c9-38 15-65 14-67-2-10-30-41-58-66-5-4-7-7-6-7a2075 2075 0 0 0 147 11l11 1-9-9a3071 3071 0 0 0-168-162l-64-60-6-6-12 11" style="fill:#488a7f"/><path d="m1012 859-27 23c-69 57-89 74-119 102l-16 14v335l5 13a5052 5052 0 0 0 145 322c3 2 3 2 10-16 5-13 15-34 57-119a4994 4994 0 0 0 93-196c3-12 5-73 6-213l1-134-31-31c-31-30-47-45-92-83-25-22-27-23-32-17" style="fill:#488a7f"/><path d="M861 260c-2 66-4 101-9 104-2 2-9 12-14 22-16 29-31 52-34 52a571 571 0 0 1-96-116c-5-1-5 82 1 113 3 15 5 36 4 46v19l16 16 50 38a993 993 0 0 1 114 92l17 17s186 0 186-2l9-14 29-32c12-14 28-28 44-39 13-9 26-19 28-22 2-4 13-12 24-19 30-19 45-33 49-45 6-27 9-40 15-83l10-51c4-8 10-38 8-40s-22 16-86 79c-21 20-40 37-42 37s-9-7-15-15l-16-22c-7-9-12-40-10-61 3-21-1-85-5-85l-5 6c-2 6-41 53-89 106-19 22-20 23-18 35 3 21 12 54 17 59 7 8 21 36 21 43s-9 20-45 59c-24 27-26 27-40 4-5-7-17-21-26-29-15-14-40-46-40-52 0-2 7-12 15-24s22-33 29-48c13-23 14-27 10-31a511 511 0 0 1-103-127c-2-1-3 3-3 10Z" style="fill:#488a7f;fill-rule:nonzero"/><path d="M866 260c-2 66-5 101-9 104-2 2-9 12-14 22-16 29-31 52-35 52a571 571 0 0 1-95-116c-6-1-5 82 0 113 3 15 5 36 5 46l-1 19 17 16 49 38a993 993 0 0 1 115 92l17 17s185 0 185-2l10-14 28-32c13-14 28-28 44-39 14-9 27-19 29-22 2-4 13-12 24-19 30-19 45-33 48-45 7-27 10-40 16-83 4-25 8-48 10-51 4-8 10-38 8-40s-23 16-87 79c-20 20-39 37-42 37-2 0-8-7-14-15l-16-22c-8-9-13-40-10-61 2-21-2-85-5-85a1320 1320 0 0 1-94 112c-20 22-20 23-18 35 3 21 12 54 16 59 8 8 22 36 22 43s-10 20-45 59c-25 27-26 27-40 4-5-7-17-21-26-29-16-14-41-46-41-52 0-2 7-12 15-24 9-12 22-33 30-48 12-23 13-27 10-31a511 511 0 0 1-103-127c-2-1-3 3-3 10Z" style="fill:#488a7f;fill-rule:nonzero"/></svg>