<svg viewBox="0 0 2000 2000" xmlns="http://www.w3.org/2000/svg" xml:space="preserve" style="fill-rule:evenodd;clip-rule:evenodd;stroke-linejoin:round;stroke-miterlimit:2"><path d="M532 320c-23 21-75 89-90 118-42 82-25 183 42 252 34 33 66 51 116 60l18 4-9 7c-32 23-56 45-55 49l4 14c10 35 4 77-16 112l-3 6 11-9a2987 2987 0 0 0 50-38 956 956 0 0 0 172-152l13-15-1-27a727 727 0 0 0-21-162c-1-4-1-4-5 7-47 121-146 168-227 108-63-47-78-134-38-221a1570 1570 0 0 0 47-119l-8 6M1481 328l17 47c54 136 54 212 0 266-75 76-183 38-248-87l-9-14-4 55c-6 89-7 132-4 138l30 30a4636 4636 0 0 0 206 187l-5-16c-16-54-18-94-4-131 3-10 3-9-5-15l-51-34c-1-1 2-2 14-5 128-25 203-138 173-259-9-37-50-99-106-162l-5-6 1 6M831 799c-3 4-42 39-75 67l-65 56a1344 1344 0 0 1-107 89c0 5 147-11 161-17 10-5 10-4 0 4-13 10-51 48-58 56l-6 8 1 11a2036 2036 0 0 0 57 264l9 36 2 7 2-5 5-25 8-45c34-166 46-228 46-237 0-6 8-15 39-40a9710 9710 0 0 0 119-103l4-3-17-15-41-38-82-73-2 3M1178 807a5848 5848 0 0 1-122 110l-3 3 7 6 23 21a6704 6704 0 0 0 107 98l11 11 4 35a3232 3232 0 0 0 41 291 1089 1089 0 0 1 23-87l19-73 24-100 14-59c-3-10-27-38-52-59-5-4-7-7-6-7a1845 1845 0 0 0 131 10l10 1-8-8a2736 2736 0 0 0-150-144l-57-54-5-5-11 10" style="fill:#ae3f2e"/><path d="m1007 974-24 21c-62 50-79 65-106 90l-14 13v298l4 12a4499 4499 0 0 0 130 286c3 2 2 2 8-14l51-106a4447 4447 0 0 0 83-175c3-10 5-65 5-189l1-119-27-28c-28-27-42-40-82-74-23-20-24-20-29-15M930 731l5-4-46-135-32-18-1-83 7-6a1261 1261 0 0 1 108-89l23-18 7-6 7 5c60 44 118 89 139 108l9 9-1 56v32l-30 16-51 133 6 5a1441 1441 0 0 0 93-108l-9 53c-11 56-8 51-32 69l-18 16a865 865 0 0 1-65 58c-28 24-45 38-47 38a4729 4729 0 0 1-118-112c-24-20-22-13-33-69-3-19-9-52-8-53l5 6a431 431 0 0 0 26 32l56 65Z" style="fill:#ae3f2e"/></svg>