<svg viewBox="0 0 2000 2000" xmlns="http://www.w3.org/2000/svg" xml:space="preserve" style="fill-rule:evenodd;clip-rule:evenodd;stroke-linejoin:round;stroke-miterlimit:2"><path d="m998 357.6-22.5 18.2-47.3 38.2c-31.8 25.5-46.7 37.9-58.6 48.8l-6.7 6.1.9 225.7 7.8 8.7c17.5 19.7 131 128.6 134 128.6 1.3 0 18.4-14 45.7-37.4l18.1-15.5a2100.7 2100.7 0 0 0 35-31.2c5-4.6 17.3-16.4 27.4-26.3l18.3-17.8.8-17.2c3.3-69 4.6-111.3 4.7-159.7l.2-55.7-8.9-8.2c-19.8-18.3-77-62.7-136-105.5l-6.6-4.8-6.3 5" style="fill:#6892d2"/><path d="M1029.4 488.8c47 14.3 63.8 78.6 29.8 113.1-24.4 24.7-53.4 29.3-84 13.4-72.9-37.8-24.4-150.6 54.2-126.5M837.9 769.8c-2.7 4.4-41 38.7-73.5 66a4096.5 4096.5 0 0 0-63.5 54.5c-29 25.7-47.8 41.4-71.2 59.5-30.6 23.7-33.7 26.3-33.7 27.5 0 5.2 144.3-9.8 158.1-16.5 9.3-4.4 9.2-3.5-.4 4a577.5 577.5 0 0 0-56.5 55.5l-5.6 7.8.7 10.4c1 14.5 10.3 62.8 29.5 152.8 7 33.4 16.5 72 25.6 105.6l9.5 35 2 7 1.4-5.1c.8-2.8 3-13.6 4.8-24 1.8-10.3 5.6-30.1 8.4-44 33.5-162.9 45.3-223.5 45.3-232.6 0-5.8 7.9-14 37.5-38.8 11.3-9.4 44-37.8 94-81.4a745 745 0 0 1 23.1-19.7l3.7-2.7-16.7-14.6a2484 2484 0 0 1-40.6-36.9c-33.6-31-78.8-72-79.6-72-.4 0-1.4 1.2-2.3 2.7M1178 777.8a5720.4 5720.4 0 0 1-89.9 80.8c-14.5 13-27.8 25-29.4 26.7l-3 3.2 6.3 5.7 23.1 21.2c19 17.6 43.7 40 73 66.3 11 9.8 25 23 31.2 29.2l11.2 11.2 3.5 34.1c13.7 134 26 227 35.9 273.7 2.1 10.2 2.5 11 4.4 11 1.8 0 2.4-1.4 3.9-9 3.2-17.7 11.2-50.6 18.3-75.8a2957 2957 0 0 0 18.7-71.9l24-97.5a591.9 591.9 0 0 0 13-58.4c-2.3-9-26.4-36.4-50.7-57.8-4.3-3.7-6.6-6.4-5.2-6 2.5.7 26 2.5 87.4 6.7 16.8 1.1 35 2.5 40.4 3l10 1-8-8.5a2679.2 2679.2 0 0 0-77.9-76c-9.9-9.2-40.8-38.3-68.6-64.8-27.9-26.4-53.1-50.2-56.1-52.8l-5.4-4.9-10.1 9.6" style="fill:#6892d2"/><path d="M1010.4 941.5c-1.8 1.8-12.5 11-23.8 20.4a2243.1 2243.1 0 0 0-103.4 88l-14 12.8V1355l4 11c9.8 27.7 60.7 142.7 101.3 228.8l19.8 42.5c2 4.5 4.7 8.7 6 9.4 2.7 1.5 2.3 2 8.3-13.7 4.6-11.8 13.2-29.7 50-103.6a4353 4353 0 0 0 58.4-120.5 500.8 500.8 0 0 0 22.4-51.1c3-10 4.6-63.6 5.4-185.7l.7-116.3-27-26.9a1190 1190 0 0 0-80.1-73.1c-22.2-19-23.2-19.5-28-14.3" style="fill:#6892d2"/></svg>