<svg viewBox="0 0 2000 2000" xmlns="http://www.w3.org/2000/svg" xml:space="preserve" style="fill-rule:evenodd;clip-rule:evenodd;stroke-linejoin:round;stroke-miterlimit:2"><path d="M838 837c-2 4-41 38-73 65l-63 55a1313 1313 0 0 1-105 87c0 5 144-10 158-17a576 576 0 0 0-57 59l-6 8 1 11a1988 1988 0 0 0 55 257l10 35 1 7 2-5 5-24 8-44c33-162 45-223 45-232 0-5 8-14 38-38a9495 9495 0 0 0 116-101l4-3-16-14-41-37-79-72-3 3M1177 845a5699 5699 0 0 1-118 107l-3 3 6 6 23 21a6551 6551 0 0 0 104 95l11 11 3 34a3156 3156 0 0 0 41 284 1063 1063 0 0 1 22-85 2948 2948 0 0 0 42-168c9-33 14-57 13-59-2-9-26-36-50-57-5-4-7-7-5-6a1804 1804 0 0 0 127 9l10 1-8-8a2671 2671 0 0 0-146-140l-56-53-5-5-11 10" style="fill:#5C57B5"/><path d="m1010 1008-23 20c-60 50-77 64-103 88l-14 13v291l4 11a4393 4393 0 0 0 126 280c3 2 3 2 9-13 4-12 13-30 49-104a4341 4341 0 0 0 81-171c3-10 5-63 5-185l1-116-27-27c-27-27-40-39-80-73-22-19-23-19-28-14M900 299c-36 18-55 31-75 52-46 47-70 118-60 174 8 42 35 86 74 119 55 48 91 54 129 22a960 960 0 0 0 47-48l6 6c49 52 62 61 85 61 15 1 25-1 40-9a247 247 0 0 0 55-40c33-31 60-78 66-116 12-79-32-163-109-207a565 565 0 0 0-43-22l7 8c38 44 54 82 55 130 0 42-10 69-36 94-25 24-51 30-78 19-32-13-59-13-92 0-18 7-29 7-46 2-25-7-53-37-63-65a188 188 0 0 1 59-190l-21 10m111 347a727 727 0 0 1-52 51l5 7 38 42c14 15 14 13 35-9l19-22 15-17-2-3a1070 1070 0 0 0-46-46l-8-7-4 4m178 17c-10 7-16 11-25 20-8 8-9 9-13 11-10 5-30 8-48 7l-9-1-3 2c-6 3-11 8-28 29a1766 1766 0 0 1-38 44c-2 3-3 13-2 20a180 180 0 0 1 2 23c0 5-3 15-6 20-5 8-9 5-11-9l-1-30c1-24 2-21-18-43l-27-33-21-21-4-2-7 1c-14 1-28 0-42-4-9-2-10-3-19-12-11-10-24-20-31-24l-3-2v15l-1 22v9l1 2c2 6 7 11 17 18 5 4 7 5 8 8v24c-4 0-7 11-5 20 5 22 25 22 39 1l4-5 2 3 14 25c10 18 11 18 21 27 10 8 13 12 27 39 9 15 14 21 26 26 18 7 35 7 52 1 16-6 22-12 32-34 8-16 10-19 25-34 11-11 12-12 21-30a405 405 0 0 1 11-19l3-3 2 4c5 11 12 16 22 16s15-5 18-17c2-10 2-15-3-19l-4-4 1-11v-12l3-2 8-6c7-5 11-10 15-15l3-4-1-9a417 417 0 0 1 0-37l-7 5" style="fill:#5C57B5"/></svg>