<?xml version="1.0" standalone="no"?>
<!DOCTYPE svg PUBLIC "-//W3C//DTD SVG 1.1//EN" "http://www.w3.org/Graphics/SVG/1.1/DTD/svg11.dtd" >
<svg xmlns="http://www.w3.org/2000/svg" xmlns:xlink="http://www.w3.org/1999/xlink" version="1.1">
<metadata>
Created by FontForge 20190801 at Fri Jan  1 00:00:01 1904
 By www-data
</metadata>
<defs>
<font id="MOONRUNE" horiz-adv-x="955" >
  <font-face 
    font-family="MOONRUNE"
    font-weight="400"
    font-stretch="normal"
    units-per-em="2048"
    panose-1="2 11 6 3 5 3 2 2 2 4"
    ascent="1638"
    descent="-410"
    x-height="1994"
    cap-height="2389"
    bbox="43 297 2322 2427.26"
    underline-thickness="0"
    underline-position="0"
    unicode-range="U+0020-00FE"
  />
<missing-glyph horiz-adv-x="2048" 
d="M178 1408q4 57 14.5 165.5t12.5 216t-12.5 188t-59.5 80.5q38 39 103 63.5t176 -49.5q62 -42 138.5 -123.5t157 -162.5t159 -141.5t145.5 -60.5q-75 -66 -123.5 -79t-108 24t-148 120.5t-242.5 209.5q-50 -100 -21.5 -204t50.5 -168q68 -57 205 -182t264 -176
q-72 -78 -116.5 -61t-92.5 42q-51 26 -108.5 78t-104 80.5t-74 8t-18.5 -139.5l-5 -72q0 -100 10.5 -200t10.5 -199q0 -67 -47 -94t-102.5 -23t-102 35.5t-46.5 81.5q70 0 92 92.5t20.5 216t-14 247.5t-12.5 186z" />
    <glyph glyph-name=".notdef" horiz-adv-x="2048" 
d="M178 1408q4 57 14.5 165.5t12.5 216t-12.5 188t-59.5 80.5q38 39 103 63.5t176 -49.5q62 -42 138.5 -123.5t157 -162.5t159 -141.5t145.5 -60.5q-75 -66 -123.5 -79t-108 24t-148 120.5t-242.5 209.5q-50 -100 -21.5 -204t50.5 -168q68 -57 205 -182t264 -176
q-72 -78 -116.5 -61t-92.5 42q-51 26 -108.5 78t-104 80.5t-74 8t-18.5 -139.5l-5 -72q0 -100 10.5 -200t10.5 -199q0 -67 -47 -94t-102.5 -23t-102 35.5t-46.5 81.5q70 0 92 92.5t20.5 216t-14 247.5t-12.5 186z" />
    <glyph glyph-name="glyph1" horiz-adv-x="0" 
 />
    <glyph glyph-name="glyph2" horiz-adv-x="2048" 
 />
    <glyph glyph-name="space" unicode=" " horiz-adv-x="1024" 
 />
    <glyph glyph-name="comma" unicode="," horiz-adv-x="448" 
d="M230 578l79 -81q0 -1 1.5 -2.5t3.5 -2.5q28 -22 28 -35q0 -3 -2 -7l-7 -12l35 40q8 7 12 16q4 8 4 13q0 11 -6 23q-5 10 -19 24l-80 75l-49 -51v0zM171 554l138 141l88 -86q8 -10 22 -32q8 -18 8 -29q0 -19 -13 -43q-10 -19 -59 -75l-136 -133l-17 16l77 73q16 12 25 30
t9 30q0 8 -5 20q-7 11 -13 18l-82 78l-29 -31z" />
    <glyph glyph-name="period" unicode="." horiz-adv-x="463" 
d="M214 625l84 -83l52 50l-84 82l-52 -49v0zM157 594l141 143l99 -97l30 28l14 -14l-143 -144l-98 100l-29 -31z" />
    <glyph glyph-name="zero" unicode="0" 
d="M157 1141q0 205 59 354q60 150 160 223q78 57 160 57q134 0 241 -141q133 -174 133 -474q0 -212 -58 -357q-62 -150 -150 -212q-90 -67 -175 -67q-166 0 -277 204q-93 171 -93 413v0zM327 1120q0 -249 59 -406q47 -133 144 -133q47 0 95 43q51 43 75 145q40 155 40 431
q0 199 -41 343q-32 104 -79 146q-34 29 -85 29q-58 0 -103 -54q-61 -73 -82 -232q-23 -161 -23 -312z" />
    <glyph glyph-name="one" unicode="1" horiz-adv-x="890" 
d="M739 1949q0 -51 -3 -103t-3 -103q0 -39 -9.5 -79.5t-9.5 -78.5q0 -9 -3 -31.5t-3 -53.5v-54v-61q0 -33 -3 -63.5t-3 -52.5v-44v-53t-3 -64t-3 -82q0 -18 -11 -45t3 -66q11 -32 46.5 -59t52.5 -54q13 -23 20.5 -56.5t-10.5 -81.5q-20 -50 -119 -50q-25 0 -49 -3.5
t-48 -3.5q-19 0 -46 -1.5t-53 19.5q-6 5 -27 12.5t-38 36.5q-17 27 -25 50.5t19 65.5q18 36 42 60q24 36 61 55v45v46q0 18 -3 47t-3 56q0 22 3.5 71t8.5 117q4 34 8.5 131t8.5 201t6.5 188.5t2.5 93.5q-33 -17 -97 -79q-58 -58 -85 -66q-78 -27 -99.5 -29t-87.5 12
q-39 6 -55 25.5t-19 33.5q165 0 249 66q18 18 43 42.5t48 43.5q18 13 44.5 38t58.5 52q0 51 9.5 51t-23.5 30q-9 9 -16.5 21.5l-7.5 12.5q-11 12 -13.5 22.5t-17.5 20.5q-18 18 -18 61q0 62 55 91q36 18 61 18q42 0 73.5 -2t61.5 -2q18 0 32.5 -12t32.5 -21q49 -38 54 -48
q4 -9 11.5 -20.5t7.5 -16.5q0 -15 -13 -48q-5 -18 -31.5 -37.5t-53.5 -37.5q-11 0 -11 -83v-91z" />
    <glyph glyph-name="two" unicode="2" 
d="M910 778l-84 -240h-712v35q320 285 451 466q132 183 132 331q0 114 -73 189q-73 74 -174 74q-93 0 -165 -51q-75 -51 -109 -148h-33q21 163 115 253q94 88 233 88q149 0 248 -96q100 -97 100 -226q0 -96 -43 -184q-63 -143 -211 -305q-222 -242 -269 -283h310q98 0 133 7
q37 6 69 28q30 21 54 62h28z" />
    <glyph glyph-name="three" unicode="3" horiz-adv-x="866" 
d="M171 1519q50 120 130 190q79 66 198 66q145 0 224 -94q59 -70 59 -150q0 -133 -185 -272q110 -42 170 -124q58 -83 58 -190q0 -157 -98 -271q-125 -150 -366 -150q-119 0 -162 27q-42 27 -42 58q0 22 19 40q20 17 48 17q22 0 43 -6q18 -7 65 -28q52 -25 70 -29
q32 -8 67 -8q85 0 150 71q64 71 64 171q0 71 -29 139q-24 52 -47 78q-34 35 -97 66q-65 30 -126 30h-26v28q70 8 144 48q73 42 105 98q33 55 33 125q0 91 -59 143q-58 55 -145 55q-141 0 -236 -142z" />
    <glyph glyph-name="four" unicode="4" 
d="M910 993v-128h-156v-327h-142v327h-498v115l545 795h95v-782h156v0zM612 993v617l-414 -617h414z" />
    <glyph glyph-name="five" unicode="5" horiz-adv-x="895" 
d="M853 1747l-67 -142h-351l-91 -184q252 -35 383 -173q112 -117 112 -279q0 -94 -37 -172q-39 -81 -93 -135q-61 -59 -126 -90q-98 -48 -200 -48q-104 0 -151 35q-47 34 -47 78q0 23 20 43q19 18 51 18q24 0 40 -7q8 -3 60 -34q61 -45 127 -48q96 0 171 79q74 78 74 192
q0 110 -68 204q-71 96 -190 147q-100 41 -257 47l223 469h417z" />
    <glyph glyph-name="six" unicode="6" 
d="M882 1775v-28q-114 -11 -188 -46q-73 -35 -144 -108q-75 -76 -117 -160q-50 -93 -77 -209q123 82 253 82q121 0 211 -99t90 -256q0 -152 -90 -276q-111 -151 -289 -151q-121 0 -207 82q-167 159 -167 412q0 162 63 308q62 144 182 258q119 113 227 152q106 39 202 39h51
v0zM342 1160q-15 -134 -15 -194q0 -86 30 -185q28 -100 88 -158q43 -42 105 -42q75 0 132 72q58 73 58 208q0 150 -58 263q-57 111 -164 111q-31 0 -68 -14q-35 -13 -108 -61z" />
    <glyph glyph-name="seven" unicode="7" horiz-adv-x="969" 
d="M270 1747h653v-40l-411 -1183h-120l376 1081h-327q-99 0 -141 -24q-75 -41 -118 -127l-25 10z" />
    <glyph glyph-name="eight" unicode="8" horiz-adv-x="940" 
d="M439 1145q-143 116 -184 191q-41 71 -41 149q0 118 89 204q92 86 241 86q147 0 235 -80q89 -82 89 -183q0 -69 -48 -139q-48 -71 -199 -167q156 -120 207 -189q68 -90 68 -189q0 -125 -97 -214q-98 -90 -255 -90q-172 0 -268 106q-77 86 -77 187q0 78 54 156
q53 78 185 172h1v0zM579 1240q105 97 132 151q29 58 29 128q0 93 -53 146q-52 53 -142 53q-91 0 -147 -52q-56 -55 -56 -123q0 -47 23 -93t67 -89l147 -121v0zM481 1112q-58 -63 -83 -132q-28 -74 -28 -155q0 -110 57 -177q56 -67 146 -67q86 0 142 52q53 53 53 128
q0 63 -34 111q-65 93 -254 240h1z" />
    <glyph glyph-name="nine" unicode="9" 
d="M185 523v30q114 1 211 55q96 51 188 185q92 135 127 280q-138 -80 -250 -80q-125 0 -215 97q-89 96 -89 258q0 155 89 279q107 148 283 148q148 0 252 -122q129 -152 129 -374q0 -199 -97 -374q-96 -172 -271 -288q-141 -93 -307 -93l-50 -1v0zM725 1139q15 126 15 185
q0 84 -28 187q-29 100 -80 153q-51 54 -116 54q-78 0 -132 -71q-57 -74 -57 -212q0 -188 76 -294q53 -76 136 -76q35 0 91 19q52 17 95 55z" />
    <glyph glyph-name="A" unicode="A" horiz-adv-x="1118" 
d="M139 1600q1 31 5 77t10 106q12 127 14 240q2 115 -13 209q-17 90 -67 90q40 42 115 70q72 27 195 -54q71 -50 154 -138q42 -45 85.5 -90t88.5 -90q92 -93 177 -158q89 -67 162 -67q-87 -75 -137 -87q-54 -15 -120 26q-66 40 -164 134q-91 84 -270 233q-56 -112 -24 -227
q29 -109 56 -186q37 -33 94.5 -83.5t133.5 -119.5q153 -140 294 -196q-81 -85 -130 -67q-45 16 -103 47q-57 27 -121 86q-63 56 -115 89q-51 32 -82 10q-31 -23 -21 -156l-5 -79q0 -107 11 -223q12 -111 12 -221q0 -75 -52 -104q-54 -31 -114 -26q-59 4 -114 39
q-51 36 -51 91q78 0 102 103q24 104 23 240q-2 125 -16 275q-14 141 -14 206z" />
    <glyph glyph-name="B" unicode="B" horiz-adv-x="1264" 
d="M354 1446q6 -134 15 -279q3 -72 7.5 -142.5t7.5 -137.5q56 28 118.5 59.5t131.5 67.5q130 65 254 142q17 12 -5 58q-23 46 -61 66q-92 40 -210 117q-114 73 -172 105q-15 6 -44 -20q-36 -32 -42 -36zM360 2044q0 -71 3 -159q3 -89 3 -166q28 0 102 2q56 1 93 22
q43 23 94 72q50 47 98 85q-46 27 -83 54q-45 30 -85 46q-58 20 -112 26q-45 4 -113 18v0zM179 1900q0 44 -19 92q-26 60 -39 89q-14 28 5 66q21 40 29 71q31 146 183 190q156 -128 301 -212q148 -89 315 -150q19 -8 27 -37q5 -30 20 -53q-45 -29 -90.5 -58.5t-91.5 -58.5
q-106 -68 -180 -123q-33 -29 -24 -51q9 -21 20 -32q72 -68 178 -122q109 -56 149 -89q32 -28 77 -31q34 -2 72 -11q61 -22 76 -60q17 -40 4 -51q-105 -112 -331 -250q-227 -138 -359 -182q-83 -27 -131 -100q-51 -74 -123 -91q-36 -8 -60 14q-25 19 -42 49q-16 23 -14 65
q0 41 16 59q26 28 43 42q23 19 23 74q0 238 -14 489q-15 258 -20 462z" />
    <glyph glyph-name="C" unicode="C" horiz-adv-x="1422" 
d="M544 2272q0 -52 -50 -67q-50 -16 -62 -58q0 -93 10 -181q4 -44 3 -190.5t2 -179.5q81 -96 164 -183t161 -170q52 -57 136.5 -148t172 -175t163.5 -140.5t111 -44.5q-10 -52 -62 -90.5t-102 -42.5q-51 -6 -116 52t-185 173q-120 113 -208 201t-230 254q-6 -109 -17 -195.5
t-20 -183.5q-6 -51 -33 -160t-72 -135q-27 -15 -66.5 -11t-70.5 4q-15 0 -31 56.5t-14 68.5q6 56 69 109t63 108q0 134 11 304q10 167 10 313q0 134 -10.5 267t-10.5 267q-35 118 -35 141q0 22 52.5 59.5t74.5 42.5q91 18 165 21q0 9 13.5 -29.5t13.5 -56.5z" />
    <glyph glyph-name="D" unicode="D" horiz-adv-x="1955" 
d="M237 2408q12 -5 94 -90q39 -42 87.5 -93t104.5 -110q57 -59 117 -120t123 -123q121 -119 238 -208q23 23 73 79l63 73.5t68 80.5q73 88 126 160q57 77 59 99q1 32 -22 89q-24 51 -4 96q14 26 94 45q81 18 126 18q86 0 110 -18q25 -21 105 -45q15 -7 2 -56
q-13 -51 -63 -91q-52 -80 -83 -85q1 -254 17 -533q15 -273 39 -532q39 -115 151 -167q-46 -77 -43 -138q1 -63 -118 -92q-51 -13 -63 -4q-12 8 -74 37q-46 17 -64 76q-17 57 3 103q-25 42 -218 222q-190 176 -330 335q-147 -159 -257 -263q-119 -116 -218 -198
q-38 -32 -51 -103q-15 -71 -33 -98q-15 -22 -76 -66t-93 -44q-28 0 -66 28q-40 28 -40 48q0 7 12 48q12 42 26 52q3 1 47 38q38 34 64 80q21 182 4 504q-20 319 -16 633q-41 27 -84 75q-45 50 -71 141q24 106 133 117h1zM1450 2020q-47 -51 -93.5 -100.5t-91.5 -97.5
q-96 -102 -193 -227q116 -121 219 -238q111 -126 214 -212q-32 337 -33 512q-2 180 -22 363zM437 1883q-5 -214 6 -362q9 -152 -7 -449q64 -16 195 138q133 156 248 249q-109 97 -200 212q-94 113 -243 212h1z" />
    <glyph glyph-name="E" unicode="E" horiz-adv-x="1733" 
d="M443 1932q0 -104 -0.5 -224t-0.5 -255q-1 -136 -1.5 -278.5t0.5 -292.5q34 -63 34 -70q0 -2 -13 -76q-9 -43 -54 -65q-46 -23 -80 -23h-36.5h-61.5q-77 -2 -88 7q-8 5 -19 39q-10 32 43 62q38 25 67 41q37 20 75 76q-15 311 -20 670q-8 363 24 636q-22 20 -58 36
q-35 15 -35 45q0 31 24 69q22 35 42 41q72 15 150 27q78 11 159 11q17 0 44 -34q27 -33 27 -51q0 -26 -24 -54q-27 -32 -48 -53q-3 -211 106 -302q112 -95 296 -298q44 85 92 212q23 62 51 130.5t60 143.5q0 30 -7 54q-8 26 7 49q40 55 93 110q54 55 118 81l22 -22t23 -21
q21 -24 48 -32q31 -10 72 -10q19 0 38 0.5t38 0.5q1 -68 -53 -108q-55 -41 -104 -92q-24 -585 20 -1159q4 -22 17 -67q12 -37 4 -46q-39 -54 -103 -124q-64 -72 -138 -73q-27 -3 -75 12q-45 13 -45 98q0 46 60 88q59 41 97 82q6 267 -4 536q-11 275 -33 527
q-36 -59 -138 -236q-98 -171 -74 -239q-40 -71 -70 -97q-36 -31 -86 -51q-13 -14 -177 190q-82 101 -158.5 196t-146.5 183v0z" />
    <glyph glyph-name="F" unicode="F" horiz-adv-x="1480" 
d="M499 1516q-17 -57 -14 -104q2 -66 2 -126q325 44 523 223q76 71 141 181q66 111 102 223q33 109 21 193q-14 84 -100 92q30 77 63 135q34 61 134 75l39 -152q0 -248 -79 -437q-77 -188 -195 -328q-114 -134 -248 -215q-134 -80 -238 -99q-65 -13 -93 -52q-28 -40 -71 -92
q-3 -50 1 -98q4 -43 38 -97q43 -89 23 -129q-21 -42 -53 -54q-31 -13 -43 -4q-11 8 50 20q-62 -12 -147 -15q-87 -3 -163 -3q0 113 40 144q40 32 48 78q17 119 9 266q-9 151 -9 268q-14 80 -11 224q3 147 -3 284q-6 136 -35 231q-27 91 -102 62q-11 74 -3 76q8 3 47 79
q38 11 70 20t58 17q51 13 116 0q85 -21 142 -22q60 -4 9 -173q-110 -16 -122 -139q-13 -117 -5 -263q6 -130 71 -151q64 -21 139 21t137 126t62 163q22 118 -19 196q-44 78 -81 74q0 150 125 188q124 35 122 -163q0 -340 -147 -542q-148 -202 -352 -202z" />
    <glyph glyph-name="G" unicode="G" horiz-adv-x="1507" 
d="M563 1973q40 -50 78 -120q31 -64 65 -100q32 -36 69 -17q36 16 90 129q51 101 177 296q15 165 161 193q141 28 233 28l-23 -162q-120 15 -289 -194q-170 -210 -255 -405q173 -227 347 -458q181 -245 218 -300q0 -149 -123 -201q-123 -53 -115 -15q25 96 -88 276
q-114 179 -329 379q-98 -52 -80 -21q21 32 -33 -80q-165 -346 -276 -480q-110 -132 -278 -41q43 43 111 99q69 58 91 93q222 352 287 489q67 138 -19 208q-20 15 -182 206q-162 190 -286 369q0 216 91 229q89 13 160 -5q0 -86 86 -226q81 -134 112 -169v0z" />
    <glyph glyph-name="H" unicode="H" horiz-adv-x="1630" 
d="M1255 1673q-10 0 -113 11q-50 5 -104.5 11t-113.5 14q-60 7 -117 15t-109 16q-104 14 -137 25q10 -88 9 -131l-8 -152q109 0 342 -60q234 -59 335 -26q33 113 6 156q-26 43 10 121zM559 1289q2 -68 4 -132.5t4 -124.5q4 -125 27 -283q-76 -67 -166 -91q-89 -25 -177 -25
q-20 113 76 179q96 64 56 258q-6 93 -11 188.5t-10 193.5q-12 189 -10 427q-6 137 -43 193q-38 55 -69 78q-32 22 -41 40q-10 16 37 79q69 44 229 97q163 55 287 -9q-173 -229 -154 -394q65 -26 187 -57q129 -34 242 -46q116 -15 198 -1q79 13 56 79q-6 30 -16 80.5
t-25 119.5q-31 137 -51 137q87 117 170 111q42 -3 90.5 -7.5t103.5 -8.5q-15 -90 -34 -202.5t-42 -245.5q-48 -269 -50 -436q-7 -243 41 -406q44 -162 59 -268q11 -100 -55 -138q-66 -39 -298 -22l19 141q99 49 96 162q-4 124 -2 220q-173 71 -385 93q-219 20 -343 20v1z
" />
    <glyph glyph-name="I" unicode="I" horiz-adv-x="580" 
d="M429 1839l4 -454l45 -480q29 -99 -9 -164q-39 -69 -106 -98q-66 -31 -144 -23q-77 9 -120 63q111 135 141 331q31 195 19 410q-13 218 -46 418q-38 210 -56 354q-21 34 20 81q43 47 110 79q67 31 143 33q76 3 122 -50q1 -26 -60 -152q-64 -130 -64 -349z" />
    <glyph glyph-name="J" unicode="J" horiz-adv-x="580" 
d="M429 1839l4 -454l45 -480q29 -99 -9 -164q-39 -69 -106 -98q-66 -31 -144 -23q-77 9 -120 63q111 135 141 331q31 195 19 410q-13 218 -46 418q-38 210 -56 354q-21 34 20 81q43 47 110 79q67 31 143 33q76 3 122 -50q1 -26 -60 -152q-64 -130 -64 -349z" />
    <glyph glyph-name="K" unicode="K" horiz-adv-x="1218" 
d="M509 2389q26 1 26 -86q0 -53 -49 -67q-50 -15 -63 -58q1 -106 11 -179q9 -71 15 -153q96 -102 141 -136q49 -38 80 -43q105 -21 175.5 -36t107.5 -23q73 -15 73 -111q0 -126 7 -154q3 -12 9.5 -33t15.5 -48q8 -120 19 -196q10 -62 21 -96q11 -39 21 -61q9 -24 22 -88
q2 -17 5.5 -38.5t6.5 -47.5q7 -52 -22 -74q-28 -21 -93 -26q-66 -5 -91 31q-50 72 -37 161q12 89 5 167q-8 88 -26 220q-17 129 -12 223q-67 17 -204 34q-135 18 -208 91q-32 -136 -32 -208q0 -35 0.5 -75.5t0.5 -86.5q0 -58 -26 -247q0 -42 -34 -157q-34 -114 -72 -136
q-19 -14 -67 -10q-47 3 -79 3q-10 0 -23 49q-15 50 -10 75q6 30 68 106q62 75 62 109q0 143 11 302q11 138 11 309q0 161 -10 267q-11 111 -12 264q-34 112 -34 141q0 16 48 55q48 38 78 46q76 14 164 21v0z" />
    <glyph glyph-name="L" unicode="L" horiz-adv-x="1220" 
d="M540 2373q47 -20 49 -104q1 -86 207 -261q51 -45 97.5 -82.5t88.5 -68.5q84 -62 180 -45q0 -75 -80 -147q-81 -72 -115 -55q-46 20 -129 121q-75 88 -165 188q-82 89 -141 122t-59 -75q0 -63 -8 -261q-8 -199 -8 -381q0 -195 12 -345q13 -150 54 -153q74 -106 94 -106
q21 -2 -24 -86h-54.5h-48.5q-48 1 -103 39q-38 -38 -119 -47q-90 -10 -118 -10q-35 113 70 159q103 45 129 105q-19 76 -23 126q-5 52 13 125q-18 75 -18 249q0 173 18 248q-18 73 -9 123q9 59 9 125q0 136 -2 178q-4 35 -22 108l-101 55q-14 62 35 100q46 37 112 58
q64 18 119 17q57 -2 60 -19v0z" />
    <glyph glyph-name="M" unicode="M" horiz-adv-x="1641" 
d="M941 1829q27 -93 81 -108q50 -16 67 -31q56 -66 78 -43q23 23 28 84q5 57 4 141q-3 72 6 130q-68 64 -146 -42q-78 -108 -118 -131v0zM768 1739q-36 67 -121 117q-87 52 -107 82q-63 89 -77 72q-14 -18 -9 -90q6 -74 18 -163q13 -95 6 -152q-19 -152 15 -165
q34 -16 85 37q52 51 108 135q27 41 47.5 73t34.5 54v0zM488 1272q7 -152 -7 -270q-15 -113 -21 -233q-18 0 -113 -97q-99 -105 -155 -20q-56 84 -29 98q151 77 156 446q6 367 -66 965q-22 55 -45 61q-26 7 -42 12q-16 4 -19 27q-4 23 21 109q58 46 160 -12q100 -59 205 -154
q104 -96 193 -196q94 -107 126 -136q16 -21 68 28q48 42 113 117q68 80 118 143q54 66 91 107q-40 50 19 83q56 33 133 38q76 3 122 -29q47 -34 -16 -119q-69 0 -109 -72q-43 -75 -56 -189q-14 -123 -6 -304q7 -170 23 -367q8 -93 17 -181t18 -170q20 -183 26 -251
q-73 -19 -135 -43q-69 -27 -119 -27q13 81 36 312q22 234 -16 377q-102 135 -194 226t-150 130q-73 -63 -155 -169q-82 -109 -193 -240h1z" />
    <glyph glyph-name="N" unicode="N" horiz-adv-x="1189" 
d="M471 2130q-116 95 -106 130q9 35 94 84q60 37 123 34q58 -2 147 -34q59 -23 76 -73q16 -52 -42 -74q-31 -11 -44 -30q-15 -21 -44 -14q-28 -110 -11 -245q16 -134 7 -287q55 -49 105 -92.5t94 -81.5q89 -76 247 -73q16 -51 -28 -103q-49 -55 -89 -60q-86 -16 -150 18
q-51 24 -143 78q0 -72 -5 -200q-6 -116 -6 -198q78 -44 124 -110q65 -102 13 -130q-54 -29 -97 -35q-108 -18 -203 -13q-94 4 -137 54q-27 30 18 93q42 58 103 115q-3 118 -9 295q-3 87 -5.5 161.5t-2.5 135.5q-39 72 -84 114q-45 38 -123 74q-48 7 -90 -20
q-22 -15 -40.5 -27t-33.5 -21q0 37 -6 46q-6 12 11 90q27 84 128 110q99 26 218 -70q0 46 -5 190q-4 116 -4 169v0z" />
    <glyph glyph-name="O" unicode="O" horiz-adv-x="1535" 
d="M380 2381q89 -90 231 -200q141 -114 177 -128q72 -30 112 -77q40 -48 77 -60q35 -12 89 38q51 48 148 213q34 46 -30 172q24 19 86 31q64 11 100 11q63 -91 57 -109q-8 -22 -33 -76q-55 -85 -137 -194q-86 -115 -134 -186q-125 -185 -203 -135q-67 42 -151 106
q-115 88 -184 153q-73 67 -115 82q-41 13 -49 -47q-10 -61 12 -238q90 -96 243 -214q78 -61 133 -104.5t88 -67.5q85 -68 179 -1q93 67 186 203q31 100 43 120q12 19 114 -51q43 -71 35 -100q-8 -31 -37 -41q-29 -11 -62 -12q-33 -3 -37 -17q-17 -57 -40 -63
q-23 -8 -200 -225q-54 -66 -132 -55q-81 13 -157 58q-75 42 -144 103q-33 27 -57 48t-38 33q-82 64 -107 48q-26 -17 -26 -90q0 -67 11 -188q12 -115 6 -243q44 -114 20 -170q-25 -56 -79 -71t-117 4q-64 17 -96 55q-63 70 12 93q77 22 77 100q0 113 -12 302t-12 295
q0 97 -19 291q-20 185 0 298l-57 180q104 96 91 111q-14 15 138 15v0z" />
    <glyph glyph-name="P" unicode="P" horiz-adv-x="1607" 
d="M181 2204q39 0 -42 69q-80 70 -6 121h37.5h75.5h78h50q70 0 75 -168q3 -178 13 -283q224 -48 327 -55q50 -4 134 -9t203 -11q40 117 24 169q-17 53 -41 79q-25 29 -30 48q-7 19 55 76q52 -10 130 -3q73 7 127 -1q93 4 95 -32t-29 -107q-32 -72 -69 -174
q-39 -101 -25 -229q-215 4 -314 10q-57 3 -107.5 5.5t-92.5 5.5q-43 3 -85 5.5t-83 5.5q-99 5 -216 8q9 -45 8 -158q-2 -114 8 -159q191 40 477 57q283 16 481 -9q72 -150 54 -177q-20 -30 -27 -187q-3 -56 31 -140q34 -85 -145 -69q-155 9 -118 79q36 72 39 130q3 88 11 84
q8 -7 8 89q-256 56 -444 6q-191 -51 -363 -65q3 -124 2 -144q-2 -38 -2 -224q0 -24 23 -59q23 -36 29 -69q7 -36 -24 -61q-31 -26 -139 -32q-102 -6 -135 17t-31 59q1 32 19 73q18 38 17 60q-24 382 -13 666q11 275 -50 703v0z" />
    <glyph glyph-name="Q" unicode="Q" horiz-adv-x="2438" 
d="M544 2272q0 -52 -50 -67q-50 -16 -62 -58q0 -93 10 -181q4 -44 3 -190.5t2 -179.5q81 -96 164 -183t161 -170q52 -57 136.5 -148t172 -175t163.5 -140.5t111 -44.5q-10 -52 -62 -90.5t-102 -42.5q-51 -6 -116 52t-185 173q-120 113 -208 201t-230 254q-6 -109 -17 -195.5
t-20 -183.5q-6 -51 -33 -160t-72 -135q-27 -15 -66.5 -11t-70.5 4q-15 0 -31 56.5t-14 68.5q6 56 69 109t63 108q0 134 11 304q10 167 10 313q0 134 -10.5 267t-10.5 267q-35 118 -35 141q0 22 52.5 59.5t74.5 42.5q91 18 165 21q0 9 13.5 -29.5t13.5 -56.5zM2090 1804
q-57 62 -112 101q-57 38 -66 38q-21 0 -116 52q-111 62 -206 121q0 -18 1.5 -52t3.5 -85t4 -104t4 -107q3 -111 9 -278q32 10 104 57q58 38 148 100q38 26 73.5 51t68.5 49q64 46 84 57v0zM1760 2216q29 0 94 -42q64 -42 98 -42q77 -63 184 -128q106 -66 186 -129
q-80 -69 -161 -114q-84 -48 -146 -103q-59 -44 -181 -127q-130 -87 -215 -171q-5 -144 -1 -265q1 -57 4 -136.5t9 -181.5q109 -88 35 -126q-77 -40 -134 -40q-54 -2 -123 25q-70 26 -34 98q37 29 48 185q10 153 9 336q-2 166 -8 349q-8 176 -8 221q0 96 12 290
q12 195 -52 195l-13 79q64 0 106 -3t124 -3q0 -34 49 -78q48 -45 118 -89v0z" />
    <glyph glyph-name="R" unicode="R" horiz-adv-x="1528" 
d="M892 1260q91 -101 158 -155q33 -28 76 -63.5t97 -78.5q107 -11 170 -33q63 -24 39 -124q-19 -82 -116 -134q-95 -55 -224 -21l-6 160q-62 58 -128 121.5t-135 132.5q-139 135 -223 200q-84 58 -130 97q-37 30 -59 15q8 -130 23 -295q6 -77 12 -139t9 -110q8 -57 -38 -111
q-49 -55 -112 -80q-65 -26 -124 -9q-59 18 -72 105q82 0 108 99q26 98 25 234q0 120 -15 270q-15 136 -15 207q0 50 14 153q14 100 21 209q5 105 -8 201q-14 92 -69 133q-69 154 11 139q75 -15 120 -10q106 13 112 -23q6 -39 -13 -75q210 -80 363 -171q140 -86 323 -192
q-8 -143 -99 -117q-92 24 -95 18q-34 -50 -114 -129q-82 -79 -150 -164q108 -125 123 -135q19 -14 141 -125zM390 2081q-8 -160 -6 -317q1 -159 21 -324q107 109 203 199q106 100 199 223q-113 77 -210 116q-98 37 -207 103v0z" />
    <glyph glyph-name="S" unicode="S" horiz-adv-x="1207" 
d="M328 2042q14 -91 31 -285q19 -208 36 -257q27 43 197 197q165 146 240 239q40 50 42 73q0 22 167 24l-8 -728l8 -330q0 -32 39 -99q39 -71 50 -121q20 -107 -77 -120q-96 -13 -109 -13q-171 -8 -214 78q-29 51 -16 69q10 16 40 35q26 16 61 53q33 35 50 123q-9 75 -9 172
q0 54 -0.5 109.5t-0.5 112.5q0 113 -3 209q-5 95 -20 131q-27 54 -130 -49q-102 -104 -213 -225q-111 -123 -193 -193q-84 -72 -67 49q18 161 -22 437q-42 281 -91 468q-28 86 46 131q74 47 81 47q56 -3 73 -8q16 -6 90 -9q48 -3 70 -12q18 -7 69 -18q-19 -32 -28 -68
q-12 -40 -45 -55q-35 -59 -88 -36q-55 22 -56 -131z" />
    <glyph glyph-name="T" unicode="T" horiz-adv-x="1734" 
d="M1133 2119q9 0 44 -44q36 -46 74 -98q19 -27 37 -53t35 -50q36 -53 39 -59q76 -144 126 -121q49 22 164 22q-27 -81 -45 -106q-16 -22 -84 -128q-93 0 -114 -32q-20 -32 -116 97q-104 137 -165 241q-65 108 -102 147t-47 -13q-11 -51 0 -238l10 -65q2 -165 3 -304.5
t1 -252.5q-2 -226 102 -266q61 -34 12 -80q-50 -47 -136 -72q-90 -27 -176 -13q-88 11 -109 96q123 79 123 160v87.5v105.5q0 93 6 242q7 140 7 306q0 169 -11 297q-12 137 -49 215q-139 -209 -277 -316q-141 -112 -53 -257q-93 -66 -131 -72t-95 -6q-40 0 -18 53
q19 50 75 131q53 77 128 164q73 85 140 149q181 170 254 270q67 95 106 117q36 18 77 -44q40 -63 165 -210v0z" />
    <glyph glyph-name="U" unicode="U" horiz-adv-x="1176" 
d="M440 2267q140 -275 311 -369q85 -48 170.5 -95t171.5 -92q-46 -29 -59 -129q-15 -108 -13 -221q1 -122 9 -237q9 -116 9 -174q-11 -160 25 -170q36 -13 56 -48q-42 -80 -180 -96q-137 -15 -119 151q36 350 32 534q-5 185 -34 291q-41 31 -100 77.5t-135 107.5
q-148 117 -201 164q0 -39 -0.5 -97.5t-0.5 -133.5q-1 -76 -1 -155v-160q0 -82 0.5 -160t1.5 -150q3 -161 8 -211q41 -117 4 -183q-38 -65 -100 -84q-64 -19 -122 6q-59 24 -59 86q29 0 45 62q15 61 21 141q6 78 6 151v59v34q0 244 -9 556q-11 312 -39 630q83 0 157 37
q72 37 145 -122z" />
    <glyph glyph-name="V" unicode="V" horiz-adv-x="1197" 
d="M460 2267q141 -275 312 -369q85 -48 170.5 -95t171.5 -92q-47 -29 -60 -129q-13 -97 -13 -221q1 -130 10 -237q8 -124 8 -174q-10 -160 26 -170q35 -13 55 -48q-42 -80 -179 -96q-138 -15 -120 151q37 346 33 534q-5 187 -35 291q-41 31 -99.5 77.5t-135.5 107.5
q-141 112 -201 164v-97.5v-133.5q-1 -76 -1.5 -155t-0.5 -160q0 -82 0.5 -160t1.5 -150q2 -137 8 -211q42 -118 5 -183q-38 -65 -101 -84t-121 6q-59 23 -59 86q30 0 44 62q16 67 22 141q6 78 6 151v59v34q0 258 -10 556q-11 302 -38 630q83 0 156 37q74 37 145 -122z" />
    <glyph glyph-name="W" unicode="W" horiz-adv-x="1172" 
d="M885 1808q-57 62 -112 101q-55 37 -66 37q-20 0 -116 53q-87 47 -206 121q0 -18 1.5 -52.5t3.5 -84.5q2 -51 4 -104t4 -107q3 -111 9 -278q32 10 104 57q58 38 148 100q38 26 73.5 51t68.5 49q66 47 84 56v1zM555 2220q27 0 94 -42q66 -43 98 -43q77 -63 184 -128
q103 -63 186 -128q-75 -66 -161 -114q-84 -48 -146 -103q-59 -44 -181 -127q-130 -89 -215 -171q-5 -144 -1 -265q3 -134 13 -318q109 -88 35 -126q-77 -40 -134 -40q-54 -2 -123 25q-71 25 -34 97q37 31 47 185q11 167 10 337q-2 165 -8 348q-8 177 -8 222q0 95 12 290
t-52 195l-13 79q64 0 106 -3t124 -3q0 -34 49 -79q50 -47 118 -88v0z" />
    <glyph glyph-name="X" unicode="X" horiz-adv-x="1629" 
d="M779 1532q-60 74 -149 188q-48 60 -95.5 118t-95.5 115q-96 110 -181 191q-84 79 -121 65q9 40 70 117q60 76 83 61q37 -24 122 -145q90 -128 169 -228q85 -111 144 -151q60 -44 51 86q-5 55 5 152q8 92 -30 127q-68 51 -22 92q46 40 121 53q76 13 133 -10q58 -23 16 -99
q-67 -118 -62 -208q3 -73 7 -222q0 -75 64 -16q66 57 159 165t198 225q104 117 187 163q0 -96 -13 -138q-12 -40 -45 -68q-24 -22 -90 -72q-54 -40 -147 -150q-62 -75 -156 -166q-100 -98 -144 -127q-4 -60 -7 -197q-1 -62 -2 -125t-1 -126v-122v-113q0 -94 2 -152
q45 -57 56 -90q10 -34 -8 -66q-19 -33 -103 -39q-91 -11 -118 15q-28 26 -26 62q3 38 38 98q-7 114 -5 342q1 245 -4 395v0z" />
    <glyph glyph-name="Y" unicode="Y" horiz-adv-x="1487" 
d="M415 2282q75 -23 184 -61q61 -22 125.5 -44.5t131.5 -43.5q145 -49 255 -80q118 -34 178 -34q18 0 26 -65q7 -66 9 -144q0 -40 0.5 -76.5t0.5 -69.5q-1 -34 -1.5 -52t-0.5 -20q0 -58 5 -193q3 -62 7 -126t10 -129q9 -117 28 -247q16 -117 41 -171q3 -8 -98 -85t-230 53
q82 86 89 271q5 182 -8 332q-62 20 -110 20q-46 0 -146 3q-10 -124 -6 -325q3 -203 -42 -326q-55 -40 -95 -50q-40 -12 -108 32q-16 94 43 154q58 60 58 202q0 90 15 177q13 88 1 149q-64 14 -80 14q-17 1 -63 20q-9 -60 -42 -210q-34 -154 -60 -248q-82 -225 -114 -253
q-33 -30 -158 -30q-27 185 64 393q92 208 98 381q7 243 -14 389q-25 144 -66 229q-45 89 -98 140q-65 64 -110 124q0 88 39 102q39 12 89 -9q44 -21 95 -56q47 -35 58 -37v0zM1146 1484q0 183 3 243q4 60 15 107q-28 -3 -113 18q-42 12 -88.5 24.5t-94.5 27.5
q-50 14 -97 27.5t-91 25.5q-89 25 -125 25q41 -125 41 -223q0 -100 27 -217q94 -21 236 -41q150 -20 287 -17v0z" />
    <glyph glyph-name="Z" unicode="Z" horiz-adv-x="1629" 
d="M911 1465q54 -69 147 -189q47 -60 95 -118.5t97 -114.5q98 -116 181 -192q85 -79 121 -62q-11 -44 -69 -120q-60 -75 -83 -59q-41 25 -123 144q-75 107 -169 228q-86 110 -144 151q-62 44 -49 -85q3 -63 -7 -152q-9 -93 30 -127q67 -53 22 -93q-47 -41 -121 -54
q-77 -13 -132 11q-58 23 -16 100q65 116 61 208q-5 101 -5 222q-2 73 -66 16q-70 -62 -158 -166q-95 -108 -198 -225q-105 -117 -186 -162q-2 96 11 137q10 39 44 67q32 29 91 73q60 46 148 151q50 61 155 166q103 101 146 127q3 90 5 197q1 60 1.5 123t0.5 126v122.5v113.5
t-0.5 92.5t-0.5 60.5q-47 51 -57 88q-11 34 9 66q19 31 104 42q91 7 117 -18q28 -27 25 -61q-2 -33 -36 -97q5 -102 4 -343q0 -253 4 -394h1z" />
    <glyph glyph-name="a" unicode="a" horiz-adv-x="1026" 
d="M247 1349q0 14 4 60q1 18 3 39t5 45q11 111 11 190q1 88 -10 165q-14 71 -53 71q34 34 91 54q54 21 154 -42q55 -38 121 -107q61 -69 137 -144q75 -74 140 -123q70 -54 128 -54q-64 -58 -108 -70q-44 -11 -94 23q-46 24 -130 104q-76 69 -214 184q-43 -88 -19 -179
q6 -24 11.5 -44.5t11.5 -38.5q17 -52 22 -64q51 -44 180 -159q116 -108 231 -155q-64 -69 -101 -53q-32 10 -83 37q-38 17 -94 67q-54 47 -91 72q-42 24 -64 8q-27 -21 -17 -124l-5 -63q0 -64 9 -175q9 -93 9 -174q0 -59 -41 -83q-39 -23 -89 -20q-51 3 -90 31
q-41 25 -41 72q62 0 81 80q18 78 18 190q0 105 -12 216q-11 110 -11 164v0z" />
    <glyph glyph-name="b" unicode="b" horiz-adv-x="1086" 
d="M366 1228q0 -35 4 -109q1 -27 3 -55.5t4 -55.5q2 -38 6 -112q0 -28 2 -55.5t4 -53.5q43 21 92.5 46.5t104.5 53.5q106 53 199 112q13 10 -3 45q-17 36 -47 52q-71 32 -167 93q-83 53 -136 83q-10 4 -34 -17q-39 -31 -32 -27zM369 1700q0 -58 3 -125q0 -18 0.5 -35.5
t0.5 -33.5q2 -44 2 -64q8 0 17.5 0.5t20.5 0.5q26 2 41 2q41 0 74 17q32 17 74 56q30 30 78 68q-39 20 -65 43q-35 21 -67 36q-42 14 -89 21q-32 2 -90 14v0zM227 1586q0 33 -15 72q-10 24 -16 35l-15 36q-11 23 4 52q18 39 23 56q24 114 144 150q114 -96 238 -167
q119 -72 249 -119q14 -5 20 -30q7 -29 17 -41q-18 -12 -35.5 -23.5t-35.5 -22.5q-18 -12 -36.5 -23.5t-36.5 -22.5q-38 -25 -72 -49q-34 -22 -70 -48q-27 -24 -19 -40q5 -18 16 -26q53 -54 140 -96q85 -45 117 -70q28 -24 61 -24q32 -4 57 -9q47 -19 60 -47q13 -32 3 -41
q-82 -88 -262 -198q-182 -111 -282 -142q-68 -24 -103 -79q-41 -61 -97 -72q-30 -6 -48 11q-18 13 -33 38q-11 17 -11 52q0 29 13 46q20 22 33 34q18 13 18 58q0 203 -10 385q-12 176 -16 365v0z" />
    <glyph glyph-name="c" unicode="c" horiz-adv-x="1142" 
d="M453 1906q0 -42 -39 -52q-40 -13 -48 -45q0 -85 7 -143q3 -34 2 -148.5t2 -140.5q64 -75 129 -143t125 -133q41 -45 107.5 -116t135 -137t128 -110t86.5 -35q-8 -41 -48.5 -71t-79.5 -33q-41 -4 -91.5 41t-144.5 135q-93 89 -162.5 158t-180.5 199q-4 -86 -13 -153.5
t-16 -143.5q-4 -41 -25 -126t-57 -105q-21 -12 -52 -9t-55 3q-12 0 -24.5 44.5t-10.5 53.5q5 44 54 85.5t49 84.5q0 112 9 238q8 147 8 245q0 105 -8.5 209t-8.5 209q-28 94 -28 110q0 18 41.5 47.5t58.5 32.5q75 14 129 17q0 7 10.5 -23.5t10.5 -44.5z" />
    <glyph glyph-name="d" unicode="d" horiz-adv-x="1575" 
d="M218 2005q6 -3 10 -4q15 -17 31.5 -34t32.5 -33q15 -17 32.5 -35.5t36.5 -38.5q25 -28 82 -86q43 -47 92 -95q24 -24 48.5 -48t49.5 -48q99 -100 188 -165q0 1 56 63q16 17 50 57q18 20 54 64q12 15 25.5 31.5t25.5 31.5q35 46 49 62q44 63 46 79q0 29 -18 70
q-19 43 -2 76q11 23 74 35q67 15 100 15q62 0 85 -13q17 -16 84 -37q11 -5 2 -44q-11 -39 -50 -72q-42 -65 -66 -67q0 -52 1 -104.5t3 -104.5q3 -107 9 -210q3 -54 6.5 -107t7.5 -106q7 -109 18 -208q29 -90 119 -132q-35 -61 -35 -108q1 -51 -92 -73q-39 -11 -50 -3
q-10 4 -25 12t-33 17q-37 13 -50 59q-14 46 1 83q-21 33 -171 174q-156 142 -261 265q-27 -30 -53.5 -57.5t-50.5 -53.5l-50.5 -50.5t-47.5 -46.5q-90 -88 -173 -156q-30 -27 -41 -82q-9 -52 -25 -76q-11 -16 -59 -53q-49 -34 -74 -34q-22 0 -53 21q-31 23 -31 39q0 1 10 38
q7 33 20 40q7 2 37 30q30 27 51 64q16 136 3 397q-16 272 -13 500q-29 18 -65 59q-36 37 -57 111q16 82 105 92h1zM1174 1699q-36 -40 -73 -79q-19 -20 -37 -39.5t-36 -37.5q-82 -88 -152 -179q21 -24 43 -47l44 -46q21 -24 43 -47.5t44 -47.5q84 -98 168 -168
q-26 290 -26 405q0 128 -18 286zM375 1591q-3 -164 6 -285q6 -129 -6 -355q48 -14 154 109q102 122 195 196q-85 75 -158 167q-72 89 -191 168v0z" />
    <glyph glyph-name="e" unicode="e" horiz-adv-x="1398" 
d="M381 1630q0 -42 -0.5 -86t-0.5 -91q0 -48 -0.5 -98t-0.5 -103q0 -54 -0.5 -109t-0.5 -111v-115v-116q28 -52 28 -55q0 1 -11 -60q-6 -34 -42 -52q-38 -17 -64 -17h-12h-16q-13 -1 -49 -1q-63 0 -69 6q-10 9 -16 31q-8 24 35 49q16 11 53 32q27 13 59 60q-3 58 -5.5 120.5
t-4.5 128.5q-3 66 -4.5 136t-2.5 144q-5 294 19 501q-19 17 -44 29q-29 10 -29 36q0 20 20 54q16 27 33 32q66 14 118 21q78 9 126 9q11 0 34 -27q21 -27 21 -39q0 -23 -19 -44q-12 -15 -38 -41q-2 -168 84 -239q84 -71 234 -234q37 76 71 167q13 36 41 102q22 54 48 114
q0 18 -5 42q-8 19 5 39q31 45 74 86q40 43 92 65q17 -16 35 -34q16 -19 38 -26q25 -8 58 -8q7 0 14 0.5t15 0.5q7 0 14.5 0.5t15.5 0.5q0 -56 -41 -86q-38 -30 -82 -72q-20 -460 15 -915q4 -28 13 -52q8 -30 4 -38q-36 -45 -81 -96q-51 -57 -109 -58q-31 -2 -59 9
q-36 9 -36 78q0 36 48 68q49 36 76 66q1 96 0.5 202t-3.5 220q-2 54 -5 107t-6 105q-7 93 -15 205q-9 -14 -20 -32t-24 -42q-14 -24 -30.5 -52t-34.5 -61q-78 -137 -59 -189q-31 -54 -55 -76q-26 -23 -67 -41q-12 -11 -139 151q-33 39 -64.5 78t-61.5 76t-59 73t-56 72z" />
    <glyph glyph-name="f" unicode="f" horiz-adv-x="1200" 
d="M424 1301q-14 -44 -11 -82q2 -66 2 -100q255 35 412 176q60 54 112 144q54 92 79 176t18 152q-13 66 -79 72q15 46 49 107q27 48 106 59l31 -120q0 -195 -62 -344q-62 -152 -153 -258q-92 -108 -196 -170q-103 -63 -189 -79q-53 -9 -72 -41q-35 -47 -57 -72q-2 -39 1 -78
q2 -34 30 -76q32 -69 18 -103q-19 -34 -41 -42q-24 -9 -35 -4q-14 8 39 16q-63 -10 -115 -11q-46 -2 -67 -2h-32h-30q0 88 32 114q30 23 38 61q13 87 6 209q-6 120 -6 211q-13 55 -9 178q1 122 -2 224q-7 102 -27 182q-24 71 -82 49q-8 58 -2 61q7 0 37 62q38 9 101 29
q39 9 91 0q61 -17 113 -18q47 -2 7 -136q-89 -14 -96 -109q-10 -88 -5 -209q4 -105 57 -118q50 -18 109 16q61 33 108 99q49 67 49 129q18 90 -15 155q-36 60 -64 57q0 119 99 149q98 27 95 -129q0 -273 -114 -426q-116 -161 -278 -161v1z" />
    <glyph glyph-name="g" unicode="g" horiz-adv-x="1222" 
d="M475 1675q35 -46 61 -94q23 -50 52 -79q26 -27 55 -15q25 12 71 103q51 100 139 233q10 131 127 153q118 21 184 21l-19 -128q-93 11 -228 -152q-136 -169 -201 -319q33 -44 67 -88.5t68 -89.5q76 -100 138 -184q34 -48 62.5 -86t50.5 -68q21 -30 36 -50.5t24 -31.5
q0 -119 -97 -159q-96 -41 -90 -11q16 77 -70 217q-93 143 -260 298q-80 -42 -63 -17q10 17 -26 -62q-132 -278 -217 -379q-88 -106 -220 -32q41 39 87 79q58 48 72 72q172 276 227 386q52 111 -15 164q-16 11 -144 164q-33 36 -63 73t-58 73q-61 80 -104 144q0 172 71 181
q74 9 126 -5q0 -67 68 -178q65 -110 89 -133v0z" />
    <glyph glyph-name="h" unicode="h" horiz-adv-x="1318" 
d="M1021 1439q-24 0 -89 7q-21 1 -41.5 3.5t-41.5 5.5q-52 7 -89 11q-48 6 -93 12q-62 8 -86 13q-69 7 -108 20q8 -61 8 -104q0 -11 -2 -51q-4 -36 -5 -69q88 0 270 -46q185 -47 265 -20q23 88 4 122q-21 34 8 96v0zM472 1135q0 -27 1 -53t2 -51q1 -32 4 -98q3 -105 21 -224
q-62 -54 -132 -72q-80 -20 -140 -20q-16 91 61 142q74 49 44 204q-3 36 -5 73.5t-4 75.5q-3 37 -5 75t-3 77q-10 158 -8 337q-5 110 -34 152q-30 43 -53 61q-26 17 -33 32q-9 11 29 62q58 38 181 77q130 43 226 -7q-136 -183 -121 -311q57 -24 148 -44q101 -28 190 -37
q94 -12 156 -1q60 8 44 62q-2 12 -5.5 28t-6.5 36q-5 20 -10 43.5t-10 50.5q-26 109 -41 109q67 90 136 87q31 -5 71 -6q25 -2 81 -6q-6 -37 -13 -77t-14 -84q-8 -44 -16 -92t-17 -101q-39 -218 -40 -344q-5 -192 32 -320q38 -135 47 -212q7 -83 -43 -109q-55 -31 -235 -17
l15 111q79 37 76 127q-2 58 -2 88v43v44q-137 55 -303 73q-200 16 -271 16v0z" />
    <glyph glyph-name="i" unicode="i" horiz-adv-x="490" 
d="M368 1570l5 -358l34 -379q22 -76 -5 -129q-34 -55 -85 -78q-54 -24 -113 -19q-60 5 -96 50q88 104 111 261q23 154 16 324q-8 147 -37 330q-7 39 -13 76.5t-12 73.5q-6 35 -10.5 67.5t-7.5 62.5q-17 26 16 62q34 39 86 62q57 26 113 28q61 1 96 -41q1 -21 -48 -120
q-50 -100 -50 -273z" />
    <glyph glyph-name="j" unicode="j" horiz-adv-x="490" 
d="M368 1570l5 -358l34 -379q22 -76 -5 -129q-34 -55 -85 -78q-54 -24 -113 -19q-60 5 -96 50q88 104 111 261q23 154 16 324q-8 147 -37 330q-7 39 -13 76.5t-12 73.5q-6 35 -10.5 67.5t-7.5 62.5q-17 26 16 62q34 39 86 62q57 26 113 28q61 1 96 -41q1 -21 -48 -120
q-50 -100 -50 -273z" />
    <glyph glyph-name="k" unicode="k" horiz-adv-x="992" 
d="M432 2003q21 1 21 -68q0 -42 -39 -52q-39 -12 -49 -46q0 -75 8 -142q7 -68 12 -120q72 -77 111 -107q41 -33 64 -34q81 -18 137 -29.5t86 -17.5q58 -14 58 -87q0 -108 4 -122q6 -20 20 -64q9 -123 16 -154q7 -48 15 -77q3 -15 9 -26q7 -20 8 -22q9 -23 18 -69
q2 -14 4.5 -31t5.5 -37q4 -41 -18 -59q-25 -17 -72 -20q-56 -3 -73 25q-38 56 -29 126q8 71 4 133q-5 38 -10 81.5t-10 91.5q-14 94 -11 177q-39 9 -160 25q-106 13 -164 73q-25 -105 -25 -165v-28v-30v-34.5v-35.5q0 -52 -21 -194q0 -33 -26 -123q-26 -91 -56 -108
q-19 -12 -54 -8q-64 2 -62 2q-8 0 -18 38q-11 34 -9 60q4 25 53 84q51 58 51 86q0 103 8 238q8 147 8 244q0 124 -6 210q-10 98 -10 209q-28 89 -28 110q0 13 39 45q38 30 61 35q74 14 129 17v0z" />
    <glyph glyph-name="l" unicode="l" horiz-adv-x="994" 
d="M456 1991q39 -18 39 -83q1 -69 165 -206q84 -75 145 -118q66 -49 142 -36q0 -59 -63 -116t-90 -43q-37 16 -102 95q-82 93 -130 148q-64 67 -110 97q-48 24 -48 -59q0 -61 -6 -206q-6 -165 -6 -301q0 -168 9 -271q9 -121 42 -122q58 -84 75 -84q15 0 -20 -68h-23h-20
h-19.5h-18.5q-34 0 -81 32q-32 -32 -93 -37q-66 -8 -95 -8q-26 89 56 124q83 36 101 84q-16 72 -16 99q-7 36 9 98q-14 65 -14 198q0 129 14 195q-14 58 -7 97q7 43 7 99q0 118 -2 141q-2 17 -16 84l-80 43q-11 46 27 80q39 31 88 45q53 13 94 13q45 0 47 -14v0z" />
    <glyph glyph-name="m" unicode="m" horiz-adv-x="1326" 
d="M773 1561q20 -73 63 -85q40 -13 53 -24q44 -51 63 -34q17 19 22 66q3 58 2 111q-2 61 6 102q-56 51 -115 -32q-65 -87 -94 -104v0zM636 1490q-29 53 -94 93q-71 41 -86 64q-50 72 -60 57q-12 -14 -7 -70q1 -18 5 -60q3 -22 9 -70q8 -71 6 -119q-17 -119 11 -131
q25 -10 67 29q43 43 85 108q10 15 19 30t18 27q8 12 14.5 22.5t12.5 19.5zM415 1122q4 -120 -4 -212q-13 -80 -17 -184q-14 0 -89 -78q-81 -81 -123 -15q-46 65 -22 76q120 65 123 353q3 302 -52 761q-17 41 -37 49q-33 9 -32 9q-14 1 -15 21q-3 14 16 87q42 34 126 -9
q78 -49 163 -122q78 -74 152 -155q17 -21 32 -37.5t27 -29.5t22 -23.5t18 -17.5q14 -15 53 23q34 28 89 92q49 58 94 112q47 60 72 86q-34 36 14 64q49 27 106 30q58 1 95 -22q37 -29 -12 -95q-57 0 -85 -57q-37 -59 -45 -148q-11 -105 -5 -240q1 -80 7 -144q4 -75 12 -145
q3 -37 6.5 -73t6.5 -71t6.5 -68.5t6.5 -64.5q3 -33 6 -62t6 -53q5 -48 9 -83q-55 -15 -105 -34q-54 -21 -95 -21q2 15 5.5 38t6.5 54q9 78 17 154q16 179 -13 297q-84 110 -153 178q-78 76 -118 103q-61 -52 -122 -133q-65 -86 -153 -190z" />
    <glyph glyph-name="n" unicode="n" horiz-adv-x="969" 
d="M402 1799q-91 73 -84 103q8 27 75 65q45 29 97 28q52 -5 115 -28q46 -18 61 -57q13 -40 -33 -58q-22 -6 -36 -25q-11 -15 -33 -10q-23 -89 -9 -194q12 -108 5 -225q47 -44 83 -73q49 -44 74 -64q68 -62 195 -58q11 -41 -23 -81q-37 -44 -70 -48q-68 -13 -118 13
q-51 25 -113 63q0 -88 -4 -158q-1 -24 -2 -45t-1 -40q-2 -52 -2 -72q62 -34 98 -87q54 -82 11 -101q-46 -25 -76 -29q-95 -14 -160 -10q-75 3 -109 44q-21 22 14 72q30 43 81 91q-1 47 -3 105.5t-3 128.5q-6 119 -7 234q-31 54 -66 89q-40 31 -97 59q-35 4 -71 -16
q-41 -29 -59 -38q0 29 -5 36q-5 8 9 71q21 65 101 87q78 21 172 -56q0 36 -1 61q-2 52 -2 89q-2 53 -3 85q-1 23 -1 49v0z" />
    <glyph glyph-name="o" unicode="o" horiz-adv-x="1242" 
d="M331 1996q59 -61 182 -157q117 -94 140 -101q57 -25 88 -61q34 -41 60 -46q29 -12 70 29q38 36 118 168q25 34 -24 135q18 17 68 26q51 7 78 7q49 -68 46 -85q-2 -3 -4.5 -9t-5.5 -13q0 2 -16 -37q-28 -42 -55.5 -81t-52.5 -74q-16 -21 -31 -40.5t-28 -37.5
q-14 -19 -26 -35.5t-22 -31.5q-98 -147 -160 -107q-66 42 -119 84q-93 70 -144 120q-59 52 -91 65q-35 10 -39 -38q-8 -49 10 -186q66 -76 191 -169q72 -59 105 -83q21 -18 38.5 -31.5t29.5 -22.5q68 -51 143 -1q75 54 146 161q25 79 35 95q7 12 89 -41q33 -55 27 -78
q-5 -24 -29 -33q-36 -9 -48 -9q-27 -3 -30 -14q-14 -46 -31 -50q-17 -6 -157 -176q-42 -55 -105 -44q-65 10 -123 46q-62 33 -114 79q-68 57 -76 65q-64 52 -83 39q-22 -15 -22 -71q0 -37 9 -148q9 -103 5 -193q35 -90 16 -134q-20 -46 -62 -55q-47 -13 -93 2q-52 14 -76 44
q-51 54 11 73q59 16 59 79q0 88 -9 238q-9 157 -9 233q0 68 -16 230q-14 148 1 234l-45 142q80 74 73 88q-13 11 108 11z" />
    <glyph glyph-name="p" unicode="p" horiz-adv-x="1297" 
d="M174 1858q29 0 -35 54q-62 54 -3 95h10h19h26h33h33.5h28.5h22.5h17.5q56 0 59 -133q1 -141 10 -222q196 -42 258 -45q19 -2 45.5 -3.5t60.5 -3.5q33 -2 73 -4t88 -3q30 91 17 133q-14 39 -31 62q-22 22 -23 37q-6 15 42 60q44 -7 103 -1q56 4 101 -1q74 1 74 -25
q1 -27 -22 -86q-27 -57 -56 -137q-29 -82 -19 -180q-78 1 -141 3q-31 1 -58 2t-49 3q-57 1 -84 4q-31 1 -73 5q-46 2 -68 3q-21 1 -65 4q-17 0 -35.5 1.5t-39.5 2.5q-21 0 -45 1.5t-50 1.5q6 -32 6 -124q0 -85 7 -125q156 31 375 45q215 11 379 -8q58 -117 44 -139
q-18 -27 -22 -148q-2 -48 25 -111q24 -65 -114 -54q-123 7 -94 62q26 51 31 103q3 68 9 67q6 -5 6 70q-204 44 -349 4q-172 -43 -287 -51v-42.5v-32.5q1 -19 1 -39q-1 -9 -1 -176q0 -20 17 -46q20 -36 24 -56q4 -27 -20 -46q-25 -23 -109 -26q-81 -6 -107 13q-25 18 -25 46
q1 27 17 57q12 31 12 48q-20 301 -10 526q7 225 -39 555v0z" />
    <glyph glyph-name="q" unicode="q" horiz-adv-x="1962" 
d="M453 1906q0 -42 -39 -52q-40 -13 -48 -45q0 -85 7 -143q3 -34 2 -148.5t2 -140.5q64 -75 129 -143t125 -133q41 -45 107.5 -116t135 -137t128 -110t86.5 -35q-8 -41 -48.5 -71t-79.5 -33q-41 -4 -91.5 41t-144.5 135q-93 89 -162.5 158t-180.5 199q-4 -86 -13 -153.5
t-16 -143.5q-4 -41 -25 -126t-57 -105q-21 -12 -52 -9t-55 3q-12 0 -24.5 44.5t-10.5 53.5q5 44 54 85.5t49 84.5q0 112 9 238q8 147 8 245q0 105 -8.5 209t-8.5 209q-28 94 -28 110q0 18 41.5 47.5t58.5 32.5q75 14 129 17q0 7 10.5 -23.5t10.5 -44.5zM1686 1549
q-50 52 -89 80q-44 30 -53 30q-14 0 -91 41q-83 45 -162 96q0 -8 0.5 -18t0.5 -23q2 -48 4 -67q0 -26 2 -82q0 -21 1.5 -42.5t1.5 -42.5q1 -42 2.5 -97t4.5 -122q30 10 82 45q13 8 57 38q15 9 30 19.5t31 21.5q33 22 60.5 42t50.5 37q53 38 67 44zM1425 1875q23 0 74 -34
q49 -33 78 -33q62 -53 145 -101q79 -49 147 -101q-64 -55 -128 -90q-62 -35 -114 -81l-26 -19.5t-32 -22.5q-39 -28 -86 -58q-104 -72 -170 -135q0 -30 -0.5 -58t-0.5 -54v-51.5v-46.5q0 -23 1.5 -50t2.5 -58t3 -66.5t5 -75.5q85 -71 27 -100q-59 -31 -105 -31
q-43 -2 -97 19q-57 20 -28 78q29 22 38 145q8 150 8 266q0 36 -1 71t-1 69q-2 34 -3.5 67.5t-1.5 66.5q-2 33 -3.5 60t-1.5 49q-2 58 -2 66q0 37 3 94q3 58 6 135q9 154 -39 154l-11 62q54 0 84 -2q33 -3 97 -3q0 -27 39 -61q33 -33 92 -70h1z" />
    <glyph glyph-name="r" unicode="r" horiz-adv-x="1235" 
d="M734 1113q68 -79 124 -122q13 -12 28 -24.5t33 -26.5q16 -15 35.5 -30t40.5 -31q80 -9 134 -26q48 -20 32 -98q-17 -67 -91 -107q-83 -43 -178 -16l-5 127q-63 58 -100 95q-46 44 -107 104q-123 117 -176 158q-91 65 -102 77q-28 22 -47 12q3 -66 7.5 -124.5t10.5 -108.5
q4 -65 9 -109q2 -42 8 -87q6 -47 -31 -87q-38 -45 -87 -64q-51 -20 -98 -8q-48 13 -58 84q64 0 87 78q20 80 20 184q-4 96 -13 213q-12 120 -12 165q0 31 12 120q1 18 3.5 38.5t5.5 41.5q1 21 3 42t3 42q4 90 -6 159q-9 72 -54 105q-53 119 9 109q55 -12 94 -7q83 9 88 -19
q4 -32 -10 -58q158 -62 287 -136q30 -18 60.5 -37t63.5 -37q31 -19 64 -38.5t66 -38.5q-5 -112 -77 -93q-74 19 -76 14q-32 -46 -89 -100q-75 -75 -119 -131q89 -102 97 -105q4 -5 111 -99zM339 1760q-5 -124 -5 -249q0 -123 17 -257q82 88 159 157q86 81 157 176
q-93 63 -165 92q-74 25 -163 81z" />
    <glyph glyph-name="s" unicode="s" horiz-adv-x="984" 
d="M290 1730q12 -77 24 -225q11 -157 29 -203q20 33 154 155q135 120 191 189q31 39 31 57q1 18 133 20l-7 -574l7 -261q0 -29 31 -79q27 -49 39 -95q16 -85 -60 -95q-89 -10 -87 -10q-134 -7 -169 62q-22 39 -13 54q8 13 32 28q20 12 49 41q24 26 40 98q-8 49 -8 135v43v45
q0 21 -0.5 43.5t-0.5 44.5v42.5v42.5q-2 56 -2 79q-3 69 -15 104q-24 41 -103 -39q-65 -62 -168 -178q-84 -93 -153 -151q-66 -56 -53 39q13 122 -17 344q-25 179 -71 369q-23 66 35 104q58 36 65 36q40 -4 58 -6q14 -6 71 -7q37 -5 54 -9q20 -10 55 -14q-19 -32 -23 -54
q-8 -33 -35 -44q-28 -46 -69 -28q-45 17 -45 -103h1z" />
    <glyph glyph-name="t" unicode="t" horiz-adv-x="1400" 
d="M925 1790q6 0 34 -35q11 -15 25.5 -34t32.5 -42q43 -60 58 -82q27 -44 30 -46q58 -115 100 -96q42 18 129 18q-24 -68 -35 -83l-10 -15t-15 -21q-9 -13 -19.5 -30t-22.5 -37q-74 0 -89 -24q-17 -27 -92 76q-85 112 -130 190q-48 80 -80 116q-30 26 -37 -10
q-11 -43 -1 -187l8 -53q3 -260 3 -438q0 -180 81 -211q46 -26 9 -62q-38 -38 -108 -58q-72 -19 -138 -10q-70 7 -86 77q97 61 97 124v32.5v37.5q0 18 -0.5 39t-0.5 45q0 60 6 191q6 130 6 241q0 59 -3 117l-6 116q-11 110 -39 170q-115 -169 -218 -249q-113 -86 -42 -202
q-77 -54 -104 -57q-37 -5 -74 -5q-31 0 -14 42q11 37 59 104q44 64 100 129q65 76 111 117q143 136 199 213t85 91q28 15 60 -34q30 -49 131 -165v0z" />
    <glyph glyph-name="u" unicode="u" horiz-adv-x="959" 
d="M377 1907q112 -219 246 -291q72 -42 140 -78.5t130 -69.5q-35 -24 -47 -102q-10 -87 -10 -174q0 -33 2 -95q1 -33 5 -92q8 -112 8 -138q-10 -127 20 -133q27 -10 43 -38q-35 -65 -142 -75q-110 -14 -93 118q26 270 25 422q-3 139 -28 230q-16 11 -35.5 26.5t-42.5 33.5
t-49.5 39.5t-56.5 45.5q-122 96 -159 129q0 -15 -0.5 -34.5t-0.5 -42.5v-49v-55q0 -30 -0.5 -61t-0.5 -61v-64v-63v-64.5v-61.5q0 -42 2 -118q1 -117 6 -167q31 -93 4 -143q-31 -55 -79 -67q-51 -16 -97 3t-46 69q23 0 35 49q10 39 17 111q4 48 4 119v25v22v15.5v10.5
q0 192 -8 439q-3 108 -11 247q-4 62 -9 124.5t-10 125.5q62 0 124 29q59 29 114 -97v1z" />
    <glyph glyph-name="v" unicode="v" horiz-adv-x="959" 
d="M377 1907q112 -219 246 -291q72 -42 140 -78.5t130 -69.5q-35 -24 -47 -102q-10 -87 -10 -174q0 -33 2 -95q1 -33 5 -92q8 -112 8 -138q-10 -127 20 -133q27 -10 43 -38q-35 -65 -142 -75q-110 -14 -93 118q26 270 25 422q-3 139 -28 230q-16 11 -35.5 26.5t-42.5 33.5
t-49.5 39.5t-56.5 45.5q-122 96 -159 129q0 -15 -0.5 -34.5t-0.5 -42.5v-49v-55q0 -30 -0.5 -61t-0.5 -61v-64v-63v-64.5v-61.5q0 -42 2 -118q1 -117 6 -167q31 -93 4 -143q-31 -55 -79 -67q-51 -16 -97 3t-46 69q23 0 35 49q10 39 17 111q4 48 4 119v25v22v15.5v10.5
q0 192 -8 439q-3 108 -11 247q-4 62 -9 124.5t-10 125.5q62 0 124 29q59 29 114 -97v1z" />
    <glyph glyph-name="w" unicode="w" horiz-adv-x="940" 
d="M713 1544q-49 52 -89 80q-44 30 -52 30q-16 0 -91 41q-79 42 -163 96q0 -8 0.5 -18.5t0.5 -23.5q0 -14 1 -30.5t3 -35.5q0 -26 2 -82q3 -42 3 -85q1 -42 2.5 -97t4.5 -122q33 11 82 45q21 12 58 38q29 20 60 40q33 23 61 42.5t50 37.5q51 36 67 44zM452 1870q23 0 74 -34
q49 -33 78 -33q67 -57 145 -101q79 -49 147 -101q-63 -54 -127 -90q-62 -34 -115 -81q-25 -20 -58 -42q-32 -23 -85 -58q-104 -72 -170 -135q-2 -80 -2 -112v-51.5v-46.5q0 -23 1.5 -50t2.5 -58t3 -67t5 -75q85 -71 27 -100q-57 -31 -105 -31q-43 -2 -97 19q-57 21 -28 78
q29 22 38 145q8 150 8 266q0 36 -1 71t-1 69q-2 34 -3 67.5t-2 66.5q-2 33 -3.5 60t-1.5 49q-2 58 -2 66q0 18 1 41.5t2 52.5q3 58 6 135q9 154 -39 154l-11 62q26 0 84 -2q33 -3 98 -3q0 -28 38 -62q35 -33 93 -70v1z" />
    <glyph glyph-name="x" unicode="x" horiz-adv-x="1299" 
d="M630 1328q-26 30 -55.5 67t-62.5 80l-38 46t-37 47q-47 56 -76 92q-78 88 -142 150q-66 60 -96 51q5 29 54 93q48 58 67 48q32 -24 95 -115q61 -88 133 -180q63 -83 114 -119q47 -36 40 68q-2 66 5 120q6 74 -24 100q-55 40 -17 72q36 33 95 43q61 9 105 -8
q46 -19 13 -78q-54 -91 -49 -164q0 -23 2 -81q2 -29 2 -95q0 -59 52 -13q42 37 125 131q24 28 76 86q19 21 39 44t41 47q81 91 147 129q0 -78 -9 -108q-10 -33 -35 -55q-20 -16 -38 -30.5t-33 -26.5q-48 -35 -117 -117q-47 -59 -123 -132q-85 -81 -114 -100q-4 -91 -5 -155
q-1 -33 -1 -98v-50v-50t-0.5 -49.5t-0.5 -47.5v-46v-42v-40.5v-32.5q0 -16 0.5 -27.5t0.5 -19.5q34 -42 45 -71q6 -29 -7 -52q-16 -28 -82 -32q-74 -8 -93 12q-22 22 -20 49q1 30 30 78q-4 65 -4 269q1 152 -2 313z" />
    <glyph glyph-name="y" unicode="y" horiz-adv-x="1187" 
d="M342 1919q19 -7 55.5 -19t89.5 -29q108 -40 203 -70q25 -9 51 -17.5t51 -16.5q25 -9 50 -16t49 -13q97 -27 141 -27q14 0 20 -51q7 -79 7 -114v-49.5v-64.5v-24.5v-17.5v-12v-4v-30.5v-35.5q1 -36 3 -86q5 -112 13 -201q6 -90 23 -195q10 -90 31 -134q2 -6 -76 -68
q-82 -62 -182 42q64 64 71 213q4 136 -7 263q-50 16 -87 16h-20.5h-25.5q-16 0 -68 2q-9 -104 -6 -256q1 -161 -33 -258q-45 -32 -73 -39q-37 -8 -87 25q-13 72 33 122q47 48 47 159q0 60 11 139q10 69 1 119q-57 11 -63 11q-13 0 -49 15q-13 -66 -33 -166
q-26 -110 -47 -196q-64 -175 -91 -199q-27 -23 -125 -23q-21 144 52 310q71 166 76 300q5 186 -11 306q-16 103 -51 182q-35 66 -78 111q-49 45 -88 97q0 68 32 79q30 10 70 -6q43 -20 75 -44q35 -27 46 -29zM919 1290v110.5t2 80.5q1 43 12 84q-25 -2 -89 14q-22 6 -70 20
q-50 14 -75 22q-41 9 -77 21q-48 14 -71 21q-76 19 -99 19q32 -101 32 -176q0 -81 22 -171q58 -16 186 -32q127 -17 227 -14v1z" />
    <glyph glyph-name="z" unicode="z" horiz-adv-x="1302" 
d="M733 1274q18 -26 50 -65q15 -18 31.5 -39.5t35.5 -44.5q24 -32 74 -94q48 -59 76 -89q69 -85 144 -151q64 -64 96 -50q-9 -33 -56 -94q-48 -61 -64 -47q-31 16 -98 114q-59 83 -133 179q-65 82 -114 120q-47 30 -39 -67q1 -43 -4 -121q-9 -74 23 -99q52 -45 17 -74
q-40 -34 -96 -41q-59 -13 -104 6q-46 19 -12 80q49 88 48 164q-2 31 -3 75t-1 100q0 60 -52 13q-48 -42 -126 -131q-40 -49 -76 -87q-20 -23 -40 -45.5t-39 -44.5q-86 -96 -147 -128q0 70 8 107q6 27 35 54q21 17 39.5 31.5t32.5 25.5q45 34 117 120q52 62 123 130
q79 77 114 101q0 21 1.5 60t2.5 94q0 24 0.5 48t0.5 49q1 33 1 100v48.5v47.5v46v44v39.5v33.5v27v21q-36 37 -45 70q-9 25 6 51q14 23 83 33q70 6 91 -13q21 -20 21 -49q-2 -24 -29 -77q3 -44 3 -111q0 -34 0.5 -74t0.5 -85v-89.5v-81.5q0 -79 3 -140v0z" />
    <glyph glyph-name="Ecircumflex" unicode="&#xca;" horiz-adv-x="1454" 
d="M648 2307q108 -89 248 -256.5t227 -167.5q22 0 22 -41.5t-16 -82t-44 -58t-60 29.5q-76 -165 -133.5 -255t-125.5 -183q54 -88 104 -143.5t116 -142.5q73 -99 174 -213t225 -95q-50 -55 -89.5 -70.5t-96.5 -11.5q-63 -9 -139.5 50t-145.5 150q-54 54 -105.5 124.5
t-137.5 163.5q-17 -28 -59 -92t-46 -61q-36 -67 -73.5 -129.5t-98.5 -156.5q-45 -54 -124 -58.5t-148 33.5q18 17 32.5 54.5t42.5 61.5q28 23 72 0t79 17q90 145 120.5 210.5t59.5 123.5q59 77 51 114q-47 57 -89 106.5t-117 118.5q-42 38 -58.5 63t-86.5 96
q-96 94 -125 100.5t34 62.5q56 87 98 150t110 131q212 211 226 268t77 -11zM905 1822q-108 84 -171 167.5t-170 168.5q-51 -83 -151 -187t-132 -174q86 -104 208.5 -223.5t185.5 -194.5q61 114 119 208.5t111 234.5z" />
    <glyph glyph-name="Ntilde" unicode="&#xd1;" horiz-adv-x="1279" 
d="M529 2103q30 -25 59.5 -48t50.5 -44q36 11 81 74q21 28 64 62.5t79 96.5q46 79 138 104q104 30 180 15q21 -4 11.5 -42.5t-30.5 -44.5q-45 -16 -104.5 -32.5t-128.5 -72.5q-137 -113 -206 -218q68 -60 138 -121.5t142 -124.5q141 -128 173 -159q43 -44 -7.5 -79.5
t-82.5 -29.5q-60 -29 -124 -81q-140 -115 -207 -218q69 -60 139 -122t142 -125q145 -131 176 -162q0 -80 -99 -107q-101 -29 -93 -9q19 52 -71 149q-46 48 -121 109.5t-162 115.5q-45 -38 -47.5 -40t-26.5 -36q-134 -186 -223 -258q-89 -71 -225 -22q38 25 90 53
q58 33 73 50q89 94 134.5 143t72.5 87q27 37 34 44t39 38q-9 4 -77 72t-133 120q-96 96 -160.5 138.5t-70.5 70.5q-12 47 31.5 70t75.5 26q9 -4 57.5 49t68.5 74q39 42 94 98t87 106q-8 4 -80 58.5t-136 105.5q-125 97 -231 199q0 116 74 123q72 7 129 -3q0 -46 69 -121
q64 -70 144 -131zM1006 1506q-9 13 -42 34t-48 37q-46 48 -123 116.5t-158 128.5q-24 -27 -39.5 -49t-36.5 -46q-65 -73 -119 -135t-93 -99q8 -17 30 -35t41 -38q73 -78 91 -91v0q33 -28 62 -64q26 -36 53 -54q25 -20 56 -9q29 9 73 69q30 42 118 128t135 107z" />
    <glyph glyph-name="Thorn" unicode="&#xde;" horiz-adv-x="1150" 
d="M797 1766q38 -26 149.5 -95.5t149.5 -126.5q-30 -26 -124.5 -102.5t-129.5 -100.5q-79 -55 -172.5 -134t-179.5 -160q-2 -50 -3.5 -55.5t-3 -1.5t-2 -1t1.5 -54q2 -77 9 -178q108 -89 34 -126q-73 -38 -131 -38q-51 -3 -121 23q-72 27 -35 98q36 28 47 182q10 195 10 332
q0 90 -3 176q-2 42 -3.5 84t-1.5 83q-3 41 -5 75.5t-2 61.5q-2 72 -2 82q0 46 3 118q1 36 3.5 78t4.5 90q5 96 -9.5 137.5t-40.5 56.5q-17 9 -22 36.5t10 41.5q16 15 35 12t46 1q27 3 52.5 5.5t61.5 -2.5q150 -23 60 -110q-44 -45 -12 -281q35 -34 162.5 -109t163.5 -98z
M462 1812q7 -150 9.5 -316t10.5 -316q108 92 210 158t231 179q-116 63 -233 143t-228 152z" />
    <glyph glyph-name="ecircumflex" unicode="&#xea;" horiz-adv-x="1179" 
d="M531 1969q87 -72 199 -206t182 -134q18 0 18 -33.5t-12.5 -66t-35 -46.5t-48.5 24q-61 -133 -107.5 -205t-100.5 -147q42 -71 82.5 -115.5t93.5 -114.5q59 -80 140.5 -171t180.5 -76q-41 -45 -72.5 -57t-76.5 -9q-51 -7 -112.5 40t-116.5 120q-43 44 -85 100.5
t-111 131.5q-13 -23 -47 -74t-37 -49q-28 -54 -58.5 -104t-79.5 -125q-36 -45 -99 -48t-119 27q14 14 25.5 44t34.5 49q22 18 57.5 -0.5t63.5 14.5q73 117 97 169t47 99q48 62 42 92q-38 45 -72 84.5t-94 95.5q-34 31 -47 51t-69 77q-77 76 -100.5 81t26.5 50
q45 70 79.5 120.5t88.5 104.5q170 171 181 216t62 -9zM737 1580q-86 68 -137 134.5t-137 135.5q-41 -67 -121 -150.5t-106 -140.5q69 -83 167.5 -179t149.5 -156q48 91 95 167t89 189z" />
    <glyph glyph-name="ntilde" unicode="&#xf1;" horiz-adv-x="1025" 
d="M438 1774q64 -50 86 -71q27 7 64 57q16 22 49.5 49.5t61.5 75.5q36 61 108 81q81 22 141 12q16 -3 8.5 -33t-23.5 -36q-36 -12 -82.5 -25t-99.5 -56q-108 -89 -162 -171q54 -46 108.5 -94.5t110.5 -97.5q107 -97 136 -124q33 -34 -6.5 -62.5t-64.5 -22.5q-46 -22 -97 -64
q-107 -88 -161 -170q53 -47 107.5 -95t111.5 -98q55 -51 90 -82.5t48 -43.5q0 -63 -78 -84q-79 -23 -72 -7q14 40 -56 116q-36 38 -94.5 86t-126.5 90q-36 -30 -38 -31t-20 -28q-102 -143 -174 -202q-69 -55 -176 -17q21 14 70 42q42 23 58 39q69 73 105 111t57 68
q21 29 26.5 34.5l29.5 29.5q-6 3 -59.5 56t-104.5 94q-75 75 -125 108.5t-55 54.5q-9 37 24.5 55t58.5 21q6 -3 44.5 38.5t54.5 57.5q30 32 73 76t69 83q-7 3 -63 46t-107 82q-101 79 -180 156q0 89 58 96q53 5 101 -2q0 -37 54 -95q43 -48 112 -103zM811 1308
q-7 10 -33 26.5t-37 29.5q-36 37 -96.5 90t-123.5 101q-19 -21 -31 -38.5t-28 -35.5q-51 -57 -93 -105.5t-73 -77.5q6 -13 23 -27.5t32 -29.5q54 -59 71 -71v0q27 -22 49 -51q20 -27 41 -42q21 -14 44 -7q22 7 57 55q24 32 92.5 99.5t105.5 83.5z" />
    <glyph glyph-name="thorn" unicode="&#xfe;" horiz-adv-x="963" 
d="M679 1530q30 -21 119 -77t120 -101q-24 -21 -100 -82t-103 -79q-63 -45 -138 -108t-144 -128q-1 -80 -4.5 -45t-0.5 -44q0 -32 2 -67.5t5 -74.5q85 -71 28 -101q-61 -31 -106 -31q-42 -2 -96 19q-57 20 -28 78q28 22 38 146q3 69 5 135.5t2 129.5q0 36 -0.5 71t-1.5 69
t-2.5 67.5t-1.5 66.5q-2 33 -3.5 60.5t-1.5 48.5q-2 58 -2 66q0 36 3 95q0 28 2 61.5t4 72.5q4 77 -7.5 109.5t-32.5 44.5q-14 7 -18 29.5t8 33.5q13 12 28.5 9.5t36.5 0.5q22 3 42 5t49 -2q119 -18 48 -88q-36 -36 -9 -224q27 -28 129 -88t131 -78zM411 1567q6 -120 8 -253
t8 -253q87 74 168.5 127t183.5 143q-92 50 -185.5 114.5t-182.5 121.5z" />
  </font>
</defs>
</svg>
