<?xml version="1.0" encoding="UTF-8" standalone="no"?><!DOCTYPE svg PUBLIC "-//W3C//DTD SVG 1.1//EN" "http://www.w3.org/Graphics/SVG/1.1/DTD/svg11.dtd"><svg width="100%" height="100%" viewBox="0 0 24 24" version="1.1" xmlns="http://www.w3.org/2000/svg" xmlns:xlink="http://www.w3.org/1999/xlink" xml:space="preserve" xmlns:serif="http://www.serif.com/" style="fill-rule:evenodd;clip-rule:evenodd;stroke-linejoin:round;stroke-miterlimit:2;"><rect id="roman-2-box" x="0.012" y="0" width="24" height="24" style="fill:none;"/><path d="M19.012,3l-14,0c-1.11,0 -2,0.89 -2,2l-0,14c-0,1.097 0.903,2 2,2l14,0c1.097,0 2,-0.903 2,-2l-0,-14c-0,-1.11 -0.9,-2 -2,-2Zm-8,4l-0,2l-1,0l-0,6l1,0l-0,2l-4,0l-0,-2l1,0l-0,-6l-1,0l-0,-2l4,0Zm6,0l-0,2l-1,0l-0,6l1,0l-0,2l-4,0l-0,-2l1,0l-0,-6l-1,0l-0,-2l4,0Z" style="fill:#fcf7f8;fill-rule:nonzero;"/></svg>