<?xml version="1.0" encoding="UTF-8" standalone="no"?><!DOCTYPE svg PUBLIC "-//W3C//DTD SVG 1.1//EN" "http://www.w3.org/Graphics/SVG/1.1/DTD/svg11.dtd"><svg width="100%" height="100%" viewBox="0 0 24 24" version="1.1" xmlns="http://www.w3.org/2000/svg" xmlns:xlink="http://www.w3.org/1999/xlink" xml:space="preserve" xmlns:serif="http://www.serif.com/" style="fill-rule:evenodd;clip-rule:evenodd;stroke-linejoin:round;stroke-miterlimit:2;"><g><g id="roman-3-box"><rect x="0.023" y="0" width="24" height="24" style="fill:none;"/><g><path d="M21.034,7.495c0,-2.487 -2.019,-4.506 -4.505,-4.506l-9.011,0c-2.487,0 -4.506,2.019 -4.506,4.506l0,9.01c0,2.487 2.019,4.506 4.506,4.506l9.011,0c2.486,0 4.505,-2.019 4.505,-4.506l0,-9.01Zm-12.011,-0.495l-0,2l-1,0l-0,6l1,0l-0,2l-4,0l-0,-2l1,0l-0,-6l-1,0l-0,-2l4,0Zm5,0l-0,2l-1,0l-0,6l1,0l-0,2l-4,0l-0,-2l1,0l-0,-6l-1,0l-0,-2l4,0Zm5,0l0,2l-1,0l0,6l1,0l0,2l-4,0l0,-2l1,0l0,-6l-1,0l0,-2l4,0Z" style="fill:#ebebeb;"/></g></g></g></svg>