<svg viewBox="0 0 2001 2000" xmlns="http://www.w3.org/2000/svg" xml:space="preserve" style="fill-rule:evenodd;clip-rule:evenodd;stroke-linejoin:round;stroke-miterlimit:2">
  <path style="fill:none" d="M.5 0h2000v2000H.5z"/>
  <path d="M1000.53 1362.36c-200.127 0-362.363-162.235-362.363-362.363s162.236-362.364 362.363-362.364 362.363 162.236 362.363 362.364-162.236 362.363-362.363 362.363m558.165-285.652s7.823-27.368 7.823-76.711c0-42.538-7.823-76.711-7.823-76.711l-127.377-25.652c-11.02-46.553-29.391-90.257-53.819-129.832l71.956-108.246s-13.82-24.882-48.711-59.773c-30.08-30.079-59.774-48.711-59.774-48.711l-108.246 71.956c-39.575-24.429-83.279-42.799-129.832-53.819l-25.651-127.377s-27.367-7.823-76.711-7.823c-42.538 0-76.71 7.823-76.71 7.823l-25.653 127.377c-46.553 11.02-90.257 29.39-129.831 53.819L660.09 551.072s-24.882 13.819-59.773 48.711c-30.079 30.079-48.712 59.773-48.712 59.773l71.955 108.246c-24.427 39.575-42.798 83.279-53.819 129.832l-127.376 25.652s-7.822 27.366-7.822 76.711c0 42.538 7.822 76.711 7.822 76.711l127.376 25.65c11.021 46.554 29.392 90.258 53.819 129.833l-71.955 108.245s13.82 24.882 48.712 59.775c30.079 30.078 59.773 48.71 59.773 48.71l108.246-71.955c39.574 24.428 83.278 42.798 129.831 53.818l25.653 127.377s27.366 7.823 76.71 7.823c42.538 0 76.711-7.823 76.711-7.823l25.651-127.377c46.553-11.02 90.257-29.39 129.832-53.818l108.246 71.955s24.882-13.82 59.774-48.71c30.078-30.08 48.711-59.775 48.711-59.775l-71.956-108.245c24.428-39.575 42.799-83.279 53.819-129.833l127.377-25.65Z" style="fill:#d59139;fill-rule:nonzero"/>
  <path d="m1098.46 1045.47 174.689-40.247v-10.446l-174.689-40.249c-29.065-6.697-51.597-29.662-57.74-58.849l-34.947-166.05h-10.49l-34.948 166.05c-6.143 29.187-28.674 52.152-57.739 58.849l-174.69 40.249v10.446l174.689 40.247c29.066 6.696 51.597 29.661 57.74 58.849l34.948 166.049h10.49l34.947-166.049c6.143-29.188 28.675-52.153 57.74-58.849" style="fill:#d59139;fill-rule:nonzero"/>
  <path d="m1147.72 923.96 54.068 12.458c-20.98-66.256-73.835-118.441-140.482-138.521l11.109 52.783c32.327 15.625 58.803 41.467 75.305 73.28M1072.41 1149.32l-11.109 52.783c66.647-20.08 119.502-72.265 140.482-138.521l-54.068 12.457c-16.503 31.813-42.979 57.655-75.305 73.281M939.753 1202.1l-11.109-52.784c-32.326-15.626-58.802-41.467-75.304-73.28l-54.068-12.457c20.98 66.255 73.834 118.441 140.481 138.521M853.34 923.96c16.502-31.812 42.978-57.654 75.304-73.279l11.109-52.784c-66.647 20.081-119.501 72.265-140.481 138.521l54.068-12.458ZM1037.27 683.72l9.934 47.2c112.805 19.511 202.128 108.453 222.182 221.074l47.382 10.917c-17.028-146.105-133.346-262.32-279.498-279.191M953.85 730.92l9.934-47.2c-146.152 16.872-262.469 133.086-279.497 279.191l47.381-10.917C751.722 839.373 841.045 750.431 953.85 730.92M1047.21 1269.08l-9.934 47.2c146.152-16.872 262.469-133.086 279.497-279.191l-47.381 10.917c-20.054 112.62-109.377 201.563-222.182 221.074M731.668 1048.01l-47.381-10.917c17.028 146.105 133.345 262.319 279.496 279.191l-9.933-47.2c-112.805-19.512-202.128-108.454-222.182-221.074" style="fill:#d59139;fill-rule:nonzero"/>
</svg>
