<svg viewBox="0 0 2001 2000" xmlns="http://www.w3.org/2000/svg" xml:space="preserve" style="fill-rule:evenodd;clip-rule:evenodd;stroke-linejoin:round;stroke-miterlimit:2">
  <path style="fill:none" d="M.25 0h2000v2000H.25z"/>
  <path d="M1128.65 854.737v-89.781l67.432-37.637c2.878-1.605 6.119 1.433 4.701 4.408l-38.242 80.201 38.87 67.481c-1.694 1.936-1.668 1.906-3.362 3.841l-69.399-28.513Zm-211.803 0-69.399 28.513c-1.694-1.935-1.668-1.905-3.361-3.841l38.87-67.481-38.242-80.201c-1.419-2.975 1.823-6.013 4.701-4.408l67.431 37.637v89.781Zm355.717 300.306s229.727-124.908 231.474-403.549l-94.336-20.963 85.6-74.246s-48.041-172.949-214.003-246.322l-33.192 162.468-121.195 76.499v24.491c0 24.3-6.07 33.351-24.895 38.057v-66.534l-79.268-69.893-79.269 69.893v66.534c-18.825-4.706-24.894-13.757-24.894-38.057V648.93L797.39 572.431l-33.192-162.468c-165.962 73.373-214.003 246.322-214.003 246.322l85.601 74.246-94.336 20.963c1.747 278.641 231.473 403.549 231.473 403.549l71.625-180.811 74.246-28.825.273-21.205c.819-27.163 24.403-23.397 24.403-23.397v60.069l39.089 22.093v267.286l-27.109 16.682c-.312 4.022-.431 5.561-.743 9.582l23.484 20.03v193.04l-35.813 41.053 6.989 13.102h27.077l46.295 46.295 46.295-46.295h27.078l6.987-13.102-35.813-41.053v-193.04l23.484-20.03c-.312-4.021-.431-5.56-.742-9.582l-27.11-16.682V982.967l39.089-22.093v-60.069s23.584-3.766 24.404 23.397l.272 21.205 74.246 28.825 71.625 180.811ZM1403.84 1157.56c-39.924 48.831-175.59 220.945-213.781 269.435 2.922 4.711 2.959 4.77 5.881 9.481l93.225-19.391 1.747 85.601 148.492-179.064-102.197 26.204 71.698-189.316-5.065-2.95M636.602 1160.51l71.699 189.316-102.198-26.204 148.492 179.064 1.747-85.601 93.226 19.39c2.922-4.71 2.959-4.77 5.881-9.481-38.193-48.49-173.859-220.605-213.782-269.435-2.912 1.697-2.153 1.255-5.065 2.951" style="fill:#e7623e;fill-rule:nonzero"/>
</svg>
