<?xml version="1.0" encoding="UTF-8" standalone="no"?><!DOCTYPE svg PUBLIC "-//W3C//DTD SVG 1.1//EN" "http://www.w3.org/Graphics/SVG/1.1/DTD/svg11.dtd"><svg width="100%" height="100%" viewBox="0 0 2001 2000" version="1.1" xmlns="http://www.w3.org/2000/svg" xmlns:xlink="http://www.w3.org/1999/xlink" xml:space="preserve" xmlns:serif="http://www.serif.com/" style="fill-rule:evenodd;clip-rule:evenodd;stroke-linejoin:round;stroke-miterlimit:2;"><rect id="Page-4" serif:id="Page 4" x="0.25" y="0" width="2000" height="2000" style="fill:none;"/><g id="Icons"><path d="M1128.65,854.737l0,-89.781l67.432,-37.637c2.878,-1.605 6.119,1.433 4.701,4.408l-38.242,80.201l38.87,67.481c-1.694,1.936 -1.668,1.906 -3.362,3.841l-69.399,-28.513Zm-211.803,-0l-69.399,28.513c-1.694,-1.935 -1.668,-1.905 -3.361,-3.841l38.87,-67.481l-38.242,-80.201c-1.419,-2.975 1.823,-6.013 4.701,-4.408l67.431,37.637l0,89.781Zm355.717,300.306c0,-0 229.727,-124.908 231.474,-403.549l-94.336,-20.963l85.6,-74.246c0,-0 -48.041,-172.949 -214.003,-246.322l-33.192,162.468l-121.195,76.499l0,24.491c0,24.3 -6.07,33.351 -24.895,38.057l0,-66.534l-79.268,-69.893l-79.269,69.893l0,66.534c-18.825,-4.706 -24.894,-13.757 -24.894,-38.057l0,-24.491l-121.196,-76.499l-33.192,-162.468c-165.962,73.373 -214.003,246.322 -214.003,246.322l85.601,74.246l-94.336,20.963c1.747,278.641 231.473,403.549 231.473,403.549l71.625,-180.811l74.246,-28.825l0.273,-21.205c0.819,-27.163 24.403,-23.397 24.403,-23.397l0,60.069l39.089,22.093l0,267.286l-27.109,16.682c-0.312,4.022 -0.431,5.561 -0.743,9.582l23.484,20.03l0,193.04l-35.813,41.053l6.989,13.102l27.077,-0l46.295,46.295l46.295,-46.295l27.078,-0l6.987,-13.102l-35.813,-41.053l0,-193.04l23.484,-20.03c-0.312,-4.021 -0.431,-5.56 -0.742,-9.582l-27.11,-16.682l0,-267.286l39.089,-22.093l0,-60.069c0,-0 23.584,-3.766 24.404,23.397l0.272,21.205l74.246,28.825l71.625,180.811Z" style="fill:#e7623e;fill-rule:nonzero;"/><path d="M1403.84,1157.56c-39.924,48.831 -175.59,220.945 -213.781,269.435c2.922,4.711 2.959,4.77 5.881,9.481l93.225,-19.391l1.747,85.601l148.492,-179.064l-102.197,26.204l71.698,-189.316c-2.912,-1.696 -2.153,-1.254 -5.065,-2.95" style="fill:#e7623e;fill-rule:nonzero;"/><path d="M636.602,1160.51l71.699,189.316l-102.198,-26.204l148.492,179.064l1.747,-85.601l93.226,19.39c2.922,-4.71 2.959,-4.77 5.881,-9.481c-38.193,-48.49 -173.859,-220.605 -213.782,-269.435c-2.912,1.697 -2.153,1.255 -5.065,2.951" style="fill:#e7623e;fill-rule:nonzero;"/></g></svg>