<?xml version="1.0" encoding="UTF-8" standalone="no"?><!DOCTYPE svg PUBLIC "-//W3C//DTD SVG 1.1//EN" "http://www.w3.org/Graphics/SVG/1.1/DTD/svg11.dtd"><svg width="100%" height="100%" viewBox="0 0 2000 2001" version="1.1" xmlns="http://www.w3.org/2000/svg" xmlns:xlink="http://www.w3.org/1999/xlink" xml:space="preserve" xmlns:serif="http://www.serif.com/" style="fill-rule:evenodd;clip-rule:evenodd;stroke-linejoin:round;stroke-miterlimit:2;"><rect id="Page-10" serif:id="Page 10" x="0" y="0.5" width="2000" height="2000" style="fill:none;"/><g id="Icons"><path d="M938.999,1321.24l-0,-274.981c21.822,18.062 40.235,40.052 54.118,64.955c10.001,17.939 14.629,38.387 14.629,58.926l-0,160.461c-23.59,-0.991 -46.572,-4.186 -68.747,-9.361m-268.389,-333.532c-0,-81.284 30.422,-190.182 59.694,-269.06c2.07,-6.098 3.809,-11.924 5.466,-17.68c26.114,-5.618 51.469,-10.204 75.556,-13.886l-0,576.264c-85.402,-61.703 -140.716,-160.609 -140.716,-275.638m337.136,-315.95l-0,141.634c-0,21.382 -4.74,42.71 -15.256,61.327c-13.808,24.443 -31.996,46.046 -53.491,63.837l-0,-264.835c30.845,-1.756 54.61,-2.035 68.747,-1.963m98.263,1.966l-0,264.832c-21.495,-17.791 -39.683,-39.394 -53.491,-63.837c-10.517,-18.617 -15.256,-39.945 -15.256,-61.327l-0,-141.634c14.152,-0.072 37.916,0.209 68.747,1.966m208.696,44.924c29.271,78.878 59.692,187.776 59.692,269.06c-0,115.029 -55.313,213.935 -140.715,275.638l-0,-576.256c24.089,3.683 49.445,8.271 75.56,13.89c1.656,5.752 3.394,11.574 5.463,17.668m-262.814,392.566c13.883,-24.903 32.296,-46.893 54.118,-64.955l0,274.981c-22.176,5.175 -45.157,8.37 -68.747,9.361l0,-160.461c0,-20.539 4.628,-40.987 14.629,-58.926m-211.102,-112.583l3.942,0.908c23.207,5.347 44.953,14.264 64.805,25.989l0,287.48c-24.185,-7.847 -47.238,-18.047 -68.747,-30.513l0,-283.864Zm3.943,-13.355l-3.943,0.909l0,-303.244c24.78,-3.226 47.874,-5.555 68.747,-7.207l0,283.553c-19.852,11.724 -41.597,20.642 -64.804,25.989m359.487,0.909l-3.943,-0.909c-23.207,-5.347 -44.952,-14.265 -64.804,-25.989l0,-283.548c20.874,1.653 43.968,3.981 68.747,7.21l0,303.236Zm-3.942,13.354l3.942,-0.908l0,283.864c-21.509,12.466 -44.561,22.666 -68.747,30.513l0,-287.48c19.852,-11.725 41.598,-20.642 64.805,-25.989m303.481,-12.042c0,-72.526 -37.069,-173.224 -67.299,-251.293c23.839,8.224 47.725,17.43 71.364,27.866l-23.372,-56.074c-22.874,-9.684 -45.914,-18.189 -68.858,-25.756c-4.467,-11.81 -8.337,-22.44 -11.272,-31.451c-11.656,-35.783 21.22,-81.928 61.381,-86.002l0,-58.926c0,0 -182.586,-16.082 -166.374,145.413c-152.704,-31.732 -276.851,-25.439 -276.851,-25.439c0,0 -124.117,-6.292 -276.795,25.426c16.202,-161.482 -166.376,-145.4 -166.376,-145.4l0,58.926c40.162,4.074 73.037,50.219 61.381,86.002c-2.933,9.006 -6.801,19.63 -11.264,31.431c-22.964,7.573 -46.025,16.084 -68.92,25.776l-23.372,56.074c23.66,-10.445 47.566,-19.659 71.427,-27.888c-30.232,78.073 -67.308,178.783 -67.308,251.315c-0,274.675 194.781,499.165 466.496,507.675l0,0.296l10.666,0l-0,0.037c0.969,0.006 1.92,0.073 2.891,0.073c0.404,0 0.798,-0.029 1.201,-0.03c0.403,0.001 0.797,0.03 1.201,0.03c0.971,0 1.921,-0.067 2.891,-0.073l-0,-0.037l10.666,0l-0,-0.296c271.715,-8.51 466.496,-233 466.496,-507.675" style="fill:#ab6dac;fill-rule:nonzero;"/><path d="M1544.13,985.783c-3.622,0.759 -2.141,0.448 -5.763,1.207c12.785,112.015 -5.477,218.343 -54.254,309.46c-57.65,107.693 -156.32,168.014 -202.923,191.785c1.313,3.281 0.905,2.263 2.218,5.544c339.913,-86.816 289.345,-399.743 260.722,-507.996" style="fill:#ab6dac;fill-rule:nonzero;"/><path d="M560.892,1296.45c-48.777,-91.117 -67.039,-197.445 -54.253,-309.46c-3.622,-0.758 -2.142,-0.448 -5.763,-1.207c-28.624,108.254 -79.191,421.18 260.722,507.996c1.313,-3.281 0.905,-2.263 2.218,-5.544c-46.604,-23.771 -145.274,-84.092 -202.924,-191.785" style="fill:#ab6dac;fill-rule:nonzero;"/></g></svg>