<?xml version="1.0" encoding="UTF-8" standalone="no"?><!DOCTYPE svg PUBLIC "-//W3C//DTD SVG 1.1//EN" "http://www.w3.org/Graphics/SVG/1.1/DTD/svg11.dtd"><svg width="100%" height="100%" viewBox="0 0 2001 2000" version="1.1" xmlns="http://www.w3.org/2000/svg" xmlns:xlink="http://www.w3.org/1999/xlink" xml:space="preserve" xmlns:serif="http://www.serif.com/" style="fill-rule:evenodd;clip-rule:evenodd;stroke-linejoin:round;stroke-miterlimit:2;"><path d="M1414.2,1236.4l177.3,177.299l-118.2,59.1l-59.1,118.2l-177.299,-177.3l-0,-114.654l-236.4,-236.399l-236.4,236.399l0,114.654l-177.299,177.3l-59.1,-118.2l-118.2,-59.1l177.3,-177.299l114.654,-0l236.399,-236.4l-352.826,-352.826l-57.327,57.327l-118.2,-295.5l295.5,118.2l-57.327,57.327l352.826,352.826l352.826,-352.826l-57.327,-57.327l295.5,-118.2l-118.2,295.5l-57.327,-57.327l-352.826,352.826l236.399,236.4l114.654,-0Z" style="fill:#91b7c7;fill-rule:nonzero;"/></svg>