<?xml version="1.0" encoding="UTF-8" standalone="no"?><!DOCTYPE svg PUBLIC "-//W3C//DTD SVG 1.1//EN" "http://www.w3.org/Graphics/SVG/1.1/DTD/svg11.dtd"><svg width="100%" height="100%" viewBox="0 0 2000 2000" version="1.1" xmlns="http://www.w3.org/2000/svg" xmlns:xlink="http://www.w3.org/1999/xlink" xml:space="preserve" xmlns:serif="http://www.serif.com/" style="fill-rule:evenodd;clip-rule:evenodd;stroke-linejoin:round;stroke-miterlimit:2;"><rect id="Page-1" serif:id="Page 1" x="0" y="0" width="2000" height="2000" style="fill:none;"/><g id="Page-11" serif:id="Page 1"><g id="Icons"><path d="M1114.17,1367.21l-4.207,-8.201c-43.814,13.903 -85.827,17.782 -121.185,17.223c-30.034,-1.315 -63.73,-6.113 -98.746,-17.223l-4.207,8.2c0,0 110.739,75.341 110.739,242.422l7.658,0c0,-167.081 109.948,-242.422 109.948,-242.422" style="fill:#91a1b2;fill-rule:nonzero;"/><path d="M635.6,1116.65l8.2,-4.207c-13.903,-43.814 -17.782,-85.827 -17.223,-121.185c1.315,-30.034 6.113,-63.73 17.223,-98.746l-8.2,-4.207c-0,-0 -75.341,110.739 -242.422,110.739l-0,7.658c167.081,-0 242.422,109.948 242.422,109.948" style="fill:#91a1b2;fill-rule:nonzero;"/><path d="M1364.4,888.309l-8.2,4.207c13.903,43.814 17.782,85.827 17.223,121.185c-1.315,30.034 -6.113,63.73 -17.223,98.746l8.2,4.207c0,-0 75.341,-110.739 242.422,-110.739l0,-7.658c-167.081,-0 -242.422,-109.948 -242.422,-109.948" style="fill:#91a1b2;fill-rule:nonzero;"/><path d="M866.552,783.916l-0,87.88l-81.371,0l-263.641,-314.091l345.012,226.211Z" style="fill:#91a1b2;fill-rule:nonzero;"/><path d="M778.671,1133.78l87.88,-0l0,81.371l-314.091,263.641l226.211,-345.012Z" style="fill:#91a1b2;fill-rule:nonzero;"/><path d="M1296.48,910.023l-37.835,19.834l-186.019,0l-0,-186.019l19.834,-37.835c-0,0 -27.159,-9.154 -92.458,-9.154c-54.315,0 -92.457,9.154 -92.457,9.154l19.834,37.835l-0,186.019l-186.019,0l-37.835,-19.834c-0,0 -9.154,27.157 -9.154,92.458c-0,54.314 9.154,92.457 9.154,92.457l37.835,-19.834l186.019,0l-0,186.019l-19.834,37.835c-0,0 27.157,9.154 92.457,9.154c54.315,0 92.458,-9.154 92.458,-9.154l-19.834,-37.835l-0,-186.019l186.019,0l37.835,19.834c-0,0 9.154,-27.158 9.154,-92.457c-0,-54.316 -9.154,-92.458 -9.154,-92.458" style="fill:#91a1b2;fill-rule:nonzero;"/><path d="M1133.13,783.916l-0,87.88l81.371,0l263.64,-314.091l-345.012,226.211Z" style="fill:#91a1b2;fill-rule:nonzero;"/><path d="M1221.01,1133.78l-87.88,-0l-0,81.371l314.091,263.641l-226.211,-345.012Z" style="fill:#91a1b2;fill-rule:nonzero;"/><path d="M885.828,637.064l4.207,8.199c43.814,-13.902 85.827,-17.781 121.185,-17.222c30.034,1.315 63.73,6.112 98.746,17.222l4.207,-8.199c-0,-0 -110.739,-75.341 -110.739,-242.422l-7.658,-0c-0,167.081 -109.948,242.422 -109.948,242.422" style="fill:#91a1b2;fill-rule:nonzero;"/></g></g></svg>