<svg viewBox="0 0 2000 2000" xmlns="http://www.w3.org/2000/svg" xml:space="preserve" style="fill-rule:evenodd;clip-rule:evenodd;stroke-linejoin:round;stroke-miterlimit:2">
  <path style="fill:none" d="M0 0h2000v2000H0z"/>
  <path d="m1114.17 1367.21-4.207-8.201c-43.814 13.903-85.827 17.782-121.185 17.223-30.034-1.315-63.73-6.113-98.746-17.223l-4.207 8.2s110.739 75.341 110.739 242.422h7.658c0-167.081 109.948-242.422 109.948-242.422M635.6 1116.65l8.2-4.207c-13.903-43.814-17.782-85.827-17.223-121.185 1.315-30.034 6.113-63.73 17.223-98.746l-8.2-4.207s-75.341 110.739-242.422 110.739v7.658c167.081 0 242.422 109.948 242.422 109.948M1364.4 888.309l-8.2 4.207c13.903 43.814 17.782 85.827 17.223 121.185-1.315 30.034-6.113 63.73-17.223 98.746l8.2 4.207s75.341-110.739 242.422-110.739v-7.658c-167.081 0-242.422-109.948-242.422-109.948M866.552 783.916v87.88h-81.371L521.54 557.705l345.012 226.211ZM778.671 1133.78h87.88v81.371L552.46 1478.792l226.211-345.012Z" style="fill:#91a1b2;fill-rule:nonzero"/>
  <path d="m1296.48 910.023-37.835 19.834h-186.019V743.838l19.834-37.835s-27.159-9.154-92.458-9.154c-54.315 0-92.457 9.154-92.457 9.154l19.834 37.835v186.019H741.36l-37.835-19.834s-9.154 27.157-9.154 92.458c0 54.314 9.154 92.457 9.154 92.457l37.835-19.834h186.019v186.019l-19.834 37.835s27.157 9.154 92.457 9.154c54.315 0 92.458-9.154 92.458-9.154l-19.834-37.835v-186.019h186.019l37.835 19.834s9.154-27.158 9.154-92.457c0-54.316-9.154-92.458-9.154-92.458" style="fill:#91a1b2;fill-rule:nonzero"/>
  <path d="M1133.13 783.916v87.88h81.371l263.64-314.091-345.012 226.211ZM1221.01 1133.78h-87.88v81.371l314.091 263.641-226.211-345.012ZM885.828 637.064l4.207 8.199c43.814-13.902 85.827-17.781 121.185-17.222 30.034 1.315 63.73 6.112 98.746 17.222l4.207-8.199s-110.739-75.341-110.739-242.422h-7.658c0 167.081-109.948 242.422-109.948 242.422" style="fill:#91a1b2;fill-rule:nonzero"/>
</svg>
