<svg viewBox="0 0 2000 2000" xmlns="http://www.w3.org/2000/svg" xml:space="preserve" style="fill-rule:evenodd;clip-rule:evenodd;stroke-linejoin:round;stroke-miterlimit:2">
  <path style="fill:none" d="M0 0h2000v2000H0z"/>
  <path d="M977.88 902.207s23.198-102.645 32.172-193.578h6.261c8.973 90.932 32.172 193.578 32.172 193.578 66.889 270.779-35.303 492.644-35.303 492.644S910.99 1172.986 977.88 902.207m-104.978 24.604c-24.565 64.875-100.321 316.555 104.978 529.183l29.1 139.684h12.404l29.101-139.684c205.297-212.628 129.542-464.308 104.976-529.183 3.164-1.614 2.366-1.207 5.529-2.821 238.506 268.109-54.763 532.004-54.763 532.004 323.299-167.708 375.324-384.454 375.324-384.454h-111.483c65.032-117.168 41.544-326.276 41.544-326.276l-150.973 5.808-26.334 38.398c-66.89-164.215-219.123-385.148-219.123-385.148S860.949 625.255 794.06 789.47l-26.335-38.398-150.973-5.808s-23.487 209.108 41.544 326.276H546.814s52.025 216.746 375.324 384.454c0 0-293.27-263.895-54.765-532.004 3.164 1.614 2.365 1.207 5.529 2.821" style="fill:#7a853b;fill-rule:nonzero"/>
  <path d="M654.115 682.089s25.067-130.924 185.68-231.627c6.685 7.114 5.327 5.669 12.013 12.782-30.83 42.152-78.634 119.526-107.114 224.96l-90.579-6.115ZM890.722 1492.12s-142.296 13.379-245.784-77.841c0 0-63.386-51.083-64.68-186.088 0 0 54.331 175.742 310.464 263.929M1186.57 450.462c160.612 100.703 185.68 231.627 185.68 231.627l-90.579 6.115c-28.48-105.434-76.285-182.808-107.115-224.96 6.687-7.113 5.328-5.668 12.014-12.782M1446.11 1228.19c-1.294 135.005-64.68 186.088-64.68 186.088-103.488 91.22-245.784 77.841-245.784 77.841 256.133-88.187 310.464-263.929 310.464-263.929" style="fill:#7a853b;fill-rule:nonzero"/>
</svg>
