<?xml version="1.0" encoding="UTF-8" standalone="no"?><!DOCTYPE svg PUBLIC "-//W3C//DTD SVG 1.1//EN" "http://www.w3.org/Graphics/SVG/1.1/DTD/svg11.dtd"><svg width="100%" height="100%" viewBox="0 0 2000 2000" version="1.1" xmlns="http://www.w3.org/2000/svg" xmlns:xlink="http://www.w3.org/1999/xlink" xml:space="preserve" xmlns:serif="http://www.serif.com/" style="fill-rule:evenodd;clip-rule:evenodd;stroke-linejoin:round;stroke-miterlimit:2;"><rect id="Page-11" serif:id="Page 11" x="0" y="0" width="2000" height="2000" style="fill:none;"/><g id="Icons"><path d="M977.88,902.207c-0,-0 23.198,-102.645 32.172,-193.578l6.261,-0c8.973,90.932 32.172,193.578 32.172,193.578c66.889,270.779 -35.303,492.644 -35.303,492.644c-0,-0 -102.192,-221.865 -35.302,-492.644m-104.978,24.604c-24.565,64.875 -100.321,316.555 104.978,529.183l29.1,139.684l12.404,-0l29.101,-139.684c205.297,-212.628 129.542,-464.308 104.976,-529.183c3.164,-1.614 2.366,-1.207 5.529,-2.821c238.506,268.109 -54.763,532.004 -54.763,532.004c323.299,-167.708 375.324,-384.454 375.324,-384.454l-111.483,-0c65.032,-117.168 41.544,-326.276 41.544,-326.276l-150.973,5.808l-26.334,38.398c-66.89,-164.215 -219.123,-385.148 -219.123,-385.148c-0,-0 -152.233,220.933 -219.122,385.148l-26.335,-38.398l-150.973,-5.808c-0,-0 -23.487,209.108 41.544,326.276l-111.482,-0c-0,-0 52.025,216.746 375.324,384.454c-0,-0 -293.27,-263.895 -54.765,-532.004c3.164,1.614 2.365,1.207 5.529,2.821" style="fill:#7a853b;fill-rule:nonzero;"/><path d="M654.115,682.089c0,-0 25.067,-130.924 185.68,-231.627c6.685,7.114 5.327,5.669 12.013,12.782c-30.83,42.152 -78.634,119.526 -107.114,224.96l-90.579,-6.115Z" style="fill:#7a853b;fill-rule:nonzero;"/><path d="M890.722,1492.12c-0,0 -142.296,13.379 -245.784,-77.841c-0,0 -63.386,-51.083 -64.68,-186.088c-0,0 54.331,175.742 310.464,263.929" style="fill:#7a853b;fill-rule:nonzero;"/><path d="M1186.57,450.462c160.612,100.703 185.68,231.627 185.68,231.627l-90.579,6.115c-28.48,-105.434 -76.285,-182.808 -107.115,-224.96c6.687,-7.113 5.328,-5.668 12.014,-12.782" style="fill:#7a853b;fill-rule:nonzero;"/><path d="M1446.11,1228.19c-1.294,135.005 -64.68,186.088 -64.68,186.088c-103.488,91.22 -245.784,77.841 -245.784,77.841c256.133,-88.187 310.464,-263.929 310.464,-263.929" style="fill:#7a853b;fill-rule:nonzero;"/></g></svg>