<?xml version="1.0" encoding="UTF-8" standalone="no"?><!DOCTYPE svg PUBLIC "-//W3C//DTD SVG 1.1//EN" "http://www.w3.org/Graphics/SVG/1.1/DTD/svg11.dtd"><svg width="100%" height="100%" viewBox="0 0 2001 2001" version="1.1" xmlns="http://www.w3.org/2000/svg" xmlns:xlink="http://www.w3.org/1999/xlink" xml:space="preserve" xmlns:serif="http://www.serif.com/" style="fill-rule:evenodd;clip-rule:evenodd;stroke-linejoin:round;stroke-miterlimit:2;"><rect id="Page-7" serif:id="Page 7" x="0.75" y="0.5" width="2000" height="2000" style="fill:none;"/><g id="Icons"><path d="M544.246,901.451c-11.71,41.857 -18.108,85.91 -18.108,131.455c0,98.307 29.283,189.856 79.439,266.58l49.632,-49.632l40.745,-40.746c-28.999,-52.259 -45.575,-112.321 -45.575,-176.202c0,-8.212 0.372,-16.335 0.909,-24.413l-107.042,-107.042Z" style="fill:#7f513e;fill-rule:nonzero;"/><path d="M988.95,669.539c8.536,-0.601 17.124,-1.016 25.811,-1.016c8.401,0 16.709,0.39 24.969,0.952l106.958,-106.958c-41.998,-11.796 -86.211,-18.244 -131.927,-18.244c-45.972,0 -90.424,6.52 -132.633,18.444l106.822,106.822Z" style="fill:#7f513e;fill-rule:nonzero;"/><path d="M810.467,1032.9c-0,18.616 2.706,36.561 7.371,53.699l54.004,-54.005l-53.879,-53.879c-4.749,17.282 -7.496,35.394 -7.496,54.185" style="fill:#7f513e;fill-rule:nonzero;"/><path d="M1068.46,835.979c-17.138,-4.665 -35.083,-7.371 -53.698,-7.371c-19.212,0 -37.728,2.84 -55.356,7.798l54.314,54.313l54.74,-54.74Z" style="fill:#7f513e;fill-rule:nonzero;"/><path d="M1179.3,1056.3l31.961,31.961c4.959,-17.627 7.798,-36.145 7.798,-55.357c-0,-19.055 -2.806,-37.422 -7.686,-54.92l-55.194,55.194l23.058,23.058l0.063,0.064Z" style="fill:#7f513e;fill-rule:nonzero;"/><path d="M959.841,1229.51c17.498,4.88 35.865,7.686 54.92,7.686c18.791,0 36.903,-2.748 54.185,-7.497l-54.647,-54.647l-54.458,54.458Z" style="fill:#7f513e;fill-rule:nonzero;"/><path d="M1282.85,1441.12l-90.314,-90.314c-52.627,29.548 -113.246,46.481 -177.775,46.481c-64.066,-0 -124.288,-16.678 -176.652,-45.834l-51.353,51.354l-39.005,39.005c76.81,50.328 168.519,79.716 267.01,79.716c98.949,-0 191.061,-29.649 268.089,-80.408Z" style="fill:#7f513e;fill-rule:nonzero;"/><path d="M1410.44,1285.03l13.878,13.878c49.927,-76.607 79.069,-167.94 79.069,-266.003c0,-45.801 -6.471,-90.093 -18.308,-132.161l-106.906,106.906c0.576,8.355 0.973,16.757 0.973,25.255c0,63.635 -16.439,123.484 -45.229,175.601l76.523,76.524Z" style="fill:#7f513e;fill-rule:nonzero;"/><path d="M1551.11,496.549c-36.552,-36.552 -68.588,-3.059 -68.588,-3.059c0,0 20.532,9.466 41.357,30.29c20.096,20.096 30.29,41.357 30.29,41.357c0,0 33.493,-32.037 -3.059,-68.588" style="fill:#7f513e;fill-rule:nonzero;"/><path d="M1061.53,996.619l-14.417,3.932l3.932,-14.417l215.813,-215.813l10.484,10.485l-215.812,215.813Zm473.856,-201.251l-84.169,7.281c-13.867,-29.466 -35.603,-58.624 -54.002,-80.553l141.959,-141.959c0,-0 -9.466,-20.532 -30.29,-41.357c-16.457,-16.455 -41.357,-30.289 -41.357,-30.289l-141.959,141.959c-21.93,-18.4 -51.088,-40.137 -80.554,-54.003l7.282,-84.17l-16.019,0.291l-160.44,160.441c0,-0 65.373,5.673 142.07,54.811l-590.334,590.334l-39.318,141.255l141.254,-39.318l590.334,-590.335c46.46,71.138 54.338,140.489 54.338,140.489l160.914,-158.858l0.291,-16.019Z" style="fill:#7f513e;fill-rule:nonzero;"/><path d="M547.524,493.491c0,-0 -32.037,-33.493 -68.588,3.058c-36.552,36.552 -3.058,68.588 -3.058,68.588c0,-0 10.194,-21.26 30.29,-41.356c20.824,-20.824 41.356,-30.29 41.356,-30.29" style="fill:#7f513e;fill-rule:nonzero;"/><path d="M938.473,966.57l-185.765,-185.765l10.485,-10.485l185.765,185.765l45.726,-45.726l-182.54,-182.539c76.698,-49.138 142.07,-54.812 142.07,-54.812l-160.44,-160.44l-16.019,-0.292l7.281,84.17c-29.465,13.866 -58.624,35.603 -80.553,54.003l-141.958,-141.96c-0,0 -24.902,13.835 -41.357,30.291c-20.825,20.824 -30.291,41.356 -30.291,41.356l141.96,141.959c-18.399,21.929 -40.136,51.088 -54.003,80.553l-84.17,-7.281l0.291,16.019l160.914,158.858c-0,0 7.878,-69.351 54.338,-140.488l182.54,182.54l0.523,-0.522l45.203,-45.204Z" style="fill:#7f513e;fill-rule:nonzero;"/><path d="M1441.8,1459.41l-39.318,-141.254l-265.789,-265.789l-85.435,85.435l-0.769,0.768l-15.733,15.733l265.789,265.789l141.255,39.318Z" style="fill:#7f513e;fill-rule:nonzero;"/></g></svg>