<svg viewBox="0 0 2001 2001" xmlns="http://www.w3.org/2000/svg" xml:space="preserve" style="fill-rule:evenodd;clip-rule:evenodd;stroke-linejoin:round;stroke-miterlimit:2">
  <path style="fill:none" d="M.75.5h2000v2000H.75z"/>
  <path d="M544.246 901.451c-11.71 41.857-18.108 85.91-18.108 131.455 0 98.307 29.283 189.856 79.439 266.58l49.632-49.632 40.745-40.746c-28.999-52.259-45.575-112.321-45.575-176.202 0-8.212.372-16.335.909-24.413L544.246 901.451ZM988.95 669.539c8.536-.601 17.124-1.016 25.811-1.016 8.401 0 16.709.39 24.969.952l106.958-106.958c-41.998-11.796-86.211-18.244-131.927-18.244-45.972 0-90.424 6.52-132.633 18.444L988.95 669.539ZM810.467 1032.9c0 18.616 2.706 36.561 7.371 53.699l54.004-54.005-53.879-53.879c-4.749 17.282-7.496 35.394-7.496 54.185M1068.46 835.979c-17.138-4.665-35.083-7.371-53.698-7.371-19.212 0-37.728 2.84-55.356 7.798l54.314 54.313 54.74-54.74ZM1179.3 1056.3l31.961 31.961c4.959-17.627 7.798-36.145 7.798-55.357 0-19.055-2.806-37.422-7.686-54.92l-55.194 55.194 23.058 23.058.063.064ZM959.841 1229.51c17.498 4.88 35.865 7.686 54.92 7.686 18.791 0 36.903-2.748 54.185-7.497l-54.647-54.647-54.458 54.458ZM1282.85 1441.12l-90.314-90.314c-52.627 29.548-113.246 46.481-177.775 46.481-64.066 0-124.288-16.678-176.652-45.834l-51.353 51.354-39.005 39.005c76.81 50.328 168.519 79.716 267.01 79.716 98.949 0 191.061-29.649 268.089-80.408ZM1410.44 1285.03l13.878 13.878c49.927-76.607 79.069-167.94 79.069-266.003 0-45.801-6.471-90.093-18.308-132.161l-106.906 106.906c.576 8.355.973 16.757.973 25.255 0 63.635-16.439 123.484-45.229 175.601l76.523 76.524ZM1551.11 496.549c-36.552-36.552-68.588-3.059-68.588-3.059s20.532 9.466 41.357 30.29c20.096 20.096 30.29 41.357 30.29 41.357s33.493-32.037-3.059-68.588" style="fill:#7f513e;fill-rule:nonzero"/>
  <path d="m1061.53 996.619-14.417 3.932 3.932-14.417 215.813-215.813 10.484 10.485-215.812 215.813Zm473.856-201.251-84.169 7.281c-13.867-29.466-35.603-58.624-54.002-80.553l141.959-141.959s-9.466-20.532-30.29-41.357c-16.457-16.455-41.357-30.289-41.357-30.289L1325.568 650.45c-21.93-18.4-51.088-40.137-80.554-54.003l7.282-84.17-16.019.291-160.44 160.441s65.373 5.673 142.07 54.811l-590.334 590.334-39.318 141.255 141.254-39.318 590.334-590.335c46.46 71.138 54.338 140.489 54.338 140.489l160.914-158.858.291-16.019ZM547.524 493.491s-32.037-33.493-68.588 3.058c-36.552 36.552-3.058 68.588-3.058 68.588s10.194-21.26 30.29-41.356c20.824-20.824 41.356-30.29 41.356-30.29" style="fill:#7f513e;fill-rule:nonzero"/>
  <path d="M938.473 966.57 752.708 780.805l10.485-10.485 185.765 185.765 45.726-45.726-182.54-182.539c76.698-49.138 142.07-54.812 142.07-54.812l-160.44-160.44-16.019-.292 7.281 84.17c-29.465 13.866-58.624 35.603-80.553 54.003l-141.958-141.96s-24.902 13.835-41.357 30.291c-20.825 20.824-30.291 41.356-30.291 41.356l141.96 141.959c-18.399 21.929-40.136 51.088-54.003 80.553l-84.17-7.281.291 16.019 160.914 158.858s7.878-69.351 54.338-140.488l182.54 182.54.523-.522 45.203-45.204ZM1441.8 1459.41l-39.318-141.254-265.789-265.789-85.435 85.435-.769.768-15.733 15.733 265.789 265.789 141.255 39.318Z" style="fill:#7f513e;fill-rule:nonzero"/>
</svg>
