<svg viewBox="0 0 2001 2000" xmlns="http://www.w3.org/2000/svg" xml:space="preserve" style="fill-rule:evenodd;clip-rule:evenodd;stroke-linejoin:round;stroke-miterlimit:2">
  <path style="fill:none" d="M.75 0h2000v2000H.75z"/>
  <path d="M1017.7 415.677s-34.56-11.389-66.081-11.389c-27.894 0-65.464 11.389-65.464 11.389v225.026H1017.7V415.677ZM859.939 471.132l-121.896 46.182c-5.701 2.16-9.428 7.319-9.428 13.049v110.34h131.324V471.132ZM1170.8 721.292V482.644c0-6.197-4.349-11.666-10.716-13.475l-116.174-33.012v319.145l111.538-17.161c8.857-1.364 15.352-8.493 15.352-16.849M1323.9 714.826V598.559c0-5.73-3.728-10.889-9.429-13.049l-117.46-44.501v214.293l112.612-23.825c8.351-1.766 14.277-8.678 14.277-16.651" style="fill:#51a5c5;fill-rule:nonzero"/>
  <path d="m1036.34 1053.3-18.646 157.404-18.647-157.404-123.29 23.604 141.937-68.947 141.936 68.947-123.29-23.604Zm194.644 37.691c41.955-34.706 68.361-82.829 73.98-134.818l14.498-175.192h-292.204l53.735 140.268-87.4-100.025H853.167l-43.678-27.065h134.452c40.727 0 73.742-30.734 73.753-68.651v-57.952H731.903c-28.263 33.427-33.702 47.726-61.963 81.154l51.889 225.557c10.717 41.29 34.74 78.541 68.849 106.756l7.438 6.153 122.202 374.24 36.36-233.183 61.016 367.478 61.304-368.985 37.591 234.69 114.395-370.425ZM1382.53 1416.2c-5.469 10.521-13.444 19.682-23.335 25.575 5.856-9.864 10.533-19.546 13.566-29.617 3.076-10.023 4.607-20.278 4.607-30.54-.003-1.848-.072-3.695-.174-5.542-.358.27-.727.526-1.119.753-8.999 5.195-23.611-3.268-32.637-18.901-9.027-15.635-9.05-32.521-.051-37.716 4.397-2.538 10.135-1.809 15.907 1.419-.034-.057-.065-.113-.099-.17 9.901 5.882 17.886 15.044 23.353 25.568 5.455 10.556 8.326 22.573 8.31 34.589-.002 12.015-2.873 24.028-8.328 34.582m-148.691-109.238c-41.233 41.231-41.233 108.081 0 149.312 41.23 41.233 108.081 41.233 149.312 0 41.232-41.231 41.232-108.081 0-149.312-41.231-41.233-108.082-41.233-149.312 0M1439.29 1226.73c5.855-9.863 10.533-19.545 13.566-29.617 3.075-10.024 4.607-20.278 4.607-30.539-.004-2.103-.087-4.204-.219-6.304-.501.423-1.037.804-1.61 1.135-8.999 5.195-23.612-3.268-32.637-18.902-9.027-15.634-9.05-32.519-.051-37.714 4.516-2.608 10.446-1.774 16.373 1.679l-.029-.052c9.901 5.882 17.886 15.043 23.352 25.568 5.455 10.557 8.327 22.574 8.31 34.589-.002 12.014-2.872 24.028-8.327 34.583-5.47 10.519-13.445 19.681-23.335 25.574m-43.072-154.004c-51.83 0-93.848 42.017-93.848 93.847 0 51.831 42.018 93.846 93.848 93.846s93.847-42.015 93.847-93.846c0-51.83-42.017-93.847-93.847-93.847M1367.16 918.428c3.686-2.799 9.518-1.797 15.174 1.993 7.473 4.486 13.85 11.007 18.576 18.706 5.611 9.17 8.741 20.109 8.721 31.097.002 10.987-3.126 21.921-8.738 31.089-5.626 9.155-13.568 16.659-22.924 21.049 2.784-4.368 5.418-8.537 7.668-12.809 2.263-4.254 4.208-8.535 5.757-12.88 3.135-8.668 4.743-17.554 4.747-26.449-.014-5.704-.688-11.401-1.991-17.041-.121.103-.225.223-.353.319-5.575 4.235-16.057-.185-23.412-9.871-7.356-9.685-8.8-20.969-3.225-25.203m36.924 106.537c30.234-30.235 30.234-79.256 0-109.492-17.671-17.67-41.757-24.995-64.762-22.01l-9.369 93.137c-1.882 18.696-6.178 36.855-12.669 54.103 28.537 12.973 63.327 7.735 86.8-15.738M631.159 939.127c4.684-7.63 10.988-14.104 18.376-18.586 5.712-3.891 11.629-4.942 15.355-2.113 5.575 4.234 4.13 15.517-3.226 25.203-7.356 9.685-17.838 14.105-23.412 9.871-.121-.092-.221-.206-.336-.305-1.301 5.635-1.974 11.327-1.988 17.027.003 8.895 1.612 17.781 4.748 26.449 1.548 4.345 3.494 8.626 5.757 12.88 2.249 4.272 4.883 8.441 7.667 12.808-9.356-4.389-17.299-11.893-22.924-21.048-5.612-9.168-8.74-20.102-8.738-31.089-.02-10.989 3.11-21.927 8.721-31.097m76.802 104.297c-5.288-11.864-9.524-24.262-12.623-37.087l-27.104-112.172c-14.746 2.797-28.836 9.896-40.249 21.308-30.235 30.236-30.235 79.257 0 109.492 21.631 21.631 52.873 27.777 79.976 18.459M688.231 1357.93c-9.026 15.634-23.638 24.097-32.636 18.901-.254-.146-.498-.304-.737-.469-.092 1.752-.155 3.505-.159 5.258 0 10.262 1.532 20.517 4.607 30.54 3.033 10.072 7.711 19.753 13.567 29.618-9.891-5.894-17.868-15.055-23.336-25.576-5.455-10.553-8.325-22.567-8.327-34.582-.017-12.015 2.856-24.033 8.311-34.588 3.879-7.47 9.032-14.246 15.234-19.658 8.012-7.676 17.17-10.83 23.528-7.16 8.998 5.195 8.974 22.081-.052 37.716m-39.314-50.966c-41.232 41.232-41.232 108.081 0 149.313 41.231 41.232 108.081 41.232 149.313 0 41.231-41.232 41.231-108.081 0-149.313-41.232-41.232-108.082-41.232-149.313 0M608.669 1142.5c-9.026 15.634-23.638 24.097-32.636 18.901-.433-.25-.839-.535-1.23-.837-.119 2-.197 4.002-.201 6.006 0 10.262 1.532 20.516 4.607 30.539 3.033 10.073 7.711 19.754 13.566 29.618-9.89-5.893-17.867-15.055-23.335-25.575-5.456-10.554-8.326-22.568-8.328-34.583-.016-12.014 2.856-24.032 8.311-34.589 4.163-8.016 9.792-15.238 16.612-20.826 7.805-7.1 16.55-9.912 22.686-6.369 8.998 5.195 8.974 22.08-.052 37.715m121.024 24.069c0-51.83-42.015-93.846-93.846-93.846S542 1114.739 542 1166.569c0 51.831 42.016 93.847 93.847 93.847 51.831 0 93.846-42.016 93.846-93.847" style="fill:#51a5c5;fill-rule:nonzero"/>
</svg>
