<?xml version="1.0" encoding="UTF-8" standalone="no"?><!DOCTYPE svg PUBLIC "-//W3C//DTD SVG 1.1//EN" "http://www.w3.org/Graphics/SVG/1.1/DTD/svg11.dtd"><svg width="100%" height="100%" viewBox="0 0 2001 2000" version="1.1" xmlns="http://www.w3.org/2000/svg" xmlns:xlink="http://www.w3.org/1999/xlink" xml:space="preserve" xmlns:serif="http://www.serif.com/" style="fill-rule:evenodd;clip-rule:evenodd;stroke-linejoin:round;stroke-miterlimit:2;"><path d="M872.327,1455.19l195.083,0l-0,195.083l-195.083,-0l0,-195.083m130.055,-1105.47c347.897,14.306 499.411,365.455 292.624,628.816c-53.973,65.027 -141.11,107.946 -184.028,162.569c-43.568,53.972 -43.568,119 -43.568,184.027l-195.083,0c0,-108.595 0,-200.284 43.569,-265.312c42.918,-65.027 130.055,-103.393 184.027,-146.312c157.367,-145.661 118.35,-351.798 -97.541,-368.705c-107.019,-0 -195.082,88.063 -195.082,195.082l-195.083,0c0,-214.038 176.127,-390.165 390.165,-390.165Z" style="fill:#fcf7f8;fill-rule:nonzero;"/></svg>