<?xml version="1.0" encoding="UTF-8" standalone="no"?><!DOCTYPE svg PUBLIC "-//W3C//DTD SVG 1.1//EN" "http://www.w3.org/Graphics/SVG/1.1/DTD/svg11.dtd"><svg width="100%" height="100%" viewBox="0 0 2000 2000" version="1.1" xmlns="http://www.w3.org/2000/svg" xmlns:xlink="http://www.w3.org/1999/xlink" xml:space="preserve" xmlns:serif="http://www.serif.com/" style="fill-rule:evenodd;clip-rule:evenodd;stroke-linejoin:round;stroke-miterlimit:2;"><rect id="Page-5" serif:id="Page 5" x="0" y="0" width="2000" height="2000" style="fill:none;"/><g id="Icons"><path d="M1618.27,432.168l-293.131,489.658l19.721,-74.431c-0,0 -52.101,-115.368 -219.571,-250.584l-31.013,-4.962l-0,279.115l-29.772,-26.05l-0,-269.192l23.57,-9.924l-88.077,-54.583l-88.077,54.583l23.57,9.924l-0,269.192l-29.772,26.05l-0,-279.115l-31.013,4.962c-167.47,135.216 -219.571,250.584 -219.571,250.584l19.721,74.431l-293.131,-489.658c-2.47,49.744 -4.162,116.651 -1.199,186.339l149.69,202.194c-2.808,2.259 -1.572,1.265 -4.38,3.523l-142.94,-158.871c3.633,51.195 10.156,97.269 21.115,142.597l134.92,124.227c-2.252,2.739 -1.315,1.6 -3.567,4.339l-119.924,-82.79c13.743,43.394 32.544,81.968 56.453,124.64c5.387,7.939 8.743,12.515 8.743,12.515l107.852,64.198c-1.539,3.11 -0.948,1.917 -2.487,5.028l-85.931,-29.506c39.968,58.624 95.771,116.52 157.546,166.619l-0,98.686c-0,16.432 -4.232,32.587 -12.288,46.908l-21.206,37.7l306.407,187.318l14.887,-500.866l-136.457,0c-65.748,-45.899 -71.95,-111.647 -71.95,-111.647l191.039,0c-7.772,-12.718 -4.755,-29.244 7.011,-38.395l5.394,-4.195l59.545,98.827l59.545,-98.827l5.395,4.195c11.765,9.151 14.782,25.677 7.01,38.395l191.039,0c-0,0 -6.202,65.748 -71.949,111.647l-136.457,0l14.886,500.866l306.407,-187.318l-21.206,-37.7c-8.056,-14.321 -12.288,-30.476 -12.288,-46.908l-0,-98.686c61.775,-50.099 117.578,-107.995 157.546,-166.619l-85.931,29.506c-1.538,-3.111 -0.948,-1.918 -2.487,-5.028l107.852,-64.198c-0,0 3.356,-4.576 8.743,-12.515c23.909,-42.672 42.71,-81.246 56.453,-124.64l-119.924,82.79c-2.252,-2.739 -1.315,-1.6 -3.567,-4.339l134.92,-124.227c10.959,-45.328 17.482,-91.402 21.116,-142.597l-142.941,158.871c-2.808,-2.258 -1.572,-1.264 -4.38,-3.523l149.69,-202.194c2.963,-69.688 1.271,-136.595 -1.199,-186.339" style="fill:#b59e54;fill-rule:nonzero;"/></g></svg>