<svg viewBox="0 0 2000 2001" xmlns="http://www.w3.org/2000/svg" xml:space="preserve" style="fill-rule:evenodd;clip-rule:evenodd;stroke-linejoin:round;stroke-miterlimit:2">
  <path style="fill:none" d="M0 .5h2000v2000H0z"/>
  <path d="M1077.65 689.36c.407-5.972 6.869-9.288 11.708-6.008l49.586 33.612c2.838-2.397 2.704-2.283 5.541-4.68l-120.284-292.081v-3.926l-.753 1.963-.754-1.963v3.926L902.409 712.284l5.541 4.68 49.587-33.612c4.839-3.28 11.301.036 11.708 6.008l41.224 788.247-70.662 99.434c4.615 6.231 4.238 5.721 8.853 11.952l74.787-30.153 74.787 30.153c4.616-6.231 4.238-5.721 8.853-11.952l-70.661-99.434 41.224-788.247Z" style="fill:#507f62;fill-rule:nonzero"/>
  <path d="M1117.93 768.752c-2.557.44-2.259.389-4.817.829l-19.148 210.264c52.986 9.826 95.852 28.686 130.602 52.565l-138.768 396.485 13.758 6.048 171.794-362.796c81.463 84.437 97.735 196.372 102.021 226.457l-287.465 198.312 16.808 22.174 472.287-310.357-1.762-19.083-129.991-80.249c-19.142-52.6-56.55-110.716-114.022-159.479l50.874-107.434c2.034-4.125 7.604-4.463 10.091-.613l25.486 39.452c2.721-.818 2.592-.779 5.313-1.597l-.308-245.614 1.147-2.795-1.109 1.161.037-1.633-1.147 2.796-170.982 170.317c1.321 2.595 1.258 2.472 2.578 5.066l45.127-8.412c4.404-.821 8.036 3.563 6.58 7.943l-34.419 98.342c-32.478-19.063-69.318-35.152-110.8-46.747l.005-.009-39.77-91.393ZM959.864 1497.44l-288.229-198.838c4.287-30.086 20.557-142.02 102.021-226.458l171.793 362.796 13.759-6.047-138.768-396.485c34.749-23.88 77.615-42.739 130.601-52.565v-.001l.001.001-19.149-210.265c-2.556-.44-2.259-.388-4.816-.828l-39.77 91.393.005.009c-41.482 11.595-78.322 27.684-110.801 46.746l-34.419-98.342c-1.455-4.379 2.177-8.763 6.581-7.942l45.127 8.412c1.32-2.595 1.257-2.472 2.578-5.066L625.396 633.642l-1.147-2.795.037 1.633-1.109-1.162 1.147 2.795-.308 245.614c2.721.818 2.592.779 5.313 1.598l25.486-39.453c2.487-3.849 8.057-3.511 10.091.613L715.78 949.92c-57.472 48.762-94.88 106.879-114.022 159.478l-129.991 80.25-1.762 19.083 473.063 310.866 16.796-22.157Z" style="fill:#507f62;fill-rule:nonzero"/>
</svg>
