<?xml version="1.0" encoding="UTF-8" standalone="no"?><!DOCTYPE svg PUBLIC "-//W3C//DTD SVG 1.1//EN" "http://www.w3.org/Graphics/SVG/1.1/DTD/svg11.dtd"><svg width="100%" height="100%" viewBox="0 0 2001 2001" version="1.1" xmlns="http://www.w3.org/2000/svg" xmlns:xlink="http://www.w3.org/1999/xlink" xml:space="preserve" xmlns:serif="http://www.serif.com/" style="fill-rule:evenodd;clip-rule:evenodd;stroke-linejoin:round;stroke-miterlimit:2;"><rect id="Page-9" serif:id="Page 9" x="0.25" y="0.5" width="2000" height="2000" style="fill:none;"/><g id="Icons"><path d="M1000.13,628.66l0.242,0l102.341,-97.892c0,0 -16.706,-68.991 -102.341,-110.26l-0.242,0c-85.635,41.269 -102.341,110.26 -102.341,110.26l102.341,97.892Z" style="fill:#555752;fill-rule:nonzero;"/><path d="M1262.1,1009.99c-76.389,-54.66 -120.158,-14.135 -141.683,21.729c-0.094,0.157 -0.31,0.052 -0.271,-0.126l25.783,-117.935c0.018,-0.082 0.045,-0.138 -0.034,-0.165c-2.17,-0.751 -58.463,-19.964 -114.181,-12.894c-0.077,0.011 -0.139,0.075 -0.147,0.152l-31.152,340.276c-0.018,0.198 -0.307,0.198 -0.326,0l-31.152,-340.276c-0.007,-0.077 -0.069,-0.141 -0.146,-0.152c-55.718,-7.07 -112.011,12.143 -114.182,12.894c-0.078,0.027 -0.051,0.083 -0.033,0.165l25.782,117.935c0.039,0.178 -0.176,0.283 -0.271,0.126c-21.524,-35.864 -65.293,-76.389 -141.682,-21.729l-6.825,4.884c1.813,-51.269 35.526,-145.88 260.072,-145.88l17.201,0c224.855,0 258.411,94.661 260.128,145.92l-6.881,-4.924Zm297.489,137.328c-38.783,51.428 -105.284,0.204 -105.284,0.204l-45.077,-32.255c-0.058,-0.042 -0.083,-0.115 -0.061,-0.182l14.159,-44.932c8.765,-27.816 21.877,-54.07 38.849,-77.789l14.747,-20.61c0.031,-0.042 0.078,-0.068 0.129,-0.07l39.78,-1.288c0.064,-0.002 0.092,0.027 0.118,-0.032c0.556,-1.292 19.27,-45.719 -25.47,-77.732l-0.127,-0.091c-44.382,-31.758 -80.731,0.038 -81.792,0.98c-0.048,0.043 -0.011,0.062 0.007,0.123l11.619,38.069c0.015,0.048 0.007,0.101 -0.023,0.142l-14.747,20.609c-16.971,23.717 -37.588,44.601 -61.087,61.875l-37.959,27.904c-0.058,0.042 -0.135,0.043 -0.193,0.002l-15.403,-11.023c-0.053,-0.038 -0.077,-0.106 -0.062,-0.17c47.712,-200.532 -117.343,-246.986 -221.432,-256.716c-0.079,-0.008 -0.138,-0.071 -0.144,-0.15l-11.911,-161.184c-0.01,-0.139 -0.179,-0.203 -0.278,-0.106l-57.58,56.381c-0.064,0.062 -0.165,0.062 -0.229,0l-57.58,-56.381c-0.1,-0.097 -0.268,-0.033 -0.278,0.106l-11.911,161.184c-0.006,0.079 -0.065,0.142 -0.144,0.15c-104.089,9.73 -269.144,56.184 -221.432,256.716c0.015,0.064 -0.009,0.132 -0.063,0.17l-15.402,11.023c-0.058,0.041 -0.135,0.04 -0.193,-0.002l-37.959,-27.904c-23.499,-17.274 -44.117,-38.158 -61.088,-61.875l-14.746,-20.609c-0.03,-0.041 -0.038,-0.094 -0.024,-0.142l11.619,-38.069c0.019,-0.061 0.056,-0.08 0.008,-0.123c-1.061,-0.942 -37.41,-32.738 -81.793,-0.98l-0.127,0.091c-44.739,32.013 -26.026,76.44 -25.469,77.732c0.025,0.059 0.054,0.03 0.118,0.032l39.78,1.288c0.051,0.002 0.098,0.028 0.128,0.07l14.747,20.61c16.973,23.719 30.084,49.973 38.85,77.789l14.159,44.932c0.021,0.067 -0.004,0.14 -0.061,0.182l-45.077,32.255c-0,0 -66.501,51.224 -105.284,-0.204l-6.071,6.357c-0,0 39.997,145.018 158.732,60.058l192.205,-137.532c-0,0 65.073,-50.072 104.016,-1.341c0.017,0.022 0.03,0.048 0.035,0.074l95.26,435.732l-9.569,9.569l-175.962,-423.31c-0.04,-0.097 -0.159,-0.131 -0.245,-0.072l-75.248,52.554c-0.07,0.048 -0.09,0.143 -0.048,0.216l133.496,229.62c0.1,0.172 -0.136,0.34 -0.266,0.19l-174.248,-200.459c-0.056,-0.064 -0.152,-0.075 -0.221,-0.024l-74.027,54.26c-0.084,0.061 -0.09,0.184 -0.012,0.255l391.378,347.025l0.263,0l391.378,-347.025c0.078,-0.071 0.072,-0.194 -0.012,-0.255l-74.027,-54.26c-0.07,-0.051 -0.165,-0.04 -0.221,0.024l-174.249,200.459c-0.13,0.15 -0.365,-0.018 -0.265,-0.19l133.495,-229.62c0.043,-0.073 0.022,-0.168 -0.048,-0.216l-75.248,-52.554c-0.086,-0.059 -0.204,-0.025 -0.244,0.072l-175.963,423.31l-9.568,-9.569l95.259,-435.732c0.006,-0.026 0.019,-0.052 0.035,-0.074c38.944,-48.731 104.017,1.341 104.017,1.341l192.205,137.532c118.734,84.96 158.732,-60.058 158.732,-60.058l-6.071,-6.357Z" style="fill:#555752;fill-rule:nonzero;"/></g></svg>