<svg viewBox="0 0 2001 2001" xmlns="http://www.w3.org/2000/svg" xml:space="preserve" style="fill-rule:evenodd;clip-rule:evenodd;stroke-linejoin:round;stroke-miterlimit:2">
  <path style="fill:none" d="M.25.5h2000v2000H.25z"/>
  <path d="M1000.13 628.66h.242l102.341-97.892s-16.706-68.991-102.341-110.26h-.242c-85.635 41.269-102.341 110.26-102.341 110.26l102.341 97.892Z" style="fill:#555752;fill-rule:nonzero"/>
  <path d="M1262.1 1009.99c-76.389-54.66-120.158-14.135-141.683 21.729-.094.157-.31.052-.271-.126l25.783-117.935c.018-.082.045-.138-.034-.165-2.17-.751-58.463-19.964-114.181-12.894a.174.174 0 0 0-.147.152l-31.152 340.276c-.018.198-.307.198-.326 0l-31.152-340.276c-.007-.077-.069-.141-.146-.152-55.718-7.07-112.011 12.143-114.182 12.894-.078.027-.051.083-.033.165l25.782 117.935c.039.178-.176.283-.271.126-21.524-35.864-65.293-76.389-141.682-21.729l-6.825 4.884c1.813-51.269 35.526-145.88 260.072-145.88h17.201c224.855 0 258.411 94.661 260.128 145.92l-6.881-4.924Zm297.489 137.328c-38.783 51.428-105.284.204-105.284.204l-45.077-32.255a.1623.1623 0 0 1-.061-.182l14.159-44.932a276.4587 276.4587 0 0 1 38.849-77.789l14.747-20.61a.169.169 0 0 1 .129-.07l39.78-1.288c.064-.002.092.027.118-.032.556-1.292 19.27-45.719-25.47-77.732l-.127-.091c-44.382-31.758-80.731.038-81.792.98-.048.043-.011.062.007.123l11.619 38.069a.16.16 0 0 1-.023.142l-14.747 20.609a276.4716 276.4716 0 0 1-61.087 61.875l-37.959 27.904a.1652.1652 0 0 1-.193.002l-15.403-11.023a.1636.1636 0 0 1-.062-.17c47.712-200.532-117.343-246.986-221.432-256.716-.079-.008-.138-.071-.144-.15l-11.911-161.184c-.01-.139-.179-.203-.278-.106l-57.58 56.381a.1642.1642 0 0 1-.229 0l-57.58-56.381c-.1-.097-.268-.033-.278.106l-11.911 161.184c-.006.079-.065.142-.144.15-104.089 9.73-269.144 56.184-221.432 256.716a.1624.1624 0 0 1-.063.17l-15.402 11.023a.1652.1652 0 0 1-.193-.002l-37.959-27.904a276.476 276.476 0 0 1-61.088-61.875l-14.746-20.609a.1635.1635 0 0 1-.024-.142l11.619-38.069c.019-.061.056-.08.008-.123-1.061-.942-37.41-32.738-81.793-.98l-.127.091c-44.739 32.013-26.026 76.44-25.469 77.732.025.059.054.03.118.032l39.78 1.288c.051.002.098.028.128.07l14.747 20.61a276.4616 276.4616 0 0 1 38.85 77.789l14.159 44.932c.021.067-.004.14-.061.182l-45.077 32.255s-66.501 51.224-105.284-.204l-6.071 6.357s39.997 145.018 158.732 60.058l192.205-137.532s65.073-50.072 104.016-1.341c.017.022.03.048.035.074l95.26 435.732-9.569 9.569-175.962-423.31a.1641.1641 0 0 0-.245-.072l-75.248 52.554c-.07.048-.09.143-.048.216l133.496 229.62c.1.172-.136.34-.266.19l-174.248-200.459a.164.164 0 0 0-.221-.024l-74.027 54.26c-.084.061-.09.184-.012.255l391.378 347.025h.263l391.378-347.025c.078-.071.072-.194-.012-.255l-74.027-54.26a.164.164 0 0 0-.221.024l-174.249 200.459c-.13.15-.365-.018-.265-.19l133.495-229.62a.1627.1627 0 0 0-.048-.216l-75.248-52.554a.1631.1631 0 0 0-.244.072l-175.963 423.31-9.568-9.569 95.259-435.732a.2098.2098 0 0 1 .035-.074c38.944-48.731 104.017 1.341 104.017 1.341l192.205 137.532c118.734 84.96 158.732-60.058 158.732-60.058l-6.071-6.357Z" style="fill:#555752;fill-rule:nonzero"/>
</svg>
