<svg viewBox="0 0 2001 2000" xmlns="http://www.w3.org/2000/svg" xml:space="preserve" style="fill-rule:evenodd;clip-rule:evenodd;stroke-linejoin:round;stroke-miterlimit:2">
  <path style="fill:none" d="M.75 0h2000v2000H.75z"/>
  <path d="M1308.88 886.377c132.714 225.36 32.23 382.504 32.23 382.504 5.411-220.117-132.757-290.364-132.757-290.364l-.016.003c29.787 40.194 47.561 90.6 47.561 145.371 0 131.276-101.838 237.696-227.461 237.696-125.623 0-224.236-106.457-227.46-237.696-1.353-55.037 28.404-146.343 112.716-232.354 55.298-56.413 95.131-116.173 114.68-155.976 77.958-158.737 21.029-340.162-34.346-372.534 0 0 77.017 176.497-42.462 326.736-58.874 74.031-140.314 134.062-208.14 196.371-17.191 14.941-74.889 81.723-96.271 117.309-32.186 53.571-48.615 115.204-48.615 180.274 0 225.527 188.738 408.353 421.557 408.353 232.82 0 427.869-185.447 427.869-410.973 0-117.242-62.219-241.402-139.085-294.72" style="fill:#992e2e;fill-rule:nonzero"/>
  <path d="m1069.69 1081.99-43.728-201.259-43.727 201.259c-2.118 9.748-9.886 17.417-19.907 19.654l-213.646 47.683 213.645 47.682c10.022 2.236 17.79 9.906 19.908 19.654l43.727 201.26 43.728-201.26c2.118-9.748 9.887-17.418 19.908-19.654l213.645-47.682-213.645-47.683c-10.021-2.237-17.79-9.906-19.908-19.654M1225.33 781.358l-17.219-79.25-17.219 79.25c-2.229 10.264-10.409 18.339-20.96 20.694l-84.456 18.849 84.456 18.849c10.551 2.355 18.731 10.431 20.96 20.694l17.219 79.251 17.219-79.251c2.23-10.263 10.409-18.339 20.96-20.694l84.456-18.849-84.456-18.849c-10.551-2.355-18.73-10.43-20.96-20.694M819.013 626.872c6.086 23.912-2.128 50.52-22.656 80.251-58.689 85.001-170.901 191.701-231.631 311.837-91.976 181.95-27.503 367.842 36.228 443.834 0 0-244.977-159.847-122.794-433.583 26.021-58.295 79.879-127.375 183.276-216.943 35.544-30.789 79.494-68.898 116.098-109.784 21.963-24.531 36.745-49.189 41.479-75.612" style="fill:#992e2e;fill-rule:nonzero"/>
</svg>
