<?xml version="1.0" encoding="UTF-8" standalone="no"?><!DOCTYPE svg PUBLIC "-//W3C//DTD SVG 1.1//EN" "http://www.w3.org/Graphics/SVG/1.1/DTD/svg11.dtd"><svg width="100%" height="100%" viewBox="0 0 2001 2001" version="1.1" xmlns="http://www.w3.org/2000/svg" xmlns:xlink="http://www.w3.org/1999/xlink" xml:space="preserve" xmlns:serif="http://www.serif.com/" style="fill-rule:evenodd;clip-rule:evenodd;stroke-linejoin:round;stroke-miterlimit:2;"><rect id="Page-8" serif:id="Page 8" x="0.5" y="0.5" width="2000" height="2000" style="fill:none;"/><g id="Icons"><path d="M662.965,841.041l-0.078,-0.023c16.268,-112.969 76.919,-194.386 100.021,-221.913c-2.017,-2.509 -1.65,-2.054 -3.669,-4.563c-87.523,42.558 -145.704,146.612 -145.704,146.612c9.832,-102.006 80.459,-190.311 115.07,-228.008c-2.244,-2.647 -1.593,-1.878 -3.837,-4.524c-124.551,77.135 -206.429,205.82 -214.45,369.876l145.793,-18.391c1.628,-13.237 3.896,-26.281 6.854,-39.066" style="fill:#7b469b;fill-rule:nonzero;"/><path d="M893.673,850.534l119.508,55.661c-0,-0 -1.637,27.83 -31.105,31.105l40.928,134.241l40.928,-134.241c-29.468,-3.275 -31.105,-31.105 -31.105,-31.105l119.508,-55.661c76.398,128.239 27.992,193.318 -30.126,225.835c-30.633,17.14 -64.919,25.709 -99.205,25.709c-34.286,-0 -68.572,-8.569 -99.204,-25.709c-58.118,-32.517 -106.523,-97.596 -30.127,-225.835m-18.008,388.739c-0,-0 81.856,228.445 111.322,357.776l5.928,-3.192c9.615,-5.177 16.072,-14.748 17.275,-25.602l12.814,-115.773l12.815,115.773c1.202,10.854 7.66,20.425 17.274,25.602l5.928,3.192c29.466,-129.331 111.322,-357.776 111.322,-357.776c76.943,-197.341 203.08,-217.269 203.08,-217.269l257.58,-68.333c-7.084,-12.145 -19.862,-19.747 -33.915,-20.201c-102.729,-3.311 -211.31,-17.478 -211.31,-17.478c-103.798,-13.123 -115.572,-99.837 -115.572,-99.837l-47.476,-262.883c-27.83,-159.746 34.379,-233.156 34.379,-233.156c-137.516,40.927 -119.508,270.12 -119.508,270.12l13.096,176.806c-63.701,-57.201 -86.107,-137.113 -92.634,-167.596c-2.84,0.011 -2.319,0.009 -5.16,0.021l-29.899,131.559l-29.899,-131.559c-2.841,-0.012 -2.319,-0.01 -5.16,-0.021c-6.526,30.483 -28.933,110.395 -92.634,167.596l13.096,-176.806c-0,-0 18.008,-229.193 -119.507,-270.12c-0,-0 62.209,73.41 34.378,233.156l-47.475,262.883c-0,-0 -11.775,86.714 -115.573,99.837c-0,-0 -108.58,14.167 -211.31,17.478c-14.053,0.454 -26.831,8.056 -33.915,20.201l257.58,68.333c-0,-0 126.138,19.928 203.08,217.269" style="fill:#7b469b;fill-rule:nonzero;"/><path d="M950.153,918.473c-54.843,33.97 -21.691,117.871 -21.691,117.871l-6.139,-0c-56.89,-74.897 -4.912,-134.651 -4.912,-134.651l32.742,16.78Z" style="fill:#7b469b;fill-rule:nonzero;"/><path d="M832.672,1243.66c13.901,43.293 45.977,139.137 63.534,191.448c-195.185,-50.457 -342.423,-212.455 -378.211,-414.431l162.06,42.828c30.199,75.215 84.144,138.428 152.617,180.155" style="fill:#7b469b;fill-rule:nonzero;"/><path d="M995.992,468.067c0,-41.132 27.012,-86.561 27.012,-86.561c0,0 27.011,45.429 27.011,86.561c0,32.33 -27.011,126.465 -27.011,126.465c0,0 -27.012,-94.135 -27.012,-126.465" style="fill:#7b469b;fill-rule:nonzero;"/><path d="M1123.69,1036.34l-6.14,0c-0,0 33.152,-83.901 -21.69,-117.871l32.741,-16.78c-0,0 51.978,59.754 -4.911,134.651" style="fill:#7b469b;fill-rule:nonzero;"/><path d="M1383.04,841.041l0.078,-0.023c-16.268,-112.969 -76.919,-194.386 -100.021,-221.913c2.017,-2.509 1.651,-2.054 3.669,-4.563c87.523,42.558 145.704,146.612 145.704,146.612c-9.831,-102.006 -80.459,-190.311 -115.07,-228.008c2.244,-2.647 1.593,-1.878 3.837,-4.524c124.552,77.135 206.429,205.82 214.45,369.876l-145.793,-18.391c-1.627,-13.237 -3.896,-26.281 -6.854,-39.066" style="fill:#7b469b;fill-rule:nonzero;"/><path d="M1365.95,1063.51l162.06,-42.829c-35.789,201.976 -183.026,363.975 -378.211,414.432c17.557,-52.311 49.632,-148.155 63.534,-191.448c68.472,-41.727 122.418,-104.941 152.617,-180.155" style="fill:#7b469b;fill-rule:nonzero;"/></g></svg>