<svg viewBox="0 0 2001 2000" xmlns="http://www.w3.org/2000/svg" xml:space="preserve" style="fill-rule:evenodd;clip-rule:evenodd;stroke-linejoin:round;stroke-miterlimit:2">
  <path style="fill:none" d="M.5 0h2000v2000H.5z"/>
  <path d="M1313.5 744.514s104.766 86.843 155.221 213.476c76.824 192.811 13.311 382.175-46.318 460.197 0 0 233.124-156.638 127.16-441.597-57.949-155.837-236.063-232.076-236.063-232.076M1000.92 761.101l38.276 42.104-74.242 111.003-25.277 10.819L745.74 773.86l11.66-93.278 237.642-194.649 267.436 201.166 7.325 140.215-6.049 29.479-294.731 330.457 74.001 96.617-33.311 315.922-39.601 15.736-39.758-316.425-102.956-118.229 312.594-387.873-145.296-128.44-98.4 91.439 43.381 47.208 61.243-42.104ZM850.231 381.849c-28.551 44.451-24.084 116.47 31.531 153.909l60.895-49.825c-85.656-27.517-92.426-104.084-92.426-104.084" style="fill:#2a50a1;fill-rule:nonzero"/>
  <path d="M704.867 1080.06c0-56.672 19.87-108.827 53.171-150.416l-.019-.003s-154.466 72.685-148.418 300.441c0 0-81.735-202.774 82.981-439.64-108.876 68.048-202.443 227.499-202.443 348.808 0 168.937 114.325 316.077 276.183 384.473 6.106 4.289 9.831 6.739 9.831 6.739l-193.935 25.517 352.239 41.22-34.939-278.065c-111.655-25.966-194.651-123.117-194.651-239.074M1330.11 1412.92l-.05-.016c68.46-73.354 109.718-167.81 109.718-270.935 0-67.328-18.367-131.1-54.351-186.529-15.413-23.744-46.613-73.651-72.011-110.313l-5.969 29.088-51.326 57.547c111.335 214.943-9.883 323.964-9.883 323.964 22.463-133.572-25.518-224.491-48.306-258.722l-.649.728c11.84 31.509 16.771 59.868 16.176 82.335-2.502 94.241-56.394 176.091-136.07 217.383l-31.555 299.267 348.066-40.731-193.936-25.517s79.942-52.128 130.146-117.549" style="fill:#2a50a1;fill-rule:nonzero"/>
</svg>
