<?xml version="1.0" encoding="UTF-8" standalone="no"?><!DOCTYPE svg PUBLIC "-//W3C//DTD SVG 1.1//EN" "http://www.w3.org/Graphics/SVG/1.1/DTD/svg11.dtd"><svg width="100%" height="100%" viewBox="0 0 2001 2000" version="1.1" xmlns="http://www.w3.org/2000/svg" xmlns:xlink="http://www.w3.org/1999/xlink" xml:space="preserve" xmlns:serif="http://www.serif.com/" style="fill-rule:evenodd;clip-rule:evenodd;stroke-linejoin:round;stroke-miterlimit:2;"><rect id="Page-3" serif:id="Page 3" x="0.5" y="0" width="2000" height="2000" style="fill:none;"/><g id="Icons"><path d="M1313.5,744.514c0,0 104.766,86.843 155.221,213.476c76.824,192.811 13.311,382.175 -46.318,460.197c0,0 233.124,-156.638 127.16,-441.597c-57.949,-155.837 -236.063,-232.076 -236.063,-232.076" style="fill:#2a50a1;fill-rule:nonzero;"/><path d="M1000.92,761.101l38.276,42.104l-74.242,111.003l-25.277,10.819l-193.937,-151.167l11.66,-93.278l237.642,-194.649l267.436,201.166l7.325,140.215l-6.049,29.479l-294.731,330.457l74.001,96.617l-33.311,315.922l-39.601,15.736l-39.758,-316.425l-102.956,-118.229l312.594,-387.873l-145.296,-128.44l-98.4,91.439l43.381,47.208l61.243,-42.104Z" style="fill:#2a50a1;fill-rule:nonzero;"/><path d="M850.231,381.849c-28.551,44.451 -24.084,116.47 31.531,153.909l60.895,-49.825c-85.656,-27.517 -92.426,-104.084 -92.426,-104.084" style="fill:#2a50a1;fill-rule:nonzero;"/><path d="M704.867,1080.06c0,-56.672 19.87,-108.827 53.171,-150.416l-0.019,-0.003c0,0 -154.466,72.685 -148.418,300.441c0,-0 -81.735,-202.774 82.981,-439.64c-108.876,68.048 -202.443,227.499 -202.443,348.808c0,168.937 114.325,316.077 276.183,384.473c6.106,4.289 9.831,6.739 9.831,6.739l-193.935,25.517l352.239,41.22l-34.939,-278.065c-111.655,-25.966 -194.651,-123.117 -194.651,-239.074" style="fill:#2a50a1;fill-rule:nonzero;"/><path d="M1330.11,1412.92l-0.05,-0.016c68.46,-73.354 109.718,-167.81 109.718,-270.935c0,-67.328 -18.367,-131.1 -54.351,-186.529c-15.413,-23.744 -46.613,-73.651 -72.011,-110.313l-5.969,29.088l-51.326,57.547c111.335,214.943 -9.883,323.964 -9.883,323.964c22.463,-133.572 -25.518,-224.491 -48.306,-258.722l-0.649,0.728c11.84,31.509 16.771,59.868 16.176,82.335c-2.502,94.241 -56.394,176.091 -136.07,217.383l-31.555,299.267l348.066,-40.731l-193.936,-25.517c0,0 79.942,-52.128 130.146,-117.549" style="fill:#2a50a1;fill-rule:nonzero;"/></g></svg>