<?xml version="1.0" encoding="UTF-8" standalone="no"?><!DOCTYPE svg PUBLIC "-//W3C//DTD SVG 1.1//EN" "http://www.w3.org/Graphics/SVG/1.1/DTD/svg11.dtd"><svg width="100%" height="100%" viewBox="0 0 512 512" version="1.1" xmlns="http://www.w3.org/2000/svg" xmlns:xlink="http://www.w3.org/1999/xlink" xml:space="preserve" xmlns:serif="http://www.serif.com/" style="fill-rule:evenodd;clip-rule:evenodd;stroke-linejoin:round;stroke-miterlimit:2;"><g><path d="M484.477,408.327l-9.039,-32.54c-6.687,-24.031 -6.613,-49.106 0.115,-73.12c3.161,-11.31 2.794,-23.695 -1.884,-35.467c-3.41,-8.595 -9.234,-17.133 -16.474,-24.548c-6.717,-6.891 -10.228,-16.287 -9.673,-25.889l6.058,-105.634c0.191,-3.276 -0.965,-6.496 -3.192,-8.901c-2.237,-2.416 -5.353,-3.812 -8.63,-3.885l-0.029,-0c-3.952,-0.079 -7.694,1.769 -10.022,4.966l-16.488,22.634l-4.521,-27.3c-0.616,-3.78 -2.766,-7.145 -5.912,-9.326c-3.159,-2.172 -7.066,-2.97 -10.825,-2.209l-0.03,0.007c-4.522,0.912 -8.312,3.987 -10.137,8.223l-16.942,39.121c-7.52,17.344 -5.24,37.38 5.981,52.596l25.267,34.274c-0.804,0.257 -1.637,0.372 -2.429,0.688c-2.778,1.104 -5.218,2.796 -7.622,4.512c-23.071,-29.825 -57.935,-48.83 -96.954,-48.83c-69.466,0 -125.793,60.235 -125.793,134.542c0,32.949 11.204,62.994 29.61,86.365c-18.607,-5.282 -39.111,-39.641 -46.551,-51.222c-6.078,-9.462 -36.18,-71.975 -105.62,-17.763c-8.677,7.521 -13.652,11.814 -13.652,11.814c-2.106,1.839 -2.429,5.036 -0.685,7.258c1.798,2.283 5.121,2.678 7.418,0.88c-0,-0 5.147,-4.066 14.177,-11.173c4.62,-3.268 49.361,-43.814 83.634,18.35c5.939,10.773 34.538,68.418 71.857,68.418l195.989,0c0.204,0.007 0.482,0.007 0.689,0c8.278,-0.191 14.833,-7.052 14.645,-15.327c-0.191,-8.271 -7.052,-14.826 -15.334,-14.635c-0,-0 -4.347,0.102 -11.893,0.276c10.65,-14.375 18.592,-31.067 23.071,-49.32c16.399,10.177 30.607,23.652 41.388,39.773l18.61,27.814c1.727,2.59 5.032,3.605 7.915,2.458c3.119,-1.239 4.818,-4.64 3.907,-7.88Z" style="fill:#fff;fill-rule:nonzero;"/></g></svg>