<svg viewBox="0 0 512 512" xmlns="http://www.w3.org/2000/svg" xml:space="preserve" style="fill-rule:evenodd;clip-rule:evenodd;stroke-linejoin:round;stroke-miterlimit:2">
  <path d="m473.874 401.258-8.62-31.03c-6.377-22.916-6.306-46.827.11-69.727 3.014-10.785 2.664-22.595-1.797-33.821-3.252-8.196-8.805-16.338-15.709-23.408-6.406-6.572-9.754-15.532-9.224-24.688l5.776-100.732c.183-3.124-.92-6.194-3.043-8.488a11.5639 11.5639 0 0 0-8.23-3.704h-.028c-3.768-.076-7.336 1.687-9.556 4.735l-15.723 21.584-4.311-26.033c-.588-3.605-2.638-6.814-5.638-8.893a13.4908 13.4908 0 0 0-10.323-2.107l-.028.007c-4.312.869-7.927 3.802-9.667 7.841L361.707 140.1c-7.171 16.539-4.996 35.645 5.704 50.155l24.094 32.683c-.766.245-1.561.355-2.316.656-2.649 1.053-4.976 2.666-7.268 4.303-22.001-28.441-55.247-46.564-92.455-46.564-66.242 0-119.955 57.439-119.955 128.298 0 31.42 10.684 60.071 28.236 82.357-17.744-5.037-37.296-37.801-44.391-48.845-5.796-9.023-34.501-68.635-100.718-16.939-8.274 7.172-13.019 11.266-13.019 11.266-2.008 1.754-2.316 4.802-.653 6.921 1.715 2.177 4.884 2.554 7.074.839 0 0 4.908-3.877 13.519-10.654 4.406-3.116 47.07-41.781 79.753 17.498 5.663 10.273 32.935 65.243 68.522 65.243h186.893c.195.007.46.007.657 0 7.894-.182 14.145-6.725 13.966-14.615-.182-7.888-6.725-14.138-14.623-13.956 0 0-4.145.097-11.341.263 10.156-13.708 17.73-29.625 22.001-47.031 15.638 9.704 29.186 22.554 39.467 37.927l17.746 26.523c1.647 2.47 4.799 3.438 7.548 2.344 2.974-1.181 4.594-4.425 3.726-7.514Z" style="fill:#fff;fill-rule:nonzero"/>
</svg>
