<svg viewBox="0 0 512 512" xmlns="http://www.w3.org/2000/svg" xml:space="preserve" style="fill-rule:evenodd;clip-rule:evenodd;stroke-linejoin:round;stroke-miterlimit:2">
  <path d="M83.871 269.818c-7.106-10.265-11.449-22.503-13.028-35.926-1.579.394-2.764.789-4.738.789-10.264 0-18.555-8.29-18.555-18.555 0-6.317 3.159-12.238 8.291-15.397l53.691-37.9c11.449-6.711 24.478-11.054 38.69-11.449l133.045.395 97.513-15.397v-1.579c0-9.87 7.896-17.766 17.371-17.766 9.87 0 17.765 7.896 17.765 17.766 0 1.579 0 3.158-.394 4.738l9.08 1.184c10.264 1.974 18.16 11.449 18.16 22.503v1.974l28.82 15.397c4.343 1.579 7.106 5.922 7.106 10.659 0 1.579-.394 3.159-.789 4.343l-7.107 16.186c-3.553 5.922-9.475 9.87-16.581 10.66l-66.325 7.896-60.403 70.272 34.347 58.824 22.503 10.66c3.553 2.368 5.922 6.711 5.922 11.449 0 7.501-5.922 13.423-13.818 13.423H331.01c-11.054 0-20.924-6.317-25.661-15.397l-37.11-67.115h-83.696l29.609 45.401 21.714 9.87c3.948 2.369 6.711 6.711 6.711 11.844 0 7.501-6.317 13.423-13.423 13.423h-43.427c-10.659 0-19.739-5.528-24.872-14.213l-40.663-63.956-28.425 27.635-2.369 18.161 9.475 6.316c1.579.79 3.158 1.974 4.343 3.553 4.737 5.922 3.948 14.608-1.974 19.345-2.369 1.974-5.527 3.159-8.686 3.159h-18.95c-5.132-.395-10.264-3.159-13.028-7.501L38.47 347.197c-1.974-3.948-3.158-8.686-3.158-13.423 0-7.501 2.763-14.213 7.501-19.345l41.058-44.611Z" style="fill:#fff;fill-rule:nonzero"/>
</svg>
