<?xml version="1.0" encoding="UTF-8" standalone="no"?><!DOCTYPE svg PUBLIC "-//W3C//DTD SVG 1.1//EN" "http://www.w3.org/Graphics/SVG/1.1/DTD/svg11.dtd"><svg width="100%" height="100%" viewBox="0 0 512 512" version="1.1" xmlns="http://www.w3.org/2000/svg" xmlns:xlink="http://www.w3.org/1999/xlink" xml:space="preserve" xmlns:serif="http://www.serif.com/" style="fill-rule:evenodd;clip-rule:evenodd;stroke-linejoin:round;stroke-miterlimit:2;"><g><path d="M440.71,272.481l-90.093,-98.264l-0.271,0.253c-2.18,-18.13 -9.488,-34.708 -20.423,-48.251l29.981,-40.272c5.677,-7.648 4.116,-18.479 -3.54,-24.174c-7.674,-5.694 -18.479,-4.107 -24.183,3.549l-28.525,38.336c-14.049,-8.188 -30.382,-12.898 -47.78,-12.898c-17.302,0 -33.557,4.649 -47.554,12.767l-28.438,-38.205c-5.685,-7.656 -16.525,-9.243 -24.182,-3.549c-7.648,5.703 -9.244,16.534 -3.54,24.174l29.824,40.071c-11.014,13.543 -18.357,30.156 -20.563,48.33l-0.148,-0.131l-89.989,98.264c-10.822,11.808 -16.386,27.147 -15.688,43.176c0.706,16.019 7.622,30.801 19.438,41.632c11.102,10.168 25.517,15.784 40.56,15.784c0.881,0 1.761,-0.017 2.634,-0.061c16.028,-0.697 30.81,-7.595 41.649,-19.438l6.157,-6.732c11.136,31.786 38.702,55.89 72.782,62.064l0,27.462c0,9.54 7.814,17.275 17.363,17.275c9.549,0 17.345,-7.752 17.345,-17.275l0,-27.531c33.645,-6.271 61.15,-30.418 72.216,-62.222l6.375,6.959c10.822,11.825 25.63,18.723 41.649,19.438c0.881,0.035 1.753,0.061 2.643,0.061c15.06,0 29.449,-5.624 40.551,-15.784c11.807,-10.831 18.714,-25.621 19.438,-41.641c0.724,-16.02 -4.866,-31.359 -15.688,-43.167Zm-300.025,63.591c-6.165,6.723 -14.528,10.656 -23.624,11.057l-1.483,0.027c-8.537,-0 -16.726,-3.175 -23.022,-8.948c-6.732,-6.165 -10.657,-14.563 -11.049,-23.659c-0.392,-9.104 2.773,-17.816 8.93,-24.522l70.271,-76.812l-0,100.959l-20.023,21.898Zm175.607,-20.738l-120.867,0l-0,-43.403l120.867,0l0,43.403Zm0,-86.16l-120.867,0l-0,-43.394l120.867,0l0,43.394Zm114.206,85.34c-0.393,9.105 -4.308,17.511 -11.049,23.668c-6.314,5.782 -14.477,8.947 -23.04,8.947l-1.5,-0.026c-9.096,-0.401 -17.581,-4.316 -23.72,-11.049l-20.206,-22.002l0,-101.037l70.559,76.968c6.174,6.724 9.357,15.436 8.956,24.531Z" style="fill:#fff;fill-rule:nonzero;"/></g></svg>