<svg viewBox="0 0 512 512" xmlns="http://www.w3.org/2000/svg" xml:space="preserve" style="fill-rule:evenodd;clip-rule:evenodd;stroke-linejoin:round;stroke-miterlimit:2">
  <path d="M452.148 140.449s-3.543-21.097-8.374-27.538c-6.12-8.214-26.412-19.487-26.412-19.487-4.187 5.959 5.798-15.783 11.756-36.558 0 0-38.973 5.154-75.369 44.449-10.307 11.273-28.666 62.164-28.666 62.164l-71.988 33.014C203.01 217.268 119.91 238.688 119.91 353.836v49.119c-4.026-2.738-25.284-20.453-24.962-48.153.161-21.902 3.06-44.288 5.797-64.258 4.993-36.557 8.858-75.852-5.958-92.762-6.764-7.73-16.427-11.757-28.505-11.757-7.892 0-14.334 6.442-14.334 14.334 0 7.891 6.442 14.333 14.334 14.333 3.543 0 5.797.644 6.925 1.932 6.119 7.086 2.415 45.254-.967 69.894-2.738 20.775-5.958 44.288-5.958 67.962 0 26.089 9.018 50.568 25.284 68.927 18.52 20.775 44.61 31.727 75.369 31.727H310.75c7.891 0 14.333-6.442 14.333-14.334 0-7.891-6.442-14.333-14.333-14.333h-31.565l15.299-50.407c0-7.247-1.611-14.172-4.348-20.292-11.435-19.487-32.049-31.565-54.756-31.565-9.985 0-19.326 2.255-28.183 6.603l-4.67-9.341c10.307-5.153 21.258-7.73 32.853-7.73 27.056 0 52.018 14.816 64.902 38.651 0 0 53.306 81.65 58.62 93.246 0 .161.161.161.161.322 1.45 4.348 4.993 7.569 9.502 8.535.161 0 .322 0 .483.161.805.161 1.45.484 2.255.484h15.782c7.086 0 13.045-5.798 13.045-13.045 0-7.086-5.798-13.045-13.045-13.045h.323s-42.839-76.336-34.464-103.392c38.168-59.909 58.781-116.758 58.781-116.758 8.214-18.681 29.311-33.014 32.21-34.947 6.442-4.348 15.299-9.824 16.104-18.198.322-3.704-5.797-11.757-7.891-15.3Z" style="fill:#fff;fill-rule:nonzero"/>
</svg>
