<?xml version="1.0" encoding="UTF-8" standalone="no"?><!DOCTYPE svg PUBLIC "-//W3C//DTD SVG 1.1//EN" "http://www.w3.org/Graphics/SVG/1.1/DTD/svg11.dtd"><svg width="100%" height="100%" viewBox="0 0 512 512" version="1.1" xmlns="http://www.w3.org/2000/svg" xmlns:xlink="http://www.w3.org/1999/xlink" xml:space="preserve" xmlns:serif="http://www.serif.com/" style="fill-rule:evenodd;clip-rule:evenodd;stroke-linejoin:round;stroke-miterlimit:2;"><g><path id="_x32__16_" d="M398.272,221.242l-172.713,-0l-32.815,-49.655l-7.772,18.566l-2.159,13.817c-1.295,8.204 -7.772,14.681 -15.112,14.681l-22.453,-0c-2.159,-0 -4.318,-0.432 -6.045,-1.295l0,57.858l-44.042,44.474c-3.022,3.022 -4.317,6.908 -4.317,10.794c-0,3.886 1.295,7.772 4.317,10.795l33.679,33.679c6.045,6.045 15.545,6.045 21.158,-0c6.045,-6.045 6.045,-15.544 -0,-21.158l-22.885,-22.884l24.18,-24.18c6.045,6.909 13.817,12.522 22.453,15.544l-0,126.081c-0,8.203 6.908,15.112 15.112,15.112c8.204,-0 15.112,-6.909 15.112,-15.112l0,-123.49l71.676,0l41.019,41.019l-42.746,74.267c-4.318,7.34 -1.727,16.407 5.613,20.725c7.34,4.318 16.408,1.727 20.726,-5.613l44.473,-76.857c1.295,-2.159 1.727,-4.75 2.159,-7.34l-0,-44.474l38.86,38.861l0,82.47c0,8.204 6.909,15.112 15.113,15.112c8.203,0 15.112,-6.908 15.112,-15.112l0,-192.143c9.499,0 17.271,-7.772 17.271,-17.271l0,-51.814l-34.974,34.543Zm-164.077,-164.077c0,-4.75 -3.886,-8.636 -8.636,-8.636c-4.749,0 -8.635,3.886 -8.635,8.636c-0,12.953 -3.886,25.043 -11.227,35.406c-6.908,-10.363 -10.794,-22.453 -10.794,-34.975c-0,-4.749 -3.886,-8.635 -8.636,-8.635c-4.749,-0 -8.635,3.886 -8.635,8.635c-0,17.703 5.613,34.543 16.407,47.928c-10.362,8.636 -23.748,13.385 -37.996,13.817c-14.249,-0.432 -27.203,-5.613 -37.565,-13.817c10.794,-13.817 16.407,-30.656 16.407,-48.359c0,-4.75 -3.886,-8.636 -8.635,-8.636c-4.75,0 -8.636,3.886 -8.636,8.636c0,12.521 -3.886,25.043 -10.794,34.974c-6.909,-9.931 -10.795,-22.021 -10.795,-34.974c-0,-4.75 -3.886,-8.636 -8.636,-8.636c-4.749,0 -8.635,3.886 -8.635,8.636c-0,25.043 11.658,47.496 30.224,61.744l-21.589,0c0,12.522 10.363,22.885 22.885,22.885l6.477,-0l19.43,45.769l2.159,15.112c0.431,3.886 3.454,7.34 6.476,7.34l22.453,0c3.022,0 6.045,-3.022 6.477,-7.34l2.159,-15.112l19.43,-45.769l6.476,-0c12.522,-0 22.885,-10.363 22.885,-22.885l-21.589,0c19.43,-14.248 31.088,-36.701 31.088,-61.744Z" style="fill:#fff;fill-rule:nonzero;"/></g></svg>