<svg viewBox="0 0 512 512" xmlns="http://www.w3.org/2000/svg" xml:space="preserve" style="fill-rule:evenodd;clip-rule:evenodd;stroke-linejoin:round;stroke-miterlimit:2">
  <path d="M398.272 221.242H225.559l-32.815-49.655-7.772 18.566-2.159 13.817c-1.295 8.204-7.772 14.681-15.112 14.681h-22.453c-2.159 0-4.318-.432-6.045-1.295v57.858l-44.042 44.474c-3.022 3.022-4.317 6.908-4.317 10.794s1.295 7.772 4.317 10.795l33.679 33.679c6.045 6.045 15.545 6.045 21.158 0 6.045-6.045 6.045-15.544 0-21.158l-22.885-22.884 24.18-24.18c6.045 6.909 13.817 12.522 22.453 15.544v126.081c0 8.203 6.908 15.112 15.112 15.112s15.112-6.909 15.112-15.112v-123.49h71.676l41.019 41.019-42.746 74.267c-4.318 7.34-1.727 16.407 5.613 20.725 7.34 4.318 16.408 1.727 20.726-5.613l44.473-76.857c1.295-2.159 1.727-4.75 2.159-7.34v-44.474l38.86 38.861v82.47c0 8.204 6.909 15.112 15.113 15.112 8.203 0 15.112-6.908 15.112-15.112V255.784c9.499 0 17.271-7.772 17.271-17.271v-51.814l-34.974 34.543ZM234.195 57.165c0-4.75-3.886-8.636-8.636-8.636-4.749 0-8.635 3.886-8.635 8.636 0 12.953-3.886 25.043-11.227 35.406-6.908-10.363-10.794-22.453-10.794-34.975 0-4.749-3.886-8.635-8.636-8.635-4.749 0-8.635 3.886-8.635 8.635 0 17.703 5.613 34.543 16.407 47.928-10.362 8.636-23.748 13.385-37.996 13.817-14.249-.432-27.203-5.613-37.565-13.817 10.794-13.817 16.407-30.656 16.407-48.359 0-4.75-3.886-8.636-8.635-8.636-4.75 0-8.636 3.886-8.636 8.636 0 12.521-3.886 25.043-10.794 34.974-6.909-9.931-10.795-22.021-10.795-34.974 0-4.75-3.886-8.636-8.636-8.636-4.749 0-8.635 3.886-8.635 8.636 0 25.043 11.658 47.496 30.224 61.744H87.389c0 12.522 10.363 22.885 22.885 22.885h6.477l19.43 45.769 2.159 15.112c.431 3.886 3.454 7.34 6.476 7.34h22.453c3.022 0 6.045-3.022 6.477-7.34l2.159-15.112 19.43-45.769h6.476c12.522 0 22.885-10.363 22.885-22.885h-21.589c19.43-14.248 31.088-36.701 31.088-61.744Z" style="fill:#fff;fill-rule:nonzero"/>
</svg>
