<?xml version="1.0" encoding="UTF-8" standalone="no"?><!DOCTYPE svg PUBLIC "-//W3C//DTD SVG 1.1//EN" "http://www.w3.org/Graphics/SVG/1.1/DTD/svg11.dtd"><svg width="100%" height="100%" viewBox="0 0 512 512" version="1.1" xmlns="http://www.w3.org/2000/svg" xmlns:xlink="http://www.w3.org/1999/xlink" xml:space="preserve" xmlns:serif="http://www.serif.com/" style="fill-rule:evenodd;clip-rule:evenodd;stroke-linejoin:round;stroke-miterlimit:2;"><g><path d="M418.51,110.013c-0,-28.077 14.655,-52.736 36.73,-66.708c-5.052,-0.484 -10.654,-0.717 -15.822,-0.717c-48.285,0 -91.184,20.924 -121.112,54.187c9.837,15.739 15.673,35.363 15.673,56.604c-0,28.077 -10.187,53.253 -26.31,70.476c-15.822,-21.375 -43.399,-35.113 -56.354,-43.466c-4.252,-2.751 -7.77,-7.286 -7.77,-12.655c0,-7.353 5.986,-13.338 13.339,-13.338c5.969,-0 9.553,4.835 12.988,9.32c3.251,4.235 11.371,13.672 15.289,18.223c1.884,2.185 4.935,2.968 7.636,1.951l7.369,-2.751l-5.885,-2.518c-0,0 -5.836,-12.821 -7.936,-18.056l19.007,9.52l-0.951,8.053l9.487,-9.353c1.951,-1.935 1.934,-5.086 -0.05,-6.97l-7.619,-7.286c-5.269,-6.219 -5.903,-15.439 -10.021,-24.726c-5.952,-13.504 -14.122,-21.424 -14.122,-21.424c0,9.854 -3.301,16.423 -3.301,16.423c0,-0 -11.714,-6.239 -26.99,-4.397c-14.027,0.088 -27.103,-8.346 -32.509,-21.765l0,0.004l-0.001,-0.005c-0,-0 -4.16,18.233 11.589,29.699c-0.24,0.162 -0.478,0.323 -0.717,0.492c-9.795,3.208 -20.831,0.178 -27.543,-8.05c-0,0 -1.558,11.906 6.035,19.042c2.329,2.189 4.885,3.131 7.313,3.395c-4.523,6.626 -7.681,14.422 -7.851,22.65c-0.484,22.658 6.62,31.405 22.041,47.501c2.614,2.727 3.685,6.185 3.685,8.903c-0,6.952 -5.619,12.588 -12.571,12.588c-3.535,-0 -7.632,-1.923 -10.254,-4.232c-18.017,-15.871 -32.831,-44.97 -32.831,-77.248c0,-21.191 5.802,-40.765 15.623,-56.488c-29.928,-33.329 -72.844,-54.303 -121.178,-54.303c-5.169,0 -10.804,0.233 -15.856,0.717c22.075,13.972 36.73,38.631 36.73,66.708c0,24.309 -11.021,46.067 -28.31,60.556c34.429,5.868 60.655,35.846 60.655,71.959c0,4.102 -0.366,8.12 -1.017,12.038c2.635,-0.2 5.319,-0.233 8.02,-0.3c39.164,-0.917 83.581,17.14 90.717,57.771c5.003,28.482 14.423,58.102 31.751,86.114c11.483,18.563 15.086,34.129 0.677,45.615c-11.669,9.303 -36.415,9.487 -47.107,-33.236c8.176,0.359 15.707,3.293 21.741,8.063l-24.829,-47.479l-23.087,48.351c5.706,-4.858 12.893,-8.043 20.803,-8.81c0.145,14.712 2.638,33.036 12.581,43.115c9.465,9.593 22.158,15.642 34.93,15.642c13.338,-0 25.621,-5.282 35.813,-14.922c12.485,-11.808 24.806,-31.207 10.03,-70.915c-11.837,-31.811 -13.808,-52.612 -6.987,-75.833c9.928,-33.802 50.23,-53.476 89.291,-53.476c2.701,0 5.369,0.1 8.02,0.3c-0.651,-3.935 -1.017,-7.936 -1.017,-12.038c-0,-36.113 26.226,-66.091 60.655,-71.959c-17.289,-14.489 -28.31,-36.247 -28.31,-60.556Z" style="fill:#fff;fill-rule:nonzero;"/></g></svg>