<svg viewBox="0 0 512 512" xmlns="http://www.w3.org/2000/svg" xml:space="preserve" style="fill-rule:evenodd;clip-rule:evenodd;stroke-linejoin:round;stroke-miterlimit:2">
  <path d="M418.51 110.013c0-28.077 14.655-52.736 36.73-66.708-5.052-.484-10.654-.717-15.822-.717-48.285 0-91.184 20.924-121.112 54.187 9.837 15.739 15.673 35.363 15.673 56.604 0 28.077-10.187 53.253-26.31 70.476-15.822-21.375-43.399-35.113-56.354-43.466-4.252-2.751-7.77-7.286-7.77-12.655 0-7.353 5.986-13.338 13.339-13.338 5.969 0 9.553 4.835 12.988 9.32 3.251 4.235 11.371 13.672 15.289 18.223 1.884 2.185 4.935 2.968 7.636 1.951l7.369-2.751-5.885-2.518s-5.836-12.821-7.936-18.056l19.007 9.52-.951 8.053 9.487-9.353c1.951-1.935 1.934-5.086-.05-6.97l-7.619-7.286c-5.269-6.219-5.903-15.439-10.021-24.726-5.952-13.504-14.122-21.424-14.122-21.424 0 9.854-3.301 16.423-3.301 16.423s-11.714-6.239-26.99-4.397c-14.027.088-27.103-8.346-32.509-21.765v.004l-.001-.005s-4.16 18.233 11.589 29.699c-.24.162-.478.323-.717.492-9.795 3.208-20.831.178-27.543-8.05 0 0-1.558 11.906 6.035 19.042 2.329 2.189 4.885 3.131 7.313 3.395-4.523 6.626-7.681 14.422-7.851 22.65-.484 22.658 6.62 31.405 22.041 47.501 2.614 2.727 3.685 6.185 3.685 8.903 0 6.952-5.619 12.588-12.571 12.588-3.535 0-7.632-1.923-10.254-4.232-18.017-15.871-32.831-44.97-32.831-77.248 0-21.191 5.802-40.765 15.623-56.488-29.928-33.329-72.844-54.303-121.178-54.303-5.169 0-10.804.233-15.856.717 22.075 13.972 36.73 38.631 36.73 66.708 0 24.309-11.021 46.067-28.31 60.556 34.429 5.868 60.655 35.846 60.655 71.959 0 4.102-.366 8.12-1.017 12.038 2.635-.2 5.319-.233 8.02-.3 39.164-.917 83.581 17.14 90.717 57.771 5.003 28.482 14.423 58.102 31.751 86.114 11.483 18.563 15.086 34.129.677 45.615-11.669 9.303-36.415 9.487-47.107-33.236 8.176.359 15.707 3.293 21.741 8.063l-24.829-47.479-23.087 48.351c5.706-4.858 12.893-8.043 20.803-8.81.145 14.712 2.638 33.036 12.581 43.115 9.465 9.593 22.158 15.642 34.93 15.642 13.338 0 25.621-5.282 35.813-14.922 12.485-11.808 24.806-31.207 10.03-70.915-11.837-31.811-13.808-52.612-6.987-75.833 9.928-33.802 50.23-53.476 89.291-53.476 2.701 0 5.369.1 8.02.3-.651-3.935-1.017-7.936-1.017-12.038 0-36.113 26.226-66.091 60.655-71.959-17.289-14.489-28.31-36.247-28.31-60.556Z" style="fill:#fff;fill-rule:nonzero"/>
</svg>
