<svg viewBox="0 0 512 512" xmlns="http://www.w3.org/2000/svg" xml:space="preserve" style="fill-rule:evenodd;clip-rule:evenodd;stroke-linejoin:round;stroke-miterlimit:2">
  <path d="M464.374 402.209c-30.714-23.996-2.879-82.544-2.879-82.544 55.669-142.052-40.648-213.613-57.116-222.94-33.529-18.99-113.28-37.597-153.541 13.505-11.387 14.453-7.581 32.402-2.34 44.946 13.49 32.282 49.753 61.309 80.835 64.698 8.863.99 15.319-1.042 19.691-6.134 13.894-16.175 6.568-58.729 2.564-73.764-1.087-4.094 1.35-8.301 5.452-9.396 1.182-.313 2.348-.264 3.472-.036 2.77.562 5.15 2.565 5.924 5.488 1.679 6.329 15.829 62.59-5.759 87.718-4.761 5.542-13.227 11.713-27.302 11.713-1.807 0-3.712-.105-5.707-.323-36.667-4.004-77.662-36.525-93.341-74.048-3.945-9.44-5.913-18.571-6.125-27.184-87.919 0-188.284 49.013-194.821 137.171-.21 2.829 1.529 5.437 4.221 6.329 2.693.9 5.654-.149 7.177-2.54 5.398-8.478 12.121-17.656 18.799-23.437.958 13.884 5.176 27.149 12.462 39.258 14.592 24.251 22.383 52.1 22.383 80.399l.14 52.236c.743 6.401 15.864 11.518 34.541 11.518 18.684 0 33.805-5.117 34.549-11.518l.139-33.901c0-8.901 3.712-17.405 10.235-23.465 6.524-6.059 15.266-8.487 24.167-8.487 5.521 0 16.82.008 17.48 0 8.541-.089 16.767 3.823 22.832 9.837 6.074 6.014 9.487 14.202 9.487 22.744l.139 33.271c.743 6.401 15.863 11.518 34.541 11.518 18.684 0 33.805-5.117 34.549-11.518l.14-29.282c0-86.923 63.697-125.711 71.266-130.31 37.56-22.82 20.875 46.334 20.875 46.334-24.955 77.744 32.634 113.258 32.634 113.258l.258-.299c.18.183.231.48.439.636 3.689 2.782 10.402.113 14.982-5.976 4.225-5.589 4.997-11.957 2.265-15.137l.293-.338Z" style="fill:#fff;fill-rule:nonzero"/>
</svg>
