<?xml version="1.0" encoding="UTF-8" standalone="no"?><!DOCTYPE svg PUBLIC "-//W3C//DTD SVG 1.1//EN" "http://www.w3.org/Graphics/SVG/1.1/DTD/svg11.dtd"><svg width="100%" height="100%" viewBox="0 0 512 512" version="1.1" xmlns="http://www.w3.org/2000/svg" xmlns:xlink="http://www.w3.org/1999/xlink" xml:space="preserve" xmlns:serif="http://www.serif.com/" style="fill-rule:evenodd;clip-rule:evenodd;stroke-linejoin:round;stroke-miterlimit:2;"><g><path d="M464.374,402.209c-30.714,-23.996 -2.879,-82.544 -2.879,-82.544c55.669,-142.052 -40.648,-213.613 -57.116,-222.94c-33.529,-18.99 -113.28,-37.597 -153.541,13.505c-11.387,14.453 -7.581,32.402 -2.34,44.946c13.49,32.282 49.753,61.309 80.835,64.698c8.863,0.99 15.319,-1.042 19.691,-6.134c13.894,-16.175 6.568,-58.729 2.564,-73.764c-1.087,-4.094 1.35,-8.301 5.452,-9.396c1.182,-0.313 2.348,-0.264 3.472,-0.036c2.77,0.562 5.15,2.565 5.924,5.488c1.679,6.329 15.829,62.59 -5.759,87.718c-4.761,5.542 -13.227,11.713 -27.302,11.713c-1.807,-0 -3.712,-0.105 -5.707,-0.323c-36.667,-4.004 -77.662,-36.525 -93.341,-74.048c-3.945,-9.44 -5.913,-18.571 -6.125,-27.184c-87.919,0 -188.284,49.013 -194.821,137.171c-0.21,2.829 1.529,5.437 4.221,6.329c2.693,0.9 5.654,-0.149 7.177,-2.54c5.398,-8.478 12.121,-17.656 18.799,-23.437c0.958,13.884 5.176,27.149 12.462,39.258c14.592,24.251 22.383,52.1 22.383,80.399l0.14,52.236c0.743,6.401 15.864,11.518 34.541,11.518c18.684,-0 33.805,-5.117 34.549,-11.518l0.139,-33.901c0,-8.901 3.712,-17.405 10.235,-23.465c6.524,-6.059 15.266,-8.487 24.167,-8.487c5.521,-0 16.82,0.008 17.48,-0c8.541,-0.089 16.767,3.823 22.832,9.837c6.074,6.014 9.487,14.202 9.487,22.744l0.139,33.271c0.743,6.401 15.863,11.518 34.541,11.518c18.684,-0 33.805,-5.117 34.549,-11.518l0.14,-29.282c-0,-86.923 63.697,-125.711 71.266,-130.31c37.56,-22.82 20.875,46.334 20.875,46.334c-24.955,77.744 32.634,113.258 32.634,113.258l0.258,-0.299c0.18,0.183 0.231,0.48 0.439,0.636c3.689,2.782 10.402,0.113 14.982,-5.976c4.225,-5.589 4.997,-11.957 2.265,-15.137l0.293,-0.338Z" style="fill:#fff;fill-rule:nonzero;"/></g></svg>