<svg viewBox="0 0 512 512" xmlns="http://www.w3.org/2000/svg" xml:space="preserve" style="fill-rule:evenodd;clip-rule:evenodd;stroke-linejoin:round;stroke-miterlimit:2">
  <path d="M445.579 217.233C373.275 86.848 217.303 86.471 171.44 129.47c.832 1.78 1.68 3.617 2.556 5.611 9.885 22.448 23.5 62.512 27.457 95.67 2.908-8.269 5.158-13.051 11.778-21.081 8.569-10.445 23.951-11.943 34.37-3.345 10.404 8.601 11.905 24.043 3.335 34.488-4.092 4.949-17.117 9.089-15.707 18.903-.042 1.332.552 2.814 1.104 4.377 21.603-1.971 40.715-12.42 53.937-27.973 3.535-1.001 11.747-3.134 22.774-4.879-.435-1.096-2.637-4.293-3.998-14.378-.468-4.751-.185-9.537.676-14.327 2.873-12.926 9.506-24.349 21.154-34.458 10.176-8.873 25.602-7.79 34.436 2.425 11.359 13.104 5.463 32.974-8.623 38.213-6.773 3.158-7.003 3.339-9.598 5.701-2.549 2.964-2.102 3.562-2.519 4.505-.456.907-.766 5.267.991 9.908 28.559.383 60.485 8.327 77.281 37.929 38.158 67.295 5.162 94.291-17.208 111.294-13.335 10.136-38.79 20.367-66.491 7.566-10.555-4.878-30.464-16.997-33.764-45.622-2.151-18.663 8.712-34.795 10.799-37.787 11.732-14.97 39.05-20.724 60.629-2.967 11.94 9.825 9.976 28.733 6.759 35.638-10.598 22.745-36.874 13.997-42.685 10.25-3.923-2.469-8.033 2.827-4.764 6.028 3.557 3.502 6.727 7.47 15.974 10.305 5.911 1.53 13.996 2.587 22.381-1.093 37.696-16.004 34.018-65.2-1.142-81.694-36.97-17.765-84.738 12.41-82.684 62.261 1.335 10.8 1.068 37.342 41.752 59.106 10.183 5.448 21.25 7.674 31.331 7.958 25.473.719 39.955-4.766 55.894-13.242 19.048-10.13 91.396-59.492 25.954-177.527Zm-204.127 62.908-5.119-5.914c-3.306-5.481-9.004-12.139-5.288-22.385 4.962-10.204 10.957-10.413 15.127-15.163 6.53-7.484 5.784-18.872-1.67-25.427-7.465-6.56-18.817-5.815-25.349 1.674-2.016 2.318-5.237 5.813-8.451 11.815-11.003 19.769-8.958 42.632 9.045 57.883-.369.14-.777.22-1.146.361-2.827.89-24.308 8.959-39.109 36.666-2.06 3.384-1.03 7.819 2.337 9.925 3.377 2.105 7.82 1.069 9.925-2.32 14.223-25.766 36.459-33.372 45.624-34.009 6.532-.606 9.144-8.859 4.085-13.1l-.011-.006Zm-96.339-174.756c-1.95.006-3.478 1.809-4.426 5.796-22.52 95.109-68.245 135.015-95.518 150.904-3.733 2.17-5.895 6.297-5.57 10.608.325 4.32 3.083 8.07 7.097 9.662 47.092 18.655 107.898 29.318 142.175-8.378 24.376-26.816-26.45-168.592-43.758-168.592Zm181.83 150.118c13.735-2.753 15.12.827 19.313-2.76 3.097-2.668 3.463-7.361.807-10.473v-.01l-4.073-6.687c-.468-1.184-4.127-8.468-3.929-13.036-.795-9.192 6.574-16.449 14.603-19.368 11.737-4.335 15.526-18.81 7.779-28.328-6.266-7.71-17.574-8.866-25.267-2.565l-1.682 1.374c-2.989 2.457-5.943 5.397-8.611 8.872-14.243 17.838-15.776 40.735-.522 58.569-2.007.396-27.485 4.088-45.921 29.845-2.589 2.994-2.306 7.538.664 10.171 2.996 2.638 7.55 2.354 10.183-.64l.858-.977c16.608-21.14 33.379-23.696 35.798-23.987Z" style="fill:#fff;fill-rule:nonzero"/>
</svg>
