<?xml version="1.0" encoding="UTF-8" standalone="no"?><!DOCTYPE svg PUBLIC "-//W3C//DTD SVG 1.1//EN" "http://www.w3.org/Graphics/SVG/1.1/DTD/svg11.dtd"><svg width="100%" height="100%" viewBox="0 0 512 512" version="1.1" xmlns="http://www.w3.org/2000/svg" xmlns:xlink="http://www.w3.org/1999/xlink" xml:space="preserve" xmlns:serif="http://www.serif.com/" style="fill-rule:evenodd;clip-rule:evenodd;stroke-linejoin:round;stroke-miterlimit:2;"><g><path d="M295.709,339.748l41.683,54.659l-7.151,39.232l-55.444,-0c-5.707,-0 -10.334,-4.627 -10.334,-10.334c-0,-3.915 2.21,-7.492 5.712,-9.243l5.377,-2.687l-7.892,-47.352c10.525,-6.661 19.985,-14.853 28.049,-24.275Zm-125.966,39.16l-14.765,24.199l15.223,30.446l55.449,-0c-0,-8.727 -4.108,-16.944 -11.09,-22.18l19.096,-32.449c-10.204,2.731 -20.919,4.198 -31.975,4.198c-10.84,-0 -21.583,-1.441 -31.938,-4.214Zm188.145,-166.608c8.352,4.058 27.637,10.086 47.21,5.16c4.201,-1.057 14.506,-5.585 20.875,-14.465c8.015,-11.171 5.951,-27.108 -4.868,-35.595l-12.476,-22.18l0,-22.181l-8.316,-4.159l-45.518,-33.948c-9.958,-7.986 -19.36,-8.994 -28.259,-1.359l-34.381,32.265c-2.064,-0.259 -4.147,-0.421 -6.246,-0.421c-6.016,-0 -12.129,1.081 -18.077,3.368c-8.677,3.327 -16.261,8.982 -21.916,16.33l-59.082,76.643l-22.271,-0c-42.501,-0 -76.954,34.453 -76.954,76.954c-0,17.548 5.886,33.711 15.776,46.651l-23.581,42.006c-4.214,7.499 -4.894,16.469 -1.885,24.509l11.907,31.758l58.235,-0l0,-0.083c-0.028,-8.733 -4.145,-16.939 -11.132,-22.18l27.808,-45.552c12.998,4.485 41.326,11.134 72.774,0.395c32.292,-11.026 49.216,-31.951 58.195,-44.754l68.563,89.911l-5.407,2.703c-3.479,1.747 -5.683,5.309 -5.683,9.205c0,5.669 4.602,10.272 10.272,10.286l60.994,0.069l5.67,-29.859c0.846,-4.449 0.402,-9.024 -1.288,-13.224l-70.939,-178.253Z" style="fill:#fff;fill-rule:nonzero;"/></g></svg>