<?xml version="1.0" encoding="UTF-8" standalone="no"?><!DOCTYPE svg PUBLIC "-//W3C//DTD SVG 1.1//EN" "http://www.w3.org/Graphics/SVG/1.1/DTD/svg11.dtd"><svg width="100%" height="100%" viewBox="0 0 512 512" version="1.1" xmlns="http://www.w3.org/2000/svg" xmlns:xlink="http://www.w3.org/1999/xlink" xml:space="preserve" xmlns:serif="http://www.serif.com/" style="fill-rule:evenodd;clip-rule:evenodd;stroke-linejoin:round;stroke-miterlimit:2;"><g><path d="M372.907,402.268c-4.839,-1.865 -7.258,-7.778 -5.465,-12.617c2.061,-6.666 8.871,-15.287 10.502,-17.544c26.738,-36.809 24.947,-68.422 15.251,-86.218c-6.523,-11.917 -16.452,-22.723 -49.857,-36.863c-22.509,-9.553 -31.737,-18.011 -34.373,-25.646c15.125,-0.359 27.275,-12.687 27.275,-27.903c0,-9.856 -5.125,-18.495 -12.831,-23.476c7.291,-20.928 11.538,-37.293 11.538,-57.471c0,-49.673 -33.441,-87.915 -73.317,-87.915c-44.241,-0 -75.171,41.55 -75.171,87.916c-0,19.27 2.276,36.613 11.935,57.634c-7.58,4.999 -12.58,13.567 -12.58,23.316c0,14.318 10.771,26.093 24.641,27.722c-1.11,13.046 -8.458,31.504 -37.437,36.451c-40.931,6.989 -58.996,29.516 -58.996,58.386c0,25.787 17.76,33.26 17.634,54.819c-0.055,9.731 -7.366,19.265 -19.372,18.387c-0,0 2.061,5.431 8.746,6.774c16.899,3.37 27.526,-10.448 27.185,-26.253c-0.628,-29.875 -21.058,-45.841 -2.723,-69.641c15.483,-20.125 43.923,-12.723 71.612,-30.071c-11.147,12.239 -25.287,32.902 -25.287,59.14c-0,19.377 10.686,36.559 20.613,52.436c10.301,16.474 24.608,36.206 22.71,56.72c-1.328,14.336 -13.385,25.68 -27.876,25.68c-15.054,0 -27.293,-11.81 -28.063,-26.667c-9.713,3.585 -2.742,46.021 33.888,46.021c29.498,0 45.644,-25.34 45.644,-47.796c0,-52.598 -38.655,-74.353 -32.884,-115.661c2.671,-19.013 24.355,-43.871 36.183,-65.93c3.459,12.043 9.946,21.863 16.379,30.967c6.452,9.105 12.831,17.526 16.112,26.756c12.205,34.515 -28.513,66.415 -18.029,106.216c12.957,49.265 60.591,35.43 61.882,35.036c-16.487,-3.493 -30.268,-15.787 -35.663,-31.72c-6.038,-17.885 0.825,-37.132 9.356,-53.028c6.63,-12.313 12.904,-24.821 12.904,-39.14c-0,-23.674 -9.445,-39.676 -20.841,-59.909c-1.846,-3.279 -3.297,-6.612 -4.481,-9.927c22.169,13.118 55.519,10.662 70.214,37.903c10.537,19.568 -5.125,48.799 -11.524,61.218c-4.069,7.903 -12.15,19.194 -12.061,34.122c0.037,7.867 6.829,18.639 20.019,18.639c5.376,-0 10.644,-1.828 14.211,-5.968c1.594,-1.864 3.763,-5.017 3.799,-7.544c-2.263,1.878 -6.976,4.334 -11.402,2.649Zm-159.173,-191.664c-8.351,-0 -15.125,-6.775 -15.125,-15.125c0,-4.695 2.132,-8.89 5.483,-11.648l15.788,25.465c-1.881,0.842 -3.96,1.308 -6.146,1.308Zm88.009,-1.504l15.753,-25.628c3.619,2.742 5.949,7.097 5.949,12.007c0,8.35 -6.774,15.125 -15.124,15.125c-2.349,-0 -4.588,-0.537 -6.578,-1.504Z" style="fill:#fff;fill-rule:nonzero;"/></g></svg>