<svg viewBox="0 0 512 512" xmlns="http://www.w3.org/2000/svg" xml:space="preserve" style="fill-rule:evenodd;clip-rule:evenodd;stroke-linejoin:round;stroke-miterlimit:2">
  <path d="M373 402c-5-2-7-8-6-12 3-7 9-16 11-18 27-37 25-68 15-86-6-12-16-23-50-37-22-10-31-18-34-26a28 28 0 0 0 14-51c8-21 12-37 12-57 0-50-33-88-73-88-45 0-76 41-76 88 0 19 3 36 12 57a28 28 0 0 0 12 51c-1 13-8 32-37 37-41 7-59 29-59 58 0 26 18 33 18 55 0 10-8 19-20 18 0 0 2 6 9 7 17 3 28-10 27-26 0-30-21-46-3-70 16-20 44-13 72-30a90 90 0 0 0-25 59c0 20 11 37 20 53 11 16 25 36 23 56-1 15-13 26-28 26s-27-12-28-27c-10 4-3 46 34 46 30 0 46-25 46-47 0-53-39-75-33-116 3-19 24-44 36-66 3 12 10 22 16 31 7 9 13 17 17 27 12 34-29 66-19 106 13 49 61 35 62 35-16-4-30-16-35-32-6-18 1-37 9-53 7-12 13-25 13-39 0-24-9-40-21-60l-4-10c22 13 55 11 70 38 10 20-5 49-12 61-4 8-12 20-12 34 0 8 7 19 20 19 6 0 11-2 15-6l3-7c-2 1-7 4-11 2ZM214 211a15 15 0 0 1-10-27l16 25-6 2Zm88-2 15-26c4 3 6 8 6 12a15 15 0 0 1-21 14Z" style="fill:#fff;fill-rule:nonzero"/>
</svg>
