<svg viewBox="0 0 512 512" xmlns="http://www.w3.org/2000/svg" xml:space="preserve" style="fill-rule:evenodd;clip-rule:evenodd;stroke-linejoin:round;stroke-miterlimit:2">
  <path d="m477 176-29-21c-73-58-135 27-135 27-6-75-148-87-148-87 32 35 37 54 37 63a68 68 0 0 1 65 64h-7l-1-9c-6-29-32-49-60-49-89 22-164-10-164-10 35 112 157 128 157 128 0 5-111 101-111 101l116 34 8-61c175 18 181-116 181-116 14-53 49-62 62-64h29Zm-78-11c-4 0-7-4-7-8s3-8 7-8c5 0 8 4 8 8s-3 8-8 8Z" style="fill:#fff;fill-rule:nonzero"/>
</svg>
