<?xml version="1.0" encoding="UTF-8" standalone="no"?><!DOCTYPE svg PUBLIC "-//W3C//DTD SVG 1.1//EN" "http://www.w3.org/Graphics/SVG/1.1/DTD/svg11.dtd"><svg width="100%" height="100%" viewBox="0 0 512 512" version="1.1" xmlns="http://www.w3.org/2000/svg" xmlns:xlink="http://www.w3.org/1999/xlink" xml:space="preserve" xmlns:serif="http://www.serif.com/" style="fill-rule:evenodd;clip-rule:evenodd;stroke-linejoin:round;stroke-miterlimit:2;"><g><path id="XMLID_4_" d="M477.485,176.223l-29.391,-21.518c-72.604,-57.559 -134.886,26.942 -134.886,26.942c-5.948,-74.878 -148.006,-86.95 -148.006,-86.95c31.665,34.99 36.739,54.059 36.739,62.807c30.441,1.224 57.383,23.093 63.506,54.409c0.7,3.149 1.05,6.473 1.225,9.797l-6.648,0.35c-0.175,-2.974 -0.525,-5.948 -1.05,-8.748c-5.598,-29.216 -31.491,-49.335 -60.182,-48.985c-89.224,21.344 -164.277,-10.672 -164.277,-10.672c35.339,112.142 157.104,128.237 157.104,128.237c0.175,5.249 -110.393,101.296 -110.393,101.296l115.641,34.115c0,-2.974 8.398,-61.757 8.398,-61.757c174.424,18.02 180.547,-115.641 180.547,-115.641c14.171,-52.485 49.511,-62.107 62.282,-63.682l-0,0.175l29.391,0l0,-0.175Zm-78.027,-11.371c-4.374,-0 -7.873,-3.499 -7.873,-7.873c0,-4.374 3.499,-7.873 7.873,-7.873c4.374,0 7.873,3.499 7.873,7.873c-0,4.374 -3.499,7.873 -7.873,7.873Z" style="fill:#fff;fill-rule:nonzero;"/></g></svg>