<svg viewBox="0 0 512 512" xmlns="http://www.w3.org/2000/svg" xml:space="preserve" style="fill-rule:evenodd;clip-rule:evenodd;stroke-linejoin:round;stroke-miterlimit:2">
  <path d="M442 316v-3c0-62-51-112-115-112h-50l-8 4c-23 13-47 24-68 31l-4-8c20-6 44-16 68-30 61-35 101-80 89-101-12-20-71-9-132 27-42 24-74 53-86 75l-15 4c-9 2-19 6-29 11-47 25-70 73-51 108 14 27 49 38 85 31l1 1-6 11c-29 3-53 28-53 59l4-3-4 4h148c0-35 29-64 64-64v8c-31 0-56 25-56 55h107c34-1 64-16 84-40 6 5 15 8 24 8 21 0 38-17 38-39 1-20-15-36-35-37Zm-317-48c-10 0-18-8-18-18 0-9 8-17 18-17 9 0 17 8 17 17 0 10-8 18-17 18Z" style="fill:#fff;fill-rule:nonzero"/>
</svg>
