<?xml version="1.0" encoding="UTF-8" standalone="no"?><!DOCTYPE svg PUBLIC "-//W3C//DTD SVG 1.1//EN" "http://www.w3.org/Graphics/SVG/1.1/DTD/svg11.dtd"><svg width="100%" height="100%" viewBox="0 0 512 512" version="1.1" xmlns="http://www.w3.org/2000/svg" xmlns:xlink="http://www.w3.org/1999/xlink" xml:space="preserve" xmlns:serif="http://www.serif.com/" style="fill-rule:evenodd;clip-rule:evenodd;stroke-linejoin:round;stroke-miterlimit:2;"><g><path d="M442.182,315.528l0,-2.81c0,-61.989 -51.453,-111.686 -114.847,-111.686c-1.405,-0 -22.829,-0 -50.224,-0.527c-2.809,1.756 -5.443,3.161 -8.253,4.566c-22.829,13.17 -46.536,23.707 -67.96,30.555c-1.405,-2.809 -2.81,-5.092 -4.039,-7.375c20.546,-5.971 44.253,-16.332 67.96,-30.029c61.462,-35.121 101.677,-80.252 89.384,-101.15c-11.766,-20.546 -71.121,-9.131 -132.232,26.517c-41.795,24.234 -73.755,53.385 -85.697,75.862c-5.092,0.527 -10.009,1.756 -15.102,3.161c-9.658,2.283 -19.668,5.971 -29.151,10.888c-46.887,25.112 -69.716,73.404 -50.926,108.525c14.049,26.868 48.819,37.756 84.819,30.556l0.878,1.756c-2.283,3.161 -4.039,6.849 -5.444,10.536c-29.678,3.161 -52.858,28.273 -52.858,58.829l3.161,-3.161l-3.688,4.566l46.536,-0.527l101.677,-0c-0,-34.595 28.799,-63.394 63.394,-63.394l-0,8.253c-30.556,0 -55.141,24.585 -55.141,54.614l106.594,0c33.716,-1.405 63.745,-16.331 83.94,-40.038c6.322,5.092 14.576,8.253 23.707,8.253c21.424,0 38.809,-17.385 38.809,-38.809c0.352,-20.019 -15.277,-36.526 -35.297,-37.931Zm-317.673,-47.765c-9.659,-0 -17.385,-7.727 -17.385,-17.386c-0,-9.658 7.726,-17.385 17.385,-17.385c9.658,0 17.385,7.727 17.385,17.385c-0,9.659 -7.903,17.386 -17.385,17.386Z" style="fill:#fff;fill-rule:nonzero;"/></g></svg>