<svg viewBox="0 0 512 512" xmlns="http://www.w3.org/2000/svg" xml:space="preserve" style="fill-rule:evenodd;clip-rule:evenodd;stroke-linejoin:round;stroke-miterlimit:2">
  <path d="M449 207C412 127 268 68 183 92l-12 3h5c59 0 111 54 121 125 6 37-1 74-19 103a106 106 0 0 1-90 54h-8l17 19c38 35 95 40 138 10 31-21 71-44 110-48 6 0 11-4 14-10 16-40 12-92-10-141ZM200 363c27-4 50-21 66-47 16-27 22-60 17-94-9-64-55-113-107-113a84 84 0 0 0-43 12c46-2 87 39 95 94 4 28-1 55-14 77a81 81 0 0 1-68 42c-11 0-22-3-31-7 22 26 53 40 85 36Zm-46-44c20-3 37-15 48-34 12-19 16-44 12-68-6-47-40-82-78-82a60 60 0 0 0-38 14c28 2 52 28 56 61 6 39-15 74-47 79a48 48 0 0 1-19-1c17 22 41 35 66 31Zm-49-41c26-4 44-33 39-66-4-30-26-53-50-53h-6l-5 2c11 6 19 19 22 35 3 25-9 47-28 50h-4c-7 0-15-4-21-10 8 27 30 46 53 42Zm-29-39c15-2 25-21 22-42-3-20-16-34-30-34h-3c-15 2-24 21-21 42 3 20 17 36 32 34Z" style="fill:#fff;fill-rule:nonzero"/>
</svg>
