<?xml version="1.0" encoding="UTF-8" standalone="no"?><!DOCTYPE svg PUBLIC "-//W3C//DTD SVG 1.1//EN" "http://www.w3.org/Graphics/SVG/1.1/DTD/svg11.dtd"><svg width="100%" height="100%" viewBox="0 0 512 512" version="1.1" xmlns="http://www.w3.org/2000/svg" xmlns:xlink="http://www.w3.org/1999/xlink" xml:space="preserve" xmlns:serif="http://www.serif.com/" style="fill-rule:evenodd;clip-rule:evenodd;stroke-linejoin:round;stroke-miterlimit:2;"><g><path d="M448.533,207.148c-36.878,-80.14 -180.933,-138.876 -266.015,-115.549c-3.985,1.097 -7.536,2.489 -11.088,3.879c1.426,-0.061 2.849,-0.306 4.277,-0.306c59.033,-0 111.278,53.517 121.53,124.503c5.376,37.174 -1.368,73.887 -19,103.383c-17.916,29.968 -44.869,48.934 -75.906,53.409c-4.594,0.673 -9.27,1.01 -13.901,1.01c-2.798,-0 -5.553,-0.235 -8.323,-0.467c5.35,7.075 10.901,13.297 16.658,18.698c38.044,35.666 95.621,39.812 138.46,10.091c30.479,-21.133 70.878,-43.507 109.415,-47.462c6.17,-0.636 11.53,-4.598 13.93,-10.317c16.791,-39.905 12.35,-92.193 -10.037,-140.872Zm-248.206,155.433c26.776,-3.866 50.166,-20.461 65.861,-46.721c15.97,-26.739 22.072,-60.182 17.15,-94.175c-9.253,-64.124 -55.537,-112.476 -107.63,-112.476c-3.935,-0 -7.912,0.281 -11.886,0.85c-10.817,1.562 -21.029,5.298 -30.448,10.807c45.761,-1.933 86.987,39.045 94.865,93.723c4.046,27.974 -1.041,55.627 -14.324,77.848c-13.573,22.696 -34.027,37.071 -57.606,40.465c-3.524,0.507 -7.06,0.76 -10.555,0.76c-10.817,-0 -21.332,-2.412 -31.162,-6.772c22.553,25.936 53.478,40.366 85.735,35.691Zm-46.02,-43.574c19.315,-2.782 36.207,-14.78 47.557,-33.774c11.641,-19.466 16.068,-43.84 12.478,-68.633c-6.733,-46.647 -40.265,-81.816 -78.006,-81.816c-2.839,-0 -5.691,0.198 -8.557,0.608c-11.088,1.605 -21.099,6.315 -29.734,13.229c27.828,2.449 51.6,28.153 56.441,61.759c5.566,38.532 -15.822,73.627 -47.653,78.225c-2.343,0.343 -4.692,0.51 -7.018,0.51c-4.046,-0 -8.008,-0.597 -11.885,-1.551c16.599,22.259 40.988,35.123 66.377,31.443Zm-48.984,-40.82c26.089,-3.771 43.473,-33.511 38.744,-66.296c-4.361,-30.216 -26.034,-53.002 -50.41,-53.002c-1.824,0 -3.66,0.133 -5.509,0.398c-1.607,0.235 -3.102,0.837 -4.649,1.263c10.57,6.643 18.782,19.652 21.059,35.45c3.578,24.732 -8.695,47.051 -27.338,49.75c-1.277,0.179 -2.537,0.275 -3.797,0.275c-7.899,0 -15.357,-3.653 -21.551,-9.615c7.993,26.76 29.87,45.108 53.451,41.777Zm-29.116,-39.384c14.832,-2.146 24.428,-20.903 21.412,-41.802c-2.824,-19.513 -15.558,-34.23 -29.611,-34.23c-0.917,-0 -1.837,0.061 -2.771,0.198c-14.83,2.152 -24.44,20.909 -21.426,41.814c2.977,20.488 17.657,36.197 32.396,34.02Z" style="fill:#fff;fill-rule:nonzero;"/></g></svg>