<svg viewBox="0 0 512 512" xmlns="http://www.w3.org/2000/svg" xml:space="preserve" style="fill-rule:evenodd;clip-rule:evenodd;stroke-linejoin:round;stroke-miterlimit:2">
  <path d="M215 447h-24l-7-1-6 1c-54 0-106-43-129-87l-10-24a138 138 0 0 1 5-95c7-21 21-42 46-62 44-33 25-83 25-83l16-2c42 0 77 42 82 80v10c0 15-5 27-14 38a142 142 0 0 0 16 225Zm264-167v1c0 11-8 19-19 19h-33l-15 13-5 3-5 3-4 2c-5 3-10 4-15 4h-6c-15-2-22-11-29-24h-1c-4-6-9-9-12-10-12-8-26-12-40-12l1 7a69 69 0 0 1 42 121 41 41 0 0 1 34 40H238a128 128 0 0 1-75-106c-2-8-2-16-2-23 0-33 37-101 92-116l47-18c42-18 29-42 40-58 13-21 31-22 31-22l23-29 9-10c6 0 11 23 12 41 48 23 55 73 55 92 0 21-11 32-27 36-7 2-18 2-27 2h-20l13 26h51c6 0 10 2 14 6 2 2 4 4 4 7l1 5Zm-81-124c0 8 6 14 13 14 8 0 14-6 14-14 0-7-6-13-14-13-7 0-13 6-13 13Z" style="fill:#fff;fill-rule:nonzero"/>
</svg>
