<?xml version="1.0" encoding="UTF-8" standalone="no"?><!DOCTYPE svg PUBLIC "-//W3C//DTD SVG 1.1//EN" "http://www.w3.org/Graphics/SVG/1.1/DTD/svg11.dtd"><svg width="100%" height="100%" viewBox="0 0 512 512" version="1.1" xmlns="http://www.w3.org/2000/svg" xmlns:xlink="http://www.w3.org/1999/xlink" xml:space="preserve" xmlns:serif="http://www.serif.com/" style="fill-rule:evenodd;clip-rule:evenodd;stroke-linejoin:round;stroke-miterlimit:2;"><g><path d="M214.907,446.651l-24.338,-0c-2.293,-0 -4.762,-0.177 -6.879,-0.177l-0.176,0c-1.94,0.177 -3.88,0.177 -5.82,0.177c-53.262,-0 -105.819,-42.681 -128.923,-86.772c-3.88,-7.584 -7.231,-15.696 -9.876,-23.986c-3.88,-12.698 -5.997,-26.278 -5.997,-40.387c0,-19.224 3.88,-37.566 10.935,-54.144c7.231,-21.164 21.164,-42.681 46.56,-61.904c43.739,-33.157 24.339,-83.421 24.339,-83.421c5.643,-1.058 11.111,-1.587 16.578,-1.587c41.269,-0 76.895,41.975 81.481,79.364c0.529,3.351 0.705,6.702 0.705,10.229c0,14.815 -5.82,26.984 -14.109,38.448c-17.108,15.167 -30.688,34.214 -38.8,55.731c-3.351,8.642 -5.644,17.636 -7.231,26.984c-1.235,7.584 -1.94,15.52 -1.94,23.633c-0.177,49.029 25.22,92.768 63.491,117.812Zm264.195,-166.489l-0,1.235c-0,10.405 -8.466,18.871 -18.871,18.871l-32.981,-0c-4.938,3.88 -9.876,8.289 -15.167,12.345c-1.587,1.235 -3.175,2.293 -4.762,3.351c-1.763,1.411 -3.527,2.469 -5.467,3.527c-1.411,0.53 -2.822,1.411 -4.057,1.94c-4.761,2.117 -9.7,3.528 -14.991,3.528l-1.058,-0c-1.587,-0 -3.351,-0.177 -4.938,-0.353c-14.991,-1.587 -22.222,-10.582 -28.924,-23.28c-0.176,-0.177 -0.353,-0.353 -0.529,-0.529c-4.762,-5.644 -8.995,-8.642 -12.522,-10.053c-11.64,-7.407 -25.396,-11.993 -40.035,-12.169l1.058,7.231c36.861,1.234 66.49,31.393 66.49,68.606c0,20.987 -9.7,39.858 -24.515,52.38c11.64,1.764 21.517,8.642 27.69,17.989c1.94,2.999 3.527,6.526 4.762,10.053c1.234,3.704 1.94,7.937 1.94,11.993l-134.214,-0c-28.924,-13.757 -53.086,-37.566 -65.608,-67.019c-5.291,-12.169 -8.642,-25.573 -9.876,-39.329c-1.235,-7.407 -1.764,-15.168 -1.764,-22.751c-0,-32.804 36.86,-100.705 91.886,-116.225c0,0 41.975,-16.049 46.913,-17.989c42.681,-17.637 29.806,-41.093 40.564,-57.848c12.875,-20.282 30.511,-21.869 30.511,-21.869l23.81,-28.924l8.289,-9.7c6.349,0 11.463,22.398 12.345,41.269c48.324,22.575 55.379,72.134 55.379,91.71c-0,21.164 -11.111,31.57 -27.513,35.802c-7.407,1.764 -17.637,2.293 -26.984,2.293c-10.935,0 -20.282,-0.705 -20.282,-0.705c0,1.587 12.875,26.631 12.875,26.631l35.625,-0c2.117,-0.177 4.586,-0.353 6.702,-0.353c2.117,0 4.233,0.176 6.526,0.353l2.822,-0c5.291,-0 10.053,2.293 13.58,5.82c2.293,2.116 3.703,4.233 4.056,6.702c0.882,1.94 1.235,3.703 1.235,5.467Zm-80.952,-123.808c0,7.231 5.82,13.227 13.228,13.227c7.407,0 13.227,-5.82 13.227,-13.227c-0,-7.231 -5.82,-13.228 -13.227,-13.228c-7.408,0 -13.404,5.997 -13.228,13.228Z" style="fill:#fff;fill-rule:nonzero;"/></g></svg>