<svg viewBox="0 0 512 512" xmlns="http://www.w3.org/2000/svg" xml:space="preserve" style="fill-rule:evenodd;clip-rule:evenodd;stroke-linejoin:round;stroke-miterlimit:2">
  <path d="m357 159 27-23a141 141 0 0 0-134 0l27 23h80ZM213 273c-44 0-81 37-81 81v8c1 17 15 31 32 31s31-14 31-31v-8c0-10 8-18 18-18 18 0 32-14 32-32 0-17-14-31-32-31Zm210-1c-17 0-31 14-31 32v58a31 31 0 0 0 62 0v-59c1-17-13-31-31-31Zm56 17c0-8-3-16-6-22-4 3-9 5-14 5 7 9 12 20 12 31v10c5-7 8-15 8-24Zm-218 15c0 11-3 20-8 27a293 293 0 0 0 123 2v-29c0-12 4-23 11-31H250c6 9 11 19 11 31Zm-12-31c1 0 0 0 0 0Zm217-24c0-5-3-9-8-9h-1c-6-39-27-73-59-94l-31 26c17 21 29 44 36 68h-17c-7-23-20-46-38-64h-60c-18 19-30 41-38 64h-17c7-24 18-46 35-66l-33-28c-30 22-53 55-59 94h-2c-4 0-8 4-8 9 0 4 4 8 8 8h284c5 0 8-4 8-8Zm-295 17c-9-1-16-8-16-17v-16c0-34-27-61-61-61s-61 27-61 61v16c0 8 7 16 16 16h44c4 20 15 37 32 49 9-21 26-37 46-48ZM68 221a10 10 0 1 1 0-20c6 0 10 4 10 10s-4 10-10 10Z" style="fill:#fff;fill-rule:nonzero"/>
</svg>
