<?xml version="1.0" encoding="UTF-8" standalone="no"?><!DOCTYPE svg PUBLIC "-//W3C//DTD SVG 1.1//EN" "http://www.w3.org/Graphics/SVG/1.1/DTD/svg11.dtd"><svg width="100%" height="100%" viewBox="0 0 512 512" version="1.1" xmlns="http://www.w3.org/2000/svg" xmlns:xlink="http://www.w3.org/1999/xlink" xml:space="preserve" xmlns:serif="http://www.serif.com/" style="fill-rule:evenodd;clip-rule:evenodd;stroke-linejoin:round;stroke-miterlimit:2;"><g><path d="M357.101,158.767l-0,0.36l26.984,-22.667c-20.508,-10.973 -42.995,-17.09 -67.461,-17.09c-24.465,0 -47.132,6.117 -66.74,16.73l26.984,22.667l80.233,0Zm-143.736,114.233c-44.434,0 -80.952,36.519 -80.952,80.953l-0,8.095c0.359,17.09 14.211,30.582 31.301,30.582c17.09,-0 30.942,-13.492 31.302,-30.582l-0,-8.095c-0,-10.254 8.095,-18.17 18.169,-18.17c17.45,0 31.662,-14.211 31.662,-31.661c-0,-17.45 -14.032,-31.122 -31.482,-31.122Zm210.117,-0.72c-17.45,0 -31.662,14.212 -31.662,31.662l0,58.286c0.72,16.73 14.212,30.222 31.302,30.222c17.09,-0 30.582,-13.492 31.302,-30.222l-0,-58.826c0.359,-17.27 -13.852,-31.122 -30.942,-31.122Zm55.407,16.371c0,-7.736 -2.518,-15.291 -6.116,-21.587c-3.958,2.878 -8.455,4.677 -13.852,4.677c7.376,8.815 11.693,19.788 11.693,31.661l0,9.894c5.757,-6.836 8.275,-15.471 8.275,-24.645Zm-217.672,15.651c-0,10.254 -3.238,19.248 -8.455,26.984c20.868,4.677 42.275,7.375 64.222,7.375c20.508,0 39.757,-2.158 58.826,-6.116l-0,-28.783c-0,-11.693 4.317,-22.667 11.333,-30.582l-137.619,-0c6.836,8.455 11.693,19.069 11.693,31.122Zm-12.053,-30.942c0.36,-0 0,-0.36 0,-0.36l0,0.36Zm217.312,-24.826c0,-4.317 -3.597,-8.455 -8.095,-8.455l-1.079,0c-6.117,-39.037 -27.704,-73.037 -58.826,-94.444l-31.661,26.624c17.45,20.508 29.503,43.355 36.519,68.18l-17.09,0c-7.736,-23.386 -20.508,-46.053 -38.678,-64.582l-59.185,0c-18.169,18.889 -30.582,40.836 -38.677,64.582l-17.09,0c7.016,-24.106 18.529,-46.772 35.799,-66.381l-33.281,-28.063c-30.582,21.947 -52.889,55.407 -58.825,94.444l-2.159,0c-4.317,0 -8.095,3.598 -8.095,8.095c-0,4.318 3.598,8.096 8.095,8.096l283.873,-0c4.858,-0 8.455,-3.778 8.455,-8.096Zm-295.386,17.81c-8.815,-1.079 -16.011,-8.455 -16.011,-17.81l0,-16.01c0,-33.64 -26.984,-60.984 -60.984,-60.984c-33.64,-0 -60.984,26.984 -60.984,60.984l-0,16.01c-0,8.815 7.375,16.011 16.01,16.011l44.075,-0c3.957,20.508 15.291,37.238 31.661,49.291c9.354,-20.868 25.725,-37.238 46.233,-47.492Zm-103.26,-45.154c-5.396,0 -10.254,-4.317 -10.254,-10.254c0,-5.396 4.318,-10.254 10.254,-10.254c5.937,0 10.254,4.318 10.254,10.254c-0.179,5.757 -4.497,10.254 -10.254,10.254Z" style="fill:#fff;fill-rule:nonzero;"/></g></svg>