<?xml version="1.0" encoding="UTF-8" standalone="no"?><!DOCTYPE svg PUBLIC "-//W3C//DTD SVG 1.1//EN" "http://www.w3.org/Graphics/SVG/1.1/DTD/svg11.dtd"><svg width="100%" height="100%" viewBox="0 0 512 512" version="1.1" xmlns="http://www.w3.org/2000/svg" xmlns:xlink="http://www.w3.org/1999/xlink" xml:space="preserve" xmlns:serif="http://www.serif.com/" style="fill-rule:evenodd;clip-rule:evenodd;stroke-linejoin:round;stroke-miterlimit:2;"><g><path d="M439.557,193.057l0,36.66c0,9.165 -7.498,16.665 -16.664,16.665l-109.15,-0c-5.061,-0 -9.165,4.103 -9.165,9.165c0,5.062 4.104,9.165 9.165,9.165l99.153,0c8.282,0 14.998,6.715 14.998,14.998c-0,8.283 -6.716,14.998 -14.998,14.998l-213.301,-0c-21.078,0.251 -38.674,17.047 -38.674,38.157c0,21.11 15.929,38.248 37.007,38.497l22.422,0l0,-16.361c0,-18.984 12.167,-35.832 30.191,-41.798l24.796,-8.21l-6.818,45.769c-1.896,12.734 -8.926,24.133 -19.45,31.547l-6.061,4.27l6.061,4.269c10.526,7.414 17.554,18.813 19.45,31.546l6.816,45.768l-24.796,-8.21c-18.022,-5.966 -30.191,-22.813 -30.191,-41.799l0,-16.797l-24.087,0l0,-0.047c-68.843,-1.131 -123.818,-56.647 -123.818,-125.768c-0,-58.826 40.179,-108.267 94.589,-122.394l159.01,-45.391c56.56,-16.145 113.515,26.481 113.515,85.301Zm-195.724,-149.219c-7.059,-0 -12.782,5.721 -12.782,12.782c-0,2.49 0.724,4.805 1.955,6.77l23.247,56.345l-0,-63.324c-0,-7.059 -5.362,-12.573 -12.42,-12.573Zm45.778,29.714c-0,-6.445 -5.225,-11.67 -11.671,-11.67c-6.445,-0 -11.67,5.225 -11.67,11.67c-0,0.063 -0.002,40.276 -0.002,40.276l21.188,-33.535c1.353,-1.906 2.155,-4.228 2.155,-6.741Z" style="fill:#fff;fill-rule:nonzero;"/></g></svg>