<svg viewBox="0 0 512 512" xmlns="http://www.w3.org/2000/svg" xml:space="preserve" style="fill-rule:evenodd;clip-rule:evenodd;stroke-linejoin:round;stroke-miterlimit:2">
  <path d="M440 193v37c0 9-8 16-17 16H314a9 9 0 0 0 0 19h99a15 15 0 0 1 0 30H200c-21 0-39 17-39 38s16 38 37 38h22v-16c0-19 13-36 31-42l24-8-6 46c-2 12-9 24-20 31l-6 5 6 4c11 7 18 19 20 31l6 46-24-8c-18-6-31-23-31-42v-17h-24c-69-1-124-56-124-125 0-59 41-109 95-123l159-45a89 89 0 0 1 114 85ZM244 44a13 13 0 0 0-11 19l23 57V56c0-7-5-12-12-12Zm46 30a12 12 0 0 0-24 0v40l21-34 3-6Z" style="fill:#fff;fill-rule:nonzero"/>
</svg>
