<svg id="visual" viewBox="0 0 960 540" width="960" height="540" xmlns="http://www.w3.org/2000/svg" xmlns:xlink="http://www.w3.org/1999/xlink" version="1.1"><rect x="0" y="0" width="960" height="540" fill="#1B1B1E"></rect><path d="M0 256L17.8 262C35.7 268 71.3 280 106.8 272.3C142.3 264.7 177.7 237.3 213.2 224.5C248.7 211.7 284.3 213.3 320 219.8C355.7 226.3 391.3 237.7 426.8 256.3C462.3 275 497.7 301 533.2 311C568.7 321 604.3 315 640 309.3C675.7 303.7 711.3 298.3 746.8 301C782.3 303.7 817.7 314.3 853.2 317.3C888.7 320.3 924.3 315.7 942.2 313.3L960 311L960 0L942.2 0C924.3 0 888.7 0 853.2 0C817.7 0 782.3 0 746.8 0C711.3 0 675.7 0 640 0C604.3 0 568.7 0 533.2 0C497.7 0 462.3 0 426.8 0C391.3 0 355.7 0 320 0C284.3 0 248.7 0 213.2 0C177.7 0 142.3 0 106.8 0C71.3 0 35.7 0 17.8 0L0 0Z" fill="#212125"></path><path d="M0 193L17.8 197C35.7 201 71.3 209 106.8 203.7C142.3 198.3 177.7 179.7 213.2 184C248.7 188.3 284.3 215.7 320 231.7C355.7 247.7 391.3 252.3 426.8 257.2C462.3 262 497.7 267 533.2 268C568.7 269 604.3 266 640 247.8C675.7 229.7 711.3 196.3 746.8 190.5C782.3 184.7 817.7 206.3 853.2 222.5C888.7 238.7 924.3 249.3 942.2 254.7L960 260L960 0L942.2 0C924.3 0 888.7 0 853.2 0C817.7 0 782.3 0 746.8 0C711.3 0 675.7 0 640 0C604.3 0 568.7 0 533.2 0C497.7 0 462.3 0 426.8 0C391.3 0 355.7 0 320 0C284.3 0 248.7 0 213.2 0C177.7 0 142.3 0 106.8 0C71.3 0 35.7 0 17.8 0L0 0Z" fill="#232d36"></path><path d="M0 197L17.8 188C35.7 179 71.3 161 106.8 162.2C142.3 163.3 177.7 183.7 213.2 178.7C248.7 173.7 284.3 143.3 320 131.5C355.7 119.7 391.3 126.3 426.8 138.5C462.3 150.7 497.7 168.3 533.2 176.2C568.7 184 604.3 182 640 175C675.7 168 711.3 156 746.8 154.7C782.3 153.3 817.7 162.7 853.2 159.2C888.7 155.7 924.3 139.3 942.2 131.2L960 123L960 0L942.2 0C924.3 0 888.7 0 853.2 0C817.7 0 782.3 0 746.8 0C711.3 0 675.7 0 640 0C604.3 0 568.7 0 533.2 0C497.7 0 462.3 0 426.8 0C391.3 0 355.7 0 320 0C284.3 0 248.7 0 213.2 0C177.7 0 142.3 0 106.8 0C71.3 0 35.7 0 17.8 0L0 0Z" fill="#1d3b44"></path><path d="M0 118L17.8 109.8C35.7 101.7 71.3 85.3 106.8 79C142.3 72.7 177.7 76.3 213.2 76C248.7 75.7 284.3 71.3 320 80.3C355.7 89.3 391.3 111.7 426.8 120.2C462.3 128.7 497.7 123.3 533.2 118.3C568.7 113.3 604.3 108.7 640 112.5C675.7 116.3 711.3 128.7 746.8 127.7C782.3 126.7 817.7 112.3 853.2 113.8C888.7 115.3 924.3 132.7 942.2 141.3L960 150L960 0L942.2 0C924.3 0 888.7 0 853.2 0C817.7 0 782.3 0 746.8 0C711.3 0 675.7 0 640 0C604.3 0 568.7 0 533.2 0C497.7 0 462.3 0 426.8 0C391.3 0 355.7 0 320 0C284.3 0 248.7 0 213.2 0C177.7 0 142.3 0 106.8 0C71.3 0 35.7 0 17.8 0L0 0Z" fill="#184949"></path><path d="M0 76L17.8 69C35.7 62 71.3 48 106.8 51.7C142.3 55.3 177.7 76.7 213.2 79.2C248.7 81.7 284.3 65.3 320 56C355.7 46.7 391.3 44.3 426.8 48.2C462.3 52 497.7 62 533.2 59.3C568.7 56.7 604.3 41.3 640 37.5C675.7 33.7 711.3 41.3 746.8 53.5C782.3 65.7 817.7 82.3 853.2 87.3C888.7 92.3 924.3 85.7 942.2 82.3L960 79L960 0L942.2 0C924.3 0 888.7 0 853.2 0C817.7 0 782.3 0 746.8 0C711.3 0 675.7 0 640 0C604.3 0 568.7 0 533.2 0C497.7 0 462.3 0 426.8 0C391.3 0 355.7 0 320 0C284.3 0 248.7 0 213.2 0C177.7 0 142.3 0 106.8 0C71.3 0 35.7 0 17.8 0L0 0Z" fill="#265645"></path></svg>