<svg id="visual" viewBox="0 0 960 540" width="960" height="540" xmlns="http://www.w3.org/2000/svg" xmlns:xlink="http://www.w3.org/1999/xlink" version="1.1"><rect x="0" y="0" width="960" height="540" fill="#1b1b1e"></rect><path d="M0 290L22.8 277.2C45.7 264.3 91.3 238.7 137 241C182.7 243.3 228.3 273.7 274 289.5C319.7 305.3 365.3 306.7 411.2 285.2C457 263.7 503 219.3 548.8 220.8C594.7 222.3 640.3 269.7 686 295C731.7 320.3 777.3 323.7 823 312.8C868.7 302 914.3 277 937.2 264.5L960 252L960 0L937.2 0C914.3 0 868.7 0 823 0C777.3 0 731.7 0 686 0C640.3 0 594.7 0 548.8 0C503 0 457 0 411.2 0C365.3 0 319.7 0 274 0C228.3 0 182.7 0 137 0C91.3 0 45.7 0 22.8 0L0 0Z" fill="#212125"></path><path d="M0 132L22.8 154.3C45.7 176.7 91.3 221.3 137 241.5C182.7 261.7 228.3 257.3 274 234.5C319.7 211.7 365.3 170.3 411.2 158.7C457 147 503 165 548.8 182.2C594.7 199.3 640.3 215.7 686 209.2C731.7 202.7 777.3 173.3 823 165.8C868.7 158.3 914.3 172.7 937.2 179.8L960 187L960 0L937.2 0C914.3 0 868.7 0 823 0C777.3 0 731.7 0 686 0C640.3 0 594.7 0 548.8 0C503 0 457 0 411.2 0C365.3 0 319.7 0 274 0C228.3 0 182.7 0 137 0C91.3 0 45.7 0 22.8 0L0 0Z" fill="#2a2b3c"></path><path d="M0 104L22.8 108.5C45.7 113 91.3 122 137 124.2C182.7 126.3 228.3 121.7 274 134.3C319.7 147 365.3 177 411.2 181.3C457 185.7 503 164.3 548.8 158.7C594.7 153 640.3 163 686 166.8C731.7 170.7 777.3 168.3 823 155C868.7 141.7 914.3 117.3 937.2 105.2L960 93L960 0L937.2 0C914.3 0 868.7 0 823 0C777.3 0 731.7 0 686 0C640.3 0 594.7 0 548.8 0C503 0 457 0 411.2 0C365.3 0 319.7 0 274 0C228.3 0 182.7 0 137 0C91.3 0 45.7 0 22.8 0L0 0Z" fill="#313654"></path><path d="M0 90L22.8 96.2C45.7 102.3 91.3 114.7 137 125.8C182.7 137 228.3 147 274 136.7C319.7 126.3 365.3 95.7 411.2 92.3C457 89 503 113 548.8 120.8C594.7 128.7 640.3 120.3 686 112.8C731.7 105.3 777.3 98.7 823 103.2C868.7 107.7 914.3 123.3 937.2 131.2L960 139L960 0L937.2 0C914.3 0 868.7 0 823 0C777.3 0 731.7 0 686 0C640.3 0 594.7 0 548.8 0C503 0 457 0 411.2 0C365.3 0 319.7 0 274 0C228.3 0 182.7 0 137 0C91.3 0 45.7 0 22.8 0L0 0Z" fill="#37416d"></path><path d="M0 92L22.8 89C45.7 86 91.3 80 137 70C182.7 60 228.3 46 274 49.5C319.7 53 365.3 74 411.2 84C457 94 503 93 548.8 88.7C594.7 84.3 640.3 76.7 686 78.3C731.7 80 777.3 91 823 85.2C868.7 79.3 914.3 56.7 937.2 45.3L960 34L960 0L937.2 0C914.3 0 868.7 0 823 0C777.3 0 731.7 0 686 0C640.3 0 594.7 0 548.8 0C503 0 457 0 411.2 0C365.3 0 319.7 0 274 0C228.3 0 182.7 0 137 0C91.3 0 45.7 0 22.8 0L0 0Z" fill="#3c4c87"></path></svg>