<svg id="visual" viewBox="0 0 960 540" width="960" height="540" xmlns="http://www.w3.org/2000/svg" xmlns:xlink="http://www.w3.org/1999/xlink" version="1.1"><rect x="0" y="0" width="960" height="540" fill="#1B1B1E"></rect><path d="M0 299L17.8 286C35.7 273 71.3 247 106.8 242.3C142.3 237.7 177.7 254.3 213.2 248.7C248.7 243 284.3 215 320 207.8C355.7 200.7 391.3 214.3 426.8 232.5C462.3 250.7 497.7 273.3 533.2 288.3C568.7 303.3 604.3 310.7 640 313.7C675.7 316.7 711.3 315.3 746.8 316.3C782.3 317.3 817.7 320.7 853.2 315.3C888.7 310 924.3 296 942.2 289L960 282L960 0L942.2 0C924.3 0 888.7 0 853.2 0C817.7 0 782.3 0 746.8 0C711.3 0 675.7 0 640 0C604.3 0 568.7 0 533.2 0C497.7 0 462.3 0 426.8 0C391.3 0 355.7 0 320 0C284.3 0 248.7 0 213.2 0C177.7 0 142.3 0 106.8 0C71.3 0 35.7 0 17.8 0L0 0Z" fill="#212125"></path><path d="M0 163L17.8 161.5C35.7 160 71.3 157 106.8 163C142.3 169 177.7 184 213.2 200.7C248.7 217.3 284.3 235.7 320 244.5C355.7 253.3 391.3 252.7 426.8 254.7C462.3 256.7 497.7 261.3 533.2 242.8C568.7 224.3 604.3 182.7 640 180.3C675.7 178 711.3 215 746.8 215.8C782.3 216.7 817.7 181.3 853.2 175.7C888.7 170 924.3 194 942.2 206L960 218L960 0L942.2 0C924.3 0 888.7 0 853.2 0C817.7 0 782.3 0 746.8 0C711.3 0 675.7 0 640 0C604.3 0 568.7 0 533.2 0C497.7 0 462.3 0 426.8 0C391.3 0 355.7 0 320 0C284.3 0 248.7 0 213.2 0C177.7 0 142.3 0 106.8 0C71.3 0 35.7 0 17.8 0L0 0Z" fill="#2e333b"></path><path d="M0 131L17.8 134.2C35.7 137.3 71.3 143.7 106.8 151C142.3 158.3 177.7 166.7 213.2 172C248.7 177.3 284.3 179.7 320 168.7C355.7 157.7 391.3 133.3 426.8 124.8C462.3 116.3 497.7 123.7 533.2 122.7C568.7 121.7 604.3 112.3 640 123.8C675.7 135.3 711.3 167.7 746.8 175.7C782.3 183.7 817.7 167.3 853.2 152.7C888.7 138 924.3 125 942.2 118.5L960 112L960 0L942.2 0C924.3 0 888.7 0 853.2 0C817.7 0 782.3 0 746.8 0C711.3 0 675.7 0 640 0C604.3 0 568.7 0 533.2 0C497.7 0 462.3 0 426.8 0C391.3 0 355.7 0 320 0C284.3 0 248.7 0 213.2 0C177.7 0 142.3 0 106.8 0C71.3 0 35.7 0 17.8 0L0 0Z" fill="#374652"></path><path d="M0 143L17.8 132.2C35.7 121.3 71.3 99.7 106.8 101.3C142.3 103 177.7 128 213.2 130.5C248.7 133 284.3 113 320 111.2C355.7 109.3 391.3 125.7 426.8 132.5C462.3 139.3 497.7 136.7 533.2 124.7C568.7 112.7 604.3 91.3 640 84.2C675.7 77 711.3 84 746.8 90.5C782.3 97 817.7 103 853.2 104.5C888.7 106 924.3 103 942.2 101.5L960 100L960 0L942.2 0C924.3 0 888.7 0 853.2 0C817.7 0 782.3 0 746.8 0C711.3 0 675.7 0 640 0C604.3 0 568.7 0 533.2 0C497.7 0 462.3 0 426.8 0C391.3 0 355.7 0 320 0C284.3 0 248.7 0 213.2 0C177.7 0 142.3 0 106.8 0C71.3 0 35.7 0 17.8 0L0 0Z" fill="#3e5b67"></path><path d="M0 44L17.8 52C35.7 60 71.3 76 106.8 75.7C142.3 75.3 177.7 58.7 213.2 56.3C248.7 54 284.3 66 320 66.7C355.7 67.3 391.3 56.7 426.8 58.2C462.3 59.7 497.7 73.3 533.2 80.2C568.7 87 604.3 87 640 80.2C675.7 73.3 711.3 59.7 746.8 50.5C782.3 41.3 817.7 36.7 853.2 42.2C888.7 47.7 924.3 63.3 942.2 71.2L960 79L960 0L942.2 0C924.3 0 888.7 0 853.2 0C817.7 0 782.3 0 746.8 0C711.3 0 675.7 0 640 0C604.3 0 568.7 0 533.2 0C497.7 0 462.3 0 426.8 0C391.3 0 355.7 0 320 0C284.3 0 248.7 0 213.2 0C177.7 0 142.3 0 106.8 0C71.3 0 35.7 0 17.8 0L0 0Z" fill="#457179"></path></svg>