<svg id="visual" viewBox="0 0 960 540" width="960" height="540" xmlns="http://www.w3.org/2000/svg" xmlns:xlink="http://www.w3.org/1999/xlink" version="1.1"><rect x="0" y="0" width="960" height="540" fill="#271A3C"></rect><path d="M0 247L20 248.8C40 250.7 80 254.3 120 245.8C160 237.3 200 216.7 240 213.2C280 209.7 320 223.3 360 247.2C400 271 440 305 480 304.3C520 303.7 560 268.3 600 263.2C640 258 680 283 720 285.2C760 287.3 800 266.7 840 262.8C880 259 920 272 940 278.5L960 285L960 0L940 0C920 0 880 0 840 0C800 0 760 0 720 0C680 0 640 0 600 0C560 0 520 0 480 0C440 0 400 0 360 0C320 0 280 0 240 0C200 0 160 0 120 0C80 0 40 0 20 0L0 0Z" fill="#332244"></path><path d="M0 176L20 173C40 170 80 164 120 179.5C160 195 200 232 240 241.8C280 251.7 320 234.3 360 219.3C400 204.3 440 191.7 480 200.8C520 210 560 241 600 243.8C640 246.7 680 221.3 720 211.8C760 202.3 800 208.7 840 221.5C880 234.3 920 253.7 940 263.3L960 273L960 0L940 0C920 0 880 0 840 0C800 0 760 0 720 0C680 0 640 0 600 0C560 0 520 0 480 0C440 0 400 0 360 0C320 0 280 0 240 0C200 0 160 0 120 0C80 0 40 0 20 0L0 0Z" fill="#4f2a4d"></path><path d="M0 214L20 201C40 188 80 162 120 147.5C160 133 200 130 240 138.3C280 146.7 320 166.3 360 164.3C400 162.3 440 138.7 480 141.8C520 145 560 175 600 174.5C640 174 680 143 720 131.8C760 120.7 800 129.3 840 142.5C880 155.7 920 173.3 940 182.2L960 191L960 0L940 0C920 0 880 0 840 0C800 0 760 0 720 0C680 0 640 0 600 0C560 0 520 0 480 0C440 0 400 0 360 0C320 0 280 0 240 0C200 0 160 0 120 0C80 0 40 0 20 0L0 0Z" fill="#6b3353"></path><path d="M0 158L20 144.8C40 131.7 80 105.3 120 101C160 96.7 200 114.3 240 128.7C280 143 320 154 360 157.2C400 160.3 440 155.7 480 147C520 138.3 560 125.7 600 117.3C640 109 680 105 720 103C760 101 800 101 840 100.7C880 100.3 920 99.7 940 99.3L960 99L960 0L940 0C920 0 880 0 840 0C800 0 760 0 720 0C680 0 640 0 600 0C560 0 520 0 480 0C440 0 400 0 360 0C320 0 280 0 240 0C200 0 160 0 120 0C80 0 40 0 20 0L0 0Z" fill="#853e55"></path><path d="M0 90L20 81.7C40 73.3 80 56.7 120 50.5C160 44.3 200 48.7 240 50.3C280 52 320 51 360 54.5C400 58 440 66 480 73.3C520 80.7 560 87.3 600 88.2C640 89 680 84 720 74C760 64 800 49 840 44C880 39 920 44 940 46.5L960 49L960 0L940 0C920 0 880 0 840 0C800 0 760 0 720 0C680 0 640 0 600 0C560 0 520 0 480 0C440 0 400 0 360 0C320 0 280 0 240 0C200 0 160 0 120 0C80 0 40 0 20 0L0 0Z" fill="#9c4d54"></path></svg>