<svg id="visual" viewBox="0 0 960 540" width="960" height="540" xmlns="http://www.w3.org/2000/svg" xmlns:xlink="http://www.w3.org/1999/xlink" version="1.1"><rect x="0" y="0" width="960" height="540" fill="#041F1E"></rect><path d="M0 329L22.8 320.2C45.7 311.3 91.3 293.7 137 282.2C182.7 270.7 228.3 265.3 274 248.5C319.7 231.7 365.3 203.3 411.2 191.2C457 179 503 183 548.8 195.3C594.7 207.7 640.3 228.3 686 238C731.7 247.7 777.3 246.3 823 237.7C868.7 229 914.3 213 937.2 205L960 197L960 0L937.2 0C914.3 0 868.7 0 823 0C777.3 0 731.7 0 686 0C640.3 0 594.7 0 548.8 0C503 0 457 0 411.2 0C365.3 0 319.7 0 274 0C228.3 0 182.7 0 137 0C91.3 0 45.7 0 22.8 0L0 0Z" fill="#0b2323"></path><path d="M0 200L22.8 202.5C45.7 205 91.3 210 137 206.2C182.7 202.3 228.3 189.7 274 191.8C319.7 194 365.3 211 411.2 222C457 233 503 238 548.8 232.3C594.7 226.7 640.3 210.3 686 193.5C731.7 176.7 777.3 159.3 823 156.3C868.7 153.3 914.3 164.7 937.2 170.3L960 176L960 0L937.2 0C914.3 0 868.7 0 823 0C777.3 0 731.7 0 686 0C640.3 0 594.7 0 548.8 0C503 0 457 0 411.2 0C365.3 0 319.7 0 274 0C228.3 0 182.7 0 137 0C91.3 0 45.7 0 22.8 0L0 0Z" fill="#1d3e3d"></path><path d="M0 185L22.8 186.7C45.7 188.3 91.3 191.7 137 183.5C182.7 175.3 228.3 155.7 274 140.5C319.7 125.3 365.3 114.7 411.2 114.3C457 114 503 124 548.8 127.5C594.7 131 640.3 128 686 127.7C731.7 127.3 777.3 129.7 823 140.2C868.7 150.7 914.3 169.3 937.2 178.7L960 188L960 0L937.2 0C914.3 0 868.7 0 823 0C777.3 0 731.7 0 686 0C640.3 0 594.7 0 548.8 0C503 0 457 0 411.2 0C365.3 0 319.7 0 274 0C228.3 0 182.7 0 137 0C91.3 0 45.7 0 22.8 0L0 0Z" fill="#315c57"></path><path d="M0 160L22.8 146.2C45.7 132.3 91.3 104.7 137 87.2C182.7 69.7 228.3 62.3 274 72.3C319.7 82.3 365.3 109.7 411.2 115.2C457 120.7 503 104.3 548.8 102.7C594.7 101 640.3 114 686 117.8C731.7 121.7 777.3 116.3 823 111.8C868.7 107.3 914.3 103.7 937.2 101.8L960 100L960 0L937.2 0C914.3 0 868.7 0 823 0C777.3 0 731.7 0 686 0C640.3 0 594.7 0 548.8 0C503 0 457 0 411.2 0C365.3 0 319.7 0 274 0C228.3 0 182.7 0 137 0C91.3 0 45.7 0 22.8 0L0 0Z" fill="#477b72"></path><path d="M0 22L22.8 31.7C45.7 41.3 91.3 60.7 137 67.2C182.7 73.7 228.3 67.3 274 67.3C319.7 67.3 365.3 73.7 411.2 74.7C457 75.7 503 71.3 548.8 68C594.7 64.7 640.3 62.3 686 61.7C731.7 61 777.3 62 823 57.5C868.7 53 914.3 43 937.2 38L960 33L960 0L937.2 0C914.3 0 868.7 0 823 0C777.3 0 731.7 0 686 0C640.3 0 594.7 0 548.8 0C503 0 457 0 411.2 0C365.3 0 319.7 0 274 0C228.3 0 182.7 0 137 0C91.3 0 45.7 0 22.8 0L0 0Z" fill="#5f9b8d"></path></svg>