<svg id="visual" viewBox="0 0 960 540" width="960" height="540" xmlns="http://www.w3.org/2000/svg" xmlns:xlink="http://www.w3.org/1999/xlink" version="1.1"><rect x="0" y="0" width="960" height="540" fill="#EAEAEA"></rect><path d="M0 242L20 245.2C40 248.3 80 254.7 120 255.7C160 256.7 200 252.3 240 238C280 223.7 320 199.3 360 186.7C400 174 440 173 480 183.5C520 194 560 216 600 231C640 246 680 254 720 256.2C760 258.3 800 254.7 840 254.8C880 255 920 259 940 261L960 263L960 0L940 0C920 0 880 0 840 0C800 0 760 0 720 0C680 0 640 0 600 0C560 0 520 0 480 0C440 0 400 0 360 0C320 0 280 0 240 0C200 0 160 0 120 0C80 0 40 0 20 0L0 0Z" fill="#c2c2c2"></path><path d="M0 226L20 207.5C40 189 80 152 120 134.3C160 116.7 200 118.3 240 130.2C280 142 320 164 360 163.2C400 162.3 440 138.7 480 125.3C520 112 560 109 600 117.8C640 126.7 680 147.3 720 149.7C760 152 800 136 840 129.2C880 122.3 920 124.7 940 125.8L960 127L960 0L940 0C920 0 880 0 840 0C800 0 760 0 720 0C680 0 640 0 600 0C560 0 520 0 480 0C440 0 400 0 360 0C320 0 280 0 240 0C200 0 160 0 120 0C80 0 40 0 20 0L0 0Z" fill="#bababa"></path><path d="M0 92L20 106C40 120 80 148 120 160.5C160 173 200 170 240 156C280 142 320 117 360 108.8C400 100.7 440 109.3 480 121.7C520 134 560 150 600 147.5C640 145 680 124 720 119.8C760 115.7 800 128.3 840 138C880 147.7 920 154.3 940 157.7L960 161L960 0L940 0C920 0 880 0 840 0C800 0 760 0 720 0C680 0 640 0 600 0C560 0 520 0 480 0C440 0 400 0 360 0C320 0 280 0 240 0C200 0 160 0 120 0C80 0 40 0 20 0L0 0Z" fill="#b2b2b2"></path><path d="M0 78L20 74.7C40 71.3 80 64.7 120 60.8C160 57 200 56 240 60.8C280 65.7 320 76.3 360 80.8C400 85.3 440 83.7 480 90C520 96.3 560 110.7 600 113C640 115.3 680 105.7 720 98C760 90.3 800 84.7 840 80.2C880 75.7 920 72.3 940 70.7L960 69L960 0L940 0C920 0 880 0 840 0C800 0 760 0 720 0C680 0 640 0 600 0C560 0 520 0 480 0C440 0 400 0 360 0C320 0 280 0 240 0C200 0 160 0 120 0C80 0 40 0 20 0L0 0Z" fill="#aaaaaa"></path><path d="M0 72L20 71.8C40 71.7 80 71.3 120 66.5C160 61.7 200 52.3 240 52.2C280 52 320 61 360 59.3C400 57.7 440 45.3 480 37.8C520 30.3 560 27.7 600 35C640 42.3 680 59.7 720 66.8C760 74 800 71 840 64C880 57 920 46 940 40.5L960 35L960 0L940 0C920 0 880 0 840 0C800 0 760 0 720 0C680 0 640 0 600 0C560 0 520 0 480 0C440 0 400 0 360 0C320 0 280 0 240 0C200 0 160 0 120 0C80 0 40 0 20 0L0 0Z" fill="#a3a3a3"></path></svg>