<svg id="visual" viewBox="0 0 960 540" width="960" height="540" xmlns="http://www.w3.org/2000/svg" xmlns:xlink="http://www.w3.org/1999/xlink" version="1.1"><rect x="0" y="0" width="960" height="540" fill="#1B1B1E"></rect><path d="M0 208L16 219.7C32 231.3 64 254.7 96 257.3C128 260 160 242 192 228.5C224 215 256 206 288 200.3C320 194.7 352 192.3 384 192C416 191.7 448 193.3 480 188.8C512 184.3 544 173.7 576 182.5C608 191.3 640 219.7 672 226.2C704 232.7 736 217.3 768 222.8C800 228.3 832 254.7 864 250.7C896 246.7 928 212.3 944 195.2L960 178L960 0L944 0C928 0 896 0 864 0C832 0 800 0 768 0C736 0 704 0 672 0C640 0 608 0 576 0C544 0 512 0 480 0C448 0 416 0 384 0C352 0 320 0 288 0C256 0 224 0 192 0C160 0 128 0 96 0C64 0 32 0 16 0L0 0Z" fill="#252529"></path><path d="M0 134L16 147.3C32 160.7 64 187.3 96 195.8C128 204.3 160 194.7 192 187.7C224 180.7 256 176.3 288 184.2C320 192 352 212 384 218.2C416 224.3 448 216.7 480 206C512 195.3 544 181.7 576 170C608 158.3 640 148.7 672 143.2C704 137.7 736 136.3 768 141.8C800 147.3 832 159.7 864 159.5C896 159.3 928 146.7 944 140.3L960 134L960 0L944 0C928 0 896 0 864 0C832 0 800 0 768 0C736 0 704 0 672 0C640 0 608 0 576 0C544 0 512 0 480 0C448 0 416 0 384 0C352 0 320 0 288 0C256 0 224 0 192 0C160 0 128 0 96 0C64 0 32 0 16 0L0 0Z" fill="#3d404b"></path><path d="M0 190L16 185.7C32 181.3 64 172.7 96 171.2C128 169.7 160 175.3 192 169.5C224 163.7 256 146.3 288 133.3C320 120.3 352 111.7 384 106.2C416 100.7 448 98.3 480 106C512 113.7 544 131.3 576 137.7C608 144 640 139 672 130.3C704 121.7 736 109.3 768 101.5C800 93.7 832 90.3 864 95.3C896 100.3 928 113.7 944 120.3L960 127L960 0L944 0C928 0 896 0 864 0C832 0 800 0 768 0C736 0 704 0 672 0C640 0 608 0 576 0C544 0 512 0 480 0C448 0 416 0 384 0C352 0 320 0 288 0C256 0 224 0 192 0C160 0 128 0 96 0C64 0 32 0 16 0L0 0Z" fill="#535e6f"></path><path d="M0 107L16 108C32 109 64 111 96 108.5C128 106 160 99 192 98.2C224 97.3 256 102.7 288 100.8C320 99 352 90 384 95C416 100 448 119 480 119.3C512 119.7 544 101.3 576 95.3C608 89.3 640 95.7 672 98.3C704 101 736 100 768 103.8C800 107.7 832 116.3 864 120.3C896 124.3 928 123.7 944 123.3L960 123L960 0L944 0C928 0 896 0 864 0C832 0 800 0 768 0C736 0 704 0 672 0C640 0 608 0 576 0C544 0 512 0 480 0C448 0 416 0 384 0C352 0 320 0 288 0C256 0 224 0 192 0C160 0 128 0 96 0C64 0 32 0 16 0L0 0Z" fill="#677e95"></path><path d="M0 33L16 36.5C32 40 64 47 96 50.5C128 54 160 54 192 53C224 52 256 50 288 48.3C320 46.7 352 45.3 384 42.5C416 39.7 448 35.3 480 40.7C512 46 544 61 576 59.8C608 58.7 640 41.3 672 38.7C704 36 736 48 768 51C800 54 832 48 864 47.5C896 47 928 52 944 54.5L960 57L960 0L944 0C928 0 896 0 864 0C832 0 800 0 768 0C736 0 704 0 672 0C640 0 608 0 576 0C544 0 512 0 480 0C448 0 416 0 384 0C352 0 320 0 288 0C256 0 224 0 192 0C160 0 128 0 96 0C64 0 32 0 16 0L0 0Z" fill="#78a1bb"></path></svg>