<svg id="visual" viewBox="0 0 960 540" width="960" height="540" xmlns="http://www.w3.org/2000/svg" xmlns:xlink="http://www.w3.org/1999/xlink" version="1.1"><rect x="0" y="0" width="960" height="540" fill="#1B1B1E"></rect><path d="M0 209L17.8 218.3C35.7 227.7 71.3 246.3 106.8 258.3C142.3 270.3 177.7 275.7 213.2 285.2C248.7 294.7 284.3 308.3 320 309.2C355.7 310 391.3 298 426.8 277.2C462.3 256.3 497.7 226.7 533.2 209.2C568.7 191.7 604.3 186.3 640 192.5C675.7 198.7 711.3 216.3 746.8 218.8C782.3 221.3 817.7 208.7 853.2 205C888.7 201.3 924.3 206.7 942.2 209.3L960 212L960 0L942.2 0C924.3 0 888.7 0 853.2 0C817.7 0 782.3 0 746.8 0C711.3 0 675.7 0 640 0C604.3 0 568.7 0 533.2 0C497.7 0 462.3 0 426.8 0C391.3 0 355.7 0 320 0C284.3 0 248.7 0 213.2 0C177.7 0 142.3 0 106.8 0C71.3 0 35.7 0 17.8 0L0 0Z" fill="#212125"></path><path d="M0 185L17.8 183.8C35.7 182.7 71.3 180.3 106.8 180.7C142.3 181 177.7 184 213.2 188C248.7 192 284.3 197 320 208C355.7 219 391.3 236 426.8 229.2C462.3 222.3 497.7 191.7 533.2 184.8C568.7 178 604.3 195 640 194.7C675.7 194.3 711.3 176.7 746.8 173.7C782.3 170.7 817.7 182.3 853.2 186.8C888.7 191.3 924.3 188.7 942.2 187.3L960 186L960 0L942.2 0C924.3 0 888.7 0 853.2 0C817.7 0 782.3 0 746.8 0C711.3 0 675.7 0 640 0C604.3 0 568.7 0 533.2 0C497.7 0 462.3 0 426.8 0C391.3 0 355.7 0 320 0C284.3 0 248.7 0 213.2 0C177.7 0 142.3 0 106.8 0C71.3 0 35.7 0 17.8 0L0 0Z" fill="#352d3b"></path><path d="M0 171L17.8 169.2C35.7 167.3 71.3 163.7 106.8 166.2C142.3 168.7 177.7 177.3 213.2 173.3C248.7 169.3 284.3 152.7 320 139.8C355.7 127 391.3 118 426.8 114.7C462.3 111.3 497.7 113.7 533.2 121.2C568.7 128.7 604.3 141.3 640 155.5C675.7 169.7 711.3 185.3 746.8 182.2C782.3 179 817.7 157 853.2 154C888.7 151 924.3 167 942.2 175L960 183L960 0L942.2 0C924.3 0 888.7 0 853.2 0C817.7 0 782.3 0 746.8 0C711.3 0 675.7 0 640 0C604.3 0 568.7 0 533.2 0C497.7 0 462.3 0 426.8 0C391.3 0 355.7 0 320 0C284.3 0 248.7 0 213.2 0C177.7 0 142.3 0 106.8 0C71.3 0 35.7 0 17.8 0L0 0Z" fill="#51384b"></path><path d="M0 114L17.8 116C35.7 118 71.3 122 106.8 128C142.3 134 177.7 142 213.2 139C248.7 136 284.3 122 320 116C355.7 110 391.3 112 426.8 107.7C462.3 103.3 497.7 92.7 533.2 87.8C568.7 83 604.3 84 640 80.7C675.7 77.3 711.3 69.7 746.8 79.2C782.3 88.7 817.7 115.3 853.2 120.2C888.7 125 924.3 108 942.2 99.5L960 91L960 0L942.2 0C924.3 0 888.7 0 853.2 0C817.7 0 782.3 0 746.8 0C711.3 0 675.7 0 640 0C604.3 0 568.7 0 533.2 0C497.7 0 462.3 0 426.8 0C391.3 0 355.7 0 320 0C284.3 0 248.7 0 213.2 0C177.7 0 142.3 0 106.8 0C71.3 0 35.7 0 17.8 0L0 0Z" fill="#714254"></path><path d="M0 91L17.8 82C35.7 73 71.3 55 106.8 47.3C142.3 39.7 177.7 42.3 213.2 41.2C248.7 40 284.3 35 320 43.2C355.7 51.3 391.3 72.7 426.8 73.3C462.3 74 497.7 54 533.2 52.5C568.7 51 604.3 68 640 75.2C675.7 82.3 711.3 79.7 746.8 76.2C782.3 72.7 817.7 68.3 853.2 69.8C888.7 71.3 924.3 78.7 942.2 82.3L960 86L960 0L942.2 0C924.3 0 888.7 0 853.2 0C817.7 0 782.3 0 746.8 0C711.3 0 675.7 0 640 0C604.3 0 568.7 0 533.2 0C497.7 0 462.3 0 426.8 0C391.3 0 355.7 0 320 0C284.3 0 248.7 0 213.2 0C177.7 0 142.3 0 106.8 0C71.3 0 35.7 0 17.8 0L0 0Z" fill="#904e55"></path></svg>